G04 #@! TF.GenerationSoftware,KiCad,Pcbnew,(5.0.1-3-g963ef8bb5)*
G04 #@! TF.CreationDate,2019-01-22T14:46:53-08:00*
G04 #@! TF.ProjectId,inverter,696E7665727465722E6B696361645F70,rev?*
G04 #@! TF.SameCoordinates,Original*
G04 #@! TF.FileFunction,Copper,L2,Bot,Signal*
G04 #@! TF.FilePolarity,Positive*
%FSLAX46Y46*%
G04 Gerber Fmt 4.6, Leading zero omitted, Abs format (unit mm)*
G04 Created by KiCad (PCBNEW (5.0.1-3-g963ef8bb5)) date Tuesday, January 22, 2019 at 02:46:53 PM*
%MOMM*%
%LPD*%
G01*
G04 APERTURE LIST*
G04 #@! TA.AperFunction,ComponentPad*
%ADD10C,2.400000*%
G04 #@! TD*
G04 #@! TA.AperFunction,ComponentPad*
%ADD11R,2.500000X4.500000*%
G04 #@! TD*
G04 #@! TA.AperFunction,ComponentPad*
%ADD12O,2.500000X4.500000*%
G04 #@! TD*
G04 #@! TA.AperFunction,ComponentPad*
%ADD13C,3.500000*%
G04 #@! TD*
G04 #@! TA.AperFunction,ComponentPad*
%ADD14R,1.700000X1.700000*%
G04 #@! TD*
G04 #@! TA.AperFunction,ComponentPad*
%ADD15O,1.700000X1.700000*%
G04 #@! TD*
G04 #@! TA.AperFunction,ComponentPad*
%ADD16C,0.800000*%
G04 #@! TD*
G04 #@! TA.AperFunction,ComponentPad*
%ADD17C,8.000000*%
G04 #@! TD*
G04 #@! TA.AperFunction,ViaPad*
%ADD18C,0.850000*%
G04 #@! TD*
G04 #@! TA.AperFunction,Conductor*
%ADD19C,0.254000*%
G04 #@! TD*
G04 #@! TA.AperFunction,Conductor*
%ADD20C,0.200000*%
G04 #@! TD*
G04 APERTURE END LIST*
D10*
G04 #@! TO.P,C4,1*
G04 #@! TO.N,/VIN+*
X179500000Y-62000000D03*
G04 #@! TO.P,C4,2*
G04 #@! TO.N,/VIN-*
X179500000Y-89500000D03*
G04 #@! TD*
G04 #@! TO.P,C2,1*
G04 #@! TO.N,/VIN+*
X139500000Y-62000000D03*
G04 #@! TO.P,C2,2*
G04 #@! TO.N,/VIN-*
X139500000Y-89500000D03*
G04 #@! TD*
D11*
G04 #@! TO.P,Q1,1*
G04 #@! TO.N,Net-(D1-Pad2)*
X115050000Y-55000000D03*
D12*
G04 #@! TO.P,Q1,2*
G04 #@! TO.N,/VIN+*
X120500000Y-55000000D03*
G04 #@! TO.P,Q1,3*
G04 #@! TO.N,/VSW+*
X125950000Y-55000000D03*
G04 #@! TD*
G04 #@! TO.P,Q2,3*
G04 #@! TO.N,/VIN-*
X115050000Y-97500000D03*
G04 #@! TO.P,Q2,2*
G04 #@! TO.N,/VSW+*
X120500000Y-97500000D03*
D11*
G04 #@! TO.P,Q2,1*
G04 #@! TO.N,Net-(D2-Pad2)*
X125950000Y-97500000D03*
G04 #@! TD*
D12*
G04 #@! TO.P,Q3,3*
G04 #@! TO.N,/VSW+*
X145950000Y-55000000D03*
G04 #@! TO.P,Q3,2*
G04 #@! TO.N,/VIN+*
X140500000Y-55000000D03*
D11*
G04 #@! TO.P,Q3,1*
G04 #@! TO.N,Net-(D3-Pad2)*
X135050000Y-55000000D03*
G04 #@! TD*
G04 #@! TO.P,Q4,1*
G04 #@! TO.N,Net-(D4-Pad2)*
X145950000Y-97500000D03*
D12*
G04 #@! TO.P,Q4,2*
G04 #@! TO.N,/VSW+*
X140500000Y-97500000D03*
G04 #@! TO.P,Q4,3*
G04 #@! TO.N,/VIN-*
X135050000Y-97500000D03*
G04 #@! TD*
D10*
G04 #@! TO.P,C1,2*
G04 #@! TO.N,/VIN-*
X119500000Y-89500000D03*
G04 #@! TO.P,C1,1*
G04 #@! TO.N,/VIN+*
X119500000Y-62000000D03*
G04 #@! TD*
G04 #@! TO.P,C3,2*
G04 #@! TO.N,/VIN-*
X159500000Y-89500000D03*
G04 #@! TO.P,C3,1*
G04 #@! TO.N,/VIN+*
X159500000Y-62000000D03*
G04 #@! TD*
D12*
G04 #@! TO.P,Q5,3*
G04 #@! TO.N,/VSW-*
X165950000Y-55000000D03*
G04 #@! TO.P,Q5,2*
G04 #@! TO.N,/VIN+*
X160500000Y-55000000D03*
D11*
G04 #@! TO.P,Q5,1*
G04 #@! TO.N,Net-(D5-Pad2)*
X155050000Y-55000000D03*
G04 #@! TD*
D12*
G04 #@! TO.P,Q6,3*
G04 #@! TO.N,/VIN-*
X155050000Y-97500000D03*
G04 #@! TO.P,Q6,2*
G04 #@! TO.N,/VSW-*
X160500000Y-97500000D03*
D11*
G04 #@! TO.P,Q6,1*
G04 #@! TO.N,Net-(D6-Pad2)*
X165950000Y-97500000D03*
G04 #@! TD*
G04 #@! TO.P,Q7,1*
G04 #@! TO.N,Net-(D7-Pad2)*
X175050000Y-55000000D03*
D12*
G04 #@! TO.P,Q7,2*
G04 #@! TO.N,/VIN+*
X180500000Y-55000000D03*
G04 #@! TO.P,Q7,3*
G04 #@! TO.N,/VSW-*
X185950000Y-55000000D03*
G04 #@! TD*
D11*
G04 #@! TO.P,Q8,1*
G04 #@! TO.N,Net-(D8-Pad2)*
X185950000Y-97500000D03*
D12*
G04 #@! TO.P,Q8,2*
G04 #@! TO.N,/VSW-*
X180500000Y-97500000D03*
G04 #@! TO.P,Q8,3*
G04 #@! TO.N,/VIN-*
X175050000Y-97500000D03*
G04 #@! TD*
D13*
G04 #@! TO.P,J1,1*
G04 #@! TO.N,/VIN+*
X108000000Y-71755000D03*
X103000000Y-71755000D03*
X103000000Y-64745000D03*
X108000000Y-64745000D03*
G04 #@! TD*
G04 #@! TO.P,J2,1*
G04 #@! TO.N,/VIN-*
X108000000Y-80745000D03*
X103000000Y-80745000D03*
X103000000Y-87755000D03*
X108000000Y-87755000D03*
G04 #@! TD*
G04 #@! TO.P,J3,1*
G04 #@! TO.N,/VSW+*
X198000000Y-71755000D03*
X193000000Y-71755000D03*
X193000000Y-64745000D03*
X198000000Y-64745000D03*
G04 #@! TD*
G04 #@! TO.P,J4,1*
G04 #@! TO.N,/VSW-*
X198000000Y-80745000D03*
X193000000Y-80745000D03*
X193000000Y-87755000D03*
X198000000Y-87755000D03*
G04 #@! TD*
D14*
G04 #@! TO.P,J5,1*
G04 #@! TO.N,/A*
X129500000Y-47500000D03*
D15*
G04 #@! TO.P,J5,2*
G04 #@! TO.N,/B*
X129500000Y-50040000D03*
G04 #@! TD*
G04 #@! TO.P,J6,2*
G04 #@! TO.N,/D*
X131250000Y-102500000D03*
D14*
G04 #@! TO.P,J6,1*
G04 #@! TO.N,/C*
X131250000Y-105040000D03*
G04 #@! TD*
G04 #@! TO.P,J7,1*
G04 #@! TO.N,/E*
X169500000Y-47500000D03*
D15*
G04 #@! TO.P,J7,2*
G04 #@! TO.N,/F*
X169500000Y-50040000D03*
G04 #@! TD*
G04 #@! TO.P,J8,2*
G04 #@! TO.N,/H*
X171250000Y-102500000D03*
D14*
G04 #@! TO.P,J8,1*
G04 #@! TO.N,/G*
X171250000Y-105040000D03*
G04 #@! TD*
D16*
G04 #@! TO.P,J1005,1*
G04 #@! TO.N,/VSW+*
X197500000Y-60500000D03*
X193500000Y-56500000D03*
X193500000Y-60500000D03*
X195500000Y-61500000D03*
X192500000Y-58500000D03*
X195500000Y-56000000D03*
X197500000Y-56500000D03*
X198500000Y-58500000D03*
D17*
X195500000Y-58500000D03*
G04 #@! TD*
G04 #@! TO.P,J1006,1*
G04 #@! TO.N,/VSW-*
X195500000Y-94000000D03*
D16*
X198500000Y-94000000D03*
X197500000Y-92000000D03*
X195500000Y-91500000D03*
X192500000Y-94000000D03*
X195500000Y-97000000D03*
X193500000Y-96000000D03*
X193500000Y-92000000D03*
X197500000Y-96000000D03*
G04 #@! TD*
G04 #@! TO.P,J1007,1*
G04 #@! TO.N,/VIN+*
X107500000Y-60500000D03*
X103500000Y-56500000D03*
X103500000Y-60500000D03*
X105500000Y-61500000D03*
X102500000Y-58500000D03*
X105500000Y-56000000D03*
X107500000Y-56500000D03*
X108500000Y-58500000D03*
D17*
X105500000Y-58500000D03*
G04 #@! TD*
G04 #@! TO.P,J1008,1*
G04 #@! TO.N,/VIN-*
X105500000Y-94000000D03*
D16*
X108500000Y-94000000D03*
X107500000Y-92000000D03*
X105500000Y-91500000D03*
X102500000Y-94000000D03*
X105500000Y-97000000D03*
X103500000Y-96000000D03*
X103500000Y-92000000D03*
X107500000Y-96000000D03*
G04 #@! TD*
D18*
G04 #@! TO.N,/B*
X124500000Y-48500000D03*
X124500000Y-49500000D03*
X144500000Y-48750000D03*
X144500000Y-47750000D03*
G04 #@! TO.N,/VSW+*
X115500000Y-80750000D03*
X117000000Y-80750000D03*
X118500000Y-80750000D03*
X120000000Y-80750000D03*
X121500000Y-80750000D03*
X123000000Y-80750000D03*
X124500000Y-80750000D03*
X126000000Y-80750000D03*
X115500000Y-79250000D03*
X117000000Y-79250000D03*
X118500000Y-79250000D03*
X120000000Y-79250000D03*
X121500000Y-79250000D03*
X123000000Y-79250000D03*
X124500000Y-79250000D03*
X126000000Y-79250000D03*
X115500000Y-77750000D03*
X117000000Y-77750000D03*
X118500000Y-77750000D03*
X120000000Y-77750000D03*
X121500000Y-77750000D03*
X123000000Y-77750000D03*
X124500000Y-77750000D03*
X126000000Y-77750000D03*
X115500000Y-76250000D03*
X117000000Y-76250000D03*
X118500000Y-76250000D03*
X120000000Y-76250000D03*
X121500000Y-76250000D03*
X123000000Y-76250000D03*
X124500000Y-76250000D03*
X126000000Y-76250000D03*
X115500000Y-74750000D03*
X117000000Y-74750000D03*
X118500000Y-74750000D03*
X120000000Y-74750000D03*
X121500000Y-74750000D03*
X123000000Y-74750000D03*
X124500000Y-74750000D03*
X126000000Y-74750000D03*
X115500000Y-73250000D03*
X117000000Y-73250000D03*
X118500000Y-73250000D03*
X120000000Y-73250000D03*
X121500000Y-73250000D03*
X123000000Y-73250000D03*
X124500000Y-73250000D03*
X126000000Y-73250000D03*
X115500000Y-71750000D03*
X117000000Y-71750000D03*
X118500000Y-71750000D03*
X120000000Y-71750000D03*
X121500000Y-71750000D03*
X123000000Y-71750000D03*
X124500000Y-71750000D03*
X126000000Y-71750000D03*
X137000000Y-80750000D03*
X138500000Y-80750000D03*
X140000000Y-80750000D03*
X141500000Y-80750000D03*
X143000000Y-80750000D03*
X144500000Y-80750000D03*
X146000000Y-80750000D03*
X147500000Y-80750000D03*
X137000000Y-79250000D03*
X138500000Y-79250000D03*
X140000000Y-79250000D03*
X141500000Y-79250000D03*
X143000000Y-79250000D03*
X144500000Y-79250000D03*
X146000000Y-79250000D03*
X147500000Y-79250000D03*
X137000000Y-77750000D03*
X138500000Y-77750000D03*
X140000000Y-77750000D03*
X141500000Y-77750000D03*
X143000000Y-77750000D03*
X144500000Y-77750000D03*
X146000000Y-77750000D03*
X147500000Y-77750000D03*
X137000000Y-76250000D03*
X138500000Y-76250000D03*
X140000000Y-76250000D03*
X141500000Y-76250000D03*
X143000000Y-76250000D03*
X144500000Y-76250000D03*
X146000000Y-76250000D03*
X147500000Y-76250000D03*
X137000000Y-74750000D03*
X138500000Y-74750000D03*
X140000000Y-74750000D03*
X141500000Y-74750000D03*
X143000000Y-74750000D03*
X144500000Y-74750000D03*
X146000000Y-74750000D03*
X147500000Y-74750000D03*
X137000000Y-73250000D03*
X138500000Y-73250000D03*
X140000000Y-73250000D03*
X141500000Y-73250000D03*
X143000000Y-73250000D03*
X144500000Y-73250000D03*
X146000000Y-73250000D03*
X147500000Y-73250000D03*
X137000000Y-71750000D03*
X138500000Y-71750000D03*
X140000000Y-71750000D03*
X141500000Y-71750000D03*
X143000000Y-71750000D03*
X144500000Y-71750000D03*
X146000000Y-71750000D03*
X147500000Y-71750000D03*
G04 #@! TO.N,/D*
X136500000Y-104000000D03*
X136500000Y-103000000D03*
X116500000Y-104000000D03*
X116500000Y-103000000D03*
G04 #@! TO.N,/F*
X184500000Y-47750000D03*
X184500000Y-48750000D03*
X164500000Y-48500000D03*
X164500000Y-49500000D03*
G04 #@! TO.N,/H*
X156500000Y-104000000D03*
X156500000Y-103000000D03*
X176500000Y-104000000D03*
X176500000Y-103000000D03*
G04 #@! TD*
D19*
G04 #@! TO.N,/VSW+*
G36*
X129123000Y-54052606D02*
X129123000Y-93373000D01*
X123500000Y-93373000D01*
X123451399Y-93382667D01*
X123410197Y-93410197D01*
X122660197Y-94160197D01*
X122632667Y-94201399D01*
X122623000Y-94250000D01*
X122623000Y-99873000D01*
X118377000Y-99873000D01*
X118377000Y-94250000D01*
X118367333Y-94201399D01*
X118339803Y-94160197D01*
X117589803Y-93410197D01*
X117548601Y-93382667D01*
X117500000Y-93373000D01*
X114127000Y-93373000D01*
X114127000Y-89037131D01*
X117173000Y-89037131D01*
X117173000Y-89962869D01*
X117527264Y-90818140D01*
X118181860Y-91472736D01*
X119037131Y-91827000D01*
X119962869Y-91827000D01*
X120818140Y-91472736D01*
X121472736Y-90818140D01*
X121827000Y-89962869D01*
X121827000Y-89037131D01*
X121472736Y-88181860D01*
X120818140Y-87527264D01*
X119962869Y-87173000D01*
X119037131Y-87173000D01*
X118181860Y-87527264D01*
X117527264Y-88181860D01*
X117173000Y-89037131D01*
X114127000Y-89037131D01*
X114127000Y-61537131D01*
X117173000Y-61537131D01*
X117173000Y-62462869D01*
X117527264Y-63318140D01*
X118181860Y-63972736D01*
X119037131Y-64327000D01*
X119962869Y-64327000D01*
X120818140Y-63972736D01*
X121472736Y-63318140D01*
X121827000Y-62462869D01*
X121827000Y-61537131D01*
X121472736Y-60681860D01*
X120818140Y-60027264D01*
X119962869Y-59673000D01*
X119037131Y-59673000D01*
X118181860Y-60027264D01*
X117527264Y-60681860D01*
X117173000Y-61537131D01*
X114127000Y-61537131D01*
X114127000Y-59127000D01*
X123000000Y-59127000D01*
X123048601Y-59117333D01*
X123089803Y-59089803D01*
X123839803Y-58339803D01*
X123867333Y-58298601D01*
X123877000Y-58250000D01*
X123877000Y-52627000D01*
X127697394Y-52627000D01*
X129123000Y-54052606D01*
X129123000Y-54052606D01*
G37*
X129123000Y-54052606D02*
X129123000Y-93373000D01*
X123500000Y-93373000D01*
X123451399Y-93382667D01*
X123410197Y-93410197D01*
X122660197Y-94160197D01*
X122632667Y-94201399D01*
X122623000Y-94250000D01*
X122623000Y-99873000D01*
X118377000Y-99873000D01*
X118377000Y-94250000D01*
X118367333Y-94201399D01*
X118339803Y-94160197D01*
X117589803Y-93410197D01*
X117548601Y-93382667D01*
X117500000Y-93373000D01*
X114127000Y-93373000D01*
X114127000Y-89037131D01*
X117173000Y-89037131D01*
X117173000Y-89962869D01*
X117527264Y-90818140D01*
X118181860Y-91472736D01*
X119037131Y-91827000D01*
X119962869Y-91827000D01*
X120818140Y-91472736D01*
X121472736Y-90818140D01*
X121827000Y-89962869D01*
X121827000Y-89037131D01*
X121472736Y-88181860D01*
X120818140Y-87527264D01*
X119962869Y-87173000D01*
X119037131Y-87173000D01*
X118181860Y-87527264D01*
X117527264Y-88181860D01*
X117173000Y-89037131D01*
X114127000Y-89037131D01*
X114127000Y-61537131D01*
X117173000Y-61537131D01*
X117173000Y-62462869D01*
X117527264Y-63318140D01*
X118181860Y-63972736D01*
X119037131Y-64327000D01*
X119962869Y-64327000D01*
X120818140Y-63972736D01*
X121472736Y-63318140D01*
X121827000Y-62462869D01*
X121827000Y-61537131D01*
X121472736Y-60681860D01*
X120818140Y-60027264D01*
X119962869Y-59673000D01*
X119037131Y-59673000D01*
X118181860Y-60027264D01*
X117527264Y-60681860D01*
X117173000Y-61537131D01*
X114127000Y-61537131D01*
X114127000Y-59127000D01*
X123000000Y-59127000D01*
X123048601Y-59117333D01*
X123089803Y-59089803D01*
X123839803Y-58339803D01*
X123867333Y-58298601D01*
X123877000Y-58250000D01*
X123877000Y-52627000D01*
X127697394Y-52627000D01*
X129123000Y-54052606D01*
G36*
X149123000Y-54052606D02*
X149123000Y-93373000D01*
X143500000Y-93373000D01*
X143451399Y-93382667D01*
X143410197Y-93410197D01*
X142660197Y-94160197D01*
X142632667Y-94201399D01*
X142623000Y-94250000D01*
X142623000Y-99873000D01*
X138377000Y-99873000D01*
X138377000Y-94250000D01*
X138367333Y-94201399D01*
X138339803Y-94160197D01*
X137589803Y-93410197D01*
X137548601Y-93382667D01*
X137500000Y-93373000D01*
X135627000Y-93373000D01*
X135627000Y-89037131D01*
X137173000Y-89037131D01*
X137173000Y-89962869D01*
X137527264Y-90818140D01*
X138181860Y-91472736D01*
X139037131Y-91827000D01*
X139962869Y-91827000D01*
X140818140Y-91472736D01*
X141472736Y-90818140D01*
X141827000Y-89962869D01*
X141827000Y-89037131D01*
X141472736Y-88181860D01*
X140818140Y-87527264D01*
X139962869Y-87173000D01*
X139037131Y-87173000D01*
X138181860Y-87527264D01*
X137527264Y-88181860D01*
X137173000Y-89037131D01*
X135627000Y-89037131D01*
X135627000Y-61537131D01*
X137173000Y-61537131D01*
X137173000Y-62462869D01*
X137527264Y-63318140D01*
X138181860Y-63972736D01*
X139037131Y-64327000D01*
X139962869Y-64327000D01*
X140818140Y-63972736D01*
X141472736Y-63318140D01*
X141827000Y-62462869D01*
X141827000Y-61537131D01*
X141472736Y-60681860D01*
X140818140Y-60027264D01*
X139962869Y-59673000D01*
X139037131Y-59673000D01*
X138181860Y-60027264D01*
X137527264Y-60681860D01*
X137173000Y-61537131D01*
X135627000Y-61537131D01*
X135627000Y-59127000D01*
X143000000Y-59127000D01*
X143048601Y-59117333D01*
X143089803Y-59089803D01*
X143839803Y-58339803D01*
X143867333Y-58298601D01*
X143877000Y-58250000D01*
X143877000Y-52627000D01*
X147697394Y-52627000D01*
X149123000Y-54052606D01*
X149123000Y-54052606D01*
G37*
X149123000Y-54052606D02*
X149123000Y-93373000D01*
X143500000Y-93373000D01*
X143451399Y-93382667D01*
X143410197Y-93410197D01*
X142660197Y-94160197D01*
X142632667Y-94201399D01*
X142623000Y-94250000D01*
X142623000Y-99873000D01*
X138377000Y-99873000D01*
X138377000Y-94250000D01*
X138367333Y-94201399D01*
X138339803Y-94160197D01*
X137589803Y-93410197D01*
X137548601Y-93382667D01*
X137500000Y-93373000D01*
X135627000Y-93373000D01*
X135627000Y-89037131D01*
X137173000Y-89037131D01*
X137173000Y-89962869D01*
X137527264Y-90818140D01*
X138181860Y-91472736D01*
X139037131Y-91827000D01*
X139962869Y-91827000D01*
X140818140Y-91472736D01*
X141472736Y-90818140D01*
X141827000Y-89962869D01*
X141827000Y-89037131D01*
X141472736Y-88181860D01*
X140818140Y-87527264D01*
X139962869Y-87173000D01*
X139037131Y-87173000D01*
X138181860Y-87527264D01*
X137527264Y-88181860D01*
X137173000Y-89037131D01*
X135627000Y-89037131D01*
X135627000Y-61537131D01*
X137173000Y-61537131D01*
X137173000Y-62462869D01*
X137527264Y-63318140D01*
X138181860Y-63972736D01*
X139037131Y-64327000D01*
X139962869Y-64327000D01*
X140818140Y-63972736D01*
X141472736Y-63318140D01*
X141827000Y-62462869D01*
X141827000Y-61537131D01*
X141472736Y-60681860D01*
X140818140Y-60027264D01*
X139962869Y-59673000D01*
X139037131Y-59673000D01*
X138181860Y-60027264D01*
X137527264Y-60681860D01*
X137173000Y-61537131D01*
X135627000Y-61537131D01*
X135627000Y-59127000D01*
X143000000Y-59127000D01*
X143048601Y-59117333D01*
X143089803Y-59089803D01*
X143839803Y-58339803D01*
X143867333Y-58298601D01*
X143877000Y-58250000D01*
X143877000Y-52627000D01*
X147697394Y-52627000D01*
X149123000Y-54052606D01*
G04 #@! TO.N,/VSW-*
G36*
X169123000Y-54052606D02*
X169123000Y-93373000D01*
X163500000Y-93373000D01*
X163451399Y-93382667D01*
X163410197Y-93410197D01*
X162660197Y-94160197D01*
X162632667Y-94201399D01*
X162623000Y-94250000D01*
X162623000Y-99873000D01*
X158377000Y-99873000D01*
X158377000Y-94250000D01*
X158367333Y-94201399D01*
X158339803Y-94160197D01*
X157589803Y-93410197D01*
X157548601Y-93382667D01*
X157500000Y-93373000D01*
X155627000Y-93373000D01*
X155627000Y-89037131D01*
X157173000Y-89037131D01*
X157173000Y-89962869D01*
X157527264Y-90818140D01*
X158181860Y-91472736D01*
X159037131Y-91827000D01*
X159962869Y-91827000D01*
X160818140Y-91472736D01*
X161472736Y-90818140D01*
X161827000Y-89962869D01*
X161827000Y-89037131D01*
X161472736Y-88181860D01*
X160818140Y-87527264D01*
X159962869Y-87173000D01*
X159037131Y-87173000D01*
X158181860Y-87527264D01*
X157527264Y-88181860D01*
X157173000Y-89037131D01*
X155627000Y-89037131D01*
X155627000Y-61537131D01*
X157173000Y-61537131D01*
X157173000Y-62462869D01*
X157527264Y-63318140D01*
X158181860Y-63972736D01*
X159037131Y-64327000D01*
X159962869Y-64327000D01*
X160818140Y-63972736D01*
X161472736Y-63318140D01*
X161827000Y-62462869D01*
X161827000Y-61537131D01*
X161472736Y-60681860D01*
X160818140Y-60027264D01*
X159962869Y-59673000D01*
X159037131Y-59673000D01*
X158181860Y-60027264D01*
X157527264Y-60681860D01*
X157173000Y-61537131D01*
X155627000Y-61537131D01*
X155627000Y-59127000D01*
X163000000Y-59127000D01*
X163048601Y-59117333D01*
X163089803Y-59089803D01*
X163839803Y-58339803D01*
X163867333Y-58298601D01*
X163877000Y-58250000D01*
X163877000Y-52627000D01*
X167697394Y-52627000D01*
X169123000Y-54052606D01*
X169123000Y-54052606D01*
G37*
X169123000Y-54052606D02*
X169123000Y-93373000D01*
X163500000Y-93373000D01*
X163451399Y-93382667D01*
X163410197Y-93410197D01*
X162660197Y-94160197D01*
X162632667Y-94201399D01*
X162623000Y-94250000D01*
X162623000Y-99873000D01*
X158377000Y-99873000D01*
X158377000Y-94250000D01*
X158367333Y-94201399D01*
X158339803Y-94160197D01*
X157589803Y-93410197D01*
X157548601Y-93382667D01*
X157500000Y-93373000D01*
X155627000Y-93373000D01*
X155627000Y-89037131D01*
X157173000Y-89037131D01*
X157173000Y-89962869D01*
X157527264Y-90818140D01*
X158181860Y-91472736D01*
X159037131Y-91827000D01*
X159962869Y-91827000D01*
X160818140Y-91472736D01*
X161472736Y-90818140D01*
X161827000Y-89962869D01*
X161827000Y-89037131D01*
X161472736Y-88181860D01*
X160818140Y-87527264D01*
X159962869Y-87173000D01*
X159037131Y-87173000D01*
X158181860Y-87527264D01*
X157527264Y-88181860D01*
X157173000Y-89037131D01*
X155627000Y-89037131D01*
X155627000Y-61537131D01*
X157173000Y-61537131D01*
X157173000Y-62462869D01*
X157527264Y-63318140D01*
X158181860Y-63972736D01*
X159037131Y-64327000D01*
X159962869Y-64327000D01*
X160818140Y-63972736D01*
X161472736Y-63318140D01*
X161827000Y-62462869D01*
X161827000Y-61537131D01*
X161472736Y-60681860D01*
X160818140Y-60027264D01*
X159962869Y-59673000D01*
X159037131Y-59673000D01*
X158181860Y-60027264D01*
X157527264Y-60681860D01*
X157173000Y-61537131D01*
X155627000Y-61537131D01*
X155627000Y-59127000D01*
X163000000Y-59127000D01*
X163048601Y-59117333D01*
X163089803Y-59089803D01*
X163839803Y-58339803D01*
X163867333Y-58298601D01*
X163877000Y-58250000D01*
X163877000Y-52627000D01*
X167697394Y-52627000D01*
X169123000Y-54052606D01*
G36*
X189123000Y-54052606D02*
X189123000Y-75000000D01*
X189132667Y-75048601D01*
X189160197Y-75089803D01*
X189201399Y-75117333D01*
X189250000Y-75127000D01*
X199273000Y-75127000D01*
X199273001Y-98373000D01*
X190377000Y-98373000D01*
X190377000Y-93500000D01*
X190367333Y-93451399D01*
X190339803Y-93410197D01*
X190298601Y-93382667D01*
X190250000Y-93373000D01*
X183500000Y-93373000D01*
X183451399Y-93382667D01*
X183410197Y-93410197D01*
X182660197Y-94160197D01*
X182632667Y-94201399D01*
X182623000Y-94250000D01*
X182623000Y-99873000D01*
X178377000Y-99873000D01*
X178377000Y-94250000D01*
X178367333Y-94201399D01*
X178339803Y-94160197D01*
X177589803Y-93410197D01*
X177548601Y-93382667D01*
X177500000Y-93373000D01*
X175627000Y-93373000D01*
X175627000Y-89037131D01*
X177173000Y-89037131D01*
X177173000Y-89962869D01*
X177527264Y-90818140D01*
X178181860Y-91472736D01*
X179037131Y-91827000D01*
X179962869Y-91827000D01*
X180818140Y-91472736D01*
X181472736Y-90818140D01*
X181827000Y-89962869D01*
X181827000Y-89037131D01*
X181472736Y-88181860D01*
X180818140Y-87527264D01*
X179962869Y-87173000D01*
X179037131Y-87173000D01*
X178181860Y-87527264D01*
X177527264Y-88181860D01*
X177173000Y-89037131D01*
X175627000Y-89037131D01*
X175627000Y-61537131D01*
X177173000Y-61537131D01*
X177173000Y-62462869D01*
X177527264Y-63318140D01*
X178181860Y-63972736D01*
X179037131Y-64327000D01*
X179962869Y-64327000D01*
X180818140Y-63972736D01*
X181472736Y-63318140D01*
X181827000Y-62462869D01*
X181827000Y-61537131D01*
X181472736Y-60681860D01*
X180818140Y-60027264D01*
X179962869Y-59673000D01*
X179037131Y-59673000D01*
X178181860Y-60027264D01*
X177527264Y-60681860D01*
X177173000Y-61537131D01*
X175627000Y-61537131D01*
X175627000Y-59127000D01*
X183000000Y-59127000D01*
X183048601Y-59117333D01*
X183089803Y-59089803D01*
X183839803Y-58339803D01*
X183867333Y-58298601D01*
X183877000Y-58250000D01*
X183877000Y-52627000D01*
X187697394Y-52627000D01*
X189123000Y-54052606D01*
X189123000Y-54052606D01*
G37*
X189123000Y-54052606D02*
X189123000Y-75000000D01*
X189132667Y-75048601D01*
X189160197Y-75089803D01*
X189201399Y-75117333D01*
X189250000Y-75127000D01*
X199273000Y-75127000D01*
X199273001Y-98373000D01*
X190377000Y-98373000D01*
X190377000Y-93500000D01*
X190367333Y-93451399D01*
X190339803Y-93410197D01*
X190298601Y-93382667D01*
X190250000Y-93373000D01*
X183500000Y-93373000D01*
X183451399Y-93382667D01*
X183410197Y-93410197D01*
X182660197Y-94160197D01*
X182632667Y-94201399D01*
X182623000Y-94250000D01*
X182623000Y-99873000D01*
X178377000Y-99873000D01*
X178377000Y-94250000D01*
X178367333Y-94201399D01*
X178339803Y-94160197D01*
X177589803Y-93410197D01*
X177548601Y-93382667D01*
X177500000Y-93373000D01*
X175627000Y-93373000D01*
X175627000Y-89037131D01*
X177173000Y-89037131D01*
X177173000Y-89962869D01*
X177527264Y-90818140D01*
X178181860Y-91472736D01*
X179037131Y-91827000D01*
X179962869Y-91827000D01*
X180818140Y-91472736D01*
X181472736Y-90818140D01*
X181827000Y-89962869D01*
X181827000Y-89037131D01*
X181472736Y-88181860D01*
X180818140Y-87527264D01*
X179962869Y-87173000D01*
X179037131Y-87173000D01*
X178181860Y-87527264D01*
X177527264Y-88181860D01*
X177173000Y-89037131D01*
X175627000Y-89037131D01*
X175627000Y-61537131D01*
X177173000Y-61537131D01*
X177173000Y-62462869D01*
X177527264Y-63318140D01*
X178181860Y-63972736D01*
X179037131Y-64327000D01*
X179962869Y-64327000D01*
X180818140Y-63972736D01*
X181472736Y-63318140D01*
X181827000Y-62462869D01*
X181827000Y-61537131D01*
X181472736Y-60681860D01*
X180818140Y-60027264D01*
X179962869Y-59673000D01*
X179037131Y-59673000D01*
X178181860Y-60027264D01*
X177527264Y-60681860D01*
X177173000Y-61537131D01*
X175627000Y-61537131D01*
X175627000Y-59127000D01*
X183000000Y-59127000D01*
X183048601Y-59117333D01*
X183089803Y-59089803D01*
X183839803Y-58339803D01*
X183867333Y-58298601D01*
X183877000Y-58250000D01*
X183877000Y-52627000D01*
X187697394Y-52627000D01*
X189123000Y-54052606D01*
G36*
X175873000Y-82373000D02*
X168377000Y-82373000D01*
X168377000Y-70377000D01*
X175873000Y-70377000D01*
X175873000Y-82373000D01*
X175873000Y-82373000D01*
G37*
X175873000Y-82373000D02*
X168377000Y-82373000D01*
X168377000Y-70377000D01*
X175873000Y-70377000D01*
X175873000Y-82373000D01*
G04 #@! TO.N,/D*
G36*
X136873000Y-104373000D02*
X133552606Y-104373000D01*
X132589803Y-103410197D01*
X132548601Y-103382667D01*
X132500000Y-103373000D01*
X130000000Y-103373000D01*
X129951399Y-103382667D01*
X129910197Y-103410197D01*
X128947394Y-104373000D01*
X116127000Y-104373000D01*
X116127000Y-101627000D01*
X136873000Y-101627000D01*
X136873000Y-104373000D01*
X136873000Y-104373000D01*
G37*
X136873000Y-104373000D02*
X133552606Y-104373000D01*
X132589803Y-103410197D01*
X132548601Y-103382667D01*
X132500000Y-103373000D01*
X130000000Y-103373000D01*
X129951399Y-103382667D01*
X129910197Y-103410197D01*
X128947394Y-104373000D01*
X116127000Y-104373000D01*
X116127000Y-101627000D01*
X136873000Y-101627000D01*
X136873000Y-104373000D01*
D20*
G04 #@! TO.N,/VSW-*
G36*
X200050001Y-98400000D02*
X199100000Y-98400000D01*
X199100000Y-75100000D01*
X200050000Y-75100000D01*
X200050001Y-98400000D01*
X200050001Y-98400000D01*
G37*
X200050001Y-98400000D02*
X199100000Y-98400000D01*
X199100000Y-75100000D01*
X200050000Y-75100000D01*
X200050001Y-98400000D01*
D19*
G04 #@! TO.N,/H*
G36*
X176873000Y-104373000D02*
X173552606Y-104373000D01*
X172589803Y-103410197D01*
X172548601Y-103382667D01*
X172500000Y-103373000D01*
X170000000Y-103373000D01*
X169951399Y-103382667D01*
X169910197Y-103410197D01*
X168947394Y-104373000D01*
X156127000Y-104373000D01*
X156127000Y-101627000D01*
X176873000Y-101627000D01*
X176873000Y-104373000D01*
X176873000Y-104373000D01*
G37*
X176873000Y-104373000D02*
X173552606Y-104373000D01*
X172589803Y-103410197D01*
X172548601Y-103382667D01*
X172500000Y-103373000D01*
X170000000Y-103373000D01*
X169951399Y-103382667D01*
X169910197Y-103410197D01*
X168947394Y-104373000D01*
X156127000Y-104373000D01*
X156127000Y-101627000D01*
X176873000Y-101627000D01*
X176873000Y-104373000D01*
G04 #@! TO.N,/B*
G36*
X144873000Y-50873000D02*
X124127000Y-50873000D01*
X124127000Y-48127000D01*
X126947394Y-48127000D01*
X127910197Y-49089803D01*
X127951399Y-49117333D01*
X128000000Y-49127000D01*
X131250000Y-49127000D01*
X131298601Y-49117333D01*
X131339803Y-49089803D01*
X133052606Y-47377000D01*
X144873000Y-47377000D01*
X144873000Y-50873000D01*
X144873000Y-50873000D01*
G37*
X144873000Y-50873000D02*
X124127000Y-50873000D01*
X124127000Y-48127000D01*
X126947394Y-48127000D01*
X127910197Y-49089803D01*
X127951399Y-49117333D01*
X128000000Y-49127000D01*
X131250000Y-49127000D01*
X131298601Y-49117333D01*
X131339803Y-49089803D01*
X133052606Y-47377000D01*
X144873000Y-47377000D01*
X144873000Y-50873000D01*
G04 #@! TO.N,/F*
G36*
X184873000Y-50873000D02*
X164127000Y-50873000D01*
X164127000Y-48127000D01*
X166947394Y-48127000D01*
X167910197Y-49089803D01*
X167951399Y-49117333D01*
X168000000Y-49127000D01*
X171250000Y-49127000D01*
X171298601Y-49117333D01*
X171339803Y-49089803D01*
X173052606Y-47377000D01*
X184873000Y-47377000D01*
X184873000Y-50873000D01*
X184873000Y-50873000D01*
G37*
X184873000Y-50873000D02*
X164127000Y-50873000D01*
X164127000Y-48127000D01*
X166947394Y-48127000D01*
X167910197Y-49089803D01*
X167951399Y-49117333D01*
X168000000Y-49127000D01*
X171250000Y-49127000D01*
X171298601Y-49117333D01*
X171339803Y-49089803D01*
X173052606Y-47377000D01*
X184873000Y-47377000D01*
X184873000Y-50873000D01*
G04 #@! TD*
M02*
