G04 #@! TF.GenerationSoftware,KiCad,Pcbnew,5.0.2-bee76a0~70~ubuntu18.04.1*
G04 #@! TF.CreationDate,2019-01-23T11:21:40-08:00*
G04 #@! TF.ProjectId,inverter,696e7665-7274-4657-922e-6b696361645f,rev?*
G04 #@! TF.SameCoordinates,Original*
G04 #@! TF.FileFunction,Legend,Bot*
G04 #@! TF.FilePolarity,Positive*
%FSLAX46Y46*%
G04 Gerber Fmt 4.6, Leading zero omitted, Abs format (unit mm)*
G04 Created by KiCad (PCBNEW 5.0.2-bee76a0~70~ubuntu18.04.1) date Wed 23 Jan 2019 11:21:40 AM PST*
%MOMM*%
%LPD*%
G01*
G04 APERTURE LIST*
%ADD10C,0.150000*%
%ADD11C,0.300000*%
G04 APERTURE END LIST*
D10*
X174973809Y-80250000D02*
X175050000Y-80211904D01*
X175164285Y-80211904D01*
X175278571Y-80250000D01*
X175354761Y-80326190D01*
X175392857Y-80402380D01*
X175430952Y-80554761D01*
X175430952Y-80669047D01*
X175392857Y-80821428D01*
X175354761Y-80897619D01*
X175278571Y-80973809D01*
X175164285Y-81011904D01*
X175088095Y-81011904D01*
X174973809Y-80973809D01*
X174935714Y-80935714D01*
X174935714Y-80669047D01*
X175088095Y-80669047D01*
X174592857Y-81011904D02*
X174592857Y-80478571D01*
X174592857Y-80211904D02*
X174630952Y-80250000D01*
X174592857Y-80288095D01*
X174554761Y-80250000D01*
X174592857Y-80211904D01*
X174592857Y-80288095D01*
X174326190Y-80478571D02*
X174021428Y-80478571D01*
X174211904Y-80211904D02*
X174211904Y-80897619D01*
X174173809Y-80973809D01*
X174097619Y-81011904D01*
X174021428Y-81011904D01*
X172688095Y-80935714D02*
X172726190Y-80973809D01*
X172840476Y-81011904D01*
X172916666Y-81011904D01*
X173030952Y-80973809D01*
X173107142Y-80897619D01*
X173145238Y-80821428D01*
X173183333Y-80669047D01*
X173183333Y-80554761D01*
X173145238Y-80402380D01*
X173107142Y-80326190D01*
X173030952Y-80250000D01*
X172916666Y-80211904D01*
X172840476Y-80211904D01*
X172726190Y-80250000D01*
X172688095Y-80288095D01*
X172230952Y-81011904D02*
X172307142Y-80973809D01*
X172345238Y-80935714D01*
X172383333Y-80859523D01*
X172383333Y-80630952D01*
X172345238Y-80554761D01*
X172307142Y-80516666D01*
X172230952Y-80478571D01*
X172116666Y-80478571D01*
X172040476Y-80516666D01*
X172002380Y-80554761D01*
X171964285Y-80630952D01*
X171964285Y-80859523D01*
X172002380Y-80935714D01*
X172040476Y-80973809D01*
X172116666Y-81011904D01*
X172230952Y-81011904D01*
X171621428Y-81011904D02*
X171621428Y-80478571D01*
X171621428Y-80554761D02*
X171583333Y-80516666D01*
X171507142Y-80478571D01*
X171392857Y-80478571D01*
X171316666Y-80516666D01*
X171278571Y-80592857D01*
X171278571Y-81011904D01*
X171278571Y-80592857D02*
X171240476Y-80516666D01*
X171164285Y-80478571D01*
X171050000Y-80478571D01*
X170973809Y-80516666D01*
X170935714Y-80592857D01*
X170935714Y-81011904D01*
X170554761Y-81011904D02*
X170554761Y-80478571D01*
X170554761Y-80554761D02*
X170516666Y-80516666D01*
X170440476Y-80478571D01*
X170326190Y-80478571D01*
X170250000Y-80516666D01*
X170211904Y-80592857D01*
X170211904Y-81011904D01*
X170211904Y-80592857D02*
X170173809Y-80516666D01*
X170097619Y-80478571D01*
X169983333Y-80478571D01*
X169907142Y-80516666D01*
X169869047Y-80592857D01*
X169869047Y-81011904D01*
X169488095Y-81011904D02*
X169488095Y-80478571D01*
X169488095Y-80211904D02*
X169526190Y-80250000D01*
X169488095Y-80288095D01*
X169450000Y-80250000D01*
X169488095Y-80211904D01*
X169488095Y-80288095D01*
X169221428Y-80478571D02*
X168916666Y-80478571D01*
X169107142Y-80211904D02*
X169107142Y-80897619D01*
X169069047Y-80973809D01*
X168992857Y-81011904D01*
X168916666Y-81011904D01*
X168040476Y-81011904D02*
X168040476Y-80211904D01*
X168040476Y-80592857D02*
X167583333Y-80592857D01*
X167583333Y-81011904D02*
X167583333Y-80211904D01*
X166859523Y-81011904D02*
X166859523Y-80592857D01*
X166897619Y-80516666D01*
X166973809Y-80478571D01*
X167126190Y-80478571D01*
X167202380Y-80516666D01*
X166859523Y-80973809D02*
X166935714Y-81011904D01*
X167126190Y-81011904D01*
X167202380Y-80973809D01*
X167240476Y-80897619D01*
X167240476Y-80821428D01*
X167202380Y-80745238D01*
X167126190Y-80707142D01*
X166935714Y-80707142D01*
X166859523Y-80669047D01*
X166516666Y-80973809D02*
X166440476Y-81011904D01*
X166288095Y-81011904D01*
X166211904Y-80973809D01*
X166173809Y-80897619D01*
X166173809Y-80859523D01*
X166211904Y-80783333D01*
X166288095Y-80745238D01*
X166402380Y-80745238D01*
X166478571Y-80707142D01*
X166516666Y-80630952D01*
X166516666Y-80592857D01*
X166478571Y-80516666D01*
X166402380Y-80478571D01*
X166288095Y-80478571D01*
X166211904Y-80516666D01*
X165830952Y-81011904D02*
X165830952Y-80211904D01*
X165488095Y-81011904D02*
X165488095Y-80592857D01*
X165526190Y-80516666D01*
X165602380Y-80478571D01*
X165716666Y-80478571D01*
X165792857Y-80516666D01*
X165830952Y-80554761D01*
X165107142Y-80935714D02*
X165069047Y-80973809D01*
X165107142Y-81011904D01*
X165145238Y-80973809D01*
X165107142Y-80935714D01*
X165107142Y-81011904D01*
X165107142Y-80516666D02*
X165069047Y-80554761D01*
X165107142Y-80592857D01*
X165145238Y-80554761D01*
X165107142Y-80516666D01*
X165107142Y-80592857D01*
X184040476Y-82323809D02*
X184116666Y-82361904D01*
X184269047Y-82361904D01*
X184345238Y-82323809D01*
X184383333Y-82247619D01*
X184383333Y-81942857D01*
X184345238Y-81866666D01*
X184269047Y-81828571D01*
X184116666Y-81828571D01*
X184040476Y-81866666D01*
X184002380Y-81942857D01*
X184002380Y-82019047D01*
X184383333Y-82095238D01*
X183278571Y-81561904D02*
X183659523Y-81561904D01*
X183697619Y-81942857D01*
X183659523Y-81904761D01*
X183583333Y-81866666D01*
X183392857Y-81866666D01*
X183316666Y-81904761D01*
X183278571Y-81942857D01*
X183240476Y-82019047D01*
X183240476Y-82209523D01*
X183278571Y-82285714D01*
X183316666Y-82323809D01*
X183392857Y-82361904D01*
X183583333Y-82361904D01*
X183659523Y-82323809D01*
X183697619Y-82285714D01*
X182897619Y-82361904D02*
X182897619Y-81561904D01*
X182897619Y-81866666D02*
X182821428Y-81828571D01*
X182669047Y-81828571D01*
X182592857Y-81866666D01*
X182554761Y-81904761D01*
X182516666Y-81980952D01*
X182516666Y-82209523D01*
X182554761Y-82285714D01*
X182592857Y-82323809D01*
X182669047Y-82361904D01*
X182821428Y-82361904D01*
X182897619Y-82323809D01*
X181754761Y-82361904D02*
X182211904Y-82361904D01*
X181983333Y-82361904D02*
X181983333Y-81561904D01*
X182059523Y-81676190D01*
X182135714Y-81752380D01*
X182211904Y-81790476D01*
X181526190Y-81828571D02*
X181221428Y-81828571D01*
X181411904Y-82361904D02*
X181411904Y-81676190D01*
X181373809Y-81600000D01*
X181297619Y-81561904D01*
X181221428Y-81561904D01*
X180611904Y-82361904D02*
X180611904Y-81942857D01*
X180650000Y-81866666D01*
X180726190Y-81828571D01*
X180878571Y-81828571D01*
X180954761Y-81866666D01*
X180611904Y-82323809D02*
X180688095Y-82361904D01*
X180878571Y-82361904D01*
X180954761Y-82323809D01*
X180992857Y-82247619D01*
X180992857Y-82171428D01*
X180954761Y-82095238D01*
X180878571Y-82057142D01*
X180688095Y-82057142D01*
X180611904Y-82019047D01*
X180192857Y-82361904D02*
X180040476Y-82361904D01*
X179964285Y-82323809D01*
X179926190Y-82285714D01*
X179850000Y-82171428D01*
X179811904Y-82019047D01*
X179811904Y-81714285D01*
X179850000Y-81638095D01*
X179888095Y-81600000D01*
X179964285Y-81561904D01*
X180116666Y-81561904D01*
X180192857Y-81600000D01*
X180230952Y-81638095D01*
X180269047Y-81714285D01*
X180269047Y-81904761D01*
X180230952Y-81980952D01*
X180192857Y-82019047D01*
X180116666Y-82057142D01*
X179964285Y-82057142D01*
X179888095Y-82019047D01*
X179850000Y-81980952D01*
X179811904Y-81904761D01*
X179126190Y-81828571D02*
X179126190Y-82361904D01*
X179316666Y-81523809D02*
X179507142Y-82095238D01*
X179011904Y-82095238D01*
X178592857Y-81904761D02*
X178669047Y-81866666D01*
X178707142Y-81828571D01*
X178745238Y-81752380D01*
X178745238Y-81714285D01*
X178707142Y-81638095D01*
X178669047Y-81600000D01*
X178592857Y-81561904D01*
X178440476Y-81561904D01*
X178364285Y-81600000D01*
X178326190Y-81638095D01*
X178288095Y-81714285D01*
X178288095Y-81752380D01*
X178326190Y-81828571D01*
X178364285Y-81866666D01*
X178440476Y-81904761D01*
X178592857Y-81904761D01*
X178669047Y-81942857D01*
X178707142Y-81980952D01*
X178745238Y-82057142D01*
X178745238Y-82209523D01*
X178707142Y-82285714D01*
X178669047Y-82323809D01*
X178592857Y-82361904D01*
X178440476Y-82361904D01*
X178364285Y-82323809D01*
X178326190Y-82285714D01*
X178288095Y-82209523D01*
X178288095Y-82057142D01*
X178326190Y-81980952D01*
X178364285Y-81942857D01*
X178440476Y-81904761D01*
X177602380Y-81561904D02*
X177754761Y-81561904D01*
X177830952Y-81600000D01*
X177869047Y-81638095D01*
X177945238Y-81752380D01*
X177983333Y-81904761D01*
X177983333Y-82209523D01*
X177945238Y-82285714D01*
X177907142Y-82323809D01*
X177830952Y-82361904D01*
X177678571Y-82361904D01*
X177602380Y-82323809D01*
X177564285Y-82285714D01*
X177526190Y-82209523D01*
X177526190Y-82019047D01*
X177564285Y-81942857D01*
X177602380Y-81904761D01*
X177678571Y-81866666D01*
X177830952Y-81866666D01*
X177907142Y-81904761D01*
X177945238Y-81942857D01*
X177983333Y-82019047D01*
X176802380Y-81561904D02*
X177183333Y-81561904D01*
X177221428Y-81942857D01*
X177183333Y-81904761D01*
X177107142Y-81866666D01*
X176916666Y-81866666D01*
X176840476Y-81904761D01*
X176802380Y-81942857D01*
X176764285Y-82019047D01*
X176764285Y-82209523D01*
X176802380Y-82285714D01*
X176840476Y-82323809D01*
X176916666Y-82361904D01*
X177107142Y-82361904D01*
X177183333Y-82323809D01*
X177221428Y-82285714D01*
X176535714Y-81828571D02*
X176230952Y-81828571D01*
X176421428Y-82361904D02*
X176421428Y-81676190D01*
X176383333Y-81600000D01*
X176307142Y-81561904D01*
X176230952Y-81561904D01*
X175621428Y-82361904D02*
X175621428Y-81561904D01*
X175621428Y-82323809D02*
X175697619Y-82361904D01*
X175850000Y-82361904D01*
X175926190Y-82323809D01*
X175964285Y-82285714D01*
X176002380Y-82209523D01*
X176002380Y-81980952D01*
X175964285Y-81904761D01*
X175926190Y-81866666D01*
X175850000Y-81828571D01*
X175697619Y-81828571D01*
X175621428Y-81866666D01*
X174935714Y-82323809D02*
X175011904Y-82361904D01*
X175164285Y-82361904D01*
X175240476Y-82323809D01*
X175278571Y-82247619D01*
X175278571Y-81942857D01*
X175240476Y-81866666D01*
X175164285Y-81828571D01*
X175011904Y-81828571D01*
X174935714Y-81866666D01*
X174897619Y-81942857D01*
X174897619Y-82019047D01*
X175278571Y-82095238D01*
X174211904Y-81828571D02*
X174211904Y-82361904D01*
X174402380Y-81523809D02*
X174592857Y-82095238D01*
X174097619Y-82095238D01*
X173754761Y-82361904D02*
X173602380Y-82361904D01*
X173526190Y-82323809D01*
X173488095Y-82285714D01*
X173411904Y-82171428D01*
X173373809Y-82019047D01*
X173373809Y-81714285D01*
X173411904Y-81638095D01*
X173450000Y-81600000D01*
X173526190Y-81561904D01*
X173678571Y-81561904D01*
X173754761Y-81600000D01*
X173792857Y-81638095D01*
X173830952Y-81714285D01*
X173830952Y-81904761D01*
X173792857Y-81980952D01*
X173754761Y-82019047D01*
X173678571Y-82057142D01*
X173526190Y-82057142D01*
X173450000Y-82019047D01*
X173411904Y-81980952D01*
X173373809Y-81904761D01*
X172688095Y-82323809D02*
X172764285Y-82361904D01*
X172916666Y-82361904D01*
X172992857Y-82323809D01*
X173030952Y-82285714D01*
X173069047Y-82209523D01*
X173069047Y-81980952D01*
X173030952Y-81904761D01*
X172992857Y-81866666D01*
X172916666Y-81828571D01*
X172764285Y-81828571D01*
X172688095Y-81866666D01*
X172230952Y-81904761D02*
X172307142Y-81866666D01*
X172345238Y-81828571D01*
X172383333Y-81752380D01*
X172383333Y-81714285D01*
X172345238Y-81638095D01*
X172307142Y-81600000D01*
X172230952Y-81561904D01*
X172078571Y-81561904D01*
X172002380Y-81600000D01*
X171964285Y-81638095D01*
X171926190Y-81714285D01*
X171926190Y-81752380D01*
X171964285Y-81828571D01*
X172002380Y-81866666D01*
X172078571Y-81904761D01*
X172230952Y-81904761D01*
X172307142Y-81942857D01*
X172345238Y-81980952D01*
X172383333Y-82057142D01*
X172383333Y-82209523D01*
X172345238Y-82285714D01*
X172307142Y-82323809D01*
X172230952Y-82361904D01*
X172078571Y-82361904D01*
X172002380Y-82323809D01*
X171964285Y-82285714D01*
X171926190Y-82209523D01*
X171926190Y-82057142D01*
X171964285Y-81980952D01*
X172002380Y-81942857D01*
X172078571Y-81904761D01*
X171278571Y-82323809D02*
X171354761Y-82361904D01*
X171507142Y-82361904D01*
X171583333Y-82323809D01*
X171621428Y-82247619D01*
X171621428Y-81942857D01*
X171583333Y-81866666D01*
X171507142Y-81828571D01*
X171354761Y-81828571D01*
X171278571Y-81866666D01*
X171240476Y-81942857D01*
X171240476Y-82019047D01*
X171621428Y-82095238D01*
X170554761Y-81561904D02*
X170707142Y-81561904D01*
X170783333Y-81600000D01*
X170821428Y-81638095D01*
X170897619Y-81752380D01*
X170935714Y-81904761D01*
X170935714Y-82209523D01*
X170897619Y-82285714D01*
X170859523Y-82323809D01*
X170783333Y-82361904D01*
X170630952Y-82361904D01*
X170554761Y-82323809D01*
X170516666Y-82285714D01*
X170478571Y-82209523D01*
X170478571Y-82019047D01*
X170516666Y-81942857D01*
X170554761Y-81904761D01*
X170630952Y-81866666D01*
X170783333Y-81866666D01*
X170859523Y-81904761D01*
X170897619Y-81942857D01*
X170935714Y-82019047D01*
X169716666Y-82361904D02*
X170173809Y-82361904D01*
X169945238Y-82361904D02*
X169945238Y-81561904D01*
X170021428Y-81676190D01*
X170097619Y-81752380D01*
X170173809Y-81790476D01*
X169450000Y-81561904D02*
X168954761Y-81561904D01*
X169221428Y-81866666D01*
X169107142Y-81866666D01*
X169030952Y-81904761D01*
X168992857Y-81942857D01*
X168954761Y-82019047D01*
X168954761Y-82209523D01*
X168992857Y-82285714D01*
X169030952Y-82323809D01*
X169107142Y-82361904D01*
X169335714Y-82361904D01*
X169411904Y-82323809D01*
X169450000Y-82285714D01*
X168611904Y-82361904D02*
X168611904Y-81561904D01*
X168611904Y-81866666D02*
X168535714Y-81828571D01*
X168383333Y-81828571D01*
X168307142Y-81866666D01*
X168269047Y-81904761D01*
X168230952Y-81980952D01*
X168230952Y-82209523D01*
X168269047Y-82285714D01*
X168307142Y-82323809D01*
X168383333Y-82361904D01*
X168535714Y-82361904D01*
X168611904Y-82323809D01*
X167888095Y-82361904D02*
X167888095Y-81561904D01*
X167888095Y-81866666D02*
X167811904Y-81828571D01*
X167659523Y-81828571D01*
X167583333Y-81866666D01*
X167545238Y-81904761D01*
X167507142Y-81980952D01*
X167507142Y-82209523D01*
X167545238Y-82285714D01*
X167583333Y-82323809D01*
X167659523Y-82361904D01*
X167811904Y-82361904D01*
X167888095Y-82323809D01*
X166821428Y-81828571D02*
X166821428Y-82361904D01*
X167011904Y-81523809D02*
X167202380Y-82095238D01*
X166707142Y-82095238D01*
X166516666Y-81828571D02*
X166211904Y-81828571D01*
X166402380Y-82361904D02*
X166402380Y-81676190D01*
X166364285Y-81600000D01*
X166288095Y-81561904D01*
X166211904Y-81561904D01*
X166021428Y-81561904D02*
X165526190Y-81561904D01*
X165792857Y-81866666D01*
X165678571Y-81866666D01*
X165602380Y-81904761D01*
X165564285Y-81942857D01*
X165526190Y-82019047D01*
X165526190Y-82209523D01*
X165564285Y-82285714D01*
X165602380Y-82323809D01*
X165678571Y-82361904D01*
X165907142Y-82361904D01*
X165983333Y-82323809D01*
X166021428Y-82285714D01*
X164840476Y-81828571D02*
X164840476Y-82361904D01*
X165030952Y-81523809D02*
X165221428Y-82095238D01*
X164726190Y-82095238D01*
X164497619Y-81561904D02*
X164002380Y-81561904D01*
X164269047Y-81866666D01*
X164154761Y-81866666D01*
X164078571Y-81904761D01*
X164040476Y-81942857D01*
X164002380Y-82019047D01*
X164002380Y-82209523D01*
X164040476Y-82285714D01*
X164078571Y-82323809D01*
X164154761Y-82361904D01*
X164383333Y-82361904D01*
X164459523Y-82323809D01*
X164497619Y-82285714D01*
X163278571Y-81561904D02*
X163659523Y-81561904D01*
X163697619Y-81942857D01*
X163659523Y-81904761D01*
X163583333Y-81866666D01*
X163392857Y-81866666D01*
X163316666Y-81904761D01*
X163278571Y-81942857D01*
X163240476Y-82019047D01*
X163240476Y-82209523D01*
X163278571Y-82285714D01*
X163316666Y-82323809D01*
X163392857Y-82361904D01*
X163583333Y-82361904D01*
X163659523Y-82323809D01*
X163697619Y-82285714D01*
X162516666Y-81561904D02*
X162897619Y-81561904D01*
X162935714Y-81942857D01*
X162897619Y-81904761D01*
X162821428Y-81866666D01*
X162630952Y-81866666D01*
X162554761Y-81904761D01*
X162516666Y-81942857D01*
X162478571Y-82019047D01*
X162478571Y-82209523D01*
X162516666Y-82285714D01*
X162554761Y-82323809D01*
X162630952Y-82361904D01*
X162821428Y-82361904D01*
X162897619Y-82323809D01*
X162935714Y-82285714D01*
X162211904Y-81561904D02*
X161678571Y-81561904D01*
X162021428Y-82361904D01*
X160992857Y-81561904D02*
X161373809Y-81561904D01*
X161411904Y-81942857D01*
X161373809Y-81904761D01*
X161297619Y-81866666D01*
X161107142Y-81866666D01*
X161030952Y-81904761D01*
X160992857Y-81942857D01*
X160954761Y-82019047D01*
X160954761Y-82209523D01*
X160992857Y-82285714D01*
X161030952Y-82323809D01*
X161107142Y-82361904D01*
X161297619Y-82361904D01*
X161373809Y-82323809D01*
X161411904Y-82285714D01*
X160269047Y-81561904D02*
X160421428Y-81561904D01*
X160497619Y-81600000D01*
X160535714Y-81638095D01*
X160611904Y-81752380D01*
X160650000Y-81904761D01*
X160650000Y-82209523D01*
X160611904Y-82285714D01*
X160573809Y-82323809D01*
X160497619Y-82361904D01*
X160345238Y-82361904D01*
X160269047Y-82323809D01*
X160230952Y-82285714D01*
X160192857Y-82209523D01*
X160192857Y-82019047D01*
X160230952Y-81942857D01*
X160269047Y-81904761D01*
X160345238Y-81866666D01*
X160497619Y-81866666D01*
X160573809Y-81904761D01*
X160611904Y-81942857D01*
X160650000Y-82019047D01*
X159964285Y-81828571D02*
X159659523Y-81828571D01*
X159850000Y-82361904D02*
X159850000Y-81676190D01*
X159811904Y-81600000D01*
X159735714Y-81561904D01*
X159659523Y-81561904D01*
X159469047Y-81561904D02*
X158935714Y-81561904D01*
X159278571Y-82361904D01*
X158630952Y-82361904D02*
X158630952Y-81561904D01*
X158630952Y-81866666D02*
X158554761Y-81828571D01*
X158402380Y-81828571D01*
X158326190Y-81866666D01*
X158288095Y-81904761D01*
X158250000Y-81980952D01*
X158250000Y-82209523D01*
X158288095Y-82285714D01*
X158326190Y-82323809D01*
X158402380Y-82361904D01*
X158554761Y-82361904D01*
X158630952Y-82323809D01*
X157564285Y-82323809D02*
X157640476Y-82361904D01*
X157792857Y-82361904D01*
X157869047Y-82323809D01*
X157907142Y-82285714D01*
X157945238Y-82209523D01*
X157945238Y-81980952D01*
X157907142Y-81904761D01*
X157869047Y-81866666D01*
X157792857Y-81828571D01*
X157640476Y-81828571D01*
X157564285Y-81866666D01*
X156878571Y-82323809D02*
X156954761Y-82361904D01*
X157107142Y-82361904D01*
X157183333Y-82323809D01*
X157221428Y-82285714D01*
X157259523Y-82209523D01*
X157259523Y-81980952D01*
X157221428Y-81904761D01*
X157183333Y-81866666D01*
X157107142Y-81828571D01*
X156954761Y-81828571D01*
X156878571Y-81866666D01*
X156192857Y-81828571D02*
X156192857Y-82361904D01*
X156383333Y-81523809D02*
X156573809Y-82095238D01*
X156078571Y-82095238D01*
X182021428Y-83711904D02*
X182021428Y-82911904D01*
X181678571Y-83711904D02*
X181678571Y-83292857D01*
X181716666Y-83216666D01*
X181792857Y-83178571D01*
X181907142Y-83178571D01*
X181983333Y-83216666D01*
X182021428Y-83254761D01*
X181411904Y-83178571D02*
X181107142Y-83178571D01*
X181297619Y-82911904D02*
X181297619Y-83597619D01*
X181259523Y-83673809D01*
X181183333Y-83711904D01*
X181107142Y-83711904D01*
X180954761Y-83178571D02*
X180650000Y-83178571D01*
X180840476Y-82911904D02*
X180840476Y-83597619D01*
X180802380Y-83673809D01*
X180726190Y-83711904D01*
X180650000Y-83711904D01*
X180383333Y-83178571D02*
X180383333Y-83978571D01*
X180383333Y-83216666D02*
X180307142Y-83178571D01*
X180154761Y-83178571D01*
X180078571Y-83216666D01*
X180040476Y-83254761D01*
X180002380Y-83330952D01*
X180002380Y-83559523D01*
X180040476Y-83635714D01*
X180078571Y-83673809D01*
X180154761Y-83711904D01*
X180307142Y-83711904D01*
X180383333Y-83673809D01*
X179697619Y-83673809D02*
X179621428Y-83711904D01*
X179469047Y-83711904D01*
X179392857Y-83673809D01*
X179354761Y-83597619D01*
X179354761Y-83559523D01*
X179392857Y-83483333D01*
X179469047Y-83445238D01*
X179583333Y-83445238D01*
X179659523Y-83407142D01*
X179697619Y-83330952D01*
X179697619Y-83292857D01*
X179659523Y-83216666D01*
X179583333Y-83178571D01*
X179469047Y-83178571D01*
X179392857Y-83216666D01*
X179011904Y-83635714D02*
X178973809Y-83673809D01*
X179011904Y-83711904D01*
X179050000Y-83673809D01*
X179011904Y-83635714D01*
X179011904Y-83711904D01*
X179011904Y-83216666D02*
X178973809Y-83254761D01*
X179011904Y-83292857D01*
X179050000Y-83254761D01*
X179011904Y-83216666D01*
X179011904Y-83292857D01*
X178059523Y-82873809D02*
X178745238Y-83902380D01*
X177221428Y-82873809D02*
X177907142Y-83902380D01*
X176611904Y-83178571D02*
X176611904Y-83826190D01*
X176650000Y-83902380D01*
X176688095Y-83940476D01*
X176764285Y-83978571D01*
X176878571Y-83978571D01*
X176954761Y-83940476D01*
X176611904Y-83673809D02*
X176688095Y-83711904D01*
X176840476Y-83711904D01*
X176916666Y-83673809D01*
X176954761Y-83635714D01*
X176992857Y-83559523D01*
X176992857Y-83330952D01*
X176954761Y-83254761D01*
X176916666Y-83216666D01*
X176840476Y-83178571D01*
X176688095Y-83178571D01*
X176611904Y-83216666D01*
X176230952Y-83711904D02*
X176230952Y-83178571D01*
X176230952Y-82911904D02*
X176269047Y-82950000D01*
X176230952Y-82988095D01*
X176192857Y-82950000D01*
X176230952Y-82911904D01*
X176230952Y-82988095D01*
X175964285Y-83178571D02*
X175659523Y-83178571D01*
X175850000Y-82911904D02*
X175850000Y-83597619D01*
X175811904Y-83673809D01*
X175735714Y-83711904D01*
X175659523Y-83711904D01*
X175392857Y-83711904D02*
X175392857Y-82911904D01*
X175050000Y-83711904D02*
X175050000Y-83292857D01*
X175088095Y-83216666D01*
X175164285Y-83178571D01*
X175278571Y-83178571D01*
X175354761Y-83216666D01*
X175392857Y-83254761D01*
X174326190Y-83178571D02*
X174326190Y-83711904D01*
X174669047Y-83178571D02*
X174669047Y-83597619D01*
X174630952Y-83673809D01*
X174554761Y-83711904D01*
X174440476Y-83711904D01*
X174364285Y-83673809D01*
X174326190Y-83635714D01*
X173945238Y-83711904D02*
X173945238Y-82911904D01*
X173945238Y-83216666D02*
X173869047Y-83178571D01*
X173716666Y-83178571D01*
X173640476Y-83216666D01*
X173602380Y-83254761D01*
X173564285Y-83330952D01*
X173564285Y-83559523D01*
X173602380Y-83635714D01*
X173640476Y-83673809D01*
X173716666Y-83711904D01*
X173869047Y-83711904D01*
X173945238Y-83673809D01*
X173221428Y-83635714D02*
X173183333Y-83673809D01*
X173221428Y-83711904D01*
X173259523Y-83673809D01*
X173221428Y-83635714D01*
X173221428Y-83711904D01*
X172497619Y-83673809D02*
X172573809Y-83711904D01*
X172726190Y-83711904D01*
X172802380Y-83673809D01*
X172840476Y-83635714D01*
X172878571Y-83559523D01*
X172878571Y-83330952D01*
X172840476Y-83254761D01*
X172802380Y-83216666D01*
X172726190Y-83178571D01*
X172573809Y-83178571D01*
X172497619Y-83216666D01*
X172040476Y-83711904D02*
X172116666Y-83673809D01*
X172154761Y-83635714D01*
X172192857Y-83559523D01*
X172192857Y-83330952D01*
X172154761Y-83254761D01*
X172116666Y-83216666D01*
X172040476Y-83178571D01*
X171926190Y-83178571D01*
X171850000Y-83216666D01*
X171811904Y-83254761D01*
X171773809Y-83330952D01*
X171773809Y-83559523D01*
X171811904Y-83635714D01*
X171850000Y-83673809D01*
X171926190Y-83711904D01*
X172040476Y-83711904D01*
X171430952Y-83711904D02*
X171430952Y-83178571D01*
X171430952Y-83254761D02*
X171392857Y-83216666D01*
X171316666Y-83178571D01*
X171202380Y-83178571D01*
X171126190Y-83216666D01*
X171088095Y-83292857D01*
X171088095Y-83711904D01*
X171088095Y-83292857D02*
X171050000Y-83216666D01*
X170973809Y-83178571D01*
X170859523Y-83178571D01*
X170783333Y-83216666D01*
X170745238Y-83292857D01*
X170745238Y-83711904D01*
X169792857Y-82873809D02*
X170478571Y-83902380D01*
X169602380Y-83178571D02*
X169450000Y-83711904D01*
X169297619Y-83330952D01*
X169145238Y-83711904D01*
X168992857Y-83178571D01*
X168383333Y-83673809D02*
X168459523Y-83711904D01*
X168611904Y-83711904D01*
X168688095Y-83673809D01*
X168726190Y-83597619D01*
X168726190Y-83292857D01*
X168688095Y-83216666D01*
X168611904Y-83178571D01*
X168459523Y-83178571D01*
X168383333Y-83216666D01*
X168345238Y-83292857D01*
X168345238Y-83369047D01*
X168726190Y-83445238D01*
X168040476Y-83673809D02*
X167964285Y-83711904D01*
X167811904Y-83711904D01*
X167735714Y-83673809D01*
X167697619Y-83597619D01*
X167697619Y-83559523D01*
X167735714Y-83483333D01*
X167811904Y-83445238D01*
X167926190Y-83445238D01*
X168002380Y-83407142D01*
X168040476Y-83330952D01*
X168040476Y-83292857D01*
X168002380Y-83216666D01*
X167926190Y-83178571D01*
X167811904Y-83178571D01*
X167735714Y-83216666D01*
X167469047Y-83178571D02*
X167164285Y-83178571D01*
X167354761Y-82911904D02*
X167354761Y-83597619D01*
X167316666Y-83673809D01*
X167240476Y-83711904D01*
X167164285Y-83711904D01*
X166783333Y-83711904D02*
X166859523Y-83673809D01*
X166897619Y-83635714D01*
X166935714Y-83559523D01*
X166935714Y-83330952D01*
X166897619Y-83254761D01*
X166859523Y-83216666D01*
X166783333Y-83178571D01*
X166669047Y-83178571D01*
X166592857Y-83216666D01*
X166554761Y-83254761D01*
X166516666Y-83330952D01*
X166516666Y-83559523D01*
X166554761Y-83635714D01*
X166592857Y-83673809D01*
X166669047Y-83711904D01*
X166783333Y-83711904D01*
X166173809Y-83178571D02*
X166173809Y-83711904D01*
X166173809Y-83254761D02*
X166135714Y-83216666D01*
X166059523Y-83178571D01*
X165945238Y-83178571D01*
X165869047Y-83216666D01*
X165830952Y-83292857D01*
X165830952Y-83711904D01*
X165450000Y-83711904D02*
X165450000Y-82911904D01*
X165450000Y-83216666D02*
X165373809Y-83178571D01*
X165221428Y-83178571D01*
X165145238Y-83216666D01*
X165107142Y-83254761D01*
X165069047Y-83330952D01*
X165069047Y-83559523D01*
X165107142Y-83635714D01*
X165145238Y-83673809D01*
X165221428Y-83711904D01*
X165373809Y-83711904D01*
X165450000Y-83673809D01*
X164154761Y-82873809D02*
X164840476Y-83902380D01*
X163545238Y-83673809D02*
X163621428Y-83711904D01*
X163773809Y-83711904D01*
X163850000Y-83673809D01*
X163888095Y-83635714D01*
X163926190Y-83559523D01*
X163926190Y-83330952D01*
X163888095Y-83254761D01*
X163850000Y-83216666D01*
X163773809Y-83178571D01*
X163621428Y-83178571D01*
X163545238Y-83216666D01*
X162859523Y-83178571D02*
X162859523Y-83711904D01*
X163202380Y-83178571D02*
X163202380Y-83597619D01*
X163164285Y-83673809D01*
X163088095Y-83711904D01*
X162973809Y-83711904D01*
X162897619Y-83673809D01*
X162859523Y-83635714D01*
X162592857Y-83178571D02*
X162288095Y-83178571D01*
X162478571Y-82911904D02*
X162478571Y-83597619D01*
X162440476Y-83673809D01*
X162364285Y-83711904D01*
X162288095Y-83711904D01*
X161716666Y-83673809D02*
X161792857Y-83711904D01*
X161945238Y-83711904D01*
X162021428Y-83673809D01*
X162059523Y-83597619D01*
X162059523Y-83292857D01*
X162021428Y-83216666D01*
X161945238Y-83178571D01*
X161792857Y-83178571D01*
X161716666Y-83216666D01*
X161678571Y-83292857D01*
X161678571Y-83369047D01*
X162059523Y-83445238D01*
X161335714Y-83407142D02*
X160726190Y-83407142D01*
X160002380Y-83178571D02*
X160002380Y-83978571D01*
X160002380Y-83673809D02*
X160078571Y-83711904D01*
X160230952Y-83711904D01*
X160307142Y-83673809D01*
X160345238Y-83635714D01*
X160383333Y-83559523D01*
X160383333Y-83330952D01*
X160345238Y-83254761D01*
X160307142Y-83216666D01*
X160230952Y-83178571D01*
X160078571Y-83178571D01*
X160002380Y-83216666D01*
X159278571Y-83673809D02*
X159354761Y-83711904D01*
X159507142Y-83711904D01*
X159583333Y-83673809D01*
X159621428Y-83635714D01*
X159659523Y-83559523D01*
X159659523Y-83330952D01*
X159621428Y-83254761D01*
X159583333Y-83216666D01*
X159507142Y-83178571D01*
X159354761Y-83178571D01*
X159278571Y-83216666D01*
X159011904Y-83178571D02*
X158859523Y-83711904D01*
X158707142Y-83330952D01*
X158554761Y-83711904D01*
X158402380Y-83178571D01*
D11*
X184392857Y-75510714D02*
X184464285Y-75582142D01*
X184678571Y-75653571D01*
X184821428Y-75653571D01*
X185035714Y-75582142D01*
X185178571Y-75439285D01*
X185250000Y-75296428D01*
X185321428Y-75010714D01*
X185321428Y-74796428D01*
X185250000Y-74510714D01*
X185178571Y-74367857D01*
X185035714Y-74225000D01*
X184821428Y-74153571D01*
X184678571Y-74153571D01*
X184464285Y-74225000D01*
X184392857Y-74296428D01*
X183107142Y-74653571D02*
X183107142Y-75653571D01*
X183750000Y-74653571D02*
X183750000Y-75439285D01*
X183678571Y-75582142D01*
X183535714Y-75653571D01*
X183321428Y-75653571D01*
X183178571Y-75582142D01*
X183107142Y-75510714D01*
X182607142Y-74653571D02*
X182035714Y-74653571D01*
X182392857Y-74153571D02*
X182392857Y-75439285D01*
X182321428Y-75582142D01*
X182178571Y-75653571D01*
X182035714Y-75653571D01*
X180964285Y-75582142D02*
X181107142Y-75653571D01*
X181392857Y-75653571D01*
X181535714Y-75582142D01*
X181607142Y-75439285D01*
X181607142Y-74867857D01*
X181535714Y-74725000D01*
X181392857Y-74653571D01*
X181107142Y-74653571D01*
X180964285Y-74725000D01*
X180892857Y-74867857D01*
X180892857Y-75010714D01*
X181607142Y-75153571D01*
X178107142Y-75796428D02*
X178250000Y-75725000D01*
X178392857Y-75582142D01*
X178607142Y-75367857D01*
X178750000Y-75296428D01*
X178892857Y-75296428D01*
X178821428Y-75653571D02*
X178964285Y-75582142D01*
X179107142Y-75439285D01*
X179178571Y-75153571D01*
X179178571Y-74653571D01*
X179107142Y-74367857D01*
X178964285Y-74225000D01*
X178821428Y-74153571D01*
X178535714Y-74153571D01*
X178392857Y-74225000D01*
X178250000Y-74367857D01*
X178178571Y-74653571D01*
X178178571Y-75153571D01*
X178250000Y-75439285D01*
X178392857Y-75582142D01*
X178535714Y-75653571D01*
X178821428Y-75653571D01*
X176678571Y-75510714D02*
X176750000Y-75582142D01*
X176964285Y-75653571D01*
X177107142Y-75653571D01*
X177321428Y-75582142D01*
X177464285Y-75439285D01*
X177535714Y-75296428D01*
X177607142Y-75010714D01*
X177607142Y-74796428D01*
X177535714Y-74510714D01*
X177464285Y-74367857D01*
X177321428Y-74225000D01*
X177107142Y-74153571D01*
X176964285Y-74153571D01*
X176750000Y-74225000D01*
X176678571Y-74296428D01*
X176178571Y-74153571D02*
X175821428Y-75653571D01*
X175535714Y-74582142D01*
X175250000Y-75653571D01*
X174892857Y-74153571D01*
X173178571Y-75653571D02*
X173178571Y-74153571D01*
X172464285Y-74653571D02*
X172464285Y-75653571D01*
X172464285Y-74796428D02*
X172392857Y-74725000D01*
X172250000Y-74653571D01*
X172035714Y-74653571D01*
X171892857Y-74725000D01*
X171821428Y-74867857D01*
X171821428Y-75653571D01*
X171250000Y-74653571D02*
X170892857Y-75653571D01*
X170535714Y-74653571D01*
X169392857Y-75582142D02*
X169535714Y-75653571D01*
X169821428Y-75653571D01*
X169964285Y-75582142D01*
X170035714Y-75439285D01*
X170035714Y-74867857D01*
X169964285Y-74725000D01*
X169821428Y-74653571D01*
X169535714Y-74653571D01*
X169392857Y-74725000D01*
X169321428Y-74867857D01*
X169321428Y-75010714D01*
X170035714Y-75153571D01*
X168678571Y-75653571D02*
X168678571Y-74653571D01*
X168678571Y-74939285D02*
X168607142Y-74796428D01*
X168535714Y-74725000D01*
X168392857Y-74653571D01*
X168250000Y-74653571D01*
X167964285Y-74653571D02*
X167392857Y-74653571D01*
X167750000Y-74153571D02*
X167750000Y-75439285D01*
X167678571Y-75582142D01*
X167535714Y-75653571D01*
X167392857Y-75653571D01*
X166321428Y-75582142D02*
X166464285Y-75653571D01*
X166750000Y-75653571D01*
X166892857Y-75582142D01*
X166964285Y-75439285D01*
X166964285Y-74867857D01*
X166892857Y-74725000D01*
X166750000Y-74653571D01*
X166464285Y-74653571D01*
X166321428Y-74725000D01*
X166250000Y-74867857D01*
X166250000Y-75010714D01*
X166964285Y-75153571D01*
X165607142Y-75653571D02*
X165607142Y-74653571D01*
X165607142Y-74939285D02*
X165535714Y-74796428D01*
X165464285Y-74725000D01*
X165321428Y-74653571D01*
X165178571Y-74653571D01*
X163035714Y-74867857D02*
X162821428Y-74939285D01*
X162750000Y-75010714D01*
X162678571Y-75153571D01*
X162678571Y-75367857D01*
X162750000Y-75510714D01*
X162821428Y-75582142D01*
X162964285Y-75653571D01*
X163535714Y-75653571D01*
X163535714Y-74153571D01*
X163035714Y-74153571D01*
X162892857Y-74225000D01*
X162821428Y-74296428D01*
X162750000Y-74439285D01*
X162750000Y-74582142D01*
X162821428Y-74725000D01*
X162892857Y-74796428D01*
X163035714Y-74867857D01*
X163535714Y-74867857D01*
X161821428Y-75653571D02*
X161964285Y-75582142D01*
X162035714Y-75510714D01*
X162107142Y-75367857D01*
X162107142Y-74939285D01*
X162035714Y-74796428D01*
X161964285Y-74725000D01*
X161821428Y-74653571D01*
X161607142Y-74653571D01*
X161464285Y-74725000D01*
X161392857Y-74796428D01*
X161321428Y-74939285D01*
X161321428Y-75367857D01*
X161392857Y-75510714D01*
X161464285Y-75582142D01*
X161607142Y-75653571D01*
X161821428Y-75653571D01*
X160035714Y-75653571D02*
X160035714Y-74867857D01*
X160107142Y-74725000D01*
X160250000Y-74653571D01*
X160535714Y-74653571D01*
X160678571Y-74725000D01*
X160035714Y-75582142D02*
X160178571Y-75653571D01*
X160535714Y-75653571D01*
X160678571Y-75582142D01*
X160750000Y-75439285D01*
X160750000Y-75296428D01*
X160678571Y-75153571D01*
X160535714Y-75082142D01*
X160178571Y-75082142D01*
X160035714Y-75010714D01*
X159321428Y-75653571D02*
X159321428Y-74653571D01*
X159321428Y-74939285D02*
X159250000Y-74796428D01*
X159178571Y-74725000D01*
X159035714Y-74653571D01*
X158892857Y-74653571D01*
X157750000Y-75653571D02*
X157750000Y-74153571D01*
X157750000Y-75582142D02*
X157892857Y-75653571D01*
X158178571Y-75653571D01*
X158321428Y-75582142D01*
X158392857Y-75510714D01*
X158464285Y-75367857D01*
X158464285Y-74939285D01*
X158392857Y-74796428D01*
X158321428Y-74725000D01*
X158178571Y-74653571D01*
X157892857Y-74653571D01*
X157750000Y-74725000D01*
X181392857Y-77203571D02*
X181107142Y-78203571D01*
X180821428Y-77489285D01*
X180535714Y-78203571D01*
X180250000Y-77203571D01*
X179035714Y-78203571D02*
X179035714Y-76703571D01*
X179035714Y-78132142D02*
X179178571Y-78203571D01*
X179464285Y-78203571D01*
X179607142Y-78132142D01*
X179678571Y-78060714D01*
X179750000Y-77917857D01*
X179750000Y-77489285D01*
X179678571Y-77346428D01*
X179607142Y-77275000D01*
X179464285Y-77203571D01*
X179178571Y-77203571D01*
X179035714Y-77275000D01*
X178321428Y-78203571D02*
X178321428Y-76703571D01*
X178321428Y-77275000D02*
X178178571Y-77203571D01*
X177892857Y-77203571D01*
X177750000Y-77275000D01*
X177678571Y-77346428D01*
X177607142Y-77489285D01*
X177607142Y-77917857D01*
X177678571Y-78060714D01*
X177750000Y-78132142D01*
X177892857Y-78203571D01*
X178178571Y-78203571D01*
X178321428Y-78132142D01*
X176035714Y-77489285D02*
X176107142Y-77417857D01*
X176250000Y-77346428D01*
X176392857Y-77346428D01*
X176535714Y-77417857D01*
X176607142Y-77489285D01*
X176678571Y-77632142D01*
X176678571Y-77775000D01*
X176607142Y-77917857D01*
X176535714Y-77989285D01*
X176392857Y-78060714D01*
X176250000Y-78060714D01*
X176107142Y-77989285D01*
X176035714Y-77917857D01*
X176035714Y-77346428D02*
X176035714Y-77917857D01*
X175964285Y-77989285D01*
X175892857Y-77989285D01*
X175750000Y-77917857D01*
X175678571Y-77775000D01*
X175678571Y-77417857D01*
X175821428Y-77203571D01*
X176035714Y-77060714D01*
X176321428Y-76989285D01*
X176607142Y-77060714D01*
X176821428Y-77203571D01*
X176964285Y-77417857D01*
X177035714Y-77703571D01*
X176964285Y-77989285D01*
X176821428Y-78203571D01*
X176607142Y-78346428D01*
X176321428Y-78417857D01*
X176035714Y-78346428D01*
X175821428Y-78203571D01*
X175107142Y-78132142D02*
X174964285Y-78203571D01*
X174678571Y-78203571D01*
X174535714Y-78132142D01*
X174464285Y-77989285D01*
X174464285Y-77917857D01*
X174535714Y-77775000D01*
X174678571Y-77703571D01*
X174892857Y-77703571D01*
X175035714Y-77632142D01*
X175107142Y-77489285D01*
X175107142Y-77417857D01*
X175035714Y-77275000D01*
X174892857Y-77203571D01*
X174678571Y-77203571D01*
X174535714Y-77275000D01*
X174035714Y-77203571D02*
X173464285Y-77203571D01*
X173821428Y-76703571D02*
X173821428Y-77989285D01*
X173750000Y-78132142D01*
X173607142Y-78203571D01*
X173464285Y-78203571D01*
X172321428Y-78203571D02*
X172321428Y-77417857D01*
X172392857Y-77275000D01*
X172535714Y-77203571D01*
X172821428Y-77203571D01*
X172964285Y-77275000D01*
X172321428Y-78132142D02*
X172464285Y-78203571D01*
X172821428Y-78203571D01*
X172964285Y-78132142D01*
X173035714Y-77989285D01*
X173035714Y-77846428D01*
X172964285Y-77703571D01*
X172821428Y-77632142D01*
X172464285Y-77632142D01*
X172321428Y-77560714D01*
X171607142Y-77203571D02*
X171607142Y-78203571D01*
X171607142Y-77346428D02*
X171535714Y-77275000D01*
X171392857Y-77203571D01*
X171178571Y-77203571D01*
X171035714Y-77275000D01*
X170964285Y-77417857D01*
X170964285Y-78203571D01*
X170464285Y-77203571D02*
X169892857Y-77203571D01*
X170250000Y-78203571D02*
X170250000Y-76917857D01*
X170178571Y-76775000D01*
X170035714Y-76703571D01*
X169892857Y-76703571D01*
X169178571Y-78203571D02*
X169321428Y-78132142D01*
X169392857Y-78060714D01*
X169464285Y-77917857D01*
X169464285Y-77489285D01*
X169392857Y-77346428D01*
X169321428Y-77275000D01*
X169178571Y-77203571D01*
X168964285Y-77203571D01*
X168821428Y-77275000D01*
X168750000Y-77346428D01*
X168678571Y-77489285D01*
X168678571Y-77917857D01*
X168750000Y-78060714D01*
X168821428Y-78132142D01*
X168964285Y-78203571D01*
X169178571Y-78203571D01*
X168035714Y-78203571D02*
X168035714Y-77203571D01*
X168035714Y-77489285D02*
X167964285Y-77346428D01*
X167892857Y-77275000D01*
X167750000Y-77203571D01*
X167607142Y-77203571D01*
X166464285Y-78203571D02*
X166464285Y-76703571D01*
X166464285Y-78132142D02*
X166607142Y-78203571D01*
X166892857Y-78203571D01*
X167035714Y-78132142D01*
X167107142Y-78060714D01*
X167178571Y-77917857D01*
X167178571Y-77489285D01*
X167107142Y-77346428D01*
X167035714Y-77275000D01*
X166892857Y-77203571D01*
X166607142Y-77203571D01*
X166464285Y-77275000D01*
X165750000Y-78060714D02*
X165678571Y-78132142D01*
X165750000Y-78203571D01*
X165821428Y-78132142D01*
X165750000Y-78060714D01*
X165750000Y-78203571D01*
X164464285Y-78132142D02*
X164607142Y-78203571D01*
X164892857Y-78203571D01*
X165035714Y-78132142D01*
X165107142Y-77989285D01*
X165107142Y-77417857D01*
X165035714Y-77275000D01*
X164892857Y-77203571D01*
X164607142Y-77203571D01*
X164464285Y-77275000D01*
X164392857Y-77417857D01*
X164392857Y-77560714D01*
X165107142Y-77703571D01*
X163107142Y-78203571D02*
X163107142Y-76703571D01*
X163107142Y-78132142D02*
X163250000Y-78203571D01*
X163535714Y-78203571D01*
X163678571Y-78132142D01*
X163750000Y-78060714D01*
X163821428Y-77917857D01*
X163821428Y-77489285D01*
X163750000Y-77346428D01*
X163678571Y-77275000D01*
X163535714Y-77203571D01*
X163250000Y-77203571D01*
X163107142Y-77275000D01*
X161750000Y-77203571D02*
X161750000Y-78203571D01*
X162392857Y-77203571D02*
X162392857Y-77989285D01*
X162321428Y-78132142D01*
X162178571Y-78203571D01*
X161964285Y-78203571D01*
X161821428Y-78132142D01*
X161750000Y-78060714D01*
M02*
