M48
;DRILL file {KiCad 5.0.2-bee76a0~70~ubuntu18.04.1} date Wed 23 Jan 2019 11:22:48 AM PST
;FORMAT={-:-/ absolute / inch / decimal}
FMAT,2
INCH,TZ
T1C0.0157
T2C0.0197
T3C0.0394
T4C0.0472
T5C0.0591
T6C0.0728
T7C0.1299
T8C0.1299
%
G90
G05
T1
X7.5787Y-3.7008
X7.6181Y-3.622
X7.6181Y-3.7795
X7.6969Y-3.6024
X7.6969Y-3.8189
X7.7756Y-3.622
X7.7756Y-3.7795
X7.815Y-3.7008
X4.0354Y-3.7008
X4.0748Y-3.622
X4.0748Y-3.7795
X4.1535Y-3.6024
X4.1535Y-3.8189
X4.2323Y-3.622
X4.2323Y-3.7795
X4.2717Y-3.7008
X4.0354Y-2.3031
X4.0748Y-2.2244
X4.0748Y-2.3819
X4.1535Y-2.2047
X4.1535Y-2.4213
X4.2323Y-2.2244
X4.2323Y-2.3819
X4.2717Y-2.3031
X7.5787Y-2.3031
X7.6181Y-2.2244
X7.6181Y-2.3819
X7.6969Y-2.2047
X7.6969Y-2.4213
X7.7756Y-2.2244
X7.7756Y-2.3819
X7.815Y-2.3031
T2
X4.5472Y-2.8248
X4.5472Y-2.8839
X4.5472Y-2.9429
X4.5472Y-3.002
X4.5472Y-3.061
X4.5472Y-3.1201
X4.5472Y-3.1791
X4.5866Y-4.0551
X4.5866Y-4.0945
X4.6063Y-2.8248
X4.6063Y-2.8839
X4.6063Y-2.9429
X4.6063Y-3.002
X4.6063Y-3.061
X4.6063Y-3.1201
X4.6063Y-3.1791
X4.6654Y-2.8248
X4.6654Y-2.8839
X4.6654Y-2.9429
X4.6654Y-3.002
X4.6654Y-3.061
X4.6654Y-3.1201
X4.6654Y-3.1791
X4.7244Y-2.8248
X4.7244Y-2.8839
X4.7244Y-2.9429
X4.7244Y-3.002
X4.7244Y-3.061
X4.7244Y-3.1201
X4.7244Y-3.1791
X4.7835Y-2.8248
X4.7835Y-2.8839
X4.7835Y-2.9429
X4.7835Y-3.002
X4.7835Y-3.061
X4.7835Y-3.1201
X4.7835Y-3.1791
X4.8425Y-2.8248
X4.8425Y-2.8839
X4.8425Y-2.9429
X4.8425Y-3.002
X4.8425Y-3.061
X4.8425Y-3.1201
X4.8425Y-3.1791
X4.9016Y-1.9094
X4.9016Y-1.9488
X4.9016Y-2.8248
X4.9016Y-2.8839
X4.9016Y-2.9429
X4.9016Y-3.002
X4.9016Y-3.061
X4.9016Y-3.1201
X4.9016Y-3.1791
X4.9606Y-2.8248
X4.9606Y-2.8839
X4.9606Y-2.9429
X4.9606Y-3.002
X4.9606Y-3.061
X4.9606Y-3.1201
X4.9606Y-3.1791
X5.374Y-4.0551
X5.374Y-4.0945
X5.3937Y-2.8248
X5.3937Y-2.8839
X5.3937Y-2.9429
X5.3937Y-3.002
X5.3937Y-3.061
X5.3937Y-3.1201
X5.3937Y-3.1791
X5.4528Y-2.8248
X5.4528Y-2.8839
X5.4528Y-2.9429
X5.4528Y-3.002
X5.4528Y-3.061
X5.4528Y-3.1201
X5.4528Y-3.1791
X5.5118Y-2.8248
X5.5118Y-2.8839
X5.5118Y-2.9429
X5.5118Y-3.002
X5.5118Y-3.061
X5.5118Y-3.1201
X5.5118Y-3.1791
X5.5709Y-2.8248
X5.5709Y-2.8839
X5.5709Y-2.9429
X5.5709Y-3.002
X5.5709Y-3.061
X5.5709Y-3.1201
X5.5709Y-3.1791
X5.6299Y-2.8248
X5.6299Y-2.8839
X5.6299Y-2.9429
X5.6299Y-3.002
X5.6299Y-3.061
X5.6299Y-3.1201
X5.6299Y-3.1791
X5.689Y-1.8799
X5.689Y-1.9193
X5.689Y-2.8248
X5.689Y-2.8839
X5.689Y-2.9429
X5.689Y-3.002
X5.689Y-3.061
X5.689Y-3.1201
X5.689Y-3.1791
X5.748Y-2.8248
X5.748Y-2.8839
X5.748Y-2.9429
X5.748Y-3.002
X5.748Y-3.061
X5.748Y-3.1201
X5.748Y-3.1791
X5.8071Y-2.8248
X5.8071Y-2.8839
X5.8071Y-2.9429
X5.8071Y-3.002
X5.8071Y-3.061
X5.8071Y-3.1201
X5.8071Y-3.1791
X6.1614Y-4.0551
X6.1614Y-4.0945
X6.4764Y-1.9094
X6.4764Y-1.9488
X6.9488Y-4.0551
X6.9488Y-4.0945
X7.2638Y-1.8799
X7.2638Y-1.9193
T3
X5.1673Y-4.0354
X5.1673Y-4.1354
X6.7421Y-4.0354
X6.7421Y-4.1354
X5.0984Y-1.8701
X5.0984Y-1.9701
X6.6732Y-1.8701
X6.6732Y-1.9701
T4
X4.7047Y-2.4409
X4.7047Y-3.5236
X7.0669Y-2.4409
X7.0669Y-3.5236
X6.2795Y-2.4409
X6.2795Y-3.5236
X5.4921Y-2.4409
X5.4921Y-3.5236
T5
X4.5295Y-2.1654
X4.7441Y-2.1654
X4.9587Y-2.1654
X6.1043Y-3.8386
X6.3189Y-3.8386
X6.5335Y-3.8386
X4.5295Y-3.8386
X4.7441Y-3.8386
X4.9587Y-3.8386
X6.8917Y-2.1654
X7.1063Y-2.1654
X7.3209Y-2.1654
X6.1043Y-2.1654
X6.3189Y-2.1654
X6.5335Y-2.1654
X5.3169Y-2.1654
X5.5315Y-2.1654
X5.7461Y-2.1654
X5.3169Y-3.8386
X5.5315Y-3.8386
X5.7461Y-3.8386
X6.8917Y-3.8386
X7.1063Y-3.8386
X7.3209Y-3.8386
T6
X7.5984Y-2.549
X7.5984Y-2.825
X7.7953Y-2.549
X7.7953Y-2.825
X7.5984Y-3.1789
X7.5984Y-3.4549
X7.7953Y-3.1789
X7.7953Y-3.4549
X4.0551Y-3.1789
X4.0551Y-3.4549
X4.252Y-3.1789
X4.252Y-3.4549
X4.0551Y-2.549
X4.0551Y-2.825
X4.252Y-2.549
X4.252Y-2.825
T7
X7.6969Y-3.7008
X4.1535Y-3.7008
X4.1535Y-2.3031
X7.6969Y-2.3031
T8
X4.1142Y-1.9488
X7.7362Y-4.0551
X7.7362Y-1.9488
X4.1142Y-4.0551
T0
M30
