G04 #@! TF.GenerationSoftware,KiCad,Pcbnew,5.0.2-bee76a0~70~ubuntu18.04.1*
G04 #@! TF.CreationDate,2019-01-23T11:21:40-08:00*
G04 #@! TF.ProjectId,inverter,696e7665-7274-4657-922e-6b696361645f,rev?*
G04 #@! TF.SameCoordinates,Original*
G04 #@! TF.FileFunction,Legend,Top*
G04 #@! TF.FilePolarity,Positive*
%FSLAX46Y46*%
G04 Gerber Fmt 4.6, Leading zero omitted, Abs format (unit mm)*
G04 Created by KiCad (PCBNEW 5.0.2-bee76a0~70~ubuntu18.04.1) date Wed 23 Jan 2019 11:21:40 AM PST*
%MOMM*%
%LPD*%
G01*
G04 APERTURE LIST*
%ADD10C,0.300000*%
%ADD11C,0.120000*%
%ADD12C,0.150000*%
G04 APERTURE END LIST*
D10*
X192250000Y-98678571D02*
X192750000Y-100178571D01*
X193250000Y-98678571D01*
X193678571Y-100107142D02*
X193892857Y-100178571D01*
X194250000Y-100178571D01*
X194392857Y-100107142D01*
X194464285Y-100035714D01*
X194535714Y-99892857D01*
X194535714Y-99750000D01*
X194464285Y-99607142D01*
X194392857Y-99535714D01*
X194250000Y-99464285D01*
X193964285Y-99392857D01*
X193821428Y-99321428D01*
X193750000Y-99250000D01*
X193678571Y-99107142D01*
X193678571Y-98964285D01*
X193750000Y-98821428D01*
X193821428Y-98750000D01*
X193964285Y-98678571D01*
X194321428Y-98678571D01*
X194535714Y-98750000D01*
X195035714Y-98678571D02*
X195392857Y-100178571D01*
X195678571Y-99107142D01*
X195964285Y-100178571D01*
X196321428Y-98678571D01*
X196892857Y-99607142D02*
X198035714Y-99607142D01*
X191750000Y-52178571D02*
X192250000Y-53678571D01*
X192750000Y-52178571D01*
X193178571Y-53607142D02*
X193392857Y-53678571D01*
X193750000Y-53678571D01*
X193892857Y-53607142D01*
X193964285Y-53535714D01*
X194035714Y-53392857D01*
X194035714Y-53250000D01*
X193964285Y-53107142D01*
X193892857Y-53035714D01*
X193750000Y-52964285D01*
X193464285Y-52892857D01*
X193321428Y-52821428D01*
X193250000Y-52750000D01*
X193178571Y-52607142D01*
X193178571Y-52464285D01*
X193250000Y-52321428D01*
X193321428Y-52250000D01*
X193464285Y-52178571D01*
X193821428Y-52178571D01*
X194035714Y-52250000D01*
X194535714Y-52178571D02*
X194892857Y-53678571D01*
X195178571Y-52607142D01*
X195464285Y-53678571D01*
X195821428Y-52178571D01*
X196392857Y-53107142D02*
X197535714Y-53107142D01*
X196964285Y-53678571D02*
X196964285Y-52535714D01*
X101178571Y-98678571D02*
X101678571Y-100178571D01*
X102178571Y-98678571D01*
X102678571Y-100178571D02*
X102678571Y-98678571D01*
X103392857Y-100178571D02*
X103392857Y-98678571D01*
X104250000Y-100178571D01*
X104250000Y-98678571D01*
X104964285Y-99607142D02*
X106107142Y-99607142D01*
X101178571Y-52178571D02*
X101678571Y-53678571D01*
X102178571Y-52178571D01*
X102678571Y-53678571D02*
X102678571Y-52178571D01*
X103392857Y-53678571D02*
X103392857Y-52178571D01*
X104250000Y-53678571D01*
X104250000Y-52178571D01*
X104964285Y-53107142D02*
X106107142Y-53107142D01*
X105535714Y-53678571D02*
X105535714Y-52535714D01*
D11*
G04 #@! TO.C,C4*
X188120000Y-59880000D02*
X188120000Y-91620000D01*
X170880000Y-59880000D02*
X170880000Y-91620000D01*
X188120000Y-59880000D02*
X170880000Y-59880000D01*
X188120000Y-91620000D02*
X170880000Y-91620000D01*
G04 #@! TO.C,C2*
X148120000Y-59880000D02*
X148120000Y-91620000D01*
X130880000Y-59880000D02*
X130880000Y-91620000D01*
X148120000Y-59880000D02*
X130880000Y-59880000D01*
X148120000Y-91620000D02*
X130880000Y-91620000D01*
G04 #@! TO.C,Q1*
X112430000Y-52549000D02*
X128570000Y-52549000D01*
X112430000Y-57820000D02*
X128570000Y-57820000D01*
X112430000Y-52549000D02*
X112430000Y-57820000D01*
X128570000Y-52549000D02*
X128570000Y-57820000D01*
X118696000Y-52549000D02*
X118696000Y-57820000D01*
X122305000Y-52549000D02*
X122305000Y-57820000D01*
G04 #@! TO.C,Q2*
X118695000Y-99951000D02*
X118695000Y-94680000D01*
X122304000Y-99951000D02*
X122304000Y-94680000D01*
X112430000Y-99951000D02*
X112430000Y-94680000D01*
X128570000Y-99951000D02*
X128570000Y-94680000D01*
X128570000Y-94680000D02*
X112430000Y-94680000D01*
X128570000Y-99951000D02*
X112430000Y-99951000D01*
G04 #@! TO.C,Q3*
X142305000Y-52549000D02*
X142305000Y-57820000D01*
X138696000Y-52549000D02*
X138696000Y-57820000D01*
X148570000Y-52549000D02*
X148570000Y-57820000D01*
X132430000Y-52549000D02*
X132430000Y-57820000D01*
X132430000Y-57820000D02*
X148570000Y-57820000D01*
X132430000Y-52549000D02*
X148570000Y-52549000D01*
G04 #@! TO.C,Q4*
X148570000Y-99951000D02*
X132430000Y-99951000D01*
X148570000Y-94680000D02*
X132430000Y-94680000D01*
X148570000Y-99951000D02*
X148570000Y-94680000D01*
X132430000Y-99951000D02*
X132430000Y-94680000D01*
X142304000Y-99951000D02*
X142304000Y-94680000D01*
X138695000Y-99951000D02*
X138695000Y-94680000D01*
G04 #@! TO.C,C1*
X128120000Y-91620000D02*
X110880000Y-91620000D01*
X128120000Y-59880000D02*
X110880000Y-59880000D01*
X110880000Y-59880000D02*
X110880000Y-91620000D01*
X128120000Y-59880000D02*
X128120000Y-91620000D01*
G04 #@! TO.C,C3*
X168120000Y-91620000D02*
X150880000Y-91620000D01*
X168120000Y-59880000D02*
X150880000Y-59880000D01*
X150880000Y-59880000D02*
X150880000Y-91620000D01*
X168120000Y-59880000D02*
X168120000Y-91620000D01*
G04 #@! TO.C,Q5*
X162305000Y-52549000D02*
X162305000Y-57820000D01*
X158696000Y-52549000D02*
X158696000Y-57820000D01*
X168570000Y-52549000D02*
X168570000Y-57820000D01*
X152430000Y-52549000D02*
X152430000Y-57820000D01*
X152430000Y-57820000D02*
X168570000Y-57820000D01*
X152430000Y-52549000D02*
X168570000Y-52549000D01*
G04 #@! TO.C,Q6*
X158695000Y-99951000D02*
X158695000Y-94680000D01*
X162304000Y-99951000D02*
X162304000Y-94680000D01*
X152430000Y-99951000D02*
X152430000Y-94680000D01*
X168570000Y-99951000D02*
X168570000Y-94680000D01*
X168570000Y-94680000D02*
X152430000Y-94680000D01*
X168570000Y-99951000D02*
X152430000Y-99951000D01*
G04 #@! TO.C,Q7*
X172430000Y-52549000D02*
X188570000Y-52549000D01*
X172430000Y-57820000D02*
X188570000Y-57820000D01*
X172430000Y-52549000D02*
X172430000Y-57820000D01*
X188570000Y-52549000D02*
X188570000Y-57820000D01*
X178696000Y-52549000D02*
X178696000Y-57820000D01*
X182305000Y-52549000D02*
X182305000Y-57820000D01*
G04 #@! TO.C,Q8*
X188570000Y-99951000D02*
X172430000Y-99951000D01*
X188570000Y-94680000D02*
X172430000Y-94680000D01*
X188570000Y-99951000D02*
X188570000Y-94680000D01*
X172430000Y-99951000D02*
X172430000Y-94680000D01*
X182304000Y-99951000D02*
X182304000Y-94680000D01*
X178695000Y-99951000D02*
X178695000Y-94680000D01*
D12*
G04 #@! TO.C,J1*
X105000000Y-72250000D02*
X106000000Y-72250000D01*
X105000000Y-64250000D02*
X106000000Y-64250000D01*
X107302776Y-68250000D02*
G75*
G03X107302776Y-68250000I-1802776J0D01*
G01*
G04 #@! TO.C,J2*
X107302776Y-84250000D02*
G75*
G03X107302776Y-84250000I-1802776J0D01*
G01*
X105000000Y-80250000D02*
X106000000Y-80250000D01*
X105000000Y-88250000D02*
X106000000Y-88250000D01*
G04 #@! TO.C,J3*
X195000000Y-72250000D02*
X196000000Y-72250000D01*
X195000000Y-64250000D02*
X196000000Y-64250000D01*
X197302776Y-68250000D02*
G75*
G03X197302776Y-68250000I-1802776J0D01*
G01*
G04 #@! TO.C,J4*
X197302776Y-84250000D02*
G75*
G03X197302776Y-84250000I-1802776J0D01*
G01*
X195000000Y-80250000D02*
X196000000Y-80250000D01*
X195000000Y-88250000D02*
X196000000Y-88250000D01*
D11*
G04 #@! TO.C,J5*
X128170000Y-51370000D02*
X130830000Y-51370000D01*
X128170000Y-48770000D02*
X128170000Y-51370000D01*
X130830000Y-48770000D02*
X130830000Y-51370000D01*
X128170000Y-48770000D02*
X130830000Y-48770000D01*
X128170000Y-47500000D02*
X128170000Y-46170000D01*
X128170000Y-46170000D02*
X129500000Y-46170000D01*
G04 #@! TO.C,J6*
X132580000Y-106370000D02*
X131250000Y-106370000D01*
X132580000Y-105040000D02*
X132580000Y-106370000D01*
X132580000Y-103770000D02*
X129920000Y-103770000D01*
X129920000Y-103770000D02*
X129920000Y-101170000D01*
X132580000Y-103770000D02*
X132580000Y-101170000D01*
X132580000Y-101170000D02*
X129920000Y-101170000D01*
G04 #@! TO.C,J7*
X168170000Y-51370000D02*
X170830000Y-51370000D01*
X168170000Y-48770000D02*
X168170000Y-51370000D01*
X170830000Y-48770000D02*
X170830000Y-51370000D01*
X168170000Y-48770000D02*
X170830000Y-48770000D01*
X168170000Y-47500000D02*
X168170000Y-46170000D01*
X168170000Y-46170000D02*
X169500000Y-46170000D01*
G04 #@! TO.C,J8*
X172580000Y-106370000D02*
X171250000Y-106370000D01*
X172580000Y-105040000D02*
X172580000Y-106370000D01*
X172580000Y-103770000D02*
X169920000Y-103770000D01*
X169920000Y-103770000D02*
X169920000Y-101170000D01*
X172580000Y-103770000D02*
X172580000Y-101170000D01*
X172580000Y-101170000D02*
X169920000Y-101170000D01*
G04 #@! TO.C,D1*
X114250000Y-47800000D02*
X112250000Y-47800000D01*
X112250000Y-47800000D02*
X112250000Y-51650000D01*
X114250000Y-47800000D02*
X114250000Y-51650000D01*
G04 #@! TO.C,D2*
X126500000Y-104700000D02*
X128500000Y-104700000D01*
X128500000Y-104700000D02*
X128500000Y-100850000D01*
X126500000Y-104700000D02*
X126500000Y-100850000D01*
G04 #@! TO.C,D3*
X134250000Y-47800000D02*
X132250000Y-47800000D01*
X132250000Y-47800000D02*
X132250000Y-51650000D01*
X134250000Y-47800000D02*
X134250000Y-51650000D01*
G04 #@! TO.C,D4*
X146750000Y-104700000D02*
X146750000Y-100850000D01*
X148750000Y-104700000D02*
X148750000Y-100850000D01*
X146750000Y-104700000D02*
X148750000Y-104700000D01*
G04 #@! TO.C,D5*
X154250000Y-47800000D02*
X154250000Y-51650000D01*
X152250000Y-47800000D02*
X152250000Y-51650000D01*
X154250000Y-47800000D02*
X152250000Y-47800000D01*
G04 #@! TO.C,D6*
X166500000Y-104700000D02*
X168500000Y-104700000D01*
X168500000Y-104700000D02*
X168500000Y-100850000D01*
X166500000Y-104700000D02*
X166500000Y-100850000D01*
G04 #@! TO.C,D7*
X174250000Y-47800000D02*
X172250000Y-47800000D01*
X172250000Y-47800000D02*
X172250000Y-51650000D01*
X174250000Y-47800000D02*
X174250000Y-51650000D01*
G04 #@! TO.C,D8*
X186750000Y-104700000D02*
X186750000Y-100850000D01*
X188750000Y-104700000D02*
X188750000Y-100850000D01*
X186750000Y-104700000D02*
X188750000Y-104700000D01*
G04 #@! TO.C,R1*
X116660000Y-50602064D02*
X116660000Y-49397936D01*
X114840000Y-50602064D02*
X114840000Y-49397936D01*
G04 #@! TO.C,R2*
X125090000Y-50602064D02*
X125090000Y-49397936D01*
X126910000Y-50602064D02*
X126910000Y-49397936D01*
G04 #@! TO.C,R3*
X124340000Y-101897936D02*
X124340000Y-103102064D01*
X126160000Y-101897936D02*
X126160000Y-103102064D01*
G04 #@! TO.C,R4*
X134090000Y-101897936D02*
X134090000Y-103102064D01*
X135910000Y-101897936D02*
X135910000Y-103102064D01*
G04 #@! TO.C,R5*
X134840000Y-50602064D02*
X134840000Y-49397936D01*
X136660000Y-50602064D02*
X136660000Y-49397936D01*
G04 #@! TO.C,R6*
X146910000Y-50602064D02*
X146910000Y-49397936D01*
X145090000Y-50602064D02*
X145090000Y-49397936D01*
G04 #@! TO.C,R7*
X146160000Y-101897936D02*
X146160000Y-103102064D01*
X144340000Y-101897936D02*
X144340000Y-103102064D01*
G04 #@! TO.C,R8*
X115910000Y-101897936D02*
X115910000Y-103102064D01*
X114090000Y-101897936D02*
X114090000Y-103102064D01*
G04 #@! TO.C,R9*
X154840000Y-50602064D02*
X154840000Y-49397936D01*
X156660000Y-50602064D02*
X156660000Y-49397936D01*
G04 #@! TO.C,R10*
X166910000Y-50602064D02*
X166910000Y-49397936D01*
X165090000Y-50602064D02*
X165090000Y-49397936D01*
G04 #@! TO.C,R11*
X164340000Y-101897936D02*
X164340000Y-103102064D01*
X166160000Y-101897936D02*
X166160000Y-103102064D01*
G04 #@! TO.C,R12*
X155910000Y-101897936D02*
X155910000Y-103102064D01*
X154090000Y-101897936D02*
X154090000Y-103102064D01*
G04 #@! TO.C,R13*
X176660000Y-50602064D02*
X176660000Y-49397936D01*
X174840000Y-50602064D02*
X174840000Y-49397936D01*
G04 #@! TO.C,R14*
X185090000Y-50602064D02*
X185090000Y-49397936D01*
X186910000Y-50602064D02*
X186910000Y-49397936D01*
G04 #@! TO.C,R15*
X186160000Y-101897936D02*
X186160000Y-103102064D01*
X184340000Y-101897936D02*
X184340000Y-103102064D01*
G04 #@! TO.C,R16*
X174090000Y-101897936D02*
X174090000Y-103102064D01*
X175910000Y-101897936D02*
X175910000Y-103102064D01*
G04 #@! TD*
M02*
