G04 #@! TF.GenerationSoftware,KiCad,Pcbnew,5.0.2-bee76a0~70~ubuntu18.04.1*
G04 #@! TF.CreationDate,2019-01-25T00:18:25-08:00*
G04 #@! TF.ProjectId,mmc,6d6d632e-6b69-4636-9164-5f7063625858,rev?*
G04 #@! TF.SameCoordinates,Original*
G04 #@! TF.FileFunction,Legend,Top*
G04 #@! TF.FilePolarity,Positive*
%FSLAX46Y46*%
G04 Gerber Fmt 4.6, Leading zero omitted, Abs format (unit mm)*
G04 Created by KiCad (PCBNEW 5.0.2-bee76a0~70~ubuntu18.04.1) date Fri 25 Jan 2019 12:18:25 AM PST*
%MOMM*%
%LPD*%
G01*
G04 APERTURE LIST*
%ADD10C,0.300000*%
%ADD11C,0.120000*%
%ADD12C,0.150000*%
G04 APERTURE END LIST*
D10*
X78178571Y-126428571D02*
X78178571Y-124928571D01*
X78821428Y-126428571D02*
X78821428Y-125642857D01*
X78750000Y-125500000D01*
X78607142Y-125428571D01*
X78392857Y-125428571D01*
X78250000Y-125500000D01*
X78178571Y-125571428D01*
X79321428Y-125428571D02*
X79892857Y-125428571D01*
X79535714Y-124928571D02*
X79535714Y-126214285D01*
X79607142Y-126357142D01*
X79750000Y-126428571D01*
X79892857Y-126428571D01*
X80178571Y-125428571D02*
X80750000Y-125428571D01*
X80392857Y-124928571D02*
X80392857Y-126214285D01*
X80464285Y-126357142D01*
X80607142Y-126428571D01*
X80750000Y-126428571D01*
X81250000Y-125428571D02*
X81250000Y-126928571D01*
X81250000Y-125500000D02*
X81392857Y-125428571D01*
X81678571Y-125428571D01*
X81821428Y-125500000D01*
X81892857Y-125571428D01*
X81964285Y-125714285D01*
X81964285Y-126142857D01*
X81892857Y-126285714D01*
X81821428Y-126357142D01*
X81678571Y-126428571D01*
X81392857Y-126428571D01*
X81250000Y-126357142D01*
X82535714Y-126357142D02*
X82678571Y-126428571D01*
X82964285Y-126428571D01*
X83107142Y-126357142D01*
X83178571Y-126214285D01*
X83178571Y-126142857D01*
X83107142Y-126000000D01*
X82964285Y-125928571D01*
X82750000Y-125928571D01*
X82607142Y-125857142D01*
X82535714Y-125714285D01*
X82535714Y-125642857D01*
X82607142Y-125500000D01*
X82750000Y-125428571D01*
X82964285Y-125428571D01*
X83107142Y-125500000D01*
X83821428Y-126285714D02*
X83892857Y-126357142D01*
X83821428Y-126428571D01*
X83750000Y-126357142D01*
X83821428Y-126285714D01*
X83821428Y-126428571D01*
X83821428Y-125500000D02*
X83892857Y-125571428D01*
X83821428Y-125642857D01*
X83750000Y-125571428D01*
X83821428Y-125500000D01*
X83821428Y-125642857D01*
X85607142Y-124857142D02*
X84321428Y-126785714D01*
X87178571Y-124857142D02*
X85892857Y-126785714D01*
X88321428Y-125428571D02*
X88321428Y-126642857D01*
X88250000Y-126785714D01*
X88178571Y-126857142D01*
X88035714Y-126928571D01*
X87821428Y-126928571D01*
X87678571Y-126857142D01*
X88321428Y-126357142D02*
X88178571Y-126428571D01*
X87892857Y-126428571D01*
X87750000Y-126357142D01*
X87678571Y-126285714D01*
X87607142Y-126142857D01*
X87607142Y-125714285D01*
X87678571Y-125571428D01*
X87750000Y-125500000D01*
X87892857Y-125428571D01*
X88178571Y-125428571D01*
X88321428Y-125500000D01*
X89035714Y-126428571D02*
X89035714Y-125428571D01*
X89035714Y-124928571D02*
X88964285Y-125000000D01*
X89035714Y-125071428D01*
X89107142Y-125000000D01*
X89035714Y-124928571D01*
X89035714Y-125071428D01*
X89535714Y-125428571D02*
X90107142Y-125428571D01*
X89750000Y-124928571D02*
X89750000Y-126214285D01*
X89821428Y-126357142D01*
X89964285Y-126428571D01*
X90107142Y-126428571D01*
X90607142Y-126428571D02*
X90607142Y-124928571D01*
X91250000Y-126428571D02*
X91250000Y-125642857D01*
X91178571Y-125500000D01*
X91035714Y-125428571D01*
X90821428Y-125428571D01*
X90678571Y-125500000D01*
X90607142Y-125571428D01*
X92607142Y-125428571D02*
X92607142Y-126428571D01*
X91964285Y-125428571D02*
X91964285Y-126214285D01*
X92035714Y-126357142D01*
X92178571Y-126428571D01*
X92392857Y-126428571D01*
X92535714Y-126357142D01*
X92607142Y-126285714D01*
X93321428Y-126428571D02*
X93321428Y-124928571D01*
X93321428Y-125500000D02*
X93464285Y-125428571D01*
X93750000Y-125428571D01*
X93892857Y-125500000D01*
X93964285Y-125571428D01*
X94035714Y-125714285D01*
X94035714Y-126142857D01*
X93964285Y-126285714D01*
X93892857Y-126357142D01*
X93750000Y-126428571D01*
X93464285Y-126428571D01*
X93321428Y-126357142D01*
X94678571Y-126285714D02*
X94750000Y-126357142D01*
X94678571Y-126428571D01*
X94607142Y-126357142D01*
X94678571Y-126285714D01*
X94678571Y-126428571D01*
X96035714Y-126357142D02*
X95892857Y-126428571D01*
X95607142Y-126428571D01*
X95464285Y-126357142D01*
X95392857Y-126285714D01*
X95321428Y-126142857D01*
X95321428Y-125714285D01*
X95392857Y-125571428D01*
X95464285Y-125500000D01*
X95607142Y-125428571D01*
X95892857Y-125428571D01*
X96035714Y-125500000D01*
X96892857Y-126428571D02*
X96750000Y-126357142D01*
X96678571Y-126285714D01*
X96607142Y-126142857D01*
X96607142Y-125714285D01*
X96678571Y-125571428D01*
X96750000Y-125500000D01*
X96892857Y-125428571D01*
X97107142Y-125428571D01*
X97250000Y-125500000D01*
X97321428Y-125571428D01*
X97392857Y-125714285D01*
X97392857Y-126142857D01*
X97321428Y-126285714D01*
X97250000Y-126357142D01*
X97107142Y-126428571D01*
X96892857Y-126428571D01*
X98035714Y-126428571D02*
X98035714Y-125428571D01*
X98035714Y-125571428D02*
X98107142Y-125500000D01*
X98250000Y-125428571D01*
X98464285Y-125428571D01*
X98607142Y-125500000D01*
X98678571Y-125642857D01*
X98678571Y-126428571D01*
X98678571Y-125642857D02*
X98750000Y-125500000D01*
X98892857Y-125428571D01*
X99107142Y-125428571D01*
X99250000Y-125500000D01*
X99321428Y-125642857D01*
X99321428Y-126428571D01*
X101107142Y-124857142D02*
X99821428Y-126785714D01*
X101464285Y-125428571D02*
X101750000Y-126428571D01*
X102035714Y-125714285D01*
X102321428Y-126428571D01*
X102607142Y-125428571D01*
X103750000Y-126357142D02*
X103607142Y-126428571D01*
X103321428Y-126428571D01*
X103178571Y-126357142D01*
X103107142Y-126214285D01*
X103107142Y-125642857D01*
X103178571Y-125500000D01*
X103321428Y-125428571D01*
X103607142Y-125428571D01*
X103750000Y-125500000D01*
X103821428Y-125642857D01*
X103821428Y-125785714D01*
X103107142Y-125928571D01*
X104392857Y-126357142D02*
X104535714Y-126428571D01*
X104821428Y-126428571D01*
X104964285Y-126357142D01*
X105035714Y-126214285D01*
X105035714Y-126142857D01*
X104964285Y-126000000D01*
X104821428Y-125928571D01*
X104607142Y-125928571D01*
X104464285Y-125857142D01*
X104392857Y-125714285D01*
X104392857Y-125642857D01*
X104464285Y-125500000D01*
X104607142Y-125428571D01*
X104821428Y-125428571D01*
X104964285Y-125500000D01*
X105464285Y-125428571D02*
X106035714Y-125428571D01*
X105678571Y-124928571D02*
X105678571Y-126214285D01*
X105750000Y-126357142D01*
X105892857Y-126428571D01*
X106035714Y-126428571D01*
X106750000Y-126428571D02*
X106607142Y-126357142D01*
X106535714Y-126285714D01*
X106464285Y-126142857D01*
X106464285Y-125714285D01*
X106535714Y-125571428D01*
X106607142Y-125500000D01*
X106750000Y-125428571D01*
X106964285Y-125428571D01*
X107107142Y-125500000D01*
X107178571Y-125571428D01*
X107250000Y-125714285D01*
X107250000Y-126142857D01*
X107178571Y-126285714D01*
X107107142Y-126357142D01*
X106964285Y-126428571D01*
X106750000Y-126428571D01*
X107892857Y-125428571D02*
X107892857Y-126428571D01*
X107892857Y-125571428D02*
X107964285Y-125500000D01*
X108107142Y-125428571D01*
X108321428Y-125428571D01*
X108464285Y-125500000D01*
X108535714Y-125642857D01*
X108535714Y-126428571D01*
X109250000Y-126428571D02*
X109250000Y-124928571D01*
X109250000Y-125500000D02*
X109392857Y-125428571D01*
X109678571Y-125428571D01*
X109821428Y-125500000D01*
X109892857Y-125571428D01*
X109964285Y-125714285D01*
X109964285Y-126142857D01*
X109892857Y-126285714D01*
X109821428Y-126357142D01*
X109678571Y-126428571D01*
X109392857Y-126428571D01*
X109250000Y-126357142D01*
X111678571Y-124857142D02*
X110392857Y-126785714D01*
X112821428Y-126357142D02*
X112678571Y-126428571D01*
X112392857Y-126428571D01*
X112250000Y-126357142D01*
X112178571Y-126285714D01*
X112107142Y-126142857D01*
X112107142Y-125714285D01*
X112178571Y-125571428D01*
X112250000Y-125500000D01*
X112392857Y-125428571D01*
X112678571Y-125428571D01*
X112821428Y-125500000D01*
X114107142Y-125428571D02*
X114107142Y-126428571D01*
X113464285Y-125428571D02*
X113464285Y-126214285D01*
X113535714Y-126357142D01*
X113678571Y-126428571D01*
X113892857Y-126428571D01*
X114035714Y-126357142D01*
X114107142Y-126285714D01*
X114607142Y-125428571D02*
X115178571Y-125428571D01*
X114821428Y-124928571D02*
X114821428Y-126214285D01*
X114892857Y-126357142D01*
X115035714Y-126428571D01*
X115178571Y-126428571D01*
X116250000Y-126357142D02*
X116107142Y-126428571D01*
X115821428Y-126428571D01*
X115678571Y-126357142D01*
X115607142Y-126214285D01*
X115607142Y-125642857D01*
X115678571Y-125500000D01*
X115821428Y-125428571D01*
X116107142Y-125428571D01*
X116250000Y-125500000D01*
X116321428Y-125642857D01*
X116321428Y-125785714D01*
X115607142Y-125928571D01*
X116964285Y-125857142D02*
X118107142Y-125857142D01*
X119464285Y-125428571D02*
X119464285Y-126928571D01*
X119464285Y-126357142D02*
X119321428Y-126428571D01*
X119035714Y-126428571D01*
X118892857Y-126357142D01*
X118821428Y-126285714D01*
X118750000Y-126142857D01*
X118750000Y-125714285D01*
X118821428Y-125571428D01*
X118892857Y-125500000D01*
X119035714Y-125428571D01*
X119321428Y-125428571D01*
X119464285Y-125500000D01*
X120821428Y-126357142D02*
X120678571Y-126428571D01*
X120392857Y-126428571D01*
X120250000Y-126357142D01*
X120178571Y-126285714D01*
X120107142Y-126142857D01*
X120107142Y-125714285D01*
X120178571Y-125571428D01*
X120250000Y-125500000D01*
X120392857Y-125428571D01*
X120678571Y-125428571D01*
X120821428Y-125500000D01*
X121321428Y-125428571D02*
X121607142Y-126428571D01*
X121892857Y-125714285D01*
X122178571Y-126428571D01*
X122464285Y-125428571D01*
X92714285Y-93510714D02*
X92642857Y-93582142D01*
X92428571Y-93653571D01*
X92285714Y-93653571D01*
X92071428Y-93582142D01*
X91928571Y-93439285D01*
X91857142Y-93296428D01*
X91785714Y-93010714D01*
X91785714Y-92796428D01*
X91857142Y-92510714D01*
X91928571Y-92367857D01*
X92071428Y-92225000D01*
X92285714Y-92153571D01*
X92428571Y-92153571D01*
X92642857Y-92225000D01*
X92714285Y-92296428D01*
X94000000Y-92653571D02*
X94000000Y-93653571D01*
X93357142Y-92653571D02*
X93357142Y-93439285D01*
X93428571Y-93582142D01*
X93571428Y-93653571D01*
X93785714Y-93653571D01*
X93928571Y-93582142D01*
X94000000Y-93510714D01*
X94500000Y-92653571D02*
X95071428Y-92653571D01*
X94714285Y-92153571D02*
X94714285Y-93439285D01*
X94785714Y-93582142D01*
X94928571Y-93653571D01*
X95071428Y-93653571D01*
X96142857Y-93582142D02*
X96000000Y-93653571D01*
X95714285Y-93653571D01*
X95571428Y-93582142D01*
X95500000Y-93439285D01*
X95500000Y-92867857D01*
X95571428Y-92725000D01*
X95714285Y-92653571D01*
X96000000Y-92653571D01*
X96142857Y-92725000D01*
X96214285Y-92867857D01*
X96214285Y-93010714D01*
X95500000Y-93153571D01*
X99000000Y-93796428D02*
X98857142Y-93725000D01*
X98714285Y-93582142D01*
X98500000Y-93367857D01*
X98357142Y-93296428D01*
X98214285Y-93296428D01*
X98285714Y-93653571D02*
X98142857Y-93582142D01*
X98000000Y-93439285D01*
X97928571Y-93153571D01*
X97928571Y-92653571D01*
X98000000Y-92367857D01*
X98142857Y-92225000D01*
X98285714Y-92153571D01*
X98571428Y-92153571D01*
X98714285Y-92225000D01*
X98857142Y-92367857D01*
X98928571Y-92653571D01*
X98928571Y-93153571D01*
X98857142Y-93439285D01*
X98714285Y-93582142D01*
X98571428Y-93653571D01*
X98285714Y-93653571D01*
X100428571Y-93510714D02*
X100357142Y-93582142D01*
X100142857Y-93653571D01*
X100000000Y-93653571D01*
X99785714Y-93582142D01*
X99642857Y-93439285D01*
X99571428Y-93296428D01*
X99500000Y-93010714D01*
X99500000Y-92796428D01*
X99571428Y-92510714D01*
X99642857Y-92367857D01*
X99785714Y-92225000D01*
X100000000Y-92153571D01*
X100142857Y-92153571D01*
X100357142Y-92225000D01*
X100428571Y-92296428D01*
X100928571Y-92153571D02*
X101285714Y-93653571D01*
X101571428Y-92582142D01*
X101857142Y-93653571D01*
X102214285Y-92153571D01*
X103928571Y-93653571D02*
X103928571Y-92153571D01*
X104428571Y-93225000D01*
X104928571Y-92153571D01*
X104928571Y-93653571D01*
X105642857Y-93653571D02*
X105642857Y-92153571D01*
X106142857Y-93225000D01*
X106642857Y-92153571D01*
X106642857Y-93653571D01*
X108214285Y-93510714D02*
X108142857Y-93582142D01*
X107928571Y-93653571D01*
X107785714Y-93653571D01*
X107571428Y-93582142D01*
X107428571Y-93439285D01*
X107357142Y-93296428D01*
X107285714Y-93010714D01*
X107285714Y-92796428D01*
X107357142Y-92510714D01*
X107428571Y-92367857D01*
X107571428Y-92225000D01*
X107785714Y-92153571D01*
X107928571Y-92153571D01*
X108142857Y-92225000D01*
X108214285Y-92296428D01*
X92392857Y-96203571D02*
X91535714Y-96203571D01*
X91964285Y-96203571D02*
X91964285Y-94703571D01*
X91821428Y-94917857D01*
X91678571Y-95060714D01*
X91535714Y-95132142D01*
X93321428Y-94703571D02*
X93464285Y-94703571D01*
X93607142Y-94775000D01*
X93678571Y-94846428D01*
X93750000Y-94989285D01*
X93821428Y-95275000D01*
X93821428Y-95632142D01*
X93750000Y-95917857D01*
X93678571Y-96060714D01*
X93607142Y-96132142D01*
X93464285Y-96203571D01*
X93321428Y-96203571D01*
X93178571Y-96132142D01*
X93107142Y-96060714D01*
X93035714Y-95917857D01*
X92964285Y-95632142D01*
X92964285Y-95275000D01*
X93035714Y-94989285D01*
X93107142Y-94846428D01*
X93178571Y-94775000D01*
X93321428Y-94703571D01*
X95607142Y-96203571D02*
X95607142Y-94703571D01*
X96464285Y-96203571D01*
X96464285Y-94703571D01*
X97678571Y-95417857D02*
X97178571Y-95417857D01*
X97178571Y-96203571D02*
X97178571Y-94703571D01*
X97892857Y-94703571D01*
X100392857Y-96203571D02*
X99535714Y-96203571D01*
X99964285Y-96203571D02*
X99964285Y-94703571D01*
X99821428Y-94917857D01*
X99678571Y-95060714D01*
X99535714Y-95132142D01*
X101321428Y-94703571D02*
X101464285Y-94703571D01*
X101607142Y-94775000D01*
X101678571Y-94846428D01*
X101750000Y-94989285D01*
X101821428Y-95275000D01*
X101821428Y-95632142D01*
X101750000Y-95917857D01*
X101678571Y-96060714D01*
X101607142Y-96132142D01*
X101464285Y-96203571D01*
X101321428Y-96203571D01*
X101178571Y-96132142D01*
X101107142Y-96060714D01*
X101035714Y-95917857D01*
X100964285Y-95632142D01*
X100964285Y-95275000D01*
X101035714Y-94989285D01*
X101107142Y-94846428D01*
X101178571Y-94775000D01*
X101321428Y-94703571D01*
X102464285Y-96203571D02*
X102464285Y-94703571D01*
X102607142Y-95632142D02*
X103035714Y-96203571D01*
X103035714Y-95203571D02*
X102464285Y-95775000D01*
X103464285Y-94703571D02*
X103964285Y-96203571D01*
X104464285Y-94703571D01*
X106107142Y-96203571D02*
X106107142Y-94703571D01*
X106464285Y-94703571D01*
X106678571Y-94775000D01*
X106821428Y-94917857D01*
X106892857Y-95060714D01*
X106964285Y-95346428D01*
X106964285Y-95560714D01*
X106892857Y-95846428D01*
X106821428Y-95989285D01*
X106678571Y-96132142D01*
X106464285Y-96203571D01*
X106107142Y-96203571D01*
X108464285Y-96060714D02*
X108392857Y-96132142D01*
X108178571Y-96203571D01*
X108035714Y-96203571D01*
X107821428Y-96132142D01*
X107678571Y-95989285D01*
X107607142Y-95846428D01*
X107535714Y-95560714D01*
X107535714Y-95346428D01*
X107607142Y-95060714D01*
X107678571Y-94917857D01*
X107821428Y-94775000D01*
X108035714Y-94703571D01*
X108178571Y-94703571D01*
X108392857Y-94775000D01*
X108464285Y-94846428D01*
D11*
G04 #@! TO.C,C1001*
X55880000Y-87620000D02*
X55880000Y-69380000D01*
X63120000Y-87620000D02*
X63120000Y-69380000D01*
X55880000Y-87620000D02*
X63120000Y-87620000D01*
X55880000Y-69380000D02*
X63120000Y-69380000D01*
G04 #@! TO.C,C1002*
X72120000Y-87620000D02*
X64880000Y-87620000D01*
X72120000Y-69380000D02*
X64880000Y-69380000D01*
X64880000Y-69380000D02*
X64880000Y-87620000D01*
X72120000Y-69380000D02*
X72120000Y-87620000D01*
G04 #@! TO.C,C1003*
X73880000Y-87620000D02*
X73880000Y-69380000D01*
X81120000Y-87620000D02*
X81120000Y-69380000D01*
X73880000Y-87620000D02*
X81120000Y-87620000D01*
X73880000Y-69380000D02*
X81120000Y-69380000D01*
G04 #@! TO.C,C1004*
X90120000Y-87620000D02*
X82880000Y-87620000D01*
X90120000Y-69380000D02*
X82880000Y-69380000D01*
X82880000Y-69380000D02*
X82880000Y-87620000D01*
X90120000Y-69380000D02*
X90120000Y-87620000D01*
G04 #@! TO.C,C1005*
X91880000Y-87620000D02*
X91880000Y-69380000D01*
X99120000Y-87620000D02*
X99120000Y-69380000D01*
X91880000Y-87620000D02*
X99120000Y-87620000D01*
X91880000Y-69380000D02*
X99120000Y-69380000D01*
G04 #@! TO.C,C1006*
X108120000Y-87620000D02*
X100880000Y-87620000D01*
X108120000Y-69380000D02*
X100880000Y-69380000D01*
X100880000Y-69380000D02*
X100880000Y-87620000D01*
X108120000Y-69380000D02*
X108120000Y-87620000D01*
G04 #@! TO.C,C1007*
X109880000Y-87620000D02*
X109880000Y-69380000D01*
X117120000Y-87620000D02*
X117120000Y-69380000D01*
X109880000Y-87620000D02*
X117120000Y-87620000D01*
X109880000Y-69380000D02*
X117120000Y-69380000D01*
G04 #@! TO.C,C1008*
X126120000Y-87620000D02*
X118880000Y-87620000D01*
X126120000Y-69380000D02*
X118880000Y-69380000D01*
X118880000Y-69380000D02*
X118880000Y-87620000D01*
X126120000Y-69380000D02*
X126120000Y-87620000D01*
G04 #@! TO.C,C1009*
X127880000Y-87620000D02*
X127880000Y-69380000D01*
X135120000Y-87620000D02*
X135120000Y-69380000D01*
X127880000Y-87620000D02*
X135120000Y-87620000D01*
X127880000Y-69380000D02*
X135120000Y-69380000D01*
G04 #@! TO.C,C1010*
X144120000Y-87620000D02*
X136880000Y-87620000D01*
X144120000Y-69380000D02*
X136880000Y-69380000D01*
X136880000Y-69380000D02*
X136880000Y-87620000D01*
X144120000Y-69380000D02*
X144120000Y-87620000D01*
G04 #@! TO.C,C1011*
X63120000Y-100880000D02*
X63120000Y-119120000D01*
X55880000Y-100880000D02*
X55880000Y-119120000D01*
X63120000Y-100880000D02*
X55880000Y-100880000D01*
X63120000Y-119120000D02*
X55880000Y-119120000D01*
G04 #@! TO.C,C1012*
X64880000Y-100880000D02*
X72120000Y-100880000D01*
X64880000Y-119120000D02*
X72120000Y-119120000D01*
X72120000Y-119120000D02*
X72120000Y-100880000D01*
X64880000Y-119120000D02*
X64880000Y-100880000D01*
G04 #@! TO.C,C1013*
X81120000Y-119120000D02*
X73880000Y-119120000D01*
X81120000Y-100880000D02*
X73880000Y-100880000D01*
X73880000Y-100880000D02*
X73880000Y-119120000D01*
X81120000Y-100880000D02*
X81120000Y-119120000D01*
G04 #@! TO.C,C1014*
X82880000Y-100880000D02*
X90120000Y-100880000D01*
X82880000Y-119120000D02*
X90120000Y-119120000D01*
X90120000Y-119120000D02*
X90120000Y-100880000D01*
X82880000Y-119120000D02*
X82880000Y-100880000D01*
G04 #@! TO.C,C1015*
X99120000Y-100880000D02*
X99120000Y-119120000D01*
X91880000Y-100880000D02*
X91880000Y-119120000D01*
X99120000Y-100880000D02*
X91880000Y-100880000D01*
X99120000Y-119120000D02*
X91880000Y-119120000D01*
G04 #@! TO.C,C1016*
X100880000Y-100880000D02*
X108120000Y-100880000D01*
X100880000Y-119120000D02*
X108120000Y-119120000D01*
X108120000Y-119120000D02*
X108120000Y-100880000D01*
X100880000Y-119120000D02*
X100880000Y-100880000D01*
G04 #@! TO.C,C1017*
X117120000Y-100880000D02*
X117120000Y-119120000D01*
X109880000Y-100880000D02*
X109880000Y-119120000D01*
X117120000Y-100880000D02*
X109880000Y-100880000D01*
X117120000Y-119120000D02*
X109880000Y-119120000D01*
G04 #@! TO.C,C1018*
X118880000Y-119120000D02*
X118880000Y-100880000D01*
X126120000Y-119120000D02*
X126120000Y-100880000D01*
X118880000Y-119120000D02*
X126120000Y-119120000D01*
X118880000Y-100880000D02*
X126120000Y-100880000D01*
G04 #@! TO.C,C1019*
X135120000Y-119120000D02*
X127880000Y-119120000D01*
X135120000Y-100880000D02*
X127880000Y-100880000D01*
X127880000Y-100880000D02*
X127880000Y-119120000D01*
X135120000Y-100880000D02*
X135120000Y-119120000D01*
G04 #@! TO.C,C1020*
X136880000Y-119120000D02*
X136880000Y-100880000D01*
X144120000Y-119120000D02*
X144120000Y-100880000D01*
X136880000Y-119120000D02*
X144120000Y-119120000D01*
X136880000Y-100880000D02*
X144120000Y-100880000D01*
G04 #@! TO.C,C1021*
X63120000Y-150620000D02*
X55880000Y-150620000D01*
X63120000Y-132380000D02*
X55880000Y-132380000D01*
X55880000Y-132380000D02*
X55880000Y-150620000D01*
X63120000Y-132380000D02*
X63120000Y-150620000D01*
G04 #@! TO.C,C1022*
X64880000Y-150620000D02*
X64880000Y-132380000D01*
X72120000Y-150620000D02*
X72120000Y-132380000D01*
X64880000Y-150620000D02*
X72120000Y-150620000D01*
X64880000Y-132380000D02*
X72120000Y-132380000D01*
G04 #@! TO.C,C1023*
X81120000Y-150620000D02*
X73880000Y-150620000D01*
X81120000Y-132380000D02*
X73880000Y-132380000D01*
X73880000Y-132380000D02*
X73880000Y-150620000D01*
X81120000Y-132380000D02*
X81120000Y-150620000D01*
G04 #@! TO.C,C1024*
X82880000Y-150620000D02*
X82880000Y-132380000D01*
X90120000Y-150620000D02*
X90120000Y-132380000D01*
X82880000Y-150620000D02*
X90120000Y-150620000D01*
X82880000Y-132380000D02*
X90120000Y-132380000D01*
G04 #@! TO.C,C1025*
X99120000Y-150620000D02*
X91880000Y-150620000D01*
X99120000Y-132380000D02*
X91880000Y-132380000D01*
X91880000Y-132380000D02*
X91880000Y-150620000D01*
X99120000Y-132380000D02*
X99120000Y-150620000D01*
G04 #@! TO.C,C1026*
X100880000Y-150620000D02*
X100880000Y-132380000D01*
X108120000Y-150620000D02*
X108120000Y-132380000D01*
X100880000Y-150620000D02*
X108120000Y-150620000D01*
X100880000Y-132380000D02*
X108120000Y-132380000D01*
G04 #@! TO.C,C1027*
X117120000Y-150620000D02*
X109880000Y-150620000D01*
X117120000Y-132380000D02*
X109880000Y-132380000D01*
X109880000Y-132380000D02*
X109880000Y-150620000D01*
X117120000Y-132380000D02*
X117120000Y-150620000D01*
G04 #@! TO.C,C1028*
X118880000Y-150620000D02*
X118880000Y-132380000D01*
X126120000Y-150620000D02*
X126120000Y-132380000D01*
X118880000Y-150620000D02*
X126120000Y-150620000D01*
X118880000Y-132380000D02*
X126120000Y-132380000D01*
G04 #@! TO.C,C1029*
X135120000Y-150620000D02*
X127880000Y-150620000D01*
X135120000Y-132380000D02*
X127880000Y-132380000D01*
X127880000Y-132380000D02*
X127880000Y-150620000D01*
X135120000Y-132380000D02*
X135120000Y-150620000D01*
G04 #@! TO.C,C1030*
X136880000Y-150620000D02*
X136880000Y-132380000D01*
X144120000Y-150620000D02*
X144120000Y-132380000D01*
X136880000Y-150620000D02*
X144120000Y-150620000D01*
X136880000Y-132380000D02*
X144120000Y-132380000D01*
D12*
G04 #@! TO.C,J1001*
X56802776Y-94000000D02*
G75*
G03X56802776Y-94000000I-1802776J0D01*
G01*
X54500000Y-90000000D02*
X55500000Y-90000000D01*
X54500000Y-98000000D02*
X55500000Y-98000000D01*
G04 #@! TO.C,J1002*
X144750000Y-130000000D02*
X145750000Y-130000000D01*
X144750000Y-122000000D02*
X145750000Y-122000000D01*
X147052776Y-126000000D02*
G75*
G03X147052776Y-126000000I-1802776J0D01*
G01*
G04 #@! TO.C,J1007*
X54250000Y-130000000D02*
X55250000Y-130000000D01*
X54250000Y-122000000D02*
X55250000Y-122000000D01*
X56552776Y-126000000D02*
G75*
G03X56552776Y-126000000I-1802776J0D01*
G01*
G04 #@! TO.C,J1008*
X147052776Y-94000000D02*
G75*
G03X147052776Y-94000000I-1802776J0D01*
G01*
X144750000Y-90000000D02*
X145750000Y-90000000D01*
X144750000Y-98000000D02*
X145750000Y-98000000D01*
G04 #@! TD*
M02*
