M48
;DRILL file {KiCad 5.0.2-bee76a0~70~ubuntu18.04.1} date Fri 25 Jan 2019 12:18:28 AM PST
;FORMAT={-:-/ absolute / inch / decimal}
FMAT,2
INCH,TZ
T1C0.0472
T2C0.0728
%
G90
G05
T1
X2.6969Y-5.2756
X2.6969Y-5.8661
X5.1772Y-5.2756
X5.1772Y-5.8661
X5.1772Y-4.0354
X5.1772Y-4.626
X5.1772Y-2.7953
X5.1772Y-3.3858
X5.5315Y-4.0354
X5.5315Y-4.626
X4.1142Y-5.2756
X4.1142Y-5.8661
X3.4055Y-5.2756
X3.4055Y-5.8661
X4.8228Y-5.2756
X4.8228Y-5.8661
X5.5315Y-5.2756
X5.5315Y-5.8661
X3.4055Y-2.7953
X3.4055Y-3.3858
X3.0512Y-2.7953
X3.0512Y-3.3858
X2.3425Y-2.7953
X2.3425Y-3.3858
X4.1142Y-4.0354
X4.1142Y-4.626
X3.0512Y-4.0354
X3.0512Y-4.626
X4.8228Y-4.0354
X4.8228Y-4.626
X4.4685Y-2.7953
X4.4685Y-3.3858
X4.8228Y-2.7953
X4.8228Y-3.3858
X3.7598Y-5.2756
X3.7598Y-5.8661
X3.7598Y-4.0354
X3.7598Y-4.626
X3.7598Y-2.7953
X3.7598Y-3.3858
X4.1142Y-2.7953
X4.1142Y-3.3858
X4.4685Y-4.0354
X4.4685Y-4.626
X4.4685Y-5.2756
X4.4685Y-5.8661
X2.6969Y-4.0354
X2.6969Y-4.626
X3.4055Y-4.0354
X3.4055Y-4.626
X2.6969Y-2.7953
X2.6969Y-3.3858
X3.0512Y-5.2756
X3.0512Y-5.8661
X2.3425Y-4.0354
X2.3425Y-4.626
X2.3425Y-5.2756
X2.3425Y-5.8661
X5.5315Y-2.7953
X5.5315Y-3.3858
T2
X2.0571Y-4.8226
X2.0571Y-5.0986
X2.2539Y-4.8226
X2.2539Y-5.0986
X5.6201Y-3.5628
X5.6201Y-3.8388
X5.8169Y-3.5628
X5.8169Y-3.8388
X5.6201Y-4.8226
X5.6201Y-5.0986
X5.8169Y-4.8226
X5.8169Y-5.0986
X2.0669Y-3.5628
X2.0669Y-3.8388
X2.2638Y-3.5628
X2.2638Y-3.8388
T0
M30
