G04 #@! TF.GenerationSoftware,KiCad,Pcbnew,5.0.2-bee76a0~70~ubuntu18.04.1*
G04 #@! TF.CreationDate,2019-01-25T00:18:25-08:00*
G04 #@! TF.ProjectId,mmc,6d6d632e-6b69-4636-9164-5f7063625858,rev?*
G04 #@! TF.SameCoordinates,Original*
G04 #@! TF.FileFunction,Copper,L2,Bot*
G04 #@! TF.FilePolarity,Positive*
%FSLAX46Y46*%
G04 Gerber Fmt 4.6, Leading zero omitted, Abs format (unit mm)*
G04 Created by KiCad (PCBNEW 5.0.2-bee76a0~70~ubuntu18.04.1) date Fri 25 Jan 2019 12:18:25 AM PST*
%MOMM*%
%LPD*%
G01*
G04 APERTURE LIST*
G04 #@! TA.AperFunction,ComponentPad*
%ADD10C,2.400000*%
G04 #@! TD*
G04 #@! TA.AperFunction,ComponentPad*
%ADD11C,3.500000*%
G04 #@! TD*
G04 #@! TA.AperFunction,WasherPad*
%ADD12C,3.500000*%
G04 #@! TD*
G04 #@! TA.AperFunction,Conductor*
%ADD13C,4.000000*%
G04 #@! TD*
G04 #@! TA.AperFunction,Conductor*
%ADD14C,2.000000*%
G04 #@! TD*
G04 #@! TA.AperFunction,Conductor*
%ADD15C,0.254000*%
G04 #@! TD*
G04 APERTURE END LIST*
D10*
G04 #@! TO.P,C1001,1*
G04 #@! TO.N,Net-(C1001-Pad1)*
X59500000Y-86000000D03*
G04 #@! TO.P,C1001,2*
G04 #@! TO.N,Net-(C1001-Pad2)*
X59500000Y-71000000D03*
G04 #@! TD*
G04 #@! TO.P,C1002,2*
G04 #@! TO.N,Net-(C1002-Pad2)*
X68500000Y-86000000D03*
G04 #@! TO.P,C1002,1*
G04 #@! TO.N,Net-(C1001-Pad2)*
X68500000Y-71000000D03*
G04 #@! TD*
G04 #@! TO.P,C1003,1*
G04 #@! TO.N,Net-(C1002-Pad2)*
X77500000Y-86000000D03*
G04 #@! TO.P,C1003,2*
G04 #@! TO.N,Net-(C1003-Pad2)*
X77500000Y-71000000D03*
G04 #@! TD*
G04 #@! TO.P,C1004,2*
G04 #@! TO.N,Net-(C1004-Pad2)*
X86500000Y-86000000D03*
G04 #@! TO.P,C1004,1*
G04 #@! TO.N,Net-(C1003-Pad2)*
X86500000Y-71000000D03*
G04 #@! TD*
G04 #@! TO.P,C1005,1*
G04 #@! TO.N,Net-(C1004-Pad2)*
X95500000Y-86000000D03*
G04 #@! TO.P,C1005,2*
G04 #@! TO.N,Net-(C1005-Pad2)*
X95500000Y-71000000D03*
G04 #@! TD*
G04 #@! TO.P,C1006,2*
G04 #@! TO.N,Net-(C1006-Pad2)*
X104500000Y-86000000D03*
G04 #@! TO.P,C1006,1*
G04 #@! TO.N,Net-(C1005-Pad2)*
X104500000Y-71000000D03*
G04 #@! TD*
G04 #@! TO.P,C1007,1*
G04 #@! TO.N,Net-(C1006-Pad2)*
X113500000Y-86000000D03*
G04 #@! TO.P,C1007,2*
G04 #@! TO.N,Net-(C1007-Pad2)*
X113500000Y-71000000D03*
G04 #@! TD*
G04 #@! TO.P,C1008,2*
G04 #@! TO.N,Net-(C1008-Pad2)*
X122500000Y-86000000D03*
G04 #@! TO.P,C1008,1*
G04 #@! TO.N,Net-(C1007-Pad2)*
X122500000Y-71000000D03*
G04 #@! TD*
G04 #@! TO.P,C1009,1*
G04 #@! TO.N,Net-(C1008-Pad2)*
X131500000Y-86000000D03*
G04 #@! TO.P,C1009,2*
G04 #@! TO.N,Net-(C1009-Pad2)*
X131500000Y-71000000D03*
G04 #@! TD*
G04 #@! TO.P,C1010,2*
G04 #@! TO.N,Net-(C1010-Pad2)*
X140500000Y-86000000D03*
G04 #@! TO.P,C1010,1*
G04 #@! TO.N,Net-(C1009-Pad2)*
X140500000Y-71000000D03*
G04 #@! TD*
G04 #@! TO.P,C1011,1*
G04 #@! TO.N,Net-(C1001-Pad1)*
X59500000Y-102500000D03*
G04 #@! TO.P,C1011,2*
G04 #@! TO.N,Net-(C1011-Pad2)*
X59500000Y-117500000D03*
G04 #@! TD*
G04 #@! TO.P,C1012,2*
G04 #@! TO.N,Net-(C1012-Pad2)*
X68500000Y-102500000D03*
G04 #@! TO.P,C1012,1*
G04 #@! TO.N,Net-(C1011-Pad2)*
X68500000Y-117500000D03*
G04 #@! TD*
G04 #@! TO.P,C1013,2*
G04 #@! TO.N,Net-(C1013-Pad2)*
X77500000Y-117500000D03*
G04 #@! TO.P,C1013,1*
G04 #@! TO.N,Net-(C1012-Pad2)*
X77500000Y-102500000D03*
G04 #@! TD*
G04 #@! TO.P,C1014,2*
G04 #@! TO.N,Net-(C1014-Pad2)*
X86500000Y-102500000D03*
G04 #@! TO.P,C1014,1*
G04 #@! TO.N,Net-(C1013-Pad2)*
X86500000Y-117500000D03*
G04 #@! TD*
G04 #@! TO.P,C1015,1*
G04 #@! TO.N,Net-(C1014-Pad2)*
X95500000Y-102500000D03*
G04 #@! TO.P,C1015,2*
G04 #@! TO.N,Net-(C1015-Pad2)*
X95500000Y-117500000D03*
G04 #@! TD*
G04 #@! TO.P,C1016,2*
G04 #@! TO.N,Net-(C1016-Pad2)*
X104500000Y-102500000D03*
G04 #@! TO.P,C1016,1*
G04 #@! TO.N,Net-(C1015-Pad2)*
X104500000Y-117500000D03*
G04 #@! TD*
G04 #@! TO.P,C1017,1*
G04 #@! TO.N,Net-(C1016-Pad2)*
X113500000Y-102500000D03*
G04 #@! TO.P,C1017,2*
G04 #@! TO.N,Net-(C1017-Pad2)*
X113500000Y-117500000D03*
G04 #@! TD*
G04 #@! TO.P,C1018,1*
G04 #@! TO.N,Net-(C1017-Pad2)*
X122500000Y-117500000D03*
G04 #@! TO.P,C1018,2*
G04 #@! TO.N,Net-(C1018-Pad2)*
X122500000Y-102500000D03*
G04 #@! TD*
G04 #@! TO.P,C1019,2*
G04 #@! TO.N,Net-(C1019-Pad2)*
X131500000Y-117500000D03*
G04 #@! TO.P,C1019,1*
G04 #@! TO.N,Net-(C1018-Pad2)*
X131500000Y-102500000D03*
G04 #@! TD*
G04 #@! TO.P,C1020,1*
G04 #@! TO.N,Net-(C1019-Pad2)*
X140500000Y-117500000D03*
G04 #@! TO.P,C1020,2*
G04 #@! TO.N,Net-(C1010-Pad2)*
X140500000Y-102500000D03*
G04 #@! TD*
G04 #@! TO.P,C1021,2*
G04 #@! TO.N,Net-(C1021-Pad2)*
X59500000Y-149000000D03*
G04 #@! TO.P,C1021,1*
G04 #@! TO.N,Net-(C1001-Pad1)*
X59500000Y-134000000D03*
G04 #@! TD*
G04 #@! TO.P,C1022,1*
G04 #@! TO.N,Net-(C1021-Pad2)*
X68500000Y-149000000D03*
G04 #@! TO.P,C1022,2*
G04 #@! TO.N,Net-(C1022-Pad2)*
X68500000Y-134000000D03*
G04 #@! TD*
G04 #@! TO.P,C1023,2*
G04 #@! TO.N,Net-(C1023-Pad2)*
X77500000Y-149000000D03*
G04 #@! TO.P,C1023,1*
G04 #@! TO.N,Net-(C1022-Pad2)*
X77500000Y-134000000D03*
G04 #@! TD*
G04 #@! TO.P,C1024,1*
G04 #@! TO.N,Net-(C1023-Pad2)*
X86500000Y-149000000D03*
G04 #@! TO.P,C1024,2*
G04 #@! TO.N,Net-(C1024-Pad2)*
X86500000Y-134000000D03*
G04 #@! TD*
G04 #@! TO.P,C1025,2*
G04 #@! TO.N,Net-(C1025-Pad2)*
X95500000Y-149000000D03*
G04 #@! TO.P,C1025,1*
G04 #@! TO.N,Net-(C1024-Pad2)*
X95500000Y-134000000D03*
G04 #@! TD*
G04 #@! TO.P,C1026,1*
G04 #@! TO.N,Net-(C1025-Pad2)*
X104500000Y-149000000D03*
G04 #@! TO.P,C1026,2*
G04 #@! TO.N,Net-(C1026-Pad2)*
X104500000Y-134000000D03*
G04 #@! TD*
G04 #@! TO.P,C1027,2*
G04 #@! TO.N,Net-(C1027-Pad2)*
X113500000Y-149000000D03*
G04 #@! TO.P,C1027,1*
G04 #@! TO.N,Net-(C1026-Pad2)*
X113500000Y-134000000D03*
G04 #@! TD*
G04 #@! TO.P,C1028,1*
G04 #@! TO.N,Net-(C1027-Pad2)*
X122500000Y-149000000D03*
G04 #@! TO.P,C1028,2*
G04 #@! TO.N,Net-(C1028-Pad2)*
X122500000Y-134000000D03*
G04 #@! TD*
G04 #@! TO.P,C1029,2*
G04 #@! TO.N,Net-(C1029-Pad2)*
X131500000Y-149000000D03*
G04 #@! TO.P,C1029,1*
G04 #@! TO.N,Net-(C1028-Pad2)*
X131500000Y-134000000D03*
G04 #@! TD*
G04 #@! TO.P,C1030,1*
G04 #@! TO.N,Net-(C1029-Pad2)*
X140500000Y-149000000D03*
G04 #@! TO.P,C1030,2*
G04 #@! TO.N,Net-(C1010-Pad2)*
X140500000Y-134000000D03*
G04 #@! TD*
D11*
G04 #@! TO.P,J1001,1*
G04 #@! TO.N,Net-(C1001-Pad1)*
X57500000Y-90495000D03*
X52500000Y-90495000D03*
X52500000Y-97505000D03*
X57500000Y-97505000D03*
G04 #@! TD*
G04 #@! TO.P,J1002,1*
G04 #@! TO.N,Net-(C1010-Pad2)*
X147750000Y-129505000D03*
X142750000Y-129505000D03*
X142750000Y-122495000D03*
X147750000Y-122495000D03*
G04 #@! TD*
D12*
G04 #@! TO.P,J1003,*
G04 #@! TO.N,*
X54000000Y-64000000D03*
G04 #@! TD*
G04 #@! TO.P,J1004,*
G04 #@! TO.N,*
X146000000Y-156000000D03*
G04 #@! TD*
G04 #@! TO.P,J1005,*
G04 #@! TO.N,*
X54000000Y-156000000D03*
G04 #@! TD*
G04 #@! TO.P,J1006,*
G04 #@! TO.N,*
X146000000Y-64000000D03*
G04 #@! TD*
D11*
G04 #@! TO.P,J1007,1*
G04 #@! TO.N,Net-(C1001-Pad1)*
X57250000Y-129505000D03*
X52250000Y-129505000D03*
X52250000Y-122495000D03*
X57250000Y-122495000D03*
G04 #@! TD*
G04 #@! TO.P,J1008,1*
G04 #@! TO.N,Net-(C1010-Pad2)*
X147750000Y-90495000D03*
X142750000Y-90495000D03*
X142750000Y-97505000D03*
X147750000Y-97505000D03*
G04 #@! TD*
D13*
G04 #@! TO.N,Net-(C1001-Pad2)*
X59500000Y-71000000D02*
X68500000Y-71000000D01*
G04 #@! TO.N,Net-(C1002-Pad2)*
X77500000Y-86000000D02*
X68500000Y-86000000D01*
G04 #@! TO.N,Net-(C1003-Pad2)*
X77500000Y-71000000D02*
X86500000Y-71000000D01*
G04 #@! TO.N,Net-(C1004-Pad2)*
X95500000Y-86000000D02*
X86500000Y-86000000D01*
G04 #@! TO.N,Net-(C1013-Pad2)*
X77500000Y-117500000D02*
X86500000Y-117500000D01*
G04 #@! TO.N,Net-(C1014-Pad2)*
X86500000Y-102500000D02*
X95500000Y-102500000D01*
G04 #@! TO.N,Net-(C1015-Pad2)*
X95500000Y-117500000D02*
X104500000Y-117500000D01*
G04 #@! TO.N,Net-(C1025-Pad2)*
X104500000Y-149000000D02*
X95500000Y-149000000D01*
G04 #@! TO.N,Net-(C1026-Pad2)*
X104500000Y-134000000D02*
X113500000Y-134000000D01*
G04 #@! TO.N,Net-(C1005-Pad2)*
X95500000Y-71000000D02*
X104500000Y-71000000D01*
G04 #@! TO.N,Net-(C1006-Pad2)*
X113500000Y-86000000D02*
X104500000Y-86000000D01*
G04 #@! TO.N,Net-(C1007-Pad2)*
X113500000Y-71000000D02*
X122500000Y-71000000D01*
G04 #@! TO.N,Net-(C1008-Pad2)*
X131500000Y-86000000D02*
X122500000Y-86000000D01*
G04 #@! TO.N,Net-(C1009-Pad2)*
X131500000Y-71000000D02*
X140500000Y-71000000D01*
G04 #@! TO.N,Net-(C1011-Pad2)*
X68500000Y-117500000D02*
X63000000Y-117500000D01*
D14*
X59500000Y-117500000D02*
X63000000Y-117500000D01*
D13*
G04 #@! TO.N,Net-(C1012-Pad2)*
X68500000Y-102500000D02*
X77500000Y-102500000D01*
G04 #@! TO.N,Net-(C1016-Pad2)*
X104500000Y-102500000D02*
X113500000Y-102500000D01*
G04 #@! TO.N,Net-(C1017-Pad2)*
X113500000Y-117500000D02*
X122500000Y-117500000D01*
G04 #@! TO.N,Net-(C1018-Pad2)*
X122500000Y-102500000D02*
X131500000Y-102500000D01*
G04 #@! TO.N,Net-(C1019-Pad2)*
X131500000Y-117500000D02*
X136250000Y-117500000D01*
D14*
X136250000Y-117500000D02*
X140500000Y-117500000D01*
D13*
G04 #@! TO.N,Net-(C1021-Pad2)*
X68500000Y-149000000D02*
X59500000Y-149000000D01*
G04 #@! TO.N,Net-(C1022-Pad2)*
X68500000Y-134000000D02*
X77500000Y-134000000D01*
G04 #@! TO.N,Net-(C1023-Pad2)*
X86500000Y-149000000D02*
X77500000Y-149000000D01*
G04 #@! TO.N,Net-(C1024-Pad2)*
X86500000Y-134000000D02*
X95500000Y-134000000D01*
G04 #@! TO.N,Net-(C1027-Pad2)*
X122500000Y-149000000D02*
X113500000Y-149000000D01*
G04 #@! TO.N,Net-(C1028-Pad2)*
X122500000Y-134000000D02*
X131500000Y-134000000D01*
G04 #@! TO.N,Net-(C1029-Pad2)*
X140500000Y-149000000D02*
X131500000Y-149000000D01*
G04 #@! TD*
D15*
G04 #@! TO.N,Net-(C1001-Pad1)*
G36*
X60873000Y-85052606D02*
X60873000Y-102947394D01*
X55410197Y-108410197D01*
X55382667Y-108451399D01*
X55373000Y-108500000D01*
X55373000Y-119250000D01*
X55382667Y-119298601D01*
X55426183Y-119353344D01*
X60623000Y-123065356D01*
X60623000Y-134447394D01*
X58947394Y-136123000D01*
X51542333Y-136123000D01*
X50710000Y-135498750D01*
X50710000Y-85219606D01*
X51802606Y-84127000D01*
X59947394Y-84127000D01*
X60873000Y-85052606D01*
X60873000Y-85052606D01*
G37*
X60873000Y-85052606D02*
X60873000Y-102947394D01*
X55410197Y-108410197D01*
X55382667Y-108451399D01*
X55373000Y-108500000D01*
X55373000Y-119250000D01*
X55382667Y-119298601D01*
X55426183Y-119353344D01*
X60623000Y-123065356D01*
X60623000Y-134447394D01*
X58947394Y-136123000D01*
X51542333Y-136123000D01*
X50710000Y-135498750D01*
X50710000Y-85219606D01*
X51802606Y-84127000D01*
X59947394Y-84127000D01*
X60873000Y-85052606D01*
G04 #@! TO.N,Net-(C1010-Pad2)*
G36*
X149290001Y-85469607D02*
X149290000Y-136280394D01*
X148447394Y-137123000D01*
X140802606Y-137123000D01*
X139377000Y-135697394D01*
X139377000Y-123066123D01*
X144322830Y-119604042D01*
X144357101Y-119568252D01*
X144377000Y-119500000D01*
X144377000Y-108750000D01*
X144367333Y-108701399D01*
X144339803Y-108660197D01*
X138877000Y-103197394D01*
X138877000Y-85302606D01*
X139802606Y-84377000D01*
X148197394Y-84377000D01*
X149290001Y-85469607D01*
X149290001Y-85469607D01*
G37*
X149290001Y-85469607D02*
X149290000Y-136280394D01*
X148447394Y-137123000D01*
X140802606Y-137123000D01*
X139377000Y-135697394D01*
X139377000Y-123066123D01*
X144322830Y-119604042D01*
X144357101Y-119568252D01*
X144377000Y-119500000D01*
X144377000Y-108750000D01*
X144367333Y-108701399D01*
X144339803Y-108660197D01*
X138877000Y-103197394D01*
X138877000Y-85302606D01*
X139802606Y-84377000D01*
X148197394Y-84377000D01*
X149290001Y-85469607D01*
G04 #@! TD*
M02*
