G04 #@! TF.GenerationSoftware,KiCad,Pcbnew,5.0.2-bee76a0~70~ubuntu18.04.1*
G04 #@! TF.CreationDate,2019-01-25T00:18:25-08:00*
G04 #@! TF.ProjectId,mmc,6d6d632e-6b69-4636-9164-5f7063625858,rev?*
G04 #@! TF.SameCoordinates,Original*
G04 #@! TF.FileFunction,Legend,Bot*
G04 #@! TF.FilePolarity,Positive*
%FSLAX46Y46*%
G04 Gerber Fmt 4.6, Leading zero omitted, Abs format (unit mm)*
G04 Created by KiCad (PCBNEW 5.0.2-bee76a0~70~ubuntu18.04.1) date Fri 25 Jan 2019 12:18:25 AM PST*
%MOMM*%
%LPD*%
G01*
G04 APERTURE LIST*
%ADD10C,0.300000*%
G04 APERTURE END LIST*
D10*
X107285714Y-93510714D02*
X107357142Y-93582142D01*
X107571428Y-93653571D01*
X107714285Y-93653571D01*
X107928571Y-93582142D01*
X108071428Y-93439285D01*
X108142857Y-93296428D01*
X108214285Y-93010714D01*
X108214285Y-92796428D01*
X108142857Y-92510714D01*
X108071428Y-92367857D01*
X107928571Y-92225000D01*
X107714285Y-92153571D01*
X107571428Y-92153571D01*
X107357142Y-92225000D01*
X107285714Y-92296428D01*
X106000000Y-92653571D02*
X106000000Y-93653571D01*
X106642857Y-92653571D02*
X106642857Y-93439285D01*
X106571428Y-93582142D01*
X106428571Y-93653571D01*
X106214285Y-93653571D01*
X106071428Y-93582142D01*
X106000000Y-93510714D01*
X105500000Y-92653571D02*
X104928571Y-92653571D01*
X105285714Y-92153571D02*
X105285714Y-93439285D01*
X105214285Y-93582142D01*
X105071428Y-93653571D01*
X104928571Y-93653571D01*
X103857142Y-93582142D02*
X104000000Y-93653571D01*
X104285714Y-93653571D01*
X104428571Y-93582142D01*
X104500000Y-93439285D01*
X104500000Y-92867857D01*
X104428571Y-92725000D01*
X104285714Y-92653571D01*
X104000000Y-92653571D01*
X103857142Y-92725000D01*
X103785714Y-92867857D01*
X103785714Y-93010714D01*
X104500000Y-93153571D01*
X101000000Y-93796428D02*
X101142857Y-93725000D01*
X101285714Y-93582142D01*
X101500000Y-93367857D01*
X101642857Y-93296428D01*
X101785714Y-93296428D01*
X101714285Y-93653571D02*
X101857142Y-93582142D01*
X102000000Y-93439285D01*
X102071428Y-93153571D01*
X102071428Y-92653571D01*
X102000000Y-92367857D01*
X101857142Y-92225000D01*
X101714285Y-92153571D01*
X101428571Y-92153571D01*
X101285714Y-92225000D01*
X101142857Y-92367857D01*
X101071428Y-92653571D01*
X101071428Y-93153571D01*
X101142857Y-93439285D01*
X101285714Y-93582142D01*
X101428571Y-93653571D01*
X101714285Y-93653571D01*
X99571428Y-93510714D02*
X99642857Y-93582142D01*
X99857142Y-93653571D01*
X100000000Y-93653571D01*
X100214285Y-93582142D01*
X100357142Y-93439285D01*
X100428571Y-93296428D01*
X100500000Y-93010714D01*
X100500000Y-92796428D01*
X100428571Y-92510714D01*
X100357142Y-92367857D01*
X100214285Y-92225000D01*
X100000000Y-92153571D01*
X99857142Y-92153571D01*
X99642857Y-92225000D01*
X99571428Y-92296428D01*
X99071428Y-92153571D02*
X98714285Y-93653571D01*
X98428571Y-92582142D01*
X98142857Y-93653571D01*
X97785714Y-92153571D01*
X96071428Y-93653571D02*
X96071428Y-92153571D01*
X95571428Y-93225000D01*
X95071428Y-92153571D01*
X95071428Y-93653571D01*
X94357142Y-93653571D02*
X94357142Y-92153571D01*
X93857142Y-93225000D01*
X93357142Y-92153571D01*
X93357142Y-93653571D01*
X91785714Y-93510714D02*
X91857142Y-93582142D01*
X92071428Y-93653571D01*
X92214285Y-93653571D01*
X92428571Y-93582142D01*
X92571428Y-93439285D01*
X92642857Y-93296428D01*
X92714285Y-93010714D01*
X92714285Y-92796428D01*
X92642857Y-92510714D01*
X92571428Y-92367857D01*
X92428571Y-92225000D01*
X92214285Y-92153571D01*
X92071428Y-92153571D01*
X91857142Y-92225000D01*
X91785714Y-92296428D01*
X107607142Y-96203571D02*
X108464285Y-96203571D01*
X108035714Y-96203571D02*
X108035714Y-94703571D01*
X108178571Y-94917857D01*
X108321428Y-95060714D01*
X108464285Y-95132142D01*
X106678571Y-94703571D02*
X106535714Y-94703571D01*
X106392857Y-94775000D01*
X106321428Y-94846428D01*
X106250000Y-94989285D01*
X106178571Y-95275000D01*
X106178571Y-95632142D01*
X106250000Y-95917857D01*
X106321428Y-96060714D01*
X106392857Y-96132142D01*
X106535714Y-96203571D01*
X106678571Y-96203571D01*
X106821428Y-96132142D01*
X106892857Y-96060714D01*
X106964285Y-95917857D01*
X107035714Y-95632142D01*
X107035714Y-95275000D01*
X106964285Y-94989285D01*
X106892857Y-94846428D01*
X106821428Y-94775000D01*
X106678571Y-94703571D01*
X104392857Y-96203571D02*
X104392857Y-94703571D01*
X103535714Y-96203571D01*
X103535714Y-94703571D01*
X102321428Y-95417857D02*
X102821428Y-95417857D01*
X102821428Y-96203571D02*
X102821428Y-94703571D01*
X102107142Y-94703571D01*
X99607142Y-96203571D02*
X100464285Y-96203571D01*
X100035714Y-96203571D02*
X100035714Y-94703571D01*
X100178571Y-94917857D01*
X100321428Y-95060714D01*
X100464285Y-95132142D01*
X98678571Y-94703571D02*
X98535714Y-94703571D01*
X98392857Y-94775000D01*
X98321428Y-94846428D01*
X98250000Y-94989285D01*
X98178571Y-95275000D01*
X98178571Y-95632142D01*
X98250000Y-95917857D01*
X98321428Y-96060714D01*
X98392857Y-96132142D01*
X98535714Y-96203571D01*
X98678571Y-96203571D01*
X98821428Y-96132142D01*
X98892857Y-96060714D01*
X98964285Y-95917857D01*
X99035714Y-95632142D01*
X99035714Y-95275000D01*
X98964285Y-94989285D01*
X98892857Y-94846428D01*
X98821428Y-94775000D01*
X98678571Y-94703571D01*
X97535714Y-96203571D02*
X97535714Y-94703571D01*
X97392857Y-95632142D02*
X96964285Y-96203571D01*
X96964285Y-95203571D02*
X97535714Y-95775000D01*
X96535714Y-94703571D02*
X96035714Y-96203571D01*
X95535714Y-94703571D01*
X93892857Y-96203571D02*
X93892857Y-94703571D01*
X93535714Y-94703571D01*
X93321428Y-94775000D01*
X93178571Y-94917857D01*
X93107142Y-95060714D01*
X93035714Y-95346428D01*
X93035714Y-95560714D01*
X93107142Y-95846428D01*
X93178571Y-95989285D01*
X93321428Y-96132142D01*
X93535714Y-96203571D01*
X93892857Y-96203571D01*
X91535714Y-96060714D02*
X91607142Y-96132142D01*
X91821428Y-96203571D01*
X91964285Y-96203571D01*
X92178571Y-96132142D01*
X92321428Y-95989285D01*
X92392857Y-95846428D01*
X92464285Y-95560714D01*
X92464285Y-95346428D01*
X92392857Y-95060714D01*
X92321428Y-94917857D01*
X92178571Y-94775000D01*
X91964285Y-94703571D01*
X91821428Y-94703571D01*
X91607142Y-94775000D01*
X91535714Y-94846428D01*
X122071428Y-126428571D02*
X122071428Y-124928571D01*
X121428571Y-126428571D02*
X121428571Y-125642857D01*
X121500000Y-125500000D01*
X121642857Y-125428571D01*
X121857142Y-125428571D01*
X122000000Y-125500000D01*
X122071428Y-125571428D01*
X120928571Y-125428571D02*
X120357142Y-125428571D01*
X120714285Y-124928571D02*
X120714285Y-126214285D01*
X120642857Y-126357142D01*
X120500000Y-126428571D01*
X120357142Y-126428571D01*
X120071428Y-125428571D02*
X119500000Y-125428571D01*
X119857142Y-124928571D02*
X119857142Y-126214285D01*
X119785714Y-126357142D01*
X119642857Y-126428571D01*
X119500000Y-126428571D01*
X119000000Y-125428571D02*
X119000000Y-126928571D01*
X119000000Y-125500000D02*
X118857142Y-125428571D01*
X118571428Y-125428571D01*
X118428571Y-125500000D01*
X118357142Y-125571428D01*
X118285714Y-125714285D01*
X118285714Y-126142857D01*
X118357142Y-126285714D01*
X118428571Y-126357142D01*
X118571428Y-126428571D01*
X118857142Y-126428571D01*
X119000000Y-126357142D01*
X117714285Y-126357142D02*
X117571428Y-126428571D01*
X117285714Y-126428571D01*
X117142857Y-126357142D01*
X117071428Y-126214285D01*
X117071428Y-126142857D01*
X117142857Y-126000000D01*
X117285714Y-125928571D01*
X117500000Y-125928571D01*
X117642857Y-125857142D01*
X117714285Y-125714285D01*
X117714285Y-125642857D01*
X117642857Y-125500000D01*
X117500000Y-125428571D01*
X117285714Y-125428571D01*
X117142857Y-125500000D01*
X116428571Y-126285714D02*
X116357142Y-126357142D01*
X116428571Y-126428571D01*
X116500000Y-126357142D01*
X116428571Y-126285714D01*
X116428571Y-126428571D01*
X116428571Y-125500000D02*
X116357142Y-125571428D01*
X116428571Y-125642857D01*
X116500000Y-125571428D01*
X116428571Y-125500000D01*
X116428571Y-125642857D01*
X114642857Y-124857142D02*
X115928571Y-126785714D01*
X113071428Y-124857142D02*
X114357142Y-126785714D01*
X111928571Y-125428571D02*
X111928571Y-126642857D01*
X112000000Y-126785714D01*
X112071428Y-126857142D01*
X112214285Y-126928571D01*
X112428571Y-126928571D01*
X112571428Y-126857142D01*
X111928571Y-126357142D02*
X112071428Y-126428571D01*
X112357142Y-126428571D01*
X112500000Y-126357142D01*
X112571428Y-126285714D01*
X112642857Y-126142857D01*
X112642857Y-125714285D01*
X112571428Y-125571428D01*
X112500000Y-125500000D01*
X112357142Y-125428571D01*
X112071428Y-125428571D01*
X111928571Y-125500000D01*
X111214285Y-126428571D02*
X111214285Y-125428571D01*
X111214285Y-124928571D02*
X111285714Y-125000000D01*
X111214285Y-125071428D01*
X111142857Y-125000000D01*
X111214285Y-124928571D01*
X111214285Y-125071428D01*
X110714285Y-125428571D02*
X110142857Y-125428571D01*
X110499999Y-124928571D02*
X110499999Y-126214285D01*
X110428571Y-126357142D01*
X110285714Y-126428571D01*
X110142857Y-126428571D01*
X109642857Y-126428571D02*
X109642857Y-124928571D01*
X108999999Y-126428571D02*
X108999999Y-125642857D01*
X109071428Y-125500000D01*
X109214285Y-125428571D01*
X109428571Y-125428571D01*
X109571428Y-125500000D01*
X109642857Y-125571428D01*
X107642857Y-125428571D02*
X107642857Y-126428571D01*
X108285714Y-125428571D02*
X108285714Y-126214285D01*
X108214285Y-126357142D01*
X108071428Y-126428571D01*
X107857142Y-126428571D01*
X107714285Y-126357142D01*
X107642857Y-126285714D01*
X106928571Y-126428571D02*
X106928571Y-124928571D01*
X106928571Y-125500000D02*
X106785714Y-125428571D01*
X106499999Y-125428571D01*
X106357142Y-125500000D01*
X106285714Y-125571428D01*
X106214285Y-125714285D01*
X106214285Y-126142857D01*
X106285714Y-126285714D01*
X106357142Y-126357142D01*
X106499999Y-126428571D01*
X106785714Y-126428571D01*
X106928571Y-126357142D01*
X105571428Y-126285714D02*
X105499999Y-126357142D01*
X105571428Y-126428571D01*
X105642857Y-126357142D01*
X105571428Y-126285714D01*
X105571428Y-126428571D01*
X104214285Y-126357142D02*
X104357142Y-126428571D01*
X104642857Y-126428571D01*
X104785714Y-126357142D01*
X104857142Y-126285714D01*
X104928571Y-126142857D01*
X104928571Y-125714285D01*
X104857142Y-125571428D01*
X104785714Y-125500000D01*
X104642857Y-125428571D01*
X104357142Y-125428571D01*
X104214285Y-125500000D01*
X103357142Y-126428571D02*
X103499999Y-126357142D01*
X103571428Y-126285714D01*
X103642857Y-126142857D01*
X103642857Y-125714285D01*
X103571428Y-125571428D01*
X103499999Y-125500000D01*
X103357142Y-125428571D01*
X103142857Y-125428571D01*
X102999999Y-125500000D01*
X102928571Y-125571428D01*
X102857142Y-125714285D01*
X102857142Y-126142857D01*
X102928571Y-126285714D01*
X102999999Y-126357142D01*
X103142857Y-126428571D01*
X103357142Y-126428571D01*
X102214285Y-126428571D02*
X102214285Y-125428571D01*
X102214285Y-125571428D02*
X102142857Y-125500000D01*
X101999999Y-125428571D01*
X101785714Y-125428571D01*
X101642857Y-125500000D01*
X101571428Y-125642857D01*
X101571428Y-126428571D01*
X101571428Y-125642857D02*
X101499999Y-125500000D01*
X101357142Y-125428571D01*
X101142857Y-125428571D01*
X100999999Y-125500000D01*
X100928571Y-125642857D01*
X100928571Y-126428571D01*
X99142857Y-124857142D02*
X100428571Y-126785714D01*
X98785714Y-125428571D02*
X98499999Y-126428571D01*
X98214285Y-125714285D01*
X97928571Y-126428571D01*
X97642857Y-125428571D01*
X96499999Y-126357142D02*
X96642857Y-126428571D01*
X96928571Y-126428571D01*
X97071428Y-126357142D01*
X97142857Y-126214285D01*
X97142857Y-125642857D01*
X97071428Y-125500000D01*
X96928571Y-125428571D01*
X96642857Y-125428571D01*
X96499999Y-125500000D01*
X96428571Y-125642857D01*
X96428571Y-125785714D01*
X97142857Y-125928571D01*
X95857142Y-126357142D02*
X95714285Y-126428571D01*
X95428571Y-126428571D01*
X95285714Y-126357142D01*
X95214285Y-126214285D01*
X95214285Y-126142857D01*
X95285714Y-126000000D01*
X95428571Y-125928571D01*
X95642857Y-125928571D01*
X95785714Y-125857142D01*
X95857142Y-125714285D01*
X95857142Y-125642857D01*
X95785714Y-125500000D01*
X95642857Y-125428571D01*
X95428571Y-125428571D01*
X95285714Y-125500000D01*
X94785714Y-125428571D02*
X94214285Y-125428571D01*
X94571428Y-124928571D02*
X94571428Y-126214285D01*
X94499999Y-126357142D01*
X94357142Y-126428571D01*
X94214285Y-126428571D01*
X93499999Y-126428571D02*
X93642857Y-126357142D01*
X93714285Y-126285714D01*
X93785714Y-126142857D01*
X93785714Y-125714285D01*
X93714285Y-125571428D01*
X93642857Y-125500000D01*
X93499999Y-125428571D01*
X93285714Y-125428571D01*
X93142857Y-125500000D01*
X93071428Y-125571428D01*
X92999999Y-125714285D01*
X92999999Y-126142857D01*
X93071428Y-126285714D01*
X93142857Y-126357142D01*
X93285714Y-126428571D01*
X93499999Y-126428571D01*
X92357142Y-125428571D02*
X92357142Y-126428571D01*
X92357142Y-125571428D02*
X92285714Y-125500000D01*
X92142857Y-125428571D01*
X91928571Y-125428571D01*
X91785714Y-125500000D01*
X91714285Y-125642857D01*
X91714285Y-126428571D01*
X90999999Y-126428571D02*
X90999999Y-124928571D01*
X90999999Y-125500000D02*
X90857142Y-125428571D01*
X90571428Y-125428571D01*
X90428571Y-125500000D01*
X90357142Y-125571428D01*
X90285714Y-125714285D01*
X90285714Y-126142857D01*
X90357142Y-126285714D01*
X90428571Y-126357142D01*
X90571428Y-126428571D01*
X90857142Y-126428571D01*
X90999999Y-126357142D01*
X88571428Y-124857142D02*
X89857142Y-126785714D01*
X87428571Y-126357142D02*
X87571428Y-126428571D01*
X87857142Y-126428571D01*
X87999999Y-126357142D01*
X88071428Y-126285714D01*
X88142857Y-126142857D01*
X88142857Y-125714285D01*
X88071428Y-125571428D01*
X87999999Y-125500000D01*
X87857142Y-125428571D01*
X87571428Y-125428571D01*
X87428571Y-125500000D01*
X86142857Y-125428571D02*
X86142857Y-126428571D01*
X86785714Y-125428571D02*
X86785714Y-126214285D01*
X86714285Y-126357142D01*
X86571428Y-126428571D01*
X86357142Y-126428571D01*
X86214285Y-126357142D01*
X86142857Y-126285714D01*
X85642857Y-125428571D02*
X85071428Y-125428571D01*
X85428571Y-124928571D02*
X85428571Y-126214285D01*
X85357142Y-126357142D01*
X85214285Y-126428571D01*
X85071428Y-126428571D01*
X83999999Y-126357142D02*
X84142857Y-126428571D01*
X84428571Y-126428571D01*
X84571428Y-126357142D01*
X84642857Y-126214285D01*
X84642857Y-125642857D01*
X84571428Y-125500000D01*
X84428571Y-125428571D01*
X84142857Y-125428571D01*
X83999999Y-125500000D01*
X83928571Y-125642857D01*
X83928571Y-125785714D01*
X84642857Y-125928571D01*
X83285714Y-125857142D02*
X82142857Y-125857142D01*
X80785714Y-125428571D02*
X80785714Y-126928571D01*
X80785714Y-126357142D02*
X80928571Y-126428571D01*
X81214285Y-126428571D01*
X81357142Y-126357142D01*
X81428571Y-126285714D01*
X81499999Y-126142857D01*
X81499999Y-125714285D01*
X81428571Y-125571428D01*
X81357142Y-125500000D01*
X81214285Y-125428571D01*
X80928571Y-125428571D01*
X80785714Y-125500000D01*
X79428571Y-126357142D02*
X79571428Y-126428571D01*
X79857142Y-126428571D01*
X79999999Y-126357142D01*
X80071428Y-126285714D01*
X80142857Y-126142857D01*
X80142857Y-125714285D01*
X80071428Y-125571428D01*
X79999999Y-125500000D01*
X79857142Y-125428571D01*
X79571428Y-125428571D01*
X79428571Y-125500000D01*
X78928571Y-125428571D02*
X78642857Y-126428571D01*
X78357142Y-125714285D01*
X78071428Y-126428571D01*
X77785714Y-125428571D01*
M02*
