G04 #@! TF.GenerationSoftware,KiCad,Pcbnew,5.0.2-bee76a0~70~ubuntu18.04.1*
G04 #@! TF.CreationDate,2019-01-22T12:03:51-08:00*
G04 #@! TF.ProjectId,controller,636f6e74-726f-46c6-9c65-722e6b696361,rev?*
G04 #@! TF.SameCoordinates,Original*
G04 #@! TF.FileFunction,Legend,Bot*
G04 #@! TF.FilePolarity,Positive*
%FSLAX46Y46*%
G04 Gerber Fmt 4.6, Leading zero omitted, Abs format (unit mm)*
G04 Created by KiCad (PCBNEW 5.0.2-bee76a0~70~ubuntu18.04.1) date Tue 22 Jan 2019 12:03:51 PM PST*
%MOMM*%
%LPD*%
G01*
G04 APERTURE LIST*
%ADD10C,0.150000*%
G04 APERTURE END LIST*
D10*
X159102380Y-122800000D02*
X159178571Y-122761904D01*
X159292857Y-122761904D01*
X159407142Y-122800000D01*
X159483333Y-122876190D01*
X159521428Y-122952380D01*
X159559523Y-123104761D01*
X159559523Y-123219047D01*
X159521428Y-123371428D01*
X159483333Y-123447619D01*
X159407142Y-123523809D01*
X159292857Y-123561904D01*
X159216666Y-123561904D01*
X159102380Y-123523809D01*
X159064285Y-123485714D01*
X159064285Y-123219047D01*
X159216666Y-123219047D01*
X158721428Y-123561904D02*
X158721428Y-123028571D01*
X158721428Y-122761904D02*
X158759523Y-122800000D01*
X158721428Y-122838095D01*
X158683333Y-122800000D01*
X158721428Y-122761904D01*
X158721428Y-122838095D01*
X158454761Y-123028571D02*
X158150000Y-123028571D01*
X158340476Y-122761904D02*
X158340476Y-123447619D01*
X158302380Y-123523809D01*
X158226190Y-123561904D01*
X158150000Y-123561904D01*
X157273809Y-123561904D02*
X157273809Y-122761904D01*
X157273809Y-123142857D02*
X156816666Y-123142857D01*
X156816666Y-123561904D02*
X156816666Y-122761904D01*
X156092857Y-123561904D02*
X156092857Y-123142857D01*
X156130952Y-123066666D01*
X156207142Y-123028571D01*
X156359523Y-123028571D01*
X156435714Y-123066666D01*
X156092857Y-123523809D02*
X156169047Y-123561904D01*
X156359523Y-123561904D01*
X156435714Y-123523809D01*
X156473809Y-123447619D01*
X156473809Y-123371428D01*
X156435714Y-123295238D01*
X156359523Y-123257142D01*
X156169047Y-123257142D01*
X156092857Y-123219047D01*
X155750000Y-123523809D02*
X155673809Y-123561904D01*
X155521428Y-123561904D01*
X155445238Y-123523809D01*
X155407142Y-123447619D01*
X155407142Y-123409523D01*
X155445238Y-123333333D01*
X155521428Y-123295238D01*
X155635714Y-123295238D01*
X155711904Y-123257142D01*
X155750000Y-123180952D01*
X155750000Y-123142857D01*
X155711904Y-123066666D01*
X155635714Y-123028571D01*
X155521428Y-123028571D01*
X155445238Y-123066666D01*
X155064285Y-123561904D02*
X155064285Y-122761904D01*
X154721428Y-123561904D02*
X154721428Y-123142857D01*
X154759523Y-123066666D01*
X154835714Y-123028571D01*
X154950000Y-123028571D01*
X155026190Y-123066666D01*
X155064285Y-123104761D01*
X154340476Y-123485714D02*
X154302380Y-123523809D01*
X154340476Y-123561904D01*
X154378571Y-123523809D01*
X154340476Y-123485714D01*
X154340476Y-123561904D01*
X154340476Y-123066666D02*
X154302380Y-123104761D01*
X154340476Y-123142857D01*
X154378571Y-123104761D01*
X154340476Y-123066666D01*
X154340476Y-123142857D01*
X153007142Y-122761904D02*
X153159523Y-122761904D01*
X153235714Y-122800000D01*
X153273809Y-122838095D01*
X153350000Y-122952380D01*
X153388095Y-123104761D01*
X153388095Y-123409523D01*
X153350000Y-123485714D01*
X153311904Y-123523809D01*
X153235714Y-123561904D01*
X153083333Y-123561904D01*
X153007142Y-123523809D01*
X152969047Y-123485714D01*
X152930952Y-123409523D01*
X152930952Y-123219047D01*
X152969047Y-123142857D01*
X153007142Y-123104761D01*
X153083333Y-123066666D01*
X153235714Y-123066666D01*
X153311904Y-123104761D01*
X153350000Y-123142857D01*
X153388095Y-123219047D01*
X152245238Y-123561904D02*
X152245238Y-123142857D01*
X152283333Y-123066666D01*
X152359523Y-123028571D01*
X152511904Y-123028571D01*
X152588095Y-123066666D01*
X152245238Y-123523809D02*
X152321428Y-123561904D01*
X152511904Y-123561904D01*
X152588095Y-123523809D01*
X152626190Y-123447619D01*
X152626190Y-123371428D01*
X152588095Y-123295238D01*
X152511904Y-123257142D01*
X152321428Y-123257142D01*
X152245238Y-123219047D01*
X151940476Y-122761904D02*
X151407142Y-122761904D01*
X151750000Y-123561904D01*
X151140476Y-122838095D02*
X151102380Y-122800000D01*
X151026190Y-122761904D01*
X150835714Y-122761904D01*
X150759523Y-122800000D01*
X150721428Y-122838095D01*
X150683333Y-122914285D01*
X150683333Y-122990476D01*
X150721428Y-123104761D01*
X151178571Y-123561904D01*
X150683333Y-123561904D01*
X150416666Y-122761904D02*
X149883333Y-122761904D01*
X150226190Y-123561904D01*
X149235714Y-122761904D02*
X149388095Y-122761904D01*
X149464285Y-122800000D01*
X149502380Y-122838095D01*
X149578571Y-122952380D01*
X149616666Y-123104761D01*
X149616666Y-123409523D01*
X149578571Y-123485714D01*
X149540476Y-123523809D01*
X149464285Y-123561904D01*
X149311904Y-123561904D01*
X149235714Y-123523809D01*
X149197619Y-123485714D01*
X149159523Y-123409523D01*
X149159523Y-123219047D01*
X149197619Y-123142857D01*
X149235714Y-123104761D01*
X149311904Y-123066666D01*
X149464285Y-123066666D01*
X149540476Y-123104761D01*
X149578571Y-123142857D01*
X149616666Y-123219047D01*
X148816666Y-123561904D02*
X148816666Y-122761904D01*
X148816666Y-123066666D02*
X148740476Y-123028571D01*
X148588095Y-123028571D01*
X148511904Y-123066666D01*
X148473809Y-123104761D01*
X148435714Y-123180952D01*
X148435714Y-123409523D01*
X148473809Y-123485714D01*
X148511904Y-123523809D01*
X148588095Y-123561904D01*
X148740476Y-123561904D01*
X148816666Y-123523809D01*
X147750000Y-123028571D02*
X147750000Y-123561904D01*
X147940476Y-122723809D02*
X148130952Y-123295238D01*
X147635714Y-123295238D01*
X147330952Y-123561904D02*
X147330952Y-122761904D01*
X147330952Y-123066666D02*
X147254761Y-123028571D01*
X147102380Y-123028571D01*
X147026190Y-123066666D01*
X146988095Y-123104761D01*
X146950000Y-123180952D01*
X146950000Y-123409523D01*
X146988095Y-123485714D01*
X147026190Y-123523809D01*
X147102380Y-123561904D01*
X147254761Y-123561904D01*
X147330952Y-123523809D01*
X146721428Y-123028571D02*
X146416666Y-123028571D01*
X146607142Y-123561904D02*
X146607142Y-122876190D01*
X146569047Y-122800000D01*
X146492857Y-122761904D01*
X146416666Y-122761904D01*
X145807142Y-123523809D02*
X145883333Y-123561904D01*
X146035714Y-123561904D01*
X146111904Y-123523809D01*
X146150000Y-123485714D01*
X146188095Y-123409523D01*
X146188095Y-123180952D01*
X146150000Y-123104761D01*
X146111904Y-123066666D01*
X146035714Y-123028571D01*
X145883333Y-123028571D01*
X145807142Y-123066666D01*
X145426190Y-123561904D02*
X145273809Y-123561904D01*
X145197619Y-123523809D01*
X145159523Y-123485714D01*
X145083333Y-123371428D01*
X145045238Y-123219047D01*
X145045238Y-122914285D01*
X145083333Y-122838095D01*
X145121428Y-122800000D01*
X145197619Y-122761904D01*
X145350000Y-122761904D01*
X145426190Y-122800000D01*
X145464285Y-122838095D01*
X145502380Y-122914285D01*
X145502380Y-123104761D01*
X145464285Y-123180952D01*
X145426190Y-123219047D01*
X145350000Y-123257142D01*
X145197619Y-123257142D01*
X145121428Y-123219047D01*
X145083333Y-123180952D01*
X145045238Y-123104761D01*
X144778571Y-122761904D02*
X144245238Y-122761904D01*
X144588095Y-123561904D01*
X143597619Y-123028571D02*
X143597619Y-123561904D01*
X143788095Y-122723809D02*
X143978571Y-123295238D01*
X143483333Y-123295238D01*
X142873809Y-123523809D02*
X142950000Y-123561904D01*
X143102380Y-123561904D01*
X143178571Y-123523809D01*
X143216666Y-123447619D01*
X143216666Y-123142857D01*
X143178571Y-123066666D01*
X143102380Y-123028571D01*
X142950000Y-123028571D01*
X142873809Y-123066666D01*
X142835714Y-123142857D01*
X142835714Y-123219047D01*
X143216666Y-123295238D01*
X142492857Y-123561904D02*
X142492857Y-122761904D01*
X142492857Y-123066666D02*
X142416666Y-123028571D01*
X142264285Y-123028571D01*
X142188095Y-123066666D01*
X142150000Y-123104761D01*
X142111904Y-123180952D01*
X142111904Y-123409523D01*
X142150000Y-123485714D01*
X142188095Y-123523809D01*
X142264285Y-123561904D01*
X142416666Y-123561904D01*
X142492857Y-123523809D01*
X141426190Y-123523809D02*
X141502380Y-123561904D01*
X141654761Y-123561904D01*
X141730952Y-123523809D01*
X141769047Y-123485714D01*
X141807142Y-123409523D01*
X141807142Y-123180952D01*
X141769047Y-123104761D01*
X141730952Y-123066666D01*
X141654761Y-123028571D01*
X141502380Y-123028571D01*
X141426190Y-123066666D01*
X140740476Y-122761904D02*
X140892857Y-122761904D01*
X140969047Y-122800000D01*
X141007142Y-122838095D01*
X141083333Y-122952380D01*
X141121428Y-123104761D01*
X141121428Y-123409523D01*
X141083333Y-123485714D01*
X141045238Y-123523809D01*
X140969047Y-123561904D01*
X140816666Y-123561904D01*
X140740476Y-123523809D01*
X140702380Y-123485714D01*
X140664285Y-123409523D01*
X140664285Y-123219047D01*
X140702380Y-123142857D01*
X140740476Y-123104761D01*
X140816666Y-123066666D01*
X140969047Y-123066666D01*
X141045238Y-123104761D01*
X141083333Y-123142857D01*
X141121428Y-123219047D01*
X139978571Y-123028571D02*
X139978571Y-123561904D01*
X140169047Y-122723809D02*
X140359523Y-123295238D01*
X139864285Y-123295238D01*
X139407142Y-122761904D02*
X139330952Y-122761904D01*
X139254761Y-122800000D01*
X139216666Y-122838095D01*
X139178571Y-122914285D01*
X139140476Y-123066666D01*
X139140476Y-123257142D01*
X139178571Y-123409523D01*
X139216666Y-123485714D01*
X139254761Y-123523809D01*
X139330952Y-123561904D01*
X139407142Y-123561904D01*
X139483333Y-123523809D01*
X139521428Y-123485714D01*
X139559523Y-123409523D01*
X139597619Y-123257142D01*
X139597619Y-123066666D01*
X139559523Y-122914285D01*
X139521428Y-122838095D01*
X139483333Y-122800000D01*
X139407142Y-122761904D01*
X138911904Y-123028571D02*
X138607142Y-123028571D01*
X138797619Y-123561904D02*
X138797619Y-122876190D01*
X138759523Y-122800000D01*
X138683333Y-122761904D01*
X138607142Y-122761904D01*
X138226190Y-123104761D02*
X138302380Y-123066666D01*
X138340476Y-123028571D01*
X138378571Y-122952380D01*
X138378571Y-122914285D01*
X138340476Y-122838095D01*
X138302380Y-122800000D01*
X138226190Y-122761904D01*
X138073809Y-122761904D01*
X137997619Y-122800000D01*
X137959523Y-122838095D01*
X137921428Y-122914285D01*
X137921428Y-122952380D01*
X137959523Y-123028571D01*
X137997619Y-123066666D01*
X138073809Y-123104761D01*
X138226190Y-123104761D01*
X138302380Y-123142857D01*
X138340476Y-123180952D01*
X138378571Y-123257142D01*
X138378571Y-123409523D01*
X138340476Y-123485714D01*
X138302380Y-123523809D01*
X138226190Y-123561904D01*
X138073809Y-123561904D01*
X137997619Y-123523809D01*
X137959523Y-123485714D01*
X137921428Y-123409523D01*
X137921428Y-123257142D01*
X137959523Y-123180952D01*
X137997619Y-123142857D01*
X138073809Y-123104761D01*
X137235714Y-123561904D02*
X137235714Y-122761904D01*
X137235714Y-123523809D02*
X137311904Y-123561904D01*
X137464285Y-123561904D01*
X137540476Y-123523809D01*
X137578571Y-123485714D01*
X137616666Y-123409523D01*
X137616666Y-123180952D01*
X137578571Y-123104761D01*
X137540476Y-123066666D01*
X137464285Y-123028571D01*
X137311904Y-123028571D01*
X137235714Y-123066666D01*
X136854761Y-123561904D02*
X136854761Y-122761904D01*
X136854761Y-123066666D02*
X136778571Y-123028571D01*
X136626190Y-123028571D01*
X136550000Y-123066666D01*
X136511904Y-123104761D01*
X136473809Y-123180952D01*
X136473809Y-123409523D01*
X136511904Y-123485714D01*
X136550000Y-123523809D01*
X136626190Y-123561904D01*
X136778571Y-123561904D01*
X136854761Y-123523809D01*
X136092857Y-123561904D02*
X135940476Y-123561904D01*
X135864285Y-123523809D01*
X135826190Y-123485714D01*
X135750000Y-123371428D01*
X135711904Y-123219047D01*
X135711904Y-122914285D01*
X135750000Y-122838095D01*
X135788095Y-122800000D01*
X135864285Y-122761904D01*
X136016666Y-122761904D01*
X136092857Y-122800000D01*
X136130952Y-122838095D01*
X136169047Y-122914285D01*
X136169047Y-123104761D01*
X136130952Y-123180952D01*
X136092857Y-123219047D01*
X136016666Y-123257142D01*
X135864285Y-123257142D01*
X135788095Y-123219047D01*
X135750000Y-123180952D01*
X135711904Y-123104761D01*
X135026190Y-123561904D02*
X135026190Y-123142857D01*
X135064285Y-123066666D01*
X135140476Y-123028571D01*
X135292857Y-123028571D01*
X135369047Y-123066666D01*
X135026190Y-123523809D02*
X135102380Y-123561904D01*
X135292857Y-123561904D01*
X135369047Y-123523809D01*
X135407142Y-123447619D01*
X135407142Y-123371428D01*
X135369047Y-123295238D01*
X135292857Y-123257142D01*
X135102380Y-123257142D01*
X135026190Y-123219047D01*
X134264285Y-122761904D02*
X134645238Y-122761904D01*
X134683333Y-123142857D01*
X134645238Y-123104761D01*
X134569047Y-123066666D01*
X134378571Y-123066666D01*
X134302380Y-123104761D01*
X134264285Y-123142857D01*
X134226190Y-123219047D01*
X134226190Y-123409523D01*
X134264285Y-123485714D01*
X134302380Y-123523809D01*
X134378571Y-123561904D01*
X134569047Y-123561904D01*
X134645238Y-123523809D01*
X134683333Y-123485714D01*
X133845238Y-123561904D02*
X133692857Y-123561904D01*
X133616666Y-123523809D01*
X133578571Y-123485714D01*
X133502380Y-123371428D01*
X133464285Y-123219047D01*
X133464285Y-122914285D01*
X133502380Y-122838095D01*
X133540476Y-122800000D01*
X133616666Y-122761904D01*
X133769047Y-122761904D01*
X133845238Y-122800000D01*
X133883333Y-122838095D01*
X133921428Y-122914285D01*
X133921428Y-123104761D01*
X133883333Y-123180952D01*
X133845238Y-123219047D01*
X133769047Y-123257142D01*
X133616666Y-123257142D01*
X133540476Y-123219047D01*
X133502380Y-123180952D01*
X133464285Y-123104761D01*
X132969047Y-122761904D02*
X132892857Y-122761904D01*
X132816666Y-122800000D01*
X132778571Y-122838095D01*
X132740476Y-122914285D01*
X132702380Y-123066666D01*
X132702380Y-123257142D01*
X132740476Y-123409523D01*
X132778571Y-123485714D01*
X132816666Y-123523809D01*
X132892857Y-123561904D01*
X132969047Y-123561904D01*
X133045238Y-123523809D01*
X133083333Y-123485714D01*
X133121428Y-123409523D01*
X133159523Y-123257142D01*
X133159523Y-123066666D01*
X133121428Y-122914285D01*
X133083333Y-122838095D01*
X133045238Y-122800000D01*
X132969047Y-122761904D01*
X131978571Y-122761904D02*
X132359523Y-122761904D01*
X132397619Y-123142857D01*
X132359523Y-123104761D01*
X132283333Y-123066666D01*
X132092857Y-123066666D01*
X132016666Y-123104761D01*
X131978571Y-123142857D01*
X131940476Y-123219047D01*
X131940476Y-123409523D01*
X131978571Y-123485714D01*
X132016666Y-123523809D01*
X132092857Y-123561904D01*
X132283333Y-123561904D01*
X132359523Y-123523809D01*
X132397619Y-123485714D01*
X131483333Y-123104761D02*
X131559523Y-123066666D01*
X131597619Y-123028571D01*
X131635714Y-122952380D01*
X131635714Y-122914285D01*
X131597619Y-122838095D01*
X131559523Y-122800000D01*
X131483333Y-122761904D01*
X131330952Y-122761904D01*
X131254761Y-122800000D01*
X131216666Y-122838095D01*
X131178571Y-122914285D01*
X131178571Y-122952380D01*
X131216666Y-123028571D01*
X131254761Y-123066666D01*
X131330952Y-123104761D01*
X131483333Y-123104761D01*
X131559523Y-123142857D01*
X131597619Y-123180952D01*
X131635714Y-123257142D01*
X131635714Y-123409523D01*
X131597619Y-123485714D01*
X131559523Y-123523809D01*
X131483333Y-123561904D01*
X131330952Y-123561904D01*
X131254761Y-123523809D01*
X131216666Y-123485714D01*
X131178571Y-123409523D01*
X131178571Y-123257142D01*
X131216666Y-123180952D01*
X131254761Y-123142857D01*
X131330952Y-123104761D01*
X130492857Y-123028571D02*
X130492857Y-123561904D01*
X130683333Y-122723809D02*
X130873809Y-123295238D01*
X130378571Y-123295238D01*
X129730952Y-123561904D02*
X129730952Y-122761904D01*
X129730952Y-123523809D02*
X129807142Y-123561904D01*
X129959523Y-123561904D01*
X130035714Y-123523809D01*
X130073809Y-123485714D01*
X130111904Y-123409523D01*
X130111904Y-123180952D01*
X130073809Y-123104761D01*
X130035714Y-123066666D01*
X129959523Y-123028571D01*
X129807142Y-123028571D01*
X129730952Y-123066666D01*
X129464285Y-123028571D02*
X129159523Y-123028571D01*
X129350000Y-123561904D02*
X129350000Y-122876190D01*
X129311904Y-122800000D01*
X129235714Y-122761904D01*
X129159523Y-122761904D01*
X128473809Y-123561904D02*
X128930952Y-123561904D01*
X128702380Y-123561904D02*
X128702380Y-122761904D01*
X128778571Y-122876190D01*
X128854761Y-122952380D01*
X128930952Y-122990476D01*
X127788095Y-123028571D02*
X127788095Y-123561904D01*
X127978571Y-122723809D02*
X128169047Y-123295238D01*
X127673809Y-123295238D01*
X127445238Y-122761904D02*
X126911904Y-122761904D01*
X127254761Y-123561904D01*
X126492857Y-123104761D02*
X126569047Y-123066666D01*
X126607142Y-123028571D01*
X126645238Y-122952380D01*
X126645238Y-122914285D01*
X126607142Y-122838095D01*
X126569047Y-122800000D01*
X126492857Y-122761904D01*
X126340476Y-122761904D01*
X126264285Y-122800000D01*
X126226190Y-122838095D01*
X126188095Y-122914285D01*
X126188095Y-122952380D01*
X126226190Y-123028571D01*
X126264285Y-123066666D01*
X126340476Y-123104761D01*
X126492857Y-123104761D01*
X126569047Y-123142857D01*
X126607142Y-123180952D01*
X126645238Y-123257142D01*
X126645238Y-123409523D01*
X126607142Y-123485714D01*
X126569047Y-123523809D01*
X126492857Y-123561904D01*
X126340476Y-123561904D01*
X126264285Y-123523809D01*
X126226190Y-123485714D01*
X126188095Y-123409523D01*
X126188095Y-123257142D01*
X126226190Y-123180952D01*
X126264285Y-123142857D01*
X126340476Y-123104761D01*
X125883333Y-122838095D02*
X125845238Y-122800000D01*
X125769047Y-122761904D01*
X125578571Y-122761904D01*
X125502380Y-122800000D01*
X125464285Y-122838095D01*
X125426190Y-122914285D01*
X125426190Y-122990476D01*
X125464285Y-123104761D01*
X125921428Y-123561904D01*
X125426190Y-123561904D01*
X124740476Y-123523809D02*
X124816666Y-123561904D01*
X124969047Y-123561904D01*
X125045238Y-123523809D01*
X125083333Y-123485714D01*
X125121428Y-123409523D01*
X125121428Y-123180952D01*
X125083333Y-123104761D01*
X125045238Y-123066666D01*
X124969047Y-123028571D01*
X124816666Y-123028571D01*
X124740476Y-123066666D01*
M02*
