G04 #@! TF.GenerationSoftware,KiCad,Pcbnew,5.0.2-bee76a0~70~ubuntu18.04.1*
G04 #@! TF.CreationDate,2019-01-23T11:33:38-08:00*
G04 #@! TF.ProjectId,controller,636f6e74-726f-46c6-9c65-722e6b696361,rev?*
G04 #@! TF.SameCoordinates,Original*
G04 #@! TF.FileFunction,Copper,L2,Inr*
G04 #@! TF.FilePolarity,Positive*
%FSLAX46Y46*%
G04 Gerber Fmt 4.6, Leading zero omitted, Abs format (unit mm)*
G04 Created by KiCad (PCBNEW 5.0.2-bee76a0~70~ubuntu18.04.1) date Wed 23 Jan 2019 11:33:38 AM PST*
%MOMM*%
%LPD*%
G01*
G04 APERTURE LIST*
G04 #@! TA.AperFunction,ViaPad*
%ADD10O,1.700000X1.700000*%
G04 #@! TD*
G04 #@! TA.AperFunction,ViaPad*
%ADD11R,1.700000X1.700000*%
G04 #@! TD*
G04 #@! TA.AperFunction,ViaPad*
%ADD12C,1.800000*%
G04 #@! TD*
G04 #@! TA.AperFunction,ViaPad*
%ADD13C,1.500000*%
G04 #@! TD*
G04 #@! TA.AperFunction,ViaPad*
%ADD14R,1.500000X1.500000*%
G04 #@! TD*
G04 #@! TA.AperFunction,ViaPad*
%ADD15C,2.250000*%
G04 #@! TD*
G04 #@! TA.AperFunction,ViaPad*
%ADD16C,2.050000*%
G04 #@! TD*
G04 #@! TA.AperFunction,ViaPad*
%ADD17C,0.800000*%
G04 #@! TD*
G04 #@! TA.AperFunction,ViaPad*
%ADD18C,8.000000*%
G04 #@! TD*
G04 #@! TA.AperFunction,ViaPad*
%ADD19C,2.000000*%
G04 #@! TD*
G04 #@! TA.AperFunction,ViaPad*
%ADD20R,2.000000X2.000000*%
G04 #@! TD*
G04 #@! TA.AperFunction,ViaPad*
%ADD21C,2.400000*%
G04 #@! TD*
G04 #@! TA.AperFunction,ViaPad*
%ADD22R,2.400000X2.400000*%
G04 #@! TD*
G04 #@! TA.AperFunction,ViaPad*
%ADD23C,0.600000*%
G04 #@! TD*
G04 #@! TA.AperFunction,Conductor*
%ADD24C,0.254000*%
G04 #@! TD*
G04 #@! TA.AperFunction,Conductor*
%ADD25C,0.200000*%
G04 #@! TD*
G04 APERTURE END LIST*
D10*
G04 #@! TO.N,GND*
G04 #@! TO.C,J3001*
X157950000Y-81250000D03*
G04 #@! TO.N,Net-(J3001-Pad5)*
X155410000Y-81250000D03*
G04 #@! TO.N,Net-(J3001-Pad4)*
X152870000Y-81250000D03*
G04 #@! TO.N,Net-(J3001-Pad3)*
X150330000Y-81250000D03*
G04 #@! TO.N,Net-(J3001-Pad2)*
X147790000Y-81250000D03*
D11*
G04 #@! TO.N,+3V3D*
X145250000Y-81250000D03*
G04 #@! TD*
D12*
G04 #@! TO.N,GND*
G04 #@! TO.C,U6001*
X91900000Y-64560000D03*
X91900000Y-56940000D03*
G04 #@! TO.N,FIBER_TX*
X99560000Y-56980000D03*
G04 #@! TO.N,GND*
X99560000Y-59520000D03*
G04 #@! TO.N,Net-(U6001-Pad2)*
X99560000Y-62060000D03*
G04 #@! TO.N,Net-(C6004-Pad1)*
X99560000Y-64600000D03*
G04 #@! TD*
G04 #@! TO.N,GND*
G04 #@! TO.C,U6002*
X91900000Y-74760000D03*
X91900000Y-67140000D03*
X99560000Y-67180000D03*
G04 #@! TO.N,Net-(C6005-Pad1)*
X99560000Y-69720000D03*
G04 #@! TO.N,GND*
X99560000Y-72260000D03*
G04 #@! TO.N,FIBER_RX*
X99560000Y-74800000D03*
G04 #@! TD*
D13*
G04 #@! TO.N,/Interface/5_ISO*
G04 #@! TO.C,U6003*
X113690000Y-105250000D03*
G04 #@! TO.N,/Interface/GND_ISO*
X116230000Y-105250000D03*
G04 #@! TO.N,+5V*
X118770000Y-105250000D03*
G04 #@! TO.N,GND*
X121310000Y-105250000D03*
G04 #@! TD*
G04 #@! TO.N,/Interface/GND_ISO*
G04 #@! TO.C,J6001*
X107540000Y-115390000D03*
G04 #@! TO.N,/Interface/5_ISO*
X105000000Y-114120000D03*
G04 #@! TO.N,/Interface/RX_N*
X107540000Y-112850000D03*
G04 #@! TO.N,Net-(J6001-Pad5)*
X105000000Y-111580000D03*
G04 #@! TO.N,Net-(J6001-Pad4)*
X107540000Y-110310000D03*
G04 #@! TO.N,/Interface/RX_P*
X105000000Y-109040000D03*
G04 #@! TO.N,/Interface/TX_N*
X107540000Y-107770000D03*
D14*
G04 #@! TO.N,/Interface/TX_P*
X105000000Y-106500000D03*
G04 #@! TD*
D15*
G04 #@! TO.N,GND*
G04 #@! TO.C,J7001*
X162460000Y-99540000D03*
X162460000Y-94460000D03*
X167540000Y-94460000D03*
X167540000Y-99540000D03*
D16*
G04 #@! TO.N,Net-(C7001-Pad2)*
X165000000Y-97000000D03*
G04 #@! TD*
D15*
G04 #@! TO.N,GND*
G04 #@! TO.C,J7002*
X162460000Y-115540000D03*
X162460000Y-110460000D03*
X167540000Y-110460000D03*
X167540000Y-115540000D03*
D16*
G04 #@! TO.N,Net-(C7002-Pad2)*
X165000000Y-113000000D03*
G04 #@! TD*
D17*
G04 #@! TO.N,GND*
G04 #@! TO.C,J1001*
X167000000Y-127000000D03*
X163000000Y-123000000D03*
X163000000Y-127000000D03*
X165000000Y-128000000D03*
X162000000Y-125000000D03*
X165000000Y-122500000D03*
X167000000Y-123000000D03*
X168000000Y-125000000D03*
D18*
X165000000Y-125000000D03*
G04 #@! TD*
D17*
G04 #@! TO.N,GND*
G04 #@! TO.C,J1002*
X97000000Y-127000000D03*
X93000000Y-123000000D03*
X93000000Y-127000000D03*
X95000000Y-128000000D03*
X92000000Y-125000000D03*
X95000000Y-122500000D03*
X97000000Y-123000000D03*
X98000000Y-125000000D03*
D18*
X95000000Y-125000000D03*
G04 #@! TD*
D17*
G04 #@! TO.N,GND*
G04 #@! TO.C,J1003*
X167000000Y-37000000D03*
X163000000Y-33000000D03*
X163000000Y-37000000D03*
X165000000Y-38000000D03*
X162000000Y-35000000D03*
X165000000Y-32500000D03*
X167000000Y-33000000D03*
X168000000Y-35000000D03*
D18*
X165000000Y-35000000D03*
G04 #@! TD*
D17*
G04 #@! TO.N,GND*
G04 #@! TO.C,J1004*
X97000000Y-37000000D03*
X93000000Y-33000000D03*
X93000000Y-37000000D03*
X95000000Y-38000000D03*
X92000000Y-35000000D03*
X95000000Y-32500000D03*
X97000000Y-33000000D03*
X98000000Y-35000000D03*
D18*
X95000000Y-35000000D03*
G04 #@! TD*
D19*
G04 #@! TO.N,GND*
G04 #@! TO.C,C2006*
X118000000Y-39750000D03*
D20*
G04 #@! TO.N,+24V*
X113000000Y-39750000D03*
G04 #@! TD*
D21*
G04 #@! TO.N,GND*
G04 #@! TO.C,C2015*
X122250000Y-48000000D03*
D22*
G04 #@! TO.N,+24V*
X114750000Y-48000000D03*
G04 #@! TD*
D13*
G04 #@! TO.N,GND*
G04 #@! TO.C,D3001*
X165500000Y-84730000D03*
G04 #@! TO.N,Net-(D3001-Pad2)*
X165500000Y-87270000D03*
G04 #@! TD*
G04 #@! TO.N,GND*
G04 #@! TO.C,D3002*
X165500000Y-78480000D03*
G04 #@! TO.N,Net-(D3002-Pad2)*
X165500000Y-81020000D03*
G04 #@! TD*
D10*
G04 #@! TO.N,GND*
G04 #@! TO.C,J3002*
X152870000Y-76750000D03*
G04 #@! TO.N,/FPGA/DEBUG_RX*
X150330000Y-76750000D03*
G04 #@! TO.N,/FPGA/DEBUG_TX*
X147790000Y-76750000D03*
D11*
G04 #@! TO.N,+3V3D*
X145250000Y-76750000D03*
G04 #@! TD*
D19*
G04 #@! TO.N,/Interface/RELAY_B_DRV*
G04 #@! TO.C,J6002*
X98000000Y-96250000D03*
G04 #@! TO.N,/Interface/5_ISO*
X98000000Y-92750000D03*
G04 #@! TO.N,/Interface/RELAY_A_DRV*
X98000000Y-89250000D03*
G04 #@! TO.N,/Interface/5_ISO*
X98000000Y-85750000D03*
G04 #@! TD*
G04 #@! TO.N,Net-(FL2001-Pad2)*
G04 #@! TO.C,J2001*
X98000000Y-45000000D03*
G04 #@! TO.N,Net-(FL2001-Pad4)*
X98000000Y-48500000D03*
G04 #@! TD*
G04 #@! TO.N,Net-(J5001-Pad2)*
G04 #@! TO.C,J5001*
X162000000Y-51750000D03*
G04 #@! TO.N,Net-(C5008-Pad1)*
X162000000Y-48250000D03*
G04 #@! TD*
G04 #@! TO.N,Net-(J5002-Pad2)*
G04 #@! TO.C,J5002*
X162000000Y-70750000D03*
G04 #@! TO.N,Net-(C5017-Pad1)*
X162000000Y-67250000D03*
G04 #@! TD*
D23*
G04 #@! TO.N,GND*
X118500000Y-92000000D03*
X142750000Y-63250000D03*
X131250000Y-60250000D03*
X126000000Y-60250000D03*
X117750000Y-61500000D03*
X152750000Y-69750000D03*
X154250000Y-69750000D03*
X154250000Y-67750000D03*
X152750000Y-67750000D03*
X153500000Y-68750000D03*
X154250000Y-60750000D03*
X152750000Y-60750000D03*
X152750000Y-58750000D03*
X154250000Y-58750000D03*
X153500000Y-59750000D03*
X152750000Y-51750000D03*
X154250000Y-51750000D03*
X154250000Y-49750000D03*
X152750000Y-49750000D03*
X153500000Y-50750000D03*
X152750000Y-42750000D03*
X154250000Y-42750000D03*
X154250000Y-40750000D03*
X152750000Y-40750000D03*
X153500000Y-41750000D03*
X133000000Y-52500000D03*
X133000000Y-51000000D03*
X133000000Y-49500000D03*
X133000000Y-48000000D03*
X133000000Y-46500000D03*
X136000000Y-46500000D03*
X136000000Y-48000000D03*
X136000000Y-49500000D03*
X136000000Y-51000000D03*
X136000000Y-52500000D03*
X134500000Y-52500000D03*
X134500000Y-51000000D03*
X134500000Y-46500000D03*
X134500000Y-48000000D03*
X134500000Y-49500000D03*
X136000000Y-77250000D03*
X135000000Y-105750000D03*
X137000000Y-105750000D03*
X137000000Y-107750000D03*
X135000000Y-107750000D03*
X136000000Y-106750000D03*
X125250000Y-79250000D03*
X127250000Y-79250000D03*
X123250000Y-81250000D03*
X124250000Y-81250000D03*
X125250000Y-82250000D03*
X123250000Y-79250000D03*
X121250000Y-79250000D03*
X121250000Y-78250000D03*
X123250000Y-77250000D03*
X124250000Y-76250000D03*
X121250000Y-76250000D03*
X121250000Y-75250000D03*
X123250000Y-75250000D03*
X124250000Y-75250000D03*
X123250000Y-74250000D03*
X121250000Y-74250000D03*
X125250000Y-77250000D03*
X129250000Y-73250000D03*
X129500000Y-77750000D03*
X121250000Y-81250000D03*
X121250000Y-82250000D03*
X120250000Y-82250000D03*
X119250000Y-83250000D03*
X118250000Y-84250000D03*
X123250000Y-84250000D03*
X124250000Y-83250000D03*
X125250000Y-84250000D03*
X117250000Y-86250000D03*
X117250000Y-79250000D03*
X117250000Y-77250000D03*
X115000000Y-77750000D03*
X116250000Y-75250000D03*
X115250000Y-73250000D03*
X118250000Y-74250000D03*
X120750000Y-73000000D03*
X123750000Y-73000000D03*
X127250000Y-86250000D03*
X129250000Y-87250000D03*
X124250000Y-86250000D03*
X121250000Y-83250000D03*
X120250000Y-86250000D03*
X126250000Y-73250000D03*
X128250000Y-76250000D03*
X119250000Y-78250000D03*
X119250000Y-76250000D03*
X123250000Y-82250000D03*
X120800000Y-89900000D03*
X121700000Y-90950000D03*
X149400000Y-98000000D03*
X149400000Y-96750000D03*
X151050000Y-100500000D03*
X148950000Y-102500000D03*
X144050000Y-97250000D03*
X154200000Y-101750000D03*
X150000000Y-105800000D03*
X151250000Y-105800000D03*
X145700000Y-104500000D03*
X134750000Y-110200000D03*
X133250000Y-113200000D03*
X132000000Y-113200000D03*
X134500000Y-113200000D03*
X135750000Y-113200000D03*
X141250000Y-111250000D03*
X145250000Y-111250000D03*
X142750000Y-111250000D03*
X143500000Y-117450000D03*
X144500000Y-117450000D03*
X144000000Y-115000000D03*
D17*
X157250000Y-103450000D03*
X157250000Y-93050000D03*
X157000000Y-108800000D03*
D23*
X149050000Y-91250000D03*
X148750000Y-87850000D03*
X144000000Y-91000000D03*
X153950000Y-92000000D03*
D17*
X134500000Y-40000000D03*
D23*
X134000000Y-36750000D03*
X135500000Y-36750000D03*
D17*
X143950000Y-43400000D03*
X141000000Y-43400000D03*
X122750000Y-40000000D03*
X127250000Y-44000000D03*
X109500000Y-48750000D03*
X150050000Y-61200000D03*
X156950000Y-61150000D03*
X156950000Y-52150000D03*
X150050000Y-52150000D03*
X150050000Y-70150000D03*
X156900000Y-70200000D03*
X150100000Y-43150000D03*
X156900000Y-43150000D03*
D23*
X138600000Y-80050000D03*
X131500000Y-56500000D03*
D17*
X119000000Y-67000000D03*
X119750000Y-58000000D03*
D23*
X115550000Y-65000000D03*
X116400000Y-61450000D03*
X119100000Y-61500000D03*
X123550000Y-63250000D03*
X128150000Y-63250000D03*
X128850000Y-63250000D03*
X120750000Y-59050000D03*
X133500000Y-63250000D03*
X124750000Y-60250000D03*
X127250000Y-60250000D03*
X130000000Y-60250000D03*
X132500000Y-60250000D03*
X128250000Y-60250000D03*
X129000000Y-60250000D03*
X123750000Y-60250000D03*
X133500000Y-60250000D03*
X106950000Y-67000000D03*
X106250000Y-72200000D03*
X105000000Y-72200000D03*
X106250000Y-65700000D03*
X105000000Y-65700000D03*
X106700000Y-60500000D03*
X115450000Y-91250000D03*
X115500000Y-92650000D03*
X116600000Y-94750000D03*
X144750000Y-57700000D03*
X140750000Y-57750000D03*
X143500000Y-67050000D03*
X139650000Y-65250000D03*
X139650000Y-64250000D03*
X115250000Y-83250000D03*
D17*
X126750000Y-70150000D03*
X131750000Y-70150000D03*
X120000000Y-70250000D03*
X118250000Y-70250000D03*
D23*
X119250000Y-81250000D03*
X120250000Y-79250000D03*
X120250000Y-75250000D03*
X120500000Y-95200000D03*
X115250000Y-87250000D03*
X132500000Y-76000000D03*
X129250000Y-83150000D03*
X120250000Y-77250000D03*
X146200000Y-60700000D03*
X139000000Y-57800000D03*
X113250000Y-68500000D03*
X126550000Y-120000000D03*
X126250000Y-56450000D03*
X110550000Y-92050000D03*
X112011091Y-96938909D03*
X124600000Y-112300000D03*
X124600000Y-113550000D03*
X100000000Y-31500000D03*
X108000000Y-31500000D03*
X116000000Y-31500000D03*
X124000000Y-31500000D03*
X132000000Y-31500000D03*
X140000000Y-31500000D03*
X148000000Y-31500000D03*
X156000000Y-31500000D03*
D17*
X100250000Y-128500000D03*
X106250000Y-128500000D03*
X112250000Y-128500000D03*
X118250000Y-128500000D03*
X124250000Y-128500000D03*
X130250000Y-128500000D03*
X136250000Y-128500000D03*
X142250000Y-128500000D03*
X148250000Y-128500000D03*
X154250000Y-128500000D03*
D23*
X137750000Y-46500000D03*
X137750000Y-48000000D03*
X137750000Y-49500000D03*
X137750000Y-51000000D03*
X137750000Y-52500000D03*
X131250000Y-46500000D03*
X131250000Y-48000000D03*
X131250000Y-49500000D03*
X131250000Y-51000000D03*
X131250000Y-52500000D03*
X139250000Y-46500000D03*
X139250000Y-48000000D03*
X139250000Y-49500000D03*
X139250000Y-51000000D03*
X139250000Y-52500000D03*
X129750000Y-46500000D03*
X129750000Y-48000000D03*
X129750000Y-49500000D03*
X129750000Y-51000000D03*
X129750000Y-52500000D03*
X134500000Y-54250000D03*
X136000000Y-54250000D03*
X133000000Y-54250000D03*
X131250000Y-54250000D03*
X129750000Y-54250000D03*
X137750000Y-54250000D03*
X139250000Y-54250000D03*
G04 #@! TO.N,+24V*
X139450000Y-38750000D03*
D17*
X143950000Y-40600000D03*
D23*
X139450000Y-37500000D03*
D17*
X149600000Y-53800000D03*
X149600000Y-62800000D03*
X156200000Y-54250000D03*
X156200000Y-63250000D03*
X149600000Y-44800000D03*
X156200000Y-45250000D03*
X156200000Y-36250000D03*
X149600000Y-35800000D03*
D23*
X149750000Y-60200000D03*
X149750000Y-69200000D03*
X149750000Y-51200000D03*
X149750000Y-42250000D03*
X149000000Y-72100000D03*
G04 #@! TO.N,+3V3D*
X128250000Y-83250000D03*
X128250000Y-86250000D03*
X123250000Y-86250000D03*
X121250000Y-86250000D03*
X128250000Y-79250000D03*
X116250000Y-86250000D03*
X116250000Y-83250000D03*
X116250000Y-79250000D03*
X125250000Y-90950000D03*
X133000000Y-73250000D03*
X135750000Y-103350000D03*
D17*
X130050000Y-70150000D03*
D23*
X104550000Y-67000000D03*
X104300000Y-60500000D03*
X116650000Y-89450000D03*
D17*
X116750000Y-70250000D03*
D23*
X121500000Y-95200000D03*
X133350000Y-80750000D03*
X112250000Y-68500000D03*
X126550000Y-121000000D03*
X135950000Y-84000000D03*
X110399586Y-96314784D03*
G04 #@! TO.N,+1V0*
X124250000Y-77250000D03*
X124250000Y-79250000D03*
X121250000Y-77250000D03*
X123250000Y-76250000D03*
X120250000Y-76250000D03*
X119250000Y-77250000D03*
X120250000Y-78250000D03*
X119250000Y-79250000D03*
X120250000Y-81250000D03*
X119250000Y-82250000D03*
X120250000Y-83250000D03*
X123250000Y-83250000D03*
X124250000Y-82250000D03*
D17*
X123000000Y-67000000D03*
X122000000Y-70250000D03*
D23*
G04 #@! TO.N,+1V8D*
X125250000Y-78250000D03*
X123250000Y-78250000D03*
X124250000Y-84250000D03*
X125250000Y-83250000D03*
X125250000Y-81250000D03*
D17*
X124800000Y-70150000D03*
G04 #@! TO.N,+5V*
X122750000Y-44000000D03*
D23*
X130500000Y-56500000D03*
X132250000Y-57800000D03*
D17*
X115750000Y-58000000D03*
D23*
X118750000Y-59500000D03*
X143750000Y-57700000D03*
X125250000Y-56400000D03*
X126950000Y-57850000D03*
G04 #@! TO.N,+3V3*
X144050000Y-98500000D03*
X147050000Y-96750000D03*
X154200000Y-100500000D03*
X153000000Y-104350000D03*
X145250000Y-112250000D03*
X142750000Y-112250000D03*
X141950000Y-116850000D03*
X149750000Y-87900000D03*
X144000000Y-92250000D03*
D17*
X133000000Y-67000000D03*
G04 #@! TO.N,/Interface/GND_ISO*
X114200000Y-107050000D03*
D23*
X102750000Y-89500000D03*
X103800000Y-92400000D03*
X102750000Y-99300000D03*
X112950000Y-112300000D03*
X112900000Y-113600000D03*
X111050000Y-120750000D03*
G04 #@! TO.N,/Interface/5_ISO*
X103800000Y-86800000D03*
X103750000Y-99300000D03*
X111050000Y-121750000D03*
G04 #@! TO.N,/Analog/VCM*
X135050000Y-110900000D03*
X138200000Y-111100000D03*
G04 #@! TO.N,+1V8*
X139850000Y-107650000D03*
X138000000Y-110150000D03*
X136200000Y-110350000D03*
X132600000Y-108650000D03*
D17*
X127750000Y-67000000D03*
D23*
G04 #@! TO.N,Net-(J3001-Pad2)*
X126150000Y-93750000D03*
G04 #@! TO.N,Net-(J3001-Pad3)*
X126200000Y-94600000D03*
G04 #@! TO.N,Net-(J3001-Pad4)*
X126200000Y-95450000D03*
G04 #@! TO.N,Net-(J3001-Pad5)*
X126200000Y-96500000D03*
G04 #@! TO.N,Net-(R2007-Pad1)*
X117700000Y-63850000D03*
X119550000Y-63500000D03*
G04 #@! TO.N,/FPGA/FLASH_CS*
X126250000Y-75250000D03*
X130950000Y-75250000D03*
G04 #@! TO.N,/FPGA/PROGRAM_B*
X121250000Y-84250000D03*
X123500000Y-94000000D03*
G04 #@! TO.N,/FPGA/M0*
X121250000Y-85250000D03*
X125400000Y-92150000D03*
G04 #@! TO.N,/FPGA/M1*
X123250000Y-85250000D03*
X122850000Y-89100000D03*
G04 #@! TO.N,/FPGA/M2*
X124250000Y-85250000D03*
X124600000Y-94100000D03*
G04 #@! TO.N,/FPGA/PUDC_B*
X124700000Y-71650000D03*
X113250000Y-71100000D03*
G04 #@! TO.N,ZCS_DETECT*
X127250000Y-83250000D03*
X133950000Y-84750000D03*
G04 #@! TO.N,/FPGA/FLASH_IO0*
X137500000Y-72150000D03*
X133350000Y-72250000D03*
G04 #@! TO.N,/FPGA/TMS*
X120250000Y-85250000D03*
X118900000Y-88650000D03*
G04 #@! TO.N,GATE_1*
X129250000Y-74250000D03*
X133750000Y-68750000D03*
G04 #@! TO.N,GATE_2*
X129250000Y-76250000D03*
X134650000Y-68750000D03*
X137000000Y-60200000D03*
X136550000Y-62200000D03*
G04 #@! TO.N,GATE_3*
X129500000Y-78750000D03*
X137450000Y-68700000D03*
X138000000Y-60200000D03*
X137450000Y-64100000D03*
G04 #@! TO.N,GATE_4*
X139000000Y-60200000D03*
X129250000Y-80250000D03*
X138800000Y-68750000D03*
X138400000Y-63300000D03*
G04 #@! TO.N,RS485-R*
X112250000Y-86750000D03*
X127100000Y-118200000D03*
G04 #@! TO.N,RS485-RE*
X111850000Y-85500000D03*
X125550000Y-117250000D03*
G04 #@! TO.N,RS485-DE*
X112000000Y-84250000D03*
X125500000Y-116100000D03*
G04 #@! TO.N,RS485-D*
X112000000Y-82950000D03*
X125200000Y-114850000D03*
G04 #@! TO.N,ADC_CSB*
X138650000Y-101450000D03*
X114800000Y-89950000D03*
G04 #@! TO.N,ADC_SCLK*
X114200000Y-89000000D03*
X137900000Y-101750000D03*
G04 #@! TO.N,ADC_SDIO*
X138650000Y-102650000D03*
X114000000Y-86500000D03*
G04 #@! TO.N,ADC_MODE*
X131550000Y-108350000D03*
X112850000Y-87450000D03*
G04 #@! TO.N,/FPGA/LED1*
X128250000Y-82250000D03*
X160250000Y-87250000D03*
G04 #@! TO.N,/FPGA/LED2*
X127250000Y-82250000D03*
X161250000Y-79800000D03*
G04 #@! TO.N,/FPGA/DEBUG_RX*
X127250000Y-81250000D03*
G04 #@! TO.N,/FPGA/DEBUG_TX*
X130750000Y-80000000D03*
G04 #@! TD*
D24*
G04 #@! TO.N,/Interface/GND_ISO*
G36*
X97219992Y-84582636D02*
X96832636Y-84969992D01*
X96623000Y-85476098D01*
X96623000Y-86023902D01*
X96832636Y-86530008D01*
X97219992Y-86917364D01*
X97726098Y-87127000D01*
X98273902Y-87127000D01*
X98780008Y-86917364D01*
X99167364Y-86530008D01*
X99377000Y-86023902D01*
X99377000Y-85476098D01*
X99167364Y-84969992D01*
X98780008Y-84582636D01*
X98283559Y-84377000D01*
X104373000Y-84377000D01*
X104373000Y-86415577D01*
X104183490Y-86226067D01*
X103934664Y-86123000D01*
X103665336Y-86123000D01*
X103416510Y-86226067D01*
X103226067Y-86416510D01*
X103123000Y-86665336D01*
X103123000Y-86934664D01*
X103226067Y-87183490D01*
X103416510Y-87373933D01*
X103665336Y-87477000D01*
X103934664Y-87477000D01*
X104183490Y-87373933D01*
X104373000Y-87184423D01*
X104373000Y-99034968D01*
X104323933Y-98916510D01*
X104133490Y-98726067D01*
X103884664Y-98623000D01*
X103615336Y-98623000D01*
X103366510Y-98726067D01*
X103176067Y-98916510D01*
X103073000Y-99165336D01*
X103073000Y-99434664D01*
X103176067Y-99683490D01*
X103366510Y-99873933D01*
X103615336Y-99977000D01*
X103884664Y-99977000D01*
X104133490Y-99873933D01*
X104323933Y-99683490D01*
X104373000Y-99565032D01*
X104373000Y-102750000D01*
X104382667Y-102798601D01*
X104410197Y-102839803D01*
X104451399Y-102867333D01*
X104500000Y-102877000D01*
X114623000Y-102877000D01*
X114623000Y-104589182D01*
X114328394Y-104294576D01*
X113914174Y-104123000D01*
X113465826Y-104123000D01*
X113051606Y-104294576D01*
X112734576Y-104611606D01*
X112563000Y-105025826D01*
X112563000Y-105474174D01*
X112734576Y-105888394D01*
X113051606Y-106205424D01*
X113465826Y-106377000D01*
X113914174Y-106377000D01*
X114328394Y-106205424D01*
X114623000Y-105910818D01*
X114623000Y-122373000D01*
X111315032Y-122373000D01*
X111433490Y-122323933D01*
X111623933Y-122133490D01*
X111727000Y-121884664D01*
X111727000Y-121615336D01*
X111623933Y-121366510D01*
X111433490Y-121176067D01*
X111184664Y-121073000D01*
X110915336Y-121073000D01*
X110666510Y-121176067D01*
X110476067Y-121366510D01*
X110373000Y-121615336D01*
X110373000Y-121884664D01*
X110476067Y-122133490D01*
X110666510Y-122323933D01*
X110784968Y-122373000D01*
X102877000Y-122373000D01*
X102877000Y-118500000D01*
X102867333Y-118451399D01*
X102839803Y-118410197D01*
X102798601Y-118382667D01*
X102750000Y-118373000D01*
X99680603Y-118373000D01*
X99769881Y-118336020D01*
X100326020Y-117779881D01*
X100627000Y-117053250D01*
X100627000Y-116266750D01*
X100326020Y-115540119D01*
X99769881Y-114983980D01*
X99043250Y-114683000D01*
X98256750Y-114683000D01*
X97530119Y-114983980D01*
X96973980Y-115540119D01*
X96673000Y-116266750D01*
X96673000Y-117053250D01*
X96973980Y-117779881D01*
X97530119Y-118336020D01*
X97619397Y-118373000D01*
X91627000Y-118373000D01*
X91627000Y-113895826D01*
X103873000Y-113895826D01*
X103873000Y-114344174D01*
X104044576Y-114758394D01*
X104361606Y-115075424D01*
X104775826Y-115247000D01*
X105224174Y-115247000D01*
X105638394Y-115075424D01*
X105955424Y-114758394D01*
X106127000Y-114344174D01*
X106127000Y-113895826D01*
X105955424Y-113481606D01*
X105638394Y-113164576D01*
X105224174Y-112993000D01*
X104775826Y-112993000D01*
X104361606Y-113164576D01*
X104044576Y-113481606D01*
X103873000Y-113895826D01*
X91627000Y-113895826D01*
X91627000Y-111355826D01*
X103873000Y-111355826D01*
X103873000Y-111804174D01*
X104044576Y-112218394D01*
X104361606Y-112535424D01*
X104775826Y-112707000D01*
X105224174Y-112707000D01*
X105420144Y-112625826D01*
X106413000Y-112625826D01*
X106413000Y-113074174D01*
X106584576Y-113488394D01*
X106901606Y-113805424D01*
X107315826Y-113977000D01*
X107764174Y-113977000D01*
X108178394Y-113805424D01*
X108495424Y-113488394D01*
X108667000Y-113074174D01*
X108667000Y-112625826D01*
X108495424Y-112211606D01*
X108178394Y-111894576D01*
X107764174Y-111723000D01*
X107315826Y-111723000D01*
X106901606Y-111894576D01*
X106584576Y-112211606D01*
X106413000Y-112625826D01*
X105420144Y-112625826D01*
X105638394Y-112535424D01*
X105955424Y-112218394D01*
X106127000Y-111804174D01*
X106127000Y-111355826D01*
X105955424Y-110941606D01*
X105638394Y-110624576D01*
X105224174Y-110453000D01*
X104775826Y-110453000D01*
X104361606Y-110624576D01*
X104044576Y-110941606D01*
X103873000Y-111355826D01*
X91627000Y-111355826D01*
X91627000Y-108815826D01*
X103873000Y-108815826D01*
X103873000Y-109264174D01*
X104044576Y-109678394D01*
X104361606Y-109995424D01*
X104775826Y-110167000D01*
X105224174Y-110167000D01*
X105420144Y-110085826D01*
X106413000Y-110085826D01*
X106413000Y-110534174D01*
X106584576Y-110948394D01*
X106901606Y-111265424D01*
X107315826Y-111437000D01*
X107764174Y-111437000D01*
X108178394Y-111265424D01*
X108495424Y-110948394D01*
X108667000Y-110534174D01*
X108667000Y-110085826D01*
X108495424Y-109671606D01*
X108178394Y-109354576D01*
X107764174Y-109183000D01*
X107315826Y-109183000D01*
X106901606Y-109354576D01*
X106584576Y-109671606D01*
X106413000Y-110085826D01*
X105420144Y-110085826D01*
X105638394Y-109995424D01*
X105955424Y-109678394D01*
X106127000Y-109264174D01*
X106127000Y-108815826D01*
X105955424Y-108401606D01*
X105638394Y-108084576D01*
X105224174Y-107913000D01*
X104775826Y-107913000D01*
X104361606Y-108084576D01*
X104044576Y-108401606D01*
X103873000Y-108815826D01*
X91627000Y-108815826D01*
X91627000Y-104836750D01*
X96673000Y-104836750D01*
X96673000Y-105623250D01*
X96973980Y-106349881D01*
X97530119Y-106906020D01*
X98256750Y-107207000D01*
X99043250Y-107207000D01*
X99769881Y-106906020D01*
X100326020Y-106349881D01*
X100574498Y-105750000D01*
X103865615Y-105750000D01*
X103865615Y-107250000D01*
X103894875Y-107397098D01*
X103978199Y-107521801D01*
X104102902Y-107605125D01*
X104250000Y-107634385D01*
X105750000Y-107634385D01*
X105897098Y-107605125D01*
X105985845Y-107545826D01*
X106413000Y-107545826D01*
X106413000Y-107994174D01*
X106584576Y-108408394D01*
X106901606Y-108725424D01*
X107315826Y-108897000D01*
X107764174Y-108897000D01*
X108178394Y-108725424D01*
X108495424Y-108408394D01*
X108667000Y-107994174D01*
X108667000Y-107545826D01*
X108495424Y-107131606D01*
X108178394Y-106814576D01*
X107764174Y-106643000D01*
X107315826Y-106643000D01*
X106901606Y-106814576D01*
X106584576Y-107131606D01*
X106413000Y-107545826D01*
X105985845Y-107545826D01*
X106021801Y-107521801D01*
X106105125Y-107397098D01*
X106134385Y-107250000D01*
X106134385Y-105750000D01*
X106105125Y-105602902D01*
X106021801Y-105478199D01*
X105897098Y-105394875D01*
X105750000Y-105365615D01*
X104250000Y-105365615D01*
X104102902Y-105394875D01*
X103978199Y-105478199D01*
X103894875Y-105602902D01*
X103865615Y-105750000D01*
X100574498Y-105750000D01*
X100627000Y-105623250D01*
X100627000Y-104836750D01*
X100326020Y-104110119D01*
X99769881Y-103553980D01*
X99043250Y-103253000D01*
X98256750Y-103253000D01*
X97530119Y-103553980D01*
X96973980Y-104110119D01*
X96673000Y-104836750D01*
X91627000Y-104836750D01*
X91627000Y-95976098D01*
X96623000Y-95976098D01*
X96623000Y-96523902D01*
X96832636Y-97030008D01*
X97219992Y-97417364D01*
X97726098Y-97627000D01*
X98273902Y-97627000D01*
X98780008Y-97417364D01*
X99167364Y-97030008D01*
X99377000Y-96523902D01*
X99377000Y-95976098D01*
X99167364Y-95469992D01*
X98780008Y-95082636D01*
X98273902Y-94873000D01*
X97726098Y-94873000D01*
X97219992Y-95082636D01*
X96832636Y-95469992D01*
X96623000Y-95976098D01*
X91627000Y-95976098D01*
X91627000Y-92476098D01*
X96623000Y-92476098D01*
X96623000Y-93023902D01*
X96832636Y-93530008D01*
X97219992Y-93917364D01*
X97726098Y-94127000D01*
X98273902Y-94127000D01*
X98780008Y-93917364D01*
X99167364Y-93530008D01*
X99377000Y-93023902D01*
X99377000Y-92476098D01*
X99167364Y-91969992D01*
X98780008Y-91582636D01*
X98273902Y-91373000D01*
X97726098Y-91373000D01*
X97219992Y-91582636D01*
X96832636Y-91969992D01*
X96623000Y-92476098D01*
X91627000Y-92476098D01*
X91627000Y-88976098D01*
X96623000Y-88976098D01*
X96623000Y-89523902D01*
X96832636Y-90030008D01*
X97219992Y-90417364D01*
X97726098Y-90627000D01*
X98273902Y-90627000D01*
X98780008Y-90417364D01*
X99167364Y-90030008D01*
X99377000Y-89523902D01*
X99377000Y-88976098D01*
X99167364Y-88469992D01*
X98780008Y-88082636D01*
X98273902Y-87873000D01*
X97726098Y-87873000D01*
X97219992Y-88082636D01*
X96832636Y-88469992D01*
X96623000Y-88976098D01*
X91627000Y-88976098D01*
X91627000Y-84377000D01*
X97716441Y-84377000D01*
X97219992Y-84582636D01*
X97219992Y-84582636D01*
G37*
X97219992Y-84582636D02*
X96832636Y-84969992D01*
X96623000Y-85476098D01*
X96623000Y-86023902D01*
X96832636Y-86530008D01*
X97219992Y-86917364D01*
X97726098Y-87127000D01*
X98273902Y-87127000D01*
X98780008Y-86917364D01*
X99167364Y-86530008D01*
X99377000Y-86023902D01*
X99377000Y-85476098D01*
X99167364Y-84969992D01*
X98780008Y-84582636D01*
X98283559Y-84377000D01*
X104373000Y-84377000D01*
X104373000Y-86415577D01*
X104183490Y-86226067D01*
X103934664Y-86123000D01*
X103665336Y-86123000D01*
X103416510Y-86226067D01*
X103226067Y-86416510D01*
X103123000Y-86665336D01*
X103123000Y-86934664D01*
X103226067Y-87183490D01*
X103416510Y-87373933D01*
X103665336Y-87477000D01*
X103934664Y-87477000D01*
X104183490Y-87373933D01*
X104373000Y-87184423D01*
X104373000Y-99034968D01*
X104323933Y-98916510D01*
X104133490Y-98726067D01*
X103884664Y-98623000D01*
X103615336Y-98623000D01*
X103366510Y-98726067D01*
X103176067Y-98916510D01*
X103073000Y-99165336D01*
X103073000Y-99434664D01*
X103176067Y-99683490D01*
X103366510Y-99873933D01*
X103615336Y-99977000D01*
X103884664Y-99977000D01*
X104133490Y-99873933D01*
X104323933Y-99683490D01*
X104373000Y-99565032D01*
X104373000Y-102750000D01*
X104382667Y-102798601D01*
X104410197Y-102839803D01*
X104451399Y-102867333D01*
X104500000Y-102877000D01*
X114623000Y-102877000D01*
X114623000Y-104589182D01*
X114328394Y-104294576D01*
X113914174Y-104123000D01*
X113465826Y-104123000D01*
X113051606Y-104294576D01*
X112734576Y-104611606D01*
X112563000Y-105025826D01*
X112563000Y-105474174D01*
X112734576Y-105888394D01*
X113051606Y-106205424D01*
X113465826Y-106377000D01*
X113914174Y-106377000D01*
X114328394Y-106205424D01*
X114623000Y-105910818D01*
X114623000Y-122373000D01*
X111315032Y-122373000D01*
X111433490Y-122323933D01*
X111623933Y-122133490D01*
X111727000Y-121884664D01*
X111727000Y-121615336D01*
X111623933Y-121366510D01*
X111433490Y-121176067D01*
X111184664Y-121073000D01*
X110915336Y-121073000D01*
X110666510Y-121176067D01*
X110476067Y-121366510D01*
X110373000Y-121615336D01*
X110373000Y-121884664D01*
X110476067Y-122133490D01*
X110666510Y-122323933D01*
X110784968Y-122373000D01*
X102877000Y-122373000D01*
X102877000Y-118500000D01*
X102867333Y-118451399D01*
X102839803Y-118410197D01*
X102798601Y-118382667D01*
X102750000Y-118373000D01*
X99680603Y-118373000D01*
X99769881Y-118336020D01*
X100326020Y-117779881D01*
X100627000Y-117053250D01*
X100627000Y-116266750D01*
X100326020Y-115540119D01*
X99769881Y-114983980D01*
X99043250Y-114683000D01*
X98256750Y-114683000D01*
X97530119Y-114983980D01*
X96973980Y-115540119D01*
X96673000Y-116266750D01*
X96673000Y-117053250D01*
X96973980Y-117779881D01*
X97530119Y-118336020D01*
X97619397Y-118373000D01*
X91627000Y-118373000D01*
X91627000Y-113895826D01*
X103873000Y-113895826D01*
X103873000Y-114344174D01*
X104044576Y-114758394D01*
X104361606Y-115075424D01*
X104775826Y-115247000D01*
X105224174Y-115247000D01*
X105638394Y-115075424D01*
X105955424Y-114758394D01*
X106127000Y-114344174D01*
X106127000Y-113895826D01*
X105955424Y-113481606D01*
X105638394Y-113164576D01*
X105224174Y-112993000D01*
X104775826Y-112993000D01*
X104361606Y-113164576D01*
X104044576Y-113481606D01*
X103873000Y-113895826D01*
X91627000Y-113895826D01*
X91627000Y-111355826D01*
X103873000Y-111355826D01*
X103873000Y-111804174D01*
X104044576Y-112218394D01*
X104361606Y-112535424D01*
X104775826Y-112707000D01*
X105224174Y-112707000D01*
X105420144Y-112625826D01*
X106413000Y-112625826D01*
X106413000Y-113074174D01*
X106584576Y-113488394D01*
X106901606Y-113805424D01*
X107315826Y-113977000D01*
X107764174Y-113977000D01*
X108178394Y-113805424D01*
X108495424Y-113488394D01*
X108667000Y-113074174D01*
X108667000Y-112625826D01*
X108495424Y-112211606D01*
X108178394Y-111894576D01*
X107764174Y-111723000D01*
X107315826Y-111723000D01*
X106901606Y-111894576D01*
X106584576Y-112211606D01*
X106413000Y-112625826D01*
X105420144Y-112625826D01*
X105638394Y-112535424D01*
X105955424Y-112218394D01*
X106127000Y-111804174D01*
X106127000Y-111355826D01*
X105955424Y-110941606D01*
X105638394Y-110624576D01*
X105224174Y-110453000D01*
X104775826Y-110453000D01*
X104361606Y-110624576D01*
X104044576Y-110941606D01*
X103873000Y-111355826D01*
X91627000Y-111355826D01*
X91627000Y-108815826D01*
X103873000Y-108815826D01*
X103873000Y-109264174D01*
X104044576Y-109678394D01*
X104361606Y-109995424D01*
X104775826Y-110167000D01*
X105224174Y-110167000D01*
X105420144Y-110085826D01*
X106413000Y-110085826D01*
X106413000Y-110534174D01*
X106584576Y-110948394D01*
X106901606Y-111265424D01*
X107315826Y-111437000D01*
X107764174Y-111437000D01*
X108178394Y-111265424D01*
X108495424Y-110948394D01*
X108667000Y-110534174D01*
X108667000Y-110085826D01*
X108495424Y-109671606D01*
X108178394Y-109354576D01*
X107764174Y-109183000D01*
X107315826Y-109183000D01*
X106901606Y-109354576D01*
X106584576Y-109671606D01*
X106413000Y-110085826D01*
X105420144Y-110085826D01*
X105638394Y-109995424D01*
X105955424Y-109678394D01*
X106127000Y-109264174D01*
X106127000Y-108815826D01*
X105955424Y-108401606D01*
X105638394Y-108084576D01*
X105224174Y-107913000D01*
X104775826Y-107913000D01*
X104361606Y-108084576D01*
X104044576Y-108401606D01*
X103873000Y-108815826D01*
X91627000Y-108815826D01*
X91627000Y-104836750D01*
X96673000Y-104836750D01*
X96673000Y-105623250D01*
X96973980Y-106349881D01*
X97530119Y-106906020D01*
X98256750Y-107207000D01*
X99043250Y-107207000D01*
X99769881Y-106906020D01*
X100326020Y-106349881D01*
X100574498Y-105750000D01*
X103865615Y-105750000D01*
X103865615Y-107250000D01*
X103894875Y-107397098D01*
X103978199Y-107521801D01*
X104102902Y-107605125D01*
X104250000Y-107634385D01*
X105750000Y-107634385D01*
X105897098Y-107605125D01*
X105985845Y-107545826D01*
X106413000Y-107545826D01*
X106413000Y-107994174D01*
X106584576Y-108408394D01*
X106901606Y-108725424D01*
X107315826Y-108897000D01*
X107764174Y-108897000D01*
X108178394Y-108725424D01*
X108495424Y-108408394D01*
X108667000Y-107994174D01*
X108667000Y-107545826D01*
X108495424Y-107131606D01*
X108178394Y-106814576D01*
X107764174Y-106643000D01*
X107315826Y-106643000D01*
X106901606Y-106814576D01*
X106584576Y-107131606D01*
X106413000Y-107545826D01*
X105985845Y-107545826D01*
X106021801Y-107521801D01*
X106105125Y-107397098D01*
X106134385Y-107250000D01*
X106134385Y-105750000D01*
X106105125Y-105602902D01*
X106021801Y-105478199D01*
X105897098Y-105394875D01*
X105750000Y-105365615D01*
X104250000Y-105365615D01*
X104102902Y-105394875D01*
X103978199Y-105478199D01*
X103894875Y-105602902D01*
X103865615Y-105750000D01*
X100574498Y-105750000D01*
X100627000Y-105623250D01*
X100627000Y-104836750D01*
X100326020Y-104110119D01*
X99769881Y-103553980D01*
X99043250Y-103253000D01*
X98256750Y-103253000D01*
X97530119Y-103553980D01*
X96973980Y-104110119D01*
X96673000Y-104836750D01*
X91627000Y-104836750D01*
X91627000Y-95976098D01*
X96623000Y-95976098D01*
X96623000Y-96523902D01*
X96832636Y-97030008D01*
X97219992Y-97417364D01*
X97726098Y-97627000D01*
X98273902Y-97627000D01*
X98780008Y-97417364D01*
X99167364Y-97030008D01*
X99377000Y-96523902D01*
X99377000Y-95976098D01*
X99167364Y-95469992D01*
X98780008Y-95082636D01*
X98273902Y-94873000D01*
X97726098Y-94873000D01*
X97219992Y-95082636D01*
X96832636Y-95469992D01*
X96623000Y-95976098D01*
X91627000Y-95976098D01*
X91627000Y-92476098D01*
X96623000Y-92476098D01*
X96623000Y-93023902D01*
X96832636Y-93530008D01*
X97219992Y-93917364D01*
X97726098Y-94127000D01*
X98273902Y-94127000D01*
X98780008Y-93917364D01*
X99167364Y-93530008D01*
X99377000Y-93023902D01*
X99377000Y-92476098D01*
X99167364Y-91969992D01*
X98780008Y-91582636D01*
X98273902Y-91373000D01*
X97726098Y-91373000D01*
X97219992Y-91582636D01*
X96832636Y-91969992D01*
X96623000Y-92476098D01*
X91627000Y-92476098D01*
X91627000Y-88976098D01*
X96623000Y-88976098D01*
X96623000Y-89523902D01*
X96832636Y-90030008D01*
X97219992Y-90417364D01*
X97726098Y-90627000D01*
X98273902Y-90627000D01*
X98780008Y-90417364D01*
X99167364Y-90030008D01*
X99377000Y-89523902D01*
X99377000Y-88976098D01*
X99167364Y-88469992D01*
X98780008Y-88082636D01*
X98273902Y-87873000D01*
X97726098Y-87873000D01*
X97219992Y-88082636D01*
X96832636Y-88469992D01*
X96623000Y-88976098D01*
X91627000Y-88976098D01*
X91627000Y-84377000D01*
X97716441Y-84377000D01*
X97219992Y-84582636D01*
D25*
G04 #@! TO.N,GND*
G36*
X169600001Y-72650000D02*
X149240059Y-72650000D01*
X149339873Y-72608656D01*
X149508656Y-72439873D01*
X149600000Y-72219347D01*
X149600000Y-71980653D01*
X149508656Y-71760127D01*
X149339873Y-71591344D01*
X149119347Y-71500000D01*
X148880653Y-71500000D01*
X148660127Y-71591344D01*
X148491344Y-71760127D01*
X148400000Y-71980653D01*
X148400000Y-72219347D01*
X148491344Y-72439873D01*
X148660127Y-72608656D01*
X148759941Y-72650000D01*
X146500000Y-72650000D01*
X146461732Y-72657612D01*
X146429289Y-72679289D01*
X146407612Y-72711732D01*
X146400000Y-72750000D01*
X146400000Y-73250000D01*
X146407612Y-73288268D01*
X146429289Y-73320711D01*
X146461732Y-73342388D01*
X146500000Y-73350000D01*
X169600001Y-73350000D01*
X169600000Y-129600000D01*
X90400000Y-129600000D01*
X90400000Y-124100000D01*
X99150000Y-124100000D01*
X99150000Y-126250000D01*
X99157612Y-126288268D01*
X99179289Y-126320711D01*
X99211732Y-126342388D01*
X99250000Y-126350000D01*
X120250000Y-126350000D01*
X120288268Y-126342388D01*
X120320711Y-126320711D01*
X120342388Y-126288268D01*
X120350000Y-126250000D01*
X120350000Y-120880653D01*
X125950000Y-120880653D01*
X125950000Y-121119347D01*
X126041344Y-121339873D01*
X126210127Y-121508656D01*
X126430653Y-121600000D01*
X126669347Y-121600000D01*
X126889873Y-121508656D01*
X127058656Y-121339873D01*
X127150000Y-121119347D01*
X127150000Y-120880653D01*
X127058656Y-120660127D01*
X126889873Y-120491344D01*
X126669347Y-120400000D01*
X126430653Y-120400000D01*
X126210127Y-120491344D01*
X126041344Y-120660127D01*
X125950000Y-120880653D01*
X120350000Y-120880653D01*
X120350000Y-118080653D01*
X126500000Y-118080653D01*
X126500000Y-118319347D01*
X126591344Y-118539873D01*
X126760127Y-118708656D01*
X126980653Y-118800000D01*
X127219347Y-118800000D01*
X127439873Y-118708656D01*
X127608656Y-118539873D01*
X127700000Y-118319347D01*
X127700000Y-118080653D01*
X127608656Y-117860127D01*
X127439873Y-117691344D01*
X127219347Y-117600000D01*
X126980653Y-117600000D01*
X126760127Y-117691344D01*
X126591344Y-117860127D01*
X126500000Y-118080653D01*
X120350000Y-118080653D01*
X120350000Y-115980653D01*
X124900000Y-115980653D01*
X124900000Y-116219347D01*
X124991344Y-116439873D01*
X125160127Y-116608656D01*
X125345297Y-116685355D01*
X125210127Y-116741344D01*
X125041344Y-116910127D01*
X124950000Y-117130653D01*
X124950000Y-117369347D01*
X125041344Y-117589873D01*
X125210127Y-117758656D01*
X125430653Y-117850000D01*
X125669347Y-117850000D01*
X125889873Y-117758656D01*
X126058656Y-117589873D01*
X126150000Y-117369347D01*
X126150000Y-117130653D01*
X126058656Y-116910127D01*
X125889873Y-116741344D01*
X125864063Y-116730653D01*
X141350000Y-116730653D01*
X141350000Y-116969347D01*
X141441344Y-117189873D01*
X141610127Y-117358656D01*
X141830653Y-117450000D01*
X142069347Y-117450000D01*
X142289873Y-117358656D01*
X142458656Y-117189873D01*
X142550000Y-116969347D01*
X142550000Y-116730653D01*
X142458656Y-116510127D01*
X142289873Y-116341344D01*
X142069347Y-116250000D01*
X141830653Y-116250000D01*
X141610127Y-116341344D01*
X141441344Y-116510127D01*
X141350000Y-116730653D01*
X125864063Y-116730653D01*
X125704703Y-116664645D01*
X125839873Y-116608656D01*
X126008656Y-116439873D01*
X126100000Y-116219347D01*
X126100000Y-115980653D01*
X126008656Y-115760127D01*
X125839873Y-115591344D01*
X125619347Y-115500000D01*
X125380653Y-115500000D01*
X125160127Y-115591344D01*
X124991344Y-115760127D01*
X124900000Y-115980653D01*
X120350000Y-115980653D01*
X120350000Y-114730653D01*
X124600000Y-114730653D01*
X124600000Y-114969347D01*
X124691344Y-115189873D01*
X124860127Y-115358656D01*
X125080653Y-115450000D01*
X125319347Y-115450000D01*
X125539873Y-115358656D01*
X125708656Y-115189873D01*
X125800000Y-114969347D01*
X125800000Y-114730653D01*
X125708656Y-114510127D01*
X125539873Y-114341344D01*
X125319347Y-114250000D01*
X125080653Y-114250000D01*
X124860127Y-114341344D01*
X124691344Y-114510127D01*
X124600000Y-114730653D01*
X120350000Y-114730653D01*
X120350000Y-112130653D01*
X142150000Y-112130653D01*
X142150000Y-112369347D01*
X142241344Y-112589873D01*
X142410127Y-112758656D01*
X142630653Y-112850000D01*
X142869347Y-112850000D01*
X143089873Y-112758656D01*
X143258656Y-112589873D01*
X143350000Y-112369347D01*
X143350000Y-112130653D01*
X144650000Y-112130653D01*
X144650000Y-112369347D01*
X144741344Y-112589873D01*
X144910127Y-112758656D01*
X145130653Y-112850000D01*
X145369347Y-112850000D01*
X145589873Y-112758656D01*
X145612088Y-112736441D01*
X163675000Y-112736441D01*
X163675000Y-113263559D01*
X163876719Y-113750552D01*
X164249448Y-114123281D01*
X164736441Y-114325000D01*
X165263559Y-114325000D01*
X165750552Y-114123281D01*
X166123281Y-113750552D01*
X166325000Y-113263559D01*
X166325000Y-112736441D01*
X166123281Y-112249448D01*
X165750552Y-111876719D01*
X165263559Y-111675000D01*
X164736441Y-111675000D01*
X164249448Y-111876719D01*
X163876719Y-112249448D01*
X163675000Y-112736441D01*
X145612088Y-112736441D01*
X145758656Y-112589873D01*
X145850000Y-112369347D01*
X145850000Y-112130653D01*
X145758656Y-111910127D01*
X145589873Y-111741344D01*
X145369347Y-111650000D01*
X145130653Y-111650000D01*
X144910127Y-111741344D01*
X144741344Y-111910127D01*
X144650000Y-112130653D01*
X143350000Y-112130653D01*
X143258656Y-111910127D01*
X143089873Y-111741344D01*
X142869347Y-111650000D01*
X142630653Y-111650000D01*
X142410127Y-111741344D01*
X142241344Y-111910127D01*
X142150000Y-112130653D01*
X120350000Y-112130653D01*
X120350000Y-110780653D01*
X134450000Y-110780653D01*
X134450000Y-111019347D01*
X134541344Y-111239873D01*
X134710127Y-111408656D01*
X134930653Y-111500000D01*
X135169347Y-111500000D01*
X135389873Y-111408656D01*
X135558656Y-111239873D01*
X135650000Y-111019347D01*
X135650000Y-110780653D01*
X135558656Y-110560127D01*
X135389873Y-110391344D01*
X135169347Y-110300000D01*
X134930653Y-110300000D01*
X134710127Y-110391344D01*
X134541344Y-110560127D01*
X134450000Y-110780653D01*
X120350000Y-110780653D01*
X120350000Y-110230653D01*
X135600000Y-110230653D01*
X135600000Y-110469347D01*
X135691344Y-110689873D01*
X135860127Y-110858656D01*
X136080653Y-110950000D01*
X136319347Y-110950000D01*
X136539873Y-110858656D01*
X136708656Y-110689873D01*
X136800000Y-110469347D01*
X136800000Y-110230653D01*
X136717159Y-110030653D01*
X137400000Y-110030653D01*
X137400000Y-110269347D01*
X137491344Y-110489873D01*
X137660127Y-110658656D01*
X137753952Y-110697519D01*
X137691344Y-110760127D01*
X137600000Y-110980653D01*
X137600000Y-111219347D01*
X137691344Y-111439873D01*
X137860127Y-111608656D01*
X138080653Y-111700000D01*
X138319347Y-111700000D01*
X138539873Y-111608656D01*
X138708656Y-111439873D01*
X138800000Y-111219347D01*
X138800000Y-110980653D01*
X138708656Y-110760127D01*
X138539873Y-110591344D01*
X138446048Y-110552481D01*
X138508656Y-110489873D01*
X138600000Y-110269347D01*
X138600000Y-110030653D01*
X138508656Y-109810127D01*
X138339873Y-109641344D01*
X138119347Y-109550000D01*
X137880653Y-109550000D01*
X137660127Y-109641344D01*
X137491344Y-109810127D01*
X137400000Y-110030653D01*
X136717159Y-110030653D01*
X136708656Y-110010127D01*
X136539873Y-109841344D01*
X136319347Y-109750000D01*
X136080653Y-109750000D01*
X135860127Y-109841344D01*
X135691344Y-110010127D01*
X135600000Y-110230653D01*
X120350000Y-110230653D01*
X120350000Y-108230653D01*
X130950000Y-108230653D01*
X130950000Y-108469347D01*
X131041344Y-108689873D01*
X131210127Y-108858656D01*
X131430653Y-108950000D01*
X131669347Y-108950000D01*
X131889873Y-108858656D01*
X132000000Y-108748529D01*
X132000000Y-108769347D01*
X132091344Y-108989873D01*
X132260127Y-109158656D01*
X132480653Y-109250000D01*
X132719347Y-109250000D01*
X132939873Y-109158656D01*
X133108656Y-108989873D01*
X133200000Y-108769347D01*
X133200000Y-108530653D01*
X133108656Y-108310127D01*
X132939873Y-108141344D01*
X132719347Y-108050000D01*
X132480653Y-108050000D01*
X132260127Y-108141344D01*
X132150000Y-108251471D01*
X132150000Y-108230653D01*
X132058656Y-108010127D01*
X131889873Y-107841344D01*
X131669347Y-107750000D01*
X131430653Y-107750000D01*
X131210127Y-107841344D01*
X131041344Y-108010127D01*
X130950000Y-108230653D01*
X120350000Y-108230653D01*
X120350000Y-107530653D01*
X139250000Y-107530653D01*
X139250000Y-107769347D01*
X139341344Y-107989873D01*
X139510127Y-108158656D01*
X139730653Y-108250000D01*
X139969347Y-108250000D01*
X140189873Y-108158656D01*
X140358656Y-107989873D01*
X140450000Y-107769347D01*
X140450000Y-107530653D01*
X140358656Y-107310127D01*
X140189873Y-107141344D01*
X139969347Y-107050000D01*
X139730653Y-107050000D01*
X139510127Y-107141344D01*
X139341344Y-107310127D01*
X139250000Y-107530653D01*
X120350000Y-107530653D01*
X120350000Y-104230653D01*
X152400000Y-104230653D01*
X152400000Y-104469347D01*
X152491344Y-104689873D01*
X152660127Y-104858656D01*
X152880653Y-104950000D01*
X153119347Y-104950000D01*
X153339873Y-104858656D01*
X153508656Y-104689873D01*
X153600000Y-104469347D01*
X153600000Y-104230653D01*
X153508656Y-104010127D01*
X153339873Y-103841344D01*
X153119347Y-103750000D01*
X152880653Y-103750000D01*
X152660127Y-103841344D01*
X152491344Y-104010127D01*
X152400000Y-104230653D01*
X120350000Y-104230653D01*
X120350000Y-103230653D01*
X135150000Y-103230653D01*
X135150000Y-103469347D01*
X135241344Y-103689873D01*
X135410127Y-103858656D01*
X135630653Y-103950000D01*
X135869347Y-103950000D01*
X136089873Y-103858656D01*
X136258656Y-103689873D01*
X136350000Y-103469347D01*
X136350000Y-103230653D01*
X136258656Y-103010127D01*
X136089873Y-102841344D01*
X135869347Y-102750000D01*
X135630653Y-102750000D01*
X135410127Y-102841344D01*
X135241344Y-103010127D01*
X135150000Y-103230653D01*
X120350000Y-103230653D01*
X120350000Y-101630653D01*
X137300000Y-101630653D01*
X137300000Y-101869347D01*
X137391344Y-102089873D01*
X137560127Y-102258656D01*
X137780653Y-102350000D01*
X138019347Y-102350000D01*
X138159541Y-102291930D01*
X138141344Y-102310127D01*
X138050000Y-102530653D01*
X138050000Y-102769347D01*
X138141344Y-102989873D01*
X138310127Y-103158656D01*
X138530653Y-103250000D01*
X138769347Y-103250000D01*
X138989873Y-103158656D01*
X139158656Y-102989873D01*
X139250000Y-102769347D01*
X139250000Y-102530653D01*
X139158656Y-102310127D01*
X138989873Y-102141344D01*
X138769347Y-102050000D01*
X138989873Y-101958656D01*
X139158656Y-101789873D01*
X139250000Y-101569347D01*
X139250000Y-101330653D01*
X139158656Y-101110127D01*
X138989873Y-100941344D01*
X138769347Y-100850000D01*
X138530653Y-100850000D01*
X138310127Y-100941344D01*
X138141344Y-101110127D01*
X138109381Y-101187293D01*
X138019347Y-101150000D01*
X137780653Y-101150000D01*
X137560127Y-101241344D01*
X137391344Y-101410127D01*
X137300000Y-101630653D01*
X120350000Y-101630653D01*
X120350000Y-100380653D01*
X153600000Y-100380653D01*
X153600000Y-100619347D01*
X153691344Y-100839873D01*
X153860127Y-101008656D01*
X154080653Y-101100000D01*
X154319347Y-101100000D01*
X154539873Y-101008656D01*
X154708656Y-100839873D01*
X154800000Y-100619347D01*
X154800000Y-100380653D01*
X154708656Y-100160127D01*
X154539873Y-99991344D01*
X154319347Y-99900000D01*
X154080653Y-99900000D01*
X153860127Y-99991344D01*
X153691344Y-100160127D01*
X153600000Y-100380653D01*
X120350000Y-100380653D01*
X120350000Y-99750000D01*
X120342388Y-99711732D01*
X120320711Y-99679289D01*
X120288268Y-99657612D01*
X120250000Y-99650000D01*
X116600000Y-99650000D01*
X116600000Y-98750000D01*
X116592388Y-98711732D01*
X116570711Y-98679289D01*
X116538268Y-98657612D01*
X116500000Y-98650000D01*
X108350000Y-98650000D01*
X108350000Y-98380653D01*
X143450000Y-98380653D01*
X143450000Y-98619347D01*
X143541344Y-98839873D01*
X143710127Y-99008656D01*
X143930653Y-99100000D01*
X144169347Y-99100000D01*
X144389873Y-99008656D01*
X144558656Y-98839873D01*
X144650000Y-98619347D01*
X144650000Y-98380653D01*
X144558656Y-98160127D01*
X144389873Y-97991344D01*
X144169347Y-97900000D01*
X143930653Y-97900000D01*
X143710127Y-97991344D01*
X143541344Y-98160127D01*
X143450000Y-98380653D01*
X108350000Y-98380653D01*
X108350000Y-96195437D01*
X109799586Y-96195437D01*
X109799586Y-96434131D01*
X109890930Y-96654657D01*
X110059713Y-96823440D01*
X110280239Y-96914784D01*
X110518933Y-96914784D01*
X110739459Y-96823440D01*
X110908242Y-96654657D01*
X110999586Y-96434131D01*
X110999586Y-96195437D01*
X110908242Y-95974911D01*
X110739459Y-95806128D01*
X110518933Y-95714784D01*
X110280239Y-95714784D01*
X110059713Y-95806128D01*
X109890930Y-95974911D01*
X109799586Y-96195437D01*
X108350000Y-96195437D01*
X108350000Y-95080653D01*
X120900000Y-95080653D01*
X120900000Y-95319347D01*
X120991344Y-95539873D01*
X121160127Y-95708656D01*
X121380653Y-95800000D01*
X121619347Y-95800000D01*
X121839873Y-95708656D01*
X122008656Y-95539873D01*
X122100000Y-95319347D01*
X122100000Y-95080653D01*
X122008656Y-94860127D01*
X121839873Y-94691344D01*
X121619347Y-94600000D01*
X121380653Y-94600000D01*
X121160127Y-94691344D01*
X120991344Y-94860127D01*
X120900000Y-95080653D01*
X108350000Y-95080653D01*
X108350000Y-93880653D01*
X122900000Y-93880653D01*
X122900000Y-94119347D01*
X122991344Y-94339873D01*
X123160127Y-94508656D01*
X123380653Y-94600000D01*
X123619347Y-94600000D01*
X123839873Y-94508656D01*
X124008656Y-94339873D01*
X124029290Y-94290059D01*
X124091344Y-94439873D01*
X124260127Y-94608656D01*
X124480653Y-94700000D01*
X124719347Y-94700000D01*
X124939873Y-94608656D01*
X125108656Y-94439873D01*
X125200000Y-94219347D01*
X125200000Y-93980653D01*
X125108656Y-93760127D01*
X124979182Y-93630653D01*
X125550000Y-93630653D01*
X125550000Y-93869347D01*
X125641344Y-94089873D01*
X125751471Y-94200000D01*
X125691344Y-94260127D01*
X125600000Y-94480653D01*
X125600000Y-94719347D01*
X125691344Y-94939873D01*
X125776471Y-95025000D01*
X125691344Y-95110127D01*
X125600000Y-95330653D01*
X125600000Y-95569347D01*
X125691344Y-95789873D01*
X125860127Y-95958656D01*
X125899585Y-95975000D01*
X125860127Y-95991344D01*
X125691344Y-96160127D01*
X125600000Y-96380653D01*
X125600000Y-96619347D01*
X125691344Y-96839873D01*
X125860127Y-97008656D01*
X126080653Y-97100000D01*
X126319347Y-97100000D01*
X126539873Y-97008656D01*
X126708656Y-96839873D01*
X126795316Y-96630653D01*
X146450000Y-96630653D01*
X146450000Y-96869347D01*
X146541344Y-97089873D01*
X146710127Y-97258656D01*
X146930653Y-97350000D01*
X147169347Y-97350000D01*
X147389873Y-97258656D01*
X147558656Y-97089873D01*
X147650000Y-96869347D01*
X147650000Y-96736441D01*
X163675000Y-96736441D01*
X163675000Y-97263559D01*
X163876719Y-97750552D01*
X164249448Y-98123281D01*
X164736441Y-98325000D01*
X165263559Y-98325000D01*
X165750552Y-98123281D01*
X166123281Y-97750552D01*
X166325000Y-97263559D01*
X166325000Y-96736441D01*
X166123281Y-96249448D01*
X165750552Y-95876719D01*
X165263559Y-95675000D01*
X164736441Y-95675000D01*
X164249448Y-95876719D01*
X163876719Y-96249448D01*
X163675000Y-96736441D01*
X147650000Y-96736441D01*
X147650000Y-96630653D01*
X147558656Y-96410127D01*
X147389873Y-96241344D01*
X147169347Y-96150000D01*
X146930653Y-96150000D01*
X146710127Y-96241344D01*
X146541344Y-96410127D01*
X146450000Y-96630653D01*
X126795316Y-96630653D01*
X126800000Y-96619347D01*
X126800000Y-96380653D01*
X126708656Y-96160127D01*
X126539873Y-95991344D01*
X126500415Y-95975000D01*
X126539873Y-95958656D01*
X126708656Y-95789873D01*
X126800000Y-95569347D01*
X126800000Y-95330653D01*
X126708656Y-95110127D01*
X126623529Y-95025000D01*
X126708656Y-94939873D01*
X126800000Y-94719347D01*
X126800000Y-94480653D01*
X126708656Y-94260127D01*
X126598529Y-94150000D01*
X126658656Y-94089873D01*
X126750000Y-93869347D01*
X126750000Y-93630653D01*
X126658656Y-93410127D01*
X126489873Y-93241344D01*
X126269347Y-93150000D01*
X126030653Y-93150000D01*
X125810127Y-93241344D01*
X125641344Y-93410127D01*
X125550000Y-93630653D01*
X124979182Y-93630653D01*
X124939873Y-93591344D01*
X124719347Y-93500000D01*
X124480653Y-93500000D01*
X124260127Y-93591344D01*
X124091344Y-93760127D01*
X124070710Y-93809941D01*
X124008656Y-93660127D01*
X123839873Y-93491344D01*
X123619347Y-93400000D01*
X123380653Y-93400000D01*
X123160127Y-93491344D01*
X122991344Y-93660127D01*
X122900000Y-93880653D01*
X108350000Y-93880653D01*
X108350000Y-90830653D01*
X124650000Y-90830653D01*
X124650000Y-91069347D01*
X124741344Y-91289873D01*
X124910127Y-91458656D01*
X125130653Y-91550000D01*
X125280653Y-91550000D01*
X125060127Y-91641344D01*
X124891344Y-91810127D01*
X124800000Y-92030653D01*
X124800000Y-92269347D01*
X124891344Y-92489873D01*
X125060127Y-92658656D01*
X125280653Y-92750000D01*
X125519347Y-92750000D01*
X125739873Y-92658656D01*
X125908656Y-92489873D01*
X126000000Y-92269347D01*
X126000000Y-92130653D01*
X143400000Y-92130653D01*
X143400000Y-92369347D01*
X143491344Y-92589873D01*
X143660127Y-92758656D01*
X143880653Y-92850000D01*
X144119347Y-92850000D01*
X144339873Y-92758656D01*
X144508656Y-92589873D01*
X144600000Y-92369347D01*
X144600000Y-92130653D01*
X144508656Y-91910127D01*
X144339873Y-91741344D01*
X144119347Y-91650000D01*
X143880653Y-91650000D01*
X143660127Y-91741344D01*
X143491344Y-91910127D01*
X143400000Y-92130653D01*
X126000000Y-92130653D01*
X126000000Y-92030653D01*
X125908656Y-91810127D01*
X125739873Y-91641344D01*
X125519347Y-91550000D01*
X125369347Y-91550000D01*
X125589873Y-91458656D01*
X125758656Y-91289873D01*
X125850000Y-91069347D01*
X125850000Y-90830653D01*
X125758656Y-90610127D01*
X125589873Y-90441344D01*
X125369347Y-90350000D01*
X125130653Y-90350000D01*
X124910127Y-90441344D01*
X124741344Y-90610127D01*
X124650000Y-90830653D01*
X108350000Y-90830653D01*
X108350000Y-88880653D01*
X113600000Y-88880653D01*
X113600000Y-89119347D01*
X113691344Y-89339873D01*
X113860127Y-89508656D01*
X114080653Y-89600000D01*
X114301471Y-89600000D01*
X114291344Y-89610127D01*
X114200000Y-89830653D01*
X114200000Y-90069347D01*
X114291344Y-90289873D01*
X114460127Y-90458656D01*
X114680653Y-90550000D01*
X114919347Y-90550000D01*
X115139873Y-90458656D01*
X115308656Y-90289873D01*
X115400000Y-90069347D01*
X115400000Y-89830653D01*
X115308656Y-89610127D01*
X115139873Y-89441344D01*
X114919347Y-89350000D01*
X114698529Y-89350000D01*
X114708656Y-89339873D01*
X114712475Y-89330653D01*
X116050000Y-89330653D01*
X116050000Y-89569347D01*
X116141344Y-89789873D01*
X116310127Y-89958656D01*
X116530653Y-90050000D01*
X116769347Y-90050000D01*
X116989873Y-89958656D01*
X117158656Y-89789873D01*
X117250000Y-89569347D01*
X117250000Y-89330653D01*
X117158656Y-89110127D01*
X116989873Y-88941344D01*
X116769347Y-88850000D01*
X116530653Y-88850000D01*
X116310127Y-88941344D01*
X116141344Y-89110127D01*
X116050000Y-89330653D01*
X114712475Y-89330653D01*
X114800000Y-89119347D01*
X114800000Y-88880653D01*
X114708656Y-88660127D01*
X114579182Y-88530653D01*
X118300000Y-88530653D01*
X118300000Y-88769347D01*
X118391344Y-88989873D01*
X118560127Y-89158656D01*
X118780653Y-89250000D01*
X119019347Y-89250000D01*
X119239873Y-89158656D01*
X119408656Y-88989873D01*
X119412475Y-88980653D01*
X122250000Y-88980653D01*
X122250000Y-89219347D01*
X122341344Y-89439873D01*
X122510127Y-89608656D01*
X122730653Y-89700000D01*
X122969347Y-89700000D01*
X123189873Y-89608656D01*
X123358656Y-89439873D01*
X123450000Y-89219347D01*
X123450000Y-88980653D01*
X123358656Y-88760127D01*
X123189873Y-88591344D01*
X122969347Y-88500000D01*
X122730653Y-88500000D01*
X122510127Y-88591344D01*
X122341344Y-88760127D01*
X122250000Y-88980653D01*
X119412475Y-88980653D01*
X119500000Y-88769347D01*
X119500000Y-88530653D01*
X119408656Y-88310127D01*
X119239873Y-88141344D01*
X119019347Y-88050000D01*
X118780653Y-88050000D01*
X118560127Y-88141344D01*
X118391344Y-88310127D01*
X118300000Y-88530653D01*
X114579182Y-88530653D01*
X114539873Y-88491344D01*
X114319347Y-88400000D01*
X114080653Y-88400000D01*
X113860127Y-88491344D01*
X113691344Y-88660127D01*
X113600000Y-88880653D01*
X108350000Y-88880653D01*
X108350000Y-86630653D01*
X111650000Y-86630653D01*
X111650000Y-86869347D01*
X111741344Y-87089873D01*
X111910127Y-87258656D01*
X112130653Y-87350000D01*
X112250000Y-87350000D01*
X112250000Y-87569347D01*
X112341344Y-87789873D01*
X112510127Y-87958656D01*
X112730653Y-88050000D01*
X112969347Y-88050000D01*
X113189873Y-87958656D01*
X113358656Y-87789873D01*
X113362475Y-87780653D01*
X149150000Y-87780653D01*
X149150000Y-88019347D01*
X149241344Y-88239873D01*
X149410127Y-88408656D01*
X149630653Y-88500000D01*
X149869347Y-88500000D01*
X150089873Y-88408656D01*
X150258656Y-88239873D01*
X150350000Y-88019347D01*
X150350000Y-87780653D01*
X150258656Y-87560127D01*
X150089873Y-87391344D01*
X149869347Y-87300000D01*
X149630653Y-87300000D01*
X149410127Y-87391344D01*
X149241344Y-87560127D01*
X149150000Y-87780653D01*
X113362475Y-87780653D01*
X113450000Y-87569347D01*
X113450000Y-87330653D01*
X113367159Y-87130653D01*
X159650000Y-87130653D01*
X159650000Y-87369347D01*
X159741344Y-87589873D01*
X159910127Y-87758656D01*
X160130653Y-87850000D01*
X160369347Y-87850000D01*
X160589873Y-87758656D01*
X160758656Y-87589873D01*
X160850000Y-87369347D01*
X160850000Y-87130653D01*
X160821208Y-87061142D01*
X164450000Y-87061142D01*
X164450000Y-87478858D01*
X164609853Y-87864777D01*
X164905223Y-88160147D01*
X165291142Y-88320000D01*
X165708858Y-88320000D01*
X166094777Y-88160147D01*
X166390147Y-87864777D01*
X166550000Y-87478858D01*
X166550000Y-87061142D01*
X166390147Y-86675223D01*
X166094777Y-86379853D01*
X165708858Y-86220000D01*
X165291142Y-86220000D01*
X164905223Y-86379853D01*
X164609853Y-86675223D01*
X164450000Y-87061142D01*
X160821208Y-87061142D01*
X160758656Y-86910127D01*
X160589873Y-86741344D01*
X160369347Y-86650000D01*
X160130653Y-86650000D01*
X159910127Y-86741344D01*
X159741344Y-86910127D01*
X159650000Y-87130653D01*
X113367159Y-87130653D01*
X113358656Y-87110127D01*
X113189873Y-86941344D01*
X112969347Y-86850000D01*
X112850000Y-86850000D01*
X112850000Y-86630653D01*
X112758656Y-86410127D01*
X112729182Y-86380653D01*
X113400000Y-86380653D01*
X113400000Y-86619347D01*
X113491344Y-86839873D01*
X113660127Y-87008656D01*
X113880653Y-87100000D01*
X114119347Y-87100000D01*
X114339873Y-87008656D01*
X114508656Y-86839873D01*
X114600000Y-86619347D01*
X114600000Y-86380653D01*
X114508656Y-86160127D01*
X114479182Y-86130653D01*
X115650000Y-86130653D01*
X115650000Y-86369347D01*
X115741344Y-86589873D01*
X115910127Y-86758656D01*
X116130653Y-86850000D01*
X116369347Y-86850000D01*
X116589873Y-86758656D01*
X116758656Y-86589873D01*
X116850000Y-86369347D01*
X116850000Y-86130653D01*
X116758656Y-85910127D01*
X116589873Y-85741344D01*
X116369347Y-85650000D01*
X116130653Y-85650000D01*
X115910127Y-85741344D01*
X115741344Y-85910127D01*
X115650000Y-86130653D01*
X114479182Y-86130653D01*
X114339873Y-85991344D01*
X114119347Y-85900000D01*
X113880653Y-85900000D01*
X113660127Y-85991344D01*
X113491344Y-86160127D01*
X113400000Y-86380653D01*
X112729182Y-86380653D01*
X112589873Y-86241344D01*
X112369347Y-86150000D01*
X112130653Y-86150000D01*
X111910127Y-86241344D01*
X111741344Y-86410127D01*
X111650000Y-86630653D01*
X108350000Y-86630653D01*
X108350000Y-85380653D01*
X111250000Y-85380653D01*
X111250000Y-85619347D01*
X111341344Y-85839873D01*
X111510127Y-86008656D01*
X111730653Y-86100000D01*
X111969347Y-86100000D01*
X112189873Y-86008656D01*
X112358656Y-85839873D01*
X112450000Y-85619347D01*
X112450000Y-85380653D01*
X112358656Y-85160127D01*
X112329182Y-85130653D01*
X119650000Y-85130653D01*
X119650000Y-85369347D01*
X119741344Y-85589873D01*
X119910127Y-85758656D01*
X120130653Y-85850000D01*
X120369347Y-85850000D01*
X120589873Y-85758656D01*
X120750000Y-85598529D01*
X120901471Y-85750000D01*
X120741344Y-85910127D01*
X120650000Y-86130653D01*
X120650000Y-86369347D01*
X120741344Y-86589873D01*
X120910127Y-86758656D01*
X121130653Y-86850000D01*
X121369347Y-86850000D01*
X121589873Y-86758656D01*
X121758656Y-86589873D01*
X121850000Y-86369347D01*
X121850000Y-86130653D01*
X121758656Y-85910127D01*
X121598529Y-85750000D01*
X121758656Y-85589873D01*
X121850000Y-85369347D01*
X121850000Y-85130653D01*
X122650000Y-85130653D01*
X122650000Y-85369347D01*
X122741344Y-85589873D01*
X122901471Y-85750000D01*
X122741344Y-85910127D01*
X122650000Y-86130653D01*
X122650000Y-86369347D01*
X122741344Y-86589873D01*
X122910127Y-86758656D01*
X123130653Y-86850000D01*
X123369347Y-86850000D01*
X123589873Y-86758656D01*
X123758656Y-86589873D01*
X123850000Y-86369347D01*
X123850000Y-86130653D01*
X127650000Y-86130653D01*
X127650000Y-86369347D01*
X127741344Y-86589873D01*
X127910127Y-86758656D01*
X128130653Y-86850000D01*
X128369347Y-86850000D01*
X128589873Y-86758656D01*
X128758656Y-86589873D01*
X128850000Y-86369347D01*
X128850000Y-86130653D01*
X128758656Y-85910127D01*
X128589873Y-85741344D01*
X128369347Y-85650000D01*
X128130653Y-85650000D01*
X127910127Y-85741344D01*
X127741344Y-85910127D01*
X127650000Y-86130653D01*
X123850000Y-86130653D01*
X123758656Y-85910127D01*
X123598529Y-85750000D01*
X123750000Y-85598529D01*
X123910127Y-85758656D01*
X124130653Y-85850000D01*
X124369347Y-85850000D01*
X124589873Y-85758656D01*
X124758656Y-85589873D01*
X124850000Y-85369347D01*
X124850000Y-85130653D01*
X124758656Y-84910127D01*
X124598529Y-84750000D01*
X124717876Y-84630653D01*
X133350000Y-84630653D01*
X133350000Y-84869347D01*
X133441344Y-85089873D01*
X133610127Y-85258656D01*
X133830653Y-85350000D01*
X134069347Y-85350000D01*
X134289873Y-85258656D01*
X134458656Y-85089873D01*
X134550000Y-84869347D01*
X134550000Y-84630653D01*
X134458656Y-84410127D01*
X134289873Y-84241344D01*
X134069347Y-84150000D01*
X133830653Y-84150000D01*
X133610127Y-84241344D01*
X133441344Y-84410127D01*
X133350000Y-84630653D01*
X124717876Y-84630653D01*
X124758656Y-84589873D01*
X124850000Y-84369347D01*
X124850000Y-84130653D01*
X124758656Y-83910127D01*
X124729182Y-83880653D01*
X135350000Y-83880653D01*
X135350000Y-84119347D01*
X135441344Y-84339873D01*
X135610127Y-84508656D01*
X135830653Y-84600000D01*
X136069347Y-84600000D01*
X136289873Y-84508656D01*
X136458656Y-84339873D01*
X136550000Y-84119347D01*
X136550000Y-83880653D01*
X136458656Y-83660127D01*
X136289873Y-83491344D01*
X136069347Y-83400000D01*
X135830653Y-83400000D01*
X135610127Y-83491344D01*
X135441344Y-83660127D01*
X135350000Y-83880653D01*
X124729182Y-83880653D01*
X124589873Y-83741344D01*
X124369347Y-83650000D01*
X124130653Y-83650000D01*
X123910127Y-83741344D01*
X123741344Y-83910127D01*
X123650000Y-84130653D01*
X123650000Y-84369347D01*
X123741344Y-84589873D01*
X123901471Y-84750000D01*
X123750000Y-84901471D01*
X123589873Y-84741344D01*
X123369347Y-84650000D01*
X123130653Y-84650000D01*
X122910127Y-84741344D01*
X122741344Y-84910127D01*
X122650000Y-85130653D01*
X121850000Y-85130653D01*
X121758656Y-84910127D01*
X121598529Y-84750000D01*
X121758656Y-84589873D01*
X121850000Y-84369347D01*
X121850000Y-84130653D01*
X121758656Y-83910127D01*
X121589873Y-83741344D01*
X121369347Y-83650000D01*
X121130653Y-83650000D01*
X120910127Y-83741344D01*
X120741344Y-83910127D01*
X120650000Y-84130653D01*
X120650000Y-84369347D01*
X120741344Y-84589873D01*
X120901471Y-84750000D01*
X120750000Y-84901471D01*
X120589873Y-84741344D01*
X120369347Y-84650000D01*
X120130653Y-84650000D01*
X119910127Y-84741344D01*
X119741344Y-84910127D01*
X119650000Y-85130653D01*
X112329182Y-85130653D01*
X112189873Y-84991344D01*
X111969347Y-84900000D01*
X111730653Y-84900000D01*
X111510127Y-84991344D01*
X111341344Y-85160127D01*
X111250000Y-85380653D01*
X108350000Y-85380653D01*
X108350000Y-84130653D01*
X111400000Y-84130653D01*
X111400000Y-84369347D01*
X111491344Y-84589873D01*
X111660127Y-84758656D01*
X111880653Y-84850000D01*
X112119347Y-84850000D01*
X112339873Y-84758656D01*
X112508656Y-84589873D01*
X112600000Y-84369347D01*
X112600000Y-84130653D01*
X112508656Y-83910127D01*
X112339873Y-83741344D01*
X112119347Y-83650000D01*
X111880653Y-83650000D01*
X111660127Y-83741344D01*
X111491344Y-83910127D01*
X111400000Y-84130653D01*
X108350000Y-84130653D01*
X108350000Y-83750000D01*
X108342388Y-83711732D01*
X108320711Y-83679289D01*
X107472075Y-82830653D01*
X111400000Y-82830653D01*
X111400000Y-83069347D01*
X111491344Y-83289873D01*
X111660127Y-83458656D01*
X111880653Y-83550000D01*
X112119347Y-83550000D01*
X112339873Y-83458656D01*
X112508656Y-83289873D01*
X112574606Y-83130653D01*
X115650000Y-83130653D01*
X115650000Y-83369347D01*
X115741344Y-83589873D01*
X115910127Y-83758656D01*
X116130653Y-83850000D01*
X116369347Y-83850000D01*
X116589873Y-83758656D01*
X116758656Y-83589873D01*
X116850000Y-83369347D01*
X116850000Y-83130653D01*
X119650000Y-83130653D01*
X119650000Y-83369347D01*
X119741344Y-83589873D01*
X119910127Y-83758656D01*
X120130653Y-83850000D01*
X120369347Y-83850000D01*
X120589873Y-83758656D01*
X120758656Y-83589873D01*
X120850000Y-83369347D01*
X120850000Y-83130653D01*
X122650000Y-83130653D01*
X122650000Y-83369347D01*
X122741344Y-83589873D01*
X122910127Y-83758656D01*
X123130653Y-83850000D01*
X123369347Y-83850000D01*
X123589873Y-83758656D01*
X123758656Y-83589873D01*
X123850000Y-83369347D01*
X123850000Y-83130653D01*
X124650000Y-83130653D01*
X124650000Y-83369347D01*
X124741344Y-83589873D01*
X124910127Y-83758656D01*
X125130653Y-83850000D01*
X125369347Y-83850000D01*
X125589873Y-83758656D01*
X125758656Y-83589873D01*
X125850000Y-83369347D01*
X125850000Y-83130653D01*
X125758656Y-82910127D01*
X125589873Y-82741344D01*
X125369347Y-82650000D01*
X125130653Y-82650000D01*
X124910127Y-82741344D01*
X124741344Y-82910127D01*
X124650000Y-83130653D01*
X123850000Y-83130653D01*
X123758656Y-82910127D01*
X123589873Y-82741344D01*
X123369347Y-82650000D01*
X123130653Y-82650000D01*
X122910127Y-82741344D01*
X122741344Y-82910127D01*
X122650000Y-83130653D01*
X120850000Y-83130653D01*
X120758656Y-82910127D01*
X120589873Y-82741344D01*
X120369347Y-82650000D01*
X120130653Y-82650000D01*
X119910127Y-82741344D01*
X119741344Y-82910127D01*
X119650000Y-83130653D01*
X116850000Y-83130653D01*
X116758656Y-82910127D01*
X116589873Y-82741344D01*
X116369347Y-82650000D01*
X116130653Y-82650000D01*
X115910127Y-82741344D01*
X115741344Y-82910127D01*
X115650000Y-83130653D01*
X112574606Y-83130653D01*
X112600000Y-83069347D01*
X112600000Y-82830653D01*
X112508656Y-82610127D01*
X112339873Y-82441344D01*
X112119347Y-82350000D01*
X111880653Y-82350000D01*
X111660127Y-82441344D01*
X111491344Y-82610127D01*
X111400000Y-82830653D01*
X107472075Y-82830653D01*
X106820711Y-82179289D01*
X106788268Y-82157612D01*
X106750000Y-82150000D01*
X90400000Y-82150000D01*
X90400000Y-82130653D01*
X118650000Y-82130653D01*
X118650000Y-82369347D01*
X118741344Y-82589873D01*
X118910127Y-82758656D01*
X119130653Y-82850000D01*
X119369347Y-82850000D01*
X119589873Y-82758656D01*
X119758656Y-82589873D01*
X119850000Y-82369347D01*
X119850000Y-82130653D01*
X123650000Y-82130653D01*
X123650000Y-82369347D01*
X123741344Y-82589873D01*
X123910127Y-82758656D01*
X124130653Y-82850000D01*
X124369347Y-82850000D01*
X124589873Y-82758656D01*
X124758656Y-82589873D01*
X124850000Y-82369347D01*
X124850000Y-82130653D01*
X124758656Y-81910127D01*
X124589873Y-81741344D01*
X124369347Y-81650000D01*
X124130653Y-81650000D01*
X123910127Y-81741344D01*
X123741344Y-81910127D01*
X123650000Y-82130653D01*
X119850000Y-82130653D01*
X119758656Y-81910127D01*
X119589873Y-81741344D01*
X119369347Y-81650000D01*
X119130653Y-81650000D01*
X118910127Y-81741344D01*
X118741344Y-81910127D01*
X118650000Y-82130653D01*
X90400000Y-82130653D01*
X90400000Y-81130653D01*
X119650000Y-81130653D01*
X119650000Y-81369347D01*
X119741344Y-81589873D01*
X119910127Y-81758656D01*
X120130653Y-81850000D01*
X120369347Y-81850000D01*
X120589873Y-81758656D01*
X120758656Y-81589873D01*
X120850000Y-81369347D01*
X120850000Y-81130653D01*
X124650000Y-81130653D01*
X124650000Y-81369347D01*
X124741344Y-81589873D01*
X124910127Y-81758656D01*
X125130653Y-81850000D01*
X125369347Y-81850000D01*
X125589873Y-81758656D01*
X125758656Y-81589873D01*
X125850000Y-81369347D01*
X125850000Y-81130653D01*
X126650000Y-81130653D01*
X126650000Y-81369347D01*
X126741344Y-81589873D01*
X126901471Y-81750000D01*
X126741344Y-81910127D01*
X126650000Y-82130653D01*
X126650000Y-82369347D01*
X126741344Y-82589873D01*
X126901471Y-82750000D01*
X126741344Y-82910127D01*
X126650000Y-83130653D01*
X126650000Y-83369347D01*
X126741344Y-83589873D01*
X126910127Y-83758656D01*
X127130653Y-83850000D01*
X127369347Y-83850000D01*
X127589873Y-83758656D01*
X127750000Y-83598529D01*
X127910127Y-83758656D01*
X128130653Y-83850000D01*
X128369347Y-83850000D01*
X128589873Y-83758656D01*
X128758656Y-83589873D01*
X128850000Y-83369347D01*
X128850000Y-83130653D01*
X128758656Y-82910127D01*
X128598529Y-82750000D01*
X128758656Y-82589873D01*
X128850000Y-82369347D01*
X128850000Y-82130653D01*
X128758656Y-81910127D01*
X128589873Y-81741344D01*
X128369347Y-81650000D01*
X128130653Y-81650000D01*
X127910127Y-81741344D01*
X127750000Y-81901471D01*
X127598529Y-81750000D01*
X127758656Y-81589873D01*
X127850000Y-81369347D01*
X127850000Y-81130653D01*
X127758656Y-80910127D01*
X127589873Y-80741344D01*
X127369347Y-80650000D01*
X127130653Y-80650000D01*
X126910127Y-80741344D01*
X126741344Y-80910127D01*
X126650000Y-81130653D01*
X125850000Y-81130653D01*
X125758656Y-80910127D01*
X125589873Y-80741344D01*
X125369347Y-80650000D01*
X125130653Y-80650000D01*
X124910127Y-80741344D01*
X124741344Y-80910127D01*
X124650000Y-81130653D01*
X120850000Y-81130653D01*
X120758656Y-80910127D01*
X120589873Y-80741344D01*
X120369347Y-80650000D01*
X120130653Y-80650000D01*
X119910127Y-80741344D01*
X119741344Y-80910127D01*
X119650000Y-81130653D01*
X90400000Y-81130653D01*
X90400000Y-80130653D01*
X128650000Y-80130653D01*
X128650000Y-80369347D01*
X128741344Y-80589873D01*
X128910127Y-80758656D01*
X129130653Y-80850000D01*
X129369347Y-80850000D01*
X129589873Y-80758656D01*
X129717876Y-80630653D01*
X132750000Y-80630653D01*
X132750000Y-80869347D01*
X132841344Y-81089873D01*
X133010127Y-81258656D01*
X133230653Y-81350000D01*
X133469347Y-81350000D01*
X133689873Y-81258656D01*
X133858656Y-81089873D01*
X133950000Y-80869347D01*
X133950000Y-80630653D01*
X133858656Y-80410127D01*
X133848529Y-80400000D01*
X144094123Y-80400000D01*
X144094123Y-82100000D01*
X144117407Y-82217054D01*
X144183712Y-82316288D01*
X144282946Y-82382593D01*
X144400000Y-82405877D01*
X146100000Y-82405877D01*
X146217054Y-82382593D01*
X146316288Y-82316288D01*
X146382593Y-82217054D01*
X146405877Y-82100000D01*
X146405877Y-81250000D01*
X146617471Y-81250000D01*
X146706724Y-81698707D01*
X146960897Y-82079103D01*
X147341293Y-82333276D01*
X147676739Y-82400000D01*
X147903261Y-82400000D01*
X148238707Y-82333276D01*
X148619103Y-82079103D01*
X148873276Y-81698707D01*
X148962529Y-81250000D01*
X149157471Y-81250000D01*
X149246724Y-81698707D01*
X149500897Y-82079103D01*
X149881293Y-82333276D01*
X150216739Y-82400000D01*
X150443261Y-82400000D01*
X150778707Y-82333276D01*
X151159103Y-82079103D01*
X151413276Y-81698707D01*
X151502529Y-81250000D01*
X151697471Y-81250000D01*
X151786724Y-81698707D01*
X152040897Y-82079103D01*
X152421293Y-82333276D01*
X152756739Y-82400000D01*
X152983261Y-82400000D01*
X153318707Y-82333276D01*
X153699103Y-82079103D01*
X153953276Y-81698707D01*
X154042529Y-81250000D01*
X154237471Y-81250000D01*
X154326724Y-81698707D01*
X154580897Y-82079103D01*
X154961293Y-82333276D01*
X155296739Y-82400000D01*
X155523261Y-82400000D01*
X155858707Y-82333276D01*
X156239103Y-82079103D01*
X156493276Y-81698707D01*
X156582529Y-81250000D01*
X156495236Y-80811142D01*
X164450000Y-80811142D01*
X164450000Y-81228858D01*
X164609853Y-81614777D01*
X164905223Y-81910147D01*
X165291142Y-82070000D01*
X165708858Y-82070000D01*
X166094777Y-81910147D01*
X166390147Y-81614777D01*
X166550000Y-81228858D01*
X166550000Y-80811142D01*
X166390147Y-80425223D01*
X166094777Y-80129853D01*
X165708858Y-79970000D01*
X165291142Y-79970000D01*
X164905223Y-80129853D01*
X164609853Y-80425223D01*
X164450000Y-80811142D01*
X156495236Y-80811142D01*
X156493276Y-80801293D01*
X156239103Y-80420897D01*
X155858707Y-80166724D01*
X155523261Y-80100000D01*
X155296739Y-80100000D01*
X154961293Y-80166724D01*
X154580897Y-80420897D01*
X154326724Y-80801293D01*
X154237471Y-81250000D01*
X154042529Y-81250000D01*
X153953276Y-80801293D01*
X153699103Y-80420897D01*
X153318707Y-80166724D01*
X152983261Y-80100000D01*
X152756739Y-80100000D01*
X152421293Y-80166724D01*
X152040897Y-80420897D01*
X151786724Y-80801293D01*
X151697471Y-81250000D01*
X151502529Y-81250000D01*
X151413276Y-80801293D01*
X151159103Y-80420897D01*
X150778707Y-80166724D01*
X150443261Y-80100000D01*
X150216739Y-80100000D01*
X149881293Y-80166724D01*
X149500897Y-80420897D01*
X149246724Y-80801293D01*
X149157471Y-81250000D01*
X148962529Y-81250000D01*
X148873276Y-80801293D01*
X148619103Y-80420897D01*
X148238707Y-80166724D01*
X147903261Y-80100000D01*
X147676739Y-80100000D01*
X147341293Y-80166724D01*
X146960897Y-80420897D01*
X146706724Y-80801293D01*
X146617471Y-81250000D01*
X146405877Y-81250000D01*
X146405877Y-80400000D01*
X146382593Y-80282946D01*
X146316288Y-80183712D01*
X146217054Y-80117407D01*
X146100000Y-80094123D01*
X144400000Y-80094123D01*
X144282946Y-80117407D01*
X144183712Y-80183712D01*
X144117407Y-80282946D01*
X144094123Y-80400000D01*
X133848529Y-80400000D01*
X133689873Y-80241344D01*
X133469347Y-80150000D01*
X133230653Y-80150000D01*
X133010127Y-80241344D01*
X132841344Y-80410127D01*
X132750000Y-80630653D01*
X129717876Y-80630653D01*
X129758656Y-80589873D01*
X129850000Y-80369347D01*
X129850000Y-80130653D01*
X129758656Y-79910127D01*
X129729182Y-79880653D01*
X130150000Y-79880653D01*
X130150000Y-80119347D01*
X130241344Y-80339873D01*
X130410127Y-80508656D01*
X130630653Y-80600000D01*
X130869347Y-80600000D01*
X131089873Y-80508656D01*
X131258656Y-80339873D01*
X131350000Y-80119347D01*
X131350000Y-79880653D01*
X131267159Y-79680653D01*
X160650000Y-79680653D01*
X160650000Y-79919347D01*
X160741344Y-80139873D01*
X160910127Y-80308656D01*
X161130653Y-80400000D01*
X161369347Y-80400000D01*
X161589873Y-80308656D01*
X161758656Y-80139873D01*
X161850000Y-79919347D01*
X161850000Y-79680653D01*
X161758656Y-79460127D01*
X161589873Y-79291344D01*
X161369347Y-79200000D01*
X161130653Y-79200000D01*
X160910127Y-79291344D01*
X160741344Y-79460127D01*
X160650000Y-79680653D01*
X131267159Y-79680653D01*
X131258656Y-79660127D01*
X131089873Y-79491344D01*
X130869347Y-79400000D01*
X130630653Y-79400000D01*
X130410127Y-79491344D01*
X130241344Y-79660127D01*
X130150000Y-79880653D01*
X129729182Y-79880653D01*
X129589873Y-79741344D01*
X129369347Y-79650000D01*
X129130653Y-79650000D01*
X128910127Y-79741344D01*
X128741344Y-79910127D01*
X128650000Y-80130653D01*
X90400000Y-80130653D01*
X90400000Y-79130653D01*
X115650000Y-79130653D01*
X115650000Y-79369347D01*
X115741344Y-79589873D01*
X115910127Y-79758656D01*
X116130653Y-79850000D01*
X116369347Y-79850000D01*
X116589873Y-79758656D01*
X116758656Y-79589873D01*
X116850000Y-79369347D01*
X116850000Y-79130653D01*
X118650000Y-79130653D01*
X118650000Y-79369347D01*
X118741344Y-79589873D01*
X118910127Y-79758656D01*
X119130653Y-79850000D01*
X119369347Y-79850000D01*
X119589873Y-79758656D01*
X119758656Y-79589873D01*
X119850000Y-79369347D01*
X119850000Y-79130653D01*
X123650000Y-79130653D01*
X123650000Y-79369347D01*
X123741344Y-79589873D01*
X123910127Y-79758656D01*
X124130653Y-79850000D01*
X124369347Y-79850000D01*
X124589873Y-79758656D01*
X124758656Y-79589873D01*
X124850000Y-79369347D01*
X124850000Y-79130653D01*
X127650000Y-79130653D01*
X127650000Y-79369347D01*
X127741344Y-79589873D01*
X127910127Y-79758656D01*
X128130653Y-79850000D01*
X128369347Y-79850000D01*
X128589873Y-79758656D01*
X128758656Y-79589873D01*
X128850000Y-79369347D01*
X128850000Y-79130653D01*
X128758656Y-78910127D01*
X128589873Y-78741344D01*
X128369347Y-78650000D01*
X128130653Y-78650000D01*
X127910127Y-78741344D01*
X127741344Y-78910127D01*
X127650000Y-79130653D01*
X124850000Y-79130653D01*
X124758656Y-78910127D01*
X124589873Y-78741344D01*
X124369347Y-78650000D01*
X124130653Y-78650000D01*
X123910127Y-78741344D01*
X123741344Y-78910127D01*
X123650000Y-79130653D01*
X119850000Y-79130653D01*
X119758656Y-78910127D01*
X119589873Y-78741344D01*
X119369347Y-78650000D01*
X119130653Y-78650000D01*
X118910127Y-78741344D01*
X118741344Y-78910127D01*
X118650000Y-79130653D01*
X116850000Y-79130653D01*
X116758656Y-78910127D01*
X116589873Y-78741344D01*
X116369347Y-78650000D01*
X116130653Y-78650000D01*
X115910127Y-78741344D01*
X115741344Y-78910127D01*
X115650000Y-79130653D01*
X90400000Y-79130653D01*
X90400000Y-78130653D01*
X119650000Y-78130653D01*
X119650000Y-78369347D01*
X119741344Y-78589873D01*
X119910127Y-78758656D01*
X120130653Y-78850000D01*
X120369347Y-78850000D01*
X120589873Y-78758656D01*
X120758656Y-78589873D01*
X120850000Y-78369347D01*
X120850000Y-78130653D01*
X122650000Y-78130653D01*
X122650000Y-78369347D01*
X122741344Y-78589873D01*
X122910127Y-78758656D01*
X123130653Y-78850000D01*
X123369347Y-78850000D01*
X123589873Y-78758656D01*
X123758656Y-78589873D01*
X123850000Y-78369347D01*
X123850000Y-78130653D01*
X124650000Y-78130653D01*
X124650000Y-78369347D01*
X124741344Y-78589873D01*
X124910127Y-78758656D01*
X125130653Y-78850000D01*
X125369347Y-78850000D01*
X125589873Y-78758656D01*
X125717876Y-78630653D01*
X128900000Y-78630653D01*
X128900000Y-78869347D01*
X128991344Y-79089873D01*
X129160127Y-79258656D01*
X129380653Y-79350000D01*
X129619347Y-79350000D01*
X129839873Y-79258656D01*
X130008656Y-79089873D01*
X130100000Y-78869347D01*
X130100000Y-78630653D01*
X130008656Y-78410127D01*
X129839873Y-78241344D01*
X129619347Y-78150000D01*
X129380653Y-78150000D01*
X129160127Y-78241344D01*
X128991344Y-78410127D01*
X128900000Y-78630653D01*
X125717876Y-78630653D01*
X125758656Y-78589873D01*
X125850000Y-78369347D01*
X125850000Y-78130653D01*
X125758656Y-77910127D01*
X125589873Y-77741344D01*
X125369347Y-77650000D01*
X125130653Y-77650000D01*
X124910127Y-77741344D01*
X124741344Y-77910127D01*
X124650000Y-78130653D01*
X123850000Y-78130653D01*
X123758656Y-77910127D01*
X123589873Y-77741344D01*
X123369347Y-77650000D01*
X123130653Y-77650000D01*
X122910127Y-77741344D01*
X122741344Y-77910127D01*
X122650000Y-78130653D01*
X120850000Y-78130653D01*
X120758656Y-77910127D01*
X120589873Y-77741344D01*
X120369347Y-77650000D01*
X120130653Y-77650000D01*
X119910127Y-77741344D01*
X119741344Y-77910127D01*
X119650000Y-78130653D01*
X90400000Y-78130653D01*
X90400000Y-77130653D01*
X118650000Y-77130653D01*
X118650000Y-77369347D01*
X118741344Y-77589873D01*
X118910127Y-77758656D01*
X119130653Y-77850000D01*
X119369347Y-77850000D01*
X119589873Y-77758656D01*
X119758656Y-77589873D01*
X119850000Y-77369347D01*
X119850000Y-77130653D01*
X120650000Y-77130653D01*
X120650000Y-77369347D01*
X120741344Y-77589873D01*
X120910127Y-77758656D01*
X121130653Y-77850000D01*
X121369347Y-77850000D01*
X121589873Y-77758656D01*
X121758656Y-77589873D01*
X121850000Y-77369347D01*
X121850000Y-77130653D01*
X123650000Y-77130653D01*
X123650000Y-77369347D01*
X123741344Y-77589873D01*
X123910127Y-77758656D01*
X124130653Y-77850000D01*
X124369347Y-77850000D01*
X124589873Y-77758656D01*
X124758656Y-77589873D01*
X124850000Y-77369347D01*
X124850000Y-77130653D01*
X124758656Y-76910127D01*
X124589873Y-76741344D01*
X124369347Y-76650000D01*
X124130653Y-76650000D01*
X123910127Y-76741344D01*
X123741344Y-76910127D01*
X123650000Y-77130653D01*
X121850000Y-77130653D01*
X121758656Y-76910127D01*
X121589873Y-76741344D01*
X121369347Y-76650000D01*
X121130653Y-76650000D01*
X120910127Y-76741344D01*
X120741344Y-76910127D01*
X120650000Y-77130653D01*
X119850000Y-77130653D01*
X119758656Y-76910127D01*
X119589873Y-76741344D01*
X119369347Y-76650000D01*
X119130653Y-76650000D01*
X118910127Y-76741344D01*
X118741344Y-76910127D01*
X118650000Y-77130653D01*
X90400000Y-77130653D01*
X90400000Y-76130653D01*
X119650000Y-76130653D01*
X119650000Y-76369347D01*
X119741344Y-76589873D01*
X119910127Y-76758656D01*
X120130653Y-76850000D01*
X120369347Y-76850000D01*
X120589873Y-76758656D01*
X120758656Y-76589873D01*
X120850000Y-76369347D01*
X120850000Y-76130653D01*
X122650000Y-76130653D01*
X122650000Y-76369347D01*
X122741344Y-76589873D01*
X122910127Y-76758656D01*
X123130653Y-76850000D01*
X123369347Y-76850000D01*
X123589873Y-76758656D01*
X123758656Y-76589873D01*
X123850000Y-76369347D01*
X123850000Y-76130653D01*
X128650000Y-76130653D01*
X128650000Y-76369347D01*
X128741344Y-76589873D01*
X128910127Y-76758656D01*
X129130653Y-76850000D01*
X129369347Y-76850000D01*
X129589873Y-76758656D01*
X129758656Y-76589873D01*
X129850000Y-76369347D01*
X129850000Y-76130653D01*
X129758656Y-75910127D01*
X129748529Y-75900000D01*
X144094123Y-75900000D01*
X144094123Y-77600000D01*
X144117407Y-77717054D01*
X144183712Y-77816288D01*
X144282946Y-77882593D01*
X144400000Y-77905877D01*
X146100000Y-77905877D01*
X146217054Y-77882593D01*
X146316288Y-77816288D01*
X146382593Y-77717054D01*
X146405877Y-77600000D01*
X146405877Y-76750000D01*
X146617471Y-76750000D01*
X146706724Y-77198707D01*
X146960897Y-77579103D01*
X147341293Y-77833276D01*
X147676739Y-77900000D01*
X147903261Y-77900000D01*
X148238707Y-77833276D01*
X148619103Y-77579103D01*
X148873276Y-77198707D01*
X148962529Y-76750000D01*
X149157471Y-76750000D01*
X149246724Y-77198707D01*
X149500897Y-77579103D01*
X149881293Y-77833276D01*
X150216739Y-77900000D01*
X150443261Y-77900000D01*
X150778707Y-77833276D01*
X151159103Y-77579103D01*
X151413276Y-77198707D01*
X151502529Y-76750000D01*
X151413276Y-76301293D01*
X151159103Y-75920897D01*
X150778707Y-75666724D01*
X150443261Y-75600000D01*
X150216739Y-75600000D01*
X149881293Y-75666724D01*
X149500897Y-75920897D01*
X149246724Y-76301293D01*
X149157471Y-76750000D01*
X148962529Y-76750000D01*
X148873276Y-76301293D01*
X148619103Y-75920897D01*
X148238707Y-75666724D01*
X147903261Y-75600000D01*
X147676739Y-75600000D01*
X147341293Y-75666724D01*
X146960897Y-75920897D01*
X146706724Y-76301293D01*
X146617471Y-76750000D01*
X146405877Y-76750000D01*
X146405877Y-75900000D01*
X146382593Y-75782946D01*
X146316288Y-75683712D01*
X146217054Y-75617407D01*
X146100000Y-75594123D01*
X144400000Y-75594123D01*
X144282946Y-75617407D01*
X144183712Y-75683712D01*
X144117407Y-75782946D01*
X144094123Y-75900000D01*
X129748529Y-75900000D01*
X129589873Y-75741344D01*
X129369347Y-75650000D01*
X129130653Y-75650000D01*
X128910127Y-75741344D01*
X128741344Y-75910127D01*
X128650000Y-76130653D01*
X123850000Y-76130653D01*
X123758656Y-75910127D01*
X123589873Y-75741344D01*
X123369347Y-75650000D01*
X123130653Y-75650000D01*
X122910127Y-75741344D01*
X122741344Y-75910127D01*
X122650000Y-76130653D01*
X120850000Y-76130653D01*
X120758656Y-75910127D01*
X120589873Y-75741344D01*
X120369347Y-75650000D01*
X120130653Y-75650000D01*
X119910127Y-75741344D01*
X119741344Y-75910127D01*
X119650000Y-76130653D01*
X90400000Y-76130653D01*
X90400000Y-74561305D01*
X98360000Y-74561305D01*
X98360000Y-75038695D01*
X98542689Y-75479745D01*
X98880255Y-75817311D01*
X99321305Y-76000000D01*
X99798695Y-76000000D01*
X100239745Y-75817311D01*
X100577311Y-75479745D01*
X100721909Y-75130653D01*
X125650000Y-75130653D01*
X125650000Y-75369347D01*
X125741344Y-75589873D01*
X125910127Y-75758656D01*
X126130653Y-75850000D01*
X126369347Y-75850000D01*
X126589873Y-75758656D01*
X126758656Y-75589873D01*
X126850000Y-75369347D01*
X126850000Y-75130653D01*
X130350000Y-75130653D01*
X130350000Y-75369347D01*
X130441344Y-75589873D01*
X130610127Y-75758656D01*
X130830653Y-75850000D01*
X131069347Y-75850000D01*
X131289873Y-75758656D01*
X131458656Y-75589873D01*
X131550000Y-75369347D01*
X131550000Y-75130653D01*
X131458656Y-74910127D01*
X131289873Y-74741344D01*
X131069347Y-74650000D01*
X130830653Y-74650000D01*
X130610127Y-74741344D01*
X130441344Y-74910127D01*
X130350000Y-75130653D01*
X126850000Y-75130653D01*
X126758656Y-74910127D01*
X126589873Y-74741344D01*
X126369347Y-74650000D01*
X126130653Y-74650000D01*
X125910127Y-74741344D01*
X125741344Y-74910127D01*
X125650000Y-75130653D01*
X100721909Y-75130653D01*
X100760000Y-75038695D01*
X100760000Y-74561305D01*
X100581618Y-74130653D01*
X128650000Y-74130653D01*
X128650000Y-74369347D01*
X128741344Y-74589873D01*
X128910127Y-74758656D01*
X129130653Y-74850000D01*
X129369347Y-74850000D01*
X129589873Y-74758656D01*
X129758656Y-74589873D01*
X129850000Y-74369347D01*
X129850000Y-74130653D01*
X129758656Y-73910127D01*
X129589873Y-73741344D01*
X129369347Y-73650000D01*
X129130653Y-73650000D01*
X128910127Y-73741344D01*
X128741344Y-73910127D01*
X128650000Y-74130653D01*
X100581618Y-74130653D01*
X100577311Y-74120255D01*
X100239745Y-73782689D01*
X99798695Y-73600000D01*
X99321305Y-73600000D01*
X98880255Y-73782689D01*
X98542689Y-74120255D01*
X98360000Y-74561305D01*
X90400000Y-74561305D01*
X90400000Y-73130653D01*
X132400000Y-73130653D01*
X132400000Y-73369347D01*
X132491344Y-73589873D01*
X132660127Y-73758656D01*
X132880653Y-73850000D01*
X133119347Y-73850000D01*
X133339873Y-73758656D01*
X133508656Y-73589873D01*
X133600000Y-73369347D01*
X133600000Y-73130653D01*
X133508656Y-72910127D01*
X133448529Y-72850000D01*
X133469347Y-72850000D01*
X133689873Y-72758656D01*
X133858656Y-72589873D01*
X133950000Y-72369347D01*
X133950000Y-72130653D01*
X133908580Y-72030653D01*
X136900000Y-72030653D01*
X136900000Y-72269347D01*
X136991344Y-72489873D01*
X137160127Y-72658656D01*
X137380653Y-72750000D01*
X137619347Y-72750000D01*
X137839873Y-72658656D01*
X138008656Y-72489873D01*
X138100000Y-72269347D01*
X138100000Y-72030653D01*
X138008656Y-71810127D01*
X137839873Y-71641344D01*
X137619347Y-71550000D01*
X137380653Y-71550000D01*
X137160127Y-71641344D01*
X136991344Y-71810127D01*
X136900000Y-72030653D01*
X133908580Y-72030653D01*
X133858656Y-71910127D01*
X133689873Y-71741344D01*
X133469347Y-71650000D01*
X133230653Y-71650000D01*
X133010127Y-71741344D01*
X132841344Y-71910127D01*
X132750000Y-72130653D01*
X132750000Y-72369347D01*
X132841344Y-72589873D01*
X132901471Y-72650000D01*
X132880653Y-72650000D01*
X132660127Y-72741344D01*
X132491344Y-72910127D01*
X132400000Y-73130653D01*
X90400000Y-73130653D01*
X90400000Y-70980653D01*
X112650000Y-70980653D01*
X112650000Y-71219347D01*
X112741344Y-71439873D01*
X112910127Y-71608656D01*
X113130653Y-71700000D01*
X113369347Y-71700000D01*
X113589873Y-71608656D01*
X113667876Y-71530653D01*
X124100000Y-71530653D01*
X124100000Y-71769347D01*
X124191344Y-71989873D01*
X124360127Y-72158656D01*
X124580653Y-72250000D01*
X124819347Y-72250000D01*
X125039873Y-72158656D01*
X125208656Y-71989873D01*
X125300000Y-71769347D01*
X125300000Y-71530653D01*
X125208656Y-71310127D01*
X125039873Y-71141344D01*
X124819347Y-71050000D01*
X124580653Y-71050000D01*
X124360127Y-71141344D01*
X124191344Y-71310127D01*
X124100000Y-71530653D01*
X113667876Y-71530653D01*
X113758656Y-71439873D01*
X113850000Y-71219347D01*
X113850000Y-70980653D01*
X113758656Y-70760127D01*
X113589873Y-70591344D01*
X113369347Y-70500000D01*
X113130653Y-70500000D01*
X112910127Y-70591344D01*
X112741344Y-70760127D01*
X112650000Y-70980653D01*
X90400000Y-70980653D01*
X90400000Y-69481305D01*
X98360000Y-69481305D01*
X98360000Y-69958695D01*
X98542689Y-70399745D01*
X98880255Y-70737311D01*
X99321305Y-70920000D01*
X99798695Y-70920000D01*
X100239745Y-70737311D01*
X100577311Y-70399745D01*
X100697012Y-70110761D01*
X116050000Y-70110761D01*
X116050000Y-70389239D01*
X116156568Y-70646518D01*
X116353482Y-70843432D01*
X116610761Y-70950000D01*
X116889239Y-70950000D01*
X117146518Y-70843432D01*
X117343432Y-70646518D01*
X117450000Y-70389239D01*
X117450000Y-70110761D01*
X121300000Y-70110761D01*
X121300000Y-70389239D01*
X121406568Y-70646518D01*
X121603482Y-70843432D01*
X121860761Y-70950000D01*
X122139239Y-70950000D01*
X122396518Y-70843432D01*
X122593432Y-70646518D01*
X122700000Y-70389239D01*
X122700000Y-70110761D01*
X122658579Y-70010761D01*
X124100000Y-70010761D01*
X124100000Y-70289239D01*
X124206568Y-70546518D01*
X124403482Y-70743432D01*
X124660761Y-70850000D01*
X124939239Y-70850000D01*
X125196518Y-70743432D01*
X125393432Y-70546518D01*
X125500000Y-70289239D01*
X125500000Y-70010761D01*
X129350000Y-70010761D01*
X129350000Y-70289239D01*
X129456568Y-70546518D01*
X129653482Y-70743432D01*
X129910761Y-70850000D01*
X130189239Y-70850000D01*
X130446518Y-70743432D01*
X130643432Y-70546518D01*
X130666256Y-70491414D01*
X160700000Y-70491414D01*
X160700000Y-71008586D01*
X160897913Y-71486391D01*
X161263609Y-71852087D01*
X161741414Y-72050000D01*
X162258586Y-72050000D01*
X162736391Y-71852087D01*
X163102087Y-71486391D01*
X163300000Y-71008586D01*
X163300000Y-70491414D01*
X163102087Y-70013609D01*
X162736391Y-69647913D01*
X162258586Y-69450000D01*
X161741414Y-69450000D01*
X161263609Y-69647913D01*
X160897913Y-70013609D01*
X160700000Y-70491414D01*
X130666256Y-70491414D01*
X130750000Y-70289239D01*
X130750000Y-70010761D01*
X130643432Y-69753482D01*
X130446518Y-69556568D01*
X130189239Y-69450000D01*
X129910761Y-69450000D01*
X129653482Y-69556568D01*
X129456568Y-69753482D01*
X129350000Y-70010761D01*
X125500000Y-70010761D01*
X125393432Y-69753482D01*
X125196518Y-69556568D01*
X124939239Y-69450000D01*
X124660761Y-69450000D01*
X124403482Y-69556568D01*
X124206568Y-69753482D01*
X124100000Y-70010761D01*
X122658579Y-70010761D01*
X122593432Y-69853482D01*
X122396518Y-69656568D01*
X122139239Y-69550000D01*
X121860761Y-69550000D01*
X121603482Y-69656568D01*
X121406568Y-69853482D01*
X121300000Y-70110761D01*
X117450000Y-70110761D01*
X117343432Y-69853482D01*
X117146518Y-69656568D01*
X116889239Y-69550000D01*
X116610761Y-69550000D01*
X116353482Y-69656568D01*
X116156568Y-69853482D01*
X116050000Y-70110761D01*
X100697012Y-70110761D01*
X100760000Y-69958695D01*
X100760000Y-69481305D01*
X100577311Y-69040255D01*
X100239745Y-68702689D01*
X99798695Y-68520000D01*
X99321305Y-68520000D01*
X98880255Y-68702689D01*
X98542689Y-69040255D01*
X98360000Y-69481305D01*
X90400000Y-69481305D01*
X90400000Y-68380653D01*
X111650000Y-68380653D01*
X111650000Y-68619347D01*
X111741344Y-68839873D01*
X111910127Y-69008656D01*
X112130653Y-69100000D01*
X112369347Y-69100000D01*
X112589873Y-69008656D01*
X112758656Y-68839873D01*
X112845316Y-68630653D01*
X133150000Y-68630653D01*
X133150000Y-68869347D01*
X133241344Y-69089873D01*
X133410127Y-69258656D01*
X133630653Y-69350000D01*
X133869347Y-69350000D01*
X134089873Y-69258656D01*
X134200000Y-69148529D01*
X134310127Y-69258656D01*
X134530653Y-69350000D01*
X134769347Y-69350000D01*
X134989873Y-69258656D01*
X135158656Y-69089873D01*
X135250000Y-68869347D01*
X135250000Y-68630653D01*
X135229290Y-68580653D01*
X136850000Y-68580653D01*
X136850000Y-68819347D01*
X136941344Y-69039873D01*
X137110127Y-69208656D01*
X137330653Y-69300000D01*
X137569347Y-69300000D01*
X137789873Y-69208656D01*
X137958656Y-69039873D01*
X138050000Y-68819347D01*
X138050000Y-68630653D01*
X138200000Y-68630653D01*
X138200000Y-68869347D01*
X138291344Y-69089873D01*
X138460127Y-69258656D01*
X138680653Y-69350000D01*
X138919347Y-69350000D01*
X139139873Y-69258656D01*
X139308656Y-69089873D01*
X139312475Y-69080653D01*
X149150000Y-69080653D01*
X149150000Y-69319347D01*
X149241344Y-69539873D01*
X149410127Y-69708656D01*
X149630653Y-69800000D01*
X149869347Y-69800000D01*
X150089873Y-69708656D01*
X150258656Y-69539873D01*
X150350000Y-69319347D01*
X150350000Y-69080653D01*
X150258656Y-68860127D01*
X150089873Y-68691344D01*
X149869347Y-68600000D01*
X149630653Y-68600000D01*
X149410127Y-68691344D01*
X149241344Y-68860127D01*
X149150000Y-69080653D01*
X139312475Y-69080653D01*
X139400000Y-68869347D01*
X139400000Y-68630653D01*
X139308656Y-68410127D01*
X139139873Y-68241344D01*
X138919347Y-68150000D01*
X138680653Y-68150000D01*
X138460127Y-68241344D01*
X138291344Y-68410127D01*
X138200000Y-68630653D01*
X138050000Y-68630653D01*
X138050000Y-68580653D01*
X137958656Y-68360127D01*
X137789873Y-68191344D01*
X137569347Y-68100000D01*
X137330653Y-68100000D01*
X137110127Y-68191344D01*
X136941344Y-68360127D01*
X136850000Y-68580653D01*
X135229290Y-68580653D01*
X135158656Y-68410127D01*
X134989873Y-68241344D01*
X134769347Y-68150000D01*
X134530653Y-68150000D01*
X134310127Y-68241344D01*
X134200000Y-68351471D01*
X134089873Y-68241344D01*
X133869347Y-68150000D01*
X133630653Y-68150000D01*
X133410127Y-68241344D01*
X133241344Y-68410127D01*
X133150000Y-68630653D01*
X112845316Y-68630653D01*
X112850000Y-68619347D01*
X112850000Y-68380653D01*
X112758656Y-68160127D01*
X112589873Y-67991344D01*
X112369347Y-67900000D01*
X112130653Y-67900000D01*
X111910127Y-67991344D01*
X111741344Y-68160127D01*
X111650000Y-68380653D01*
X90400000Y-68380653D01*
X90400000Y-66880653D01*
X103950000Y-66880653D01*
X103950000Y-67119347D01*
X104041344Y-67339873D01*
X104210127Y-67508656D01*
X104430653Y-67600000D01*
X104669347Y-67600000D01*
X104889873Y-67508656D01*
X105058656Y-67339873D01*
X105150000Y-67119347D01*
X105150000Y-66880653D01*
X105141761Y-66860761D01*
X122300000Y-66860761D01*
X122300000Y-67139239D01*
X122406568Y-67396518D01*
X122603482Y-67593432D01*
X122860761Y-67700000D01*
X123139239Y-67700000D01*
X123396518Y-67593432D01*
X123593432Y-67396518D01*
X123700000Y-67139239D01*
X123700000Y-66860761D01*
X127050000Y-66860761D01*
X127050000Y-67139239D01*
X127156568Y-67396518D01*
X127353482Y-67593432D01*
X127610761Y-67700000D01*
X127889239Y-67700000D01*
X128146518Y-67593432D01*
X128343432Y-67396518D01*
X128450000Y-67139239D01*
X128450000Y-66860761D01*
X132300000Y-66860761D01*
X132300000Y-67139239D01*
X132406568Y-67396518D01*
X132603482Y-67593432D01*
X132860761Y-67700000D01*
X133139239Y-67700000D01*
X133396518Y-67593432D01*
X133593432Y-67396518D01*
X133700000Y-67139239D01*
X133700000Y-66991414D01*
X160700000Y-66991414D01*
X160700000Y-67508586D01*
X160897913Y-67986391D01*
X161263609Y-68352087D01*
X161741414Y-68550000D01*
X162258586Y-68550000D01*
X162736391Y-68352087D01*
X163102087Y-67986391D01*
X163300000Y-67508586D01*
X163300000Y-66991414D01*
X163102087Y-66513609D01*
X162736391Y-66147913D01*
X162258586Y-65950000D01*
X161741414Y-65950000D01*
X161263609Y-66147913D01*
X160897913Y-66513609D01*
X160700000Y-66991414D01*
X133700000Y-66991414D01*
X133700000Y-66860761D01*
X133593432Y-66603482D01*
X133396518Y-66406568D01*
X133139239Y-66300000D01*
X132860761Y-66300000D01*
X132603482Y-66406568D01*
X132406568Y-66603482D01*
X132300000Y-66860761D01*
X128450000Y-66860761D01*
X128343432Y-66603482D01*
X128146518Y-66406568D01*
X127889239Y-66300000D01*
X127610761Y-66300000D01*
X127353482Y-66406568D01*
X127156568Y-66603482D01*
X127050000Y-66860761D01*
X123700000Y-66860761D01*
X123593432Y-66603482D01*
X123396518Y-66406568D01*
X123139239Y-66300000D01*
X122860761Y-66300000D01*
X122603482Y-66406568D01*
X122406568Y-66603482D01*
X122300000Y-66860761D01*
X105141761Y-66860761D01*
X105058656Y-66660127D01*
X104889873Y-66491344D01*
X104669347Y-66400000D01*
X104430653Y-66400000D01*
X104210127Y-66491344D01*
X104041344Y-66660127D01*
X103950000Y-66880653D01*
X90400000Y-66880653D01*
X90400000Y-64361305D01*
X98360000Y-64361305D01*
X98360000Y-64838695D01*
X98542689Y-65279745D01*
X98880255Y-65617311D01*
X99321305Y-65800000D01*
X99798695Y-65800000D01*
X100239745Y-65617311D01*
X100577311Y-65279745D01*
X100760000Y-64838695D01*
X100760000Y-64361305D01*
X100577311Y-63920255D01*
X100387709Y-63730653D01*
X117100000Y-63730653D01*
X117100000Y-63969347D01*
X117191344Y-64189873D01*
X117360127Y-64358656D01*
X117580653Y-64450000D01*
X117819347Y-64450000D01*
X118039873Y-64358656D01*
X118208656Y-64189873D01*
X118300000Y-63969347D01*
X118300000Y-63730653D01*
X118208656Y-63510127D01*
X118079182Y-63380653D01*
X118950000Y-63380653D01*
X118950000Y-63619347D01*
X119041344Y-63839873D01*
X119210127Y-64008656D01*
X119430653Y-64100000D01*
X119669347Y-64100000D01*
X119889873Y-64008656D01*
X119917876Y-63980653D01*
X136850000Y-63980653D01*
X136850000Y-64219347D01*
X136941344Y-64439873D01*
X137110127Y-64608656D01*
X137330653Y-64700000D01*
X137569347Y-64700000D01*
X137789873Y-64608656D01*
X137958656Y-64439873D01*
X138050000Y-64219347D01*
X138050000Y-63980653D01*
X137958656Y-63760127D01*
X137789873Y-63591344D01*
X137569347Y-63500000D01*
X137330653Y-63500000D01*
X137110127Y-63591344D01*
X136941344Y-63760127D01*
X136850000Y-63980653D01*
X119917876Y-63980653D01*
X120058656Y-63839873D01*
X120150000Y-63619347D01*
X120150000Y-63380653D01*
X120067159Y-63180653D01*
X137800000Y-63180653D01*
X137800000Y-63419347D01*
X137891344Y-63639873D01*
X138060127Y-63808656D01*
X138280653Y-63900000D01*
X138519347Y-63900000D01*
X138739873Y-63808656D01*
X138908656Y-63639873D01*
X139000000Y-63419347D01*
X139000000Y-63180653D01*
X138908656Y-62960127D01*
X138739873Y-62791344D01*
X138519347Y-62700000D01*
X138280653Y-62700000D01*
X138060127Y-62791344D01*
X137891344Y-62960127D01*
X137800000Y-63180653D01*
X120067159Y-63180653D01*
X120058656Y-63160127D01*
X119889873Y-62991344D01*
X119669347Y-62900000D01*
X119430653Y-62900000D01*
X119210127Y-62991344D01*
X119041344Y-63160127D01*
X118950000Y-63380653D01*
X118079182Y-63380653D01*
X118039873Y-63341344D01*
X117819347Y-63250000D01*
X117580653Y-63250000D01*
X117360127Y-63341344D01*
X117191344Y-63510127D01*
X117100000Y-63730653D01*
X100387709Y-63730653D01*
X100239745Y-63582689D01*
X99798695Y-63400000D01*
X99321305Y-63400000D01*
X98880255Y-63582689D01*
X98542689Y-63920255D01*
X98360000Y-64361305D01*
X90400000Y-64361305D01*
X90400000Y-61821305D01*
X98360000Y-61821305D01*
X98360000Y-62298695D01*
X98542689Y-62739745D01*
X98880255Y-63077311D01*
X99321305Y-63260000D01*
X99798695Y-63260000D01*
X100239745Y-63077311D01*
X100577311Y-62739745D01*
X100760000Y-62298695D01*
X100760000Y-62080653D01*
X135950000Y-62080653D01*
X135950000Y-62319347D01*
X136041344Y-62539873D01*
X136210127Y-62708656D01*
X136430653Y-62800000D01*
X136669347Y-62800000D01*
X136889873Y-62708656D01*
X136937768Y-62660761D01*
X148900000Y-62660761D01*
X148900000Y-62939239D01*
X149006568Y-63196518D01*
X149203482Y-63393432D01*
X149460761Y-63500000D01*
X149739239Y-63500000D01*
X149996518Y-63393432D01*
X150193432Y-63196518D01*
X150228953Y-63110761D01*
X155500000Y-63110761D01*
X155500000Y-63389239D01*
X155606568Y-63646518D01*
X155803482Y-63843432D01*
X156060761Y-63950000D01*
X156339239Y-63950000D01*
X156596518Y-63843432D01*
X156793432Y-63646518D01*
X156900000Y-63389239D01*
X156900000Y-63110761D01*
X156793432Y-62853482D01*
X156596518Y-62656568D01*
X156339239Y-62550000D01*
X156060761Y-62550000D01*
X155803482Y-62656568D01*
X155606568Y-62853482D01*
X155500000Y-63110761D01*
X150228953Y-63110761D01*
X150300000Y-62939239D01*
X150300000Y-62660761D01*
X150193432Y-62403482D01*
X149996518Y-62206568D01*
X149739239Y-62100000D01*
X149460761Y-62100000D01*
X149203482Y-62206568D01*
X149006568Y-62403482D01*
X148900000Y-62660761D01*
X136937768Y-62660761D01*
X137058656Y-62539873D01*
X137150000Y-62319347D01*
X137150000Y-62080653D01*
X137058656Y-61860127D01*
X136889873Y-61691344D01*
X136669347Y-61600000D01*
X136430653Y-61600000D01*
X136210127Y-61691344D01*
X136041344Y-61860127D01*
X135950000Y-62080653D01*
X100760000Y-62080653D01*
X100760000Y-61821305D01*
X100577311Y-61380255D01*
X100239745Y-61042689D01*
X99798695Y-60860000D01*
X99321305Y-60860000D01*
X98880255Y-61042689D01*
X98542689Y-61380255D01*
X98360000Y-61821305D01*
X90400000Y-61821305D01*
X90400000Y-60380653D01*
X103700000Y-60380653D01*
X103700000Y-60619347D01*
X103791344Y-60839873D01*
X103960127Y-61008656D01*
X104180653Y-61100000D01*
X104419347Y-61100000D01*
X104639873Y-61008656D01*
X104808656Y-60839873D01*
X104900000Y-60619347D01*
X104900000Y-60380653D01*
X104808656Y-60160127D01*
X104639873Y-59991344D01*
X104419347Y-59900000D01*
X104180653Y-59900000D01*
X103960127Y-59991344D01*
X103791344Y-60160127D01*
X103700000Y-60380653D01*
X90400000Y-60380653D01*
X90400000Y-59380653D01*
X118150000Y-59380653D01*
X118150000Y-59619347D01*
X118241344Y-59839873D01*
X118410127Y-60008656D01*
X118630653Y-60100000D01*
X118869347Y-60100000D01*
X118916055Y-60080653D01*
X136400000Y-60080653D01*
X136400000Y-60319347D01*
X136491344Y-60539873D01*
X136660127Y-60708656D01*
X136880653Y-60800000D01*
X137119347Y-60800000D01*
X137339873Y-60708656D01*
X137500000Y-60548529D01*
X137660127Y-60708656D01*
X137880653Y-60800000D01*
X138119347Y-60800000D01*
X138339873Y-60708656D01*
X138500000Y-60548529D01*
X138660127Y-60708656D01*
X138880653Y-60800000D01*
X139119347Y-60800000D01*
X139339873Y-60708656D01*
X139508656Y-60539873D01*
X139600000Y-60319347D01*
X139600000Y-60080653D01*
X149150000Y-60080653D01*
X149150000Y-60319347D01*
X149241344Y-60539873D01*
X149410127Y-60708656D01*
X149630653Y-60800000D01*
X149869347Y-60800000D01*
X150089873Y-60708656D01*
X150258656Y-60539873D01*
X150350000Y-60319347D01*
X150350000Y-60080653D01*
X150258656Y-59860127D01*
X150089873Y-59691344D01*
X149869347Y-59600000D01*
X149630653Y-59600000D01*
X149410127Y-59691344D01*
X149241344Y-59860127D01*
X149150000Y-60080653D01*
X139600000Y-60080653D01*
X139508656Y-59860127D01*
X139339873Y-59691344D01*
X139119347Y-59600000D01*
X138880653Y-59600000D01*
X138660127Y-59691344D01*
X138500000Y-59851471D01*
X138339873Y-59691344D01*
X138119347Y-59600000D01*
X137880653Y-59600000D01*
X137660127Y-59691344D01*
X137500000Y-59851471D01*
X137339873Y-59691344D01*
X137119347Y-59600000D01*
X136880653Y-59600000D01*
X136660127Y-59691344D01*
X136491344Y-59860127D01*
X136400000Y-60080653D01*
X118916055Y-60080653D01*
X119089873Y-60008656D01*
X119258656Y-59839873D01*
X119350000Y-59619347D01*
X119350000Y-59380653D01*
X119258656Y-59160127D01*
X119089873Y-58991344D01*
X118869347Y-58900000D01*
X118630653Y-58900000D01*
X118410127Y-58991344D01*
X118241344Y-59160127D01*
X118150000Y-59380653D01*
X90400000Y-59380653D01*
X90400000Y-56741305D01*
X98360000Y-56741305D01*
X98360000Y-57218695D01*
X98542689Y-57659745D01*
X98880255Y-57997311D01*
X99321305Y-58180000D01*
X99798695Y-58180000D01*
X100239745Y-57997311D01*
X100376295Y-57860761D01*
X115050000Y-57860761D01*
X115050000Y-58139239D01*
X115156568Y-58396518D01*
X115353482Y-58593432D01*
X115610761Y-58700000D01*
X115889239Y-58700000D01*
X116146518Y-58593432D01*
X116343432Y-58396518D01*
X116450000Y-58139239D01*
X116450000Y-57860761D01*
X116396108Y-57730653D01*
X126350000Y-57730653D01*
X126350000Y-57969347D01*
X126441344Y-58189873D01*
X126610127Y-58358656D01*
X126830653Y-58450000D01*
X127069347Y-58450000D01*
X127289873Y-58358656D01*
X127458656Y-58189873D01*
X127550000Y-57969347D01*
X127550000Y-57730653D01*
X127529290Y-57680653D01*
X131650000Y-57680653D01*
X131650000Y-57919347D01*
X131741344Y-58139873D01*
X131910127Y-58308656D01*
X132130653Y-58400000D01*
X132369347Y-58400000D01*
X132589873Y-58308656D01*
X132758656Y-58139873D01*
X132850000Y-57919347D01*
X132850000Y-57680653D01*
X132808580Y-57580653D01*
X143150000Y-57580653D01*
X143150000Y-57819347D01*
X143241344Y-58039873D01*
X143410127Y-58208656D01*
X143630653Y-58300000D01*
X143869347Y-58300000D01*
X144089873Y-58208656D01*
X144258656Y-58039873D01*
X144350000Y-57819347D01*
X144350000Y-57580653D01*
X144258656Y-57360127D01*
X144089873Y-57191344D01*
X143869347Y-57100000D01*
X143630653Y-57100000D01*
X143410127Y-57191344D01*
X143241344Y-57360127D01*
X143150000Y-57580653D01*
X132808580Y-57580653D01*
X132758656Y-57460127D01*
X132589873Y-57291344D01*
X132369347Y-57200000D01*
X132130653Y-57200000D01*
X131910127Y-57291344D01*
X131741344Y-57460127D01*
X131650000Y-57680653D01*
X127529290Y-57680653D01*
X127458656Y-57510127D01*
X127289873Y-57341344D01*
X127069347Y-57250000D01*
X126830653Y-57250000D01*
X126610127Y-57341344D01*
X126441344Y-57510127D01*
X126350000Y-57730653D01*
X116396108Y-57730653D01*
X116343432Y-57603482D01*
X116146518Y-57406568D01*
X115889239Y-57300000D01*
X115610761Y-57300000D01*
X115353482Y-57406568D01*
X115156568Y-57603482D01*
X115050000Y-57860761D01*
X100376295Y-57860761D01*
X100577311Y-57659745D01*
X100760000Y-57218695D01*
X100760000Y-56741305D01*
X100577311Y-56300255D01*
X100557709Y-56280653D01*
X124650000Y-56280653D01*
X124650000Y-56519347D01*
X124741344Y-56739873D01*
X124910127Y-56908656D01*
X125130653Y-57000000D01*
X125369347Y-57000000D01*
X125589873Y-56908656D01*
X125758656Y-56739873D01*
X125850000Y-56519347D01*
X125850000Y-56380653D01*
X129900000Y-56380653D01*
X129900000Y-56619347D01*
X129991344Y-56839873D01*
X130160127Y-57008656D01*
X130380653Y-57100000D01*
X130619347Y-57100000D01*
X130839873Y-57008656D01*
X131008656Y-56839873D01*
X131100000Y-56619347D01*
X131100000Y-56380653D01*
X131008656Y-56160127D01*
X130839873Y-55991344D01*
X130619347Y-55900000D01*
X130380653Y-55900000D01*
X130160127Y-55991344D01*
X129991344Y-56160127D01*
X129900000Y-56380653D01*
X125850000Y-56380653D01*
X125850000Y-56280653D01*
X125758656Y-56060127D01*
X125589873Y-55891344D01*
X125369347Y-55800000D01*
X125130653Y-55800000D01*
X124910127Y-55891344D01*
X124741344Y-56060127D01*
X124650000Y-56280653D01*
X100557709Y-56280653D01*
X100239745Y-55962689D01*
X99798695Y-55780000D01*
X99321305Y-55780000D01*
X98880255Y-55962689D01*
X98542689Y-56300255D01*
X98360000Y-56741305D01*
X90400000Y-56741305D01*
X90400000Y-53660761D01*
X148900000Y-53660761D01*
X148900000Y-53939239D01*
X149006568Y-54196518D01*
X149203482Y-54393432D01*
X149460761Y-54500000D01*
X149739239Y-54500000D01*
X149996518Y-54393432D01*
X150193432Y-54196518D01*
X150228953Y-54110761D01*
X155500000Y-54110761D01*
X155500000Y-54389239D01*
X155606568Y-54646518D01*
X155803482Y-54843432D01*
X156060761Y-54950000D01*
X156339239Y-54950000D01*
X156596518Y-54843432D01*
X156793432Y-54646518D01*
X156900000Y-54389239D01*
X156900000Y-54110761D01*
X156793432Y-53853482D01*
X156596518Y-53656568D01*
X156339239Y-53550000D01*
X156060761Y-53550000D01*
X155803482Y-53656568D01*
X155606568Y-53853482D01*
X155500000Y-54110761D01*
X150228953Y-54110761D01*
X150300000Y-53939239D01*
X150300000Y-53660761D01*
X150193432Y-53403482D01*
X149996518Y-53206568D01*
X149739239Y-53100000D01*
X149460761Y-53100000D01*
X149203482Y-53206568D01*
X149006568Y-53403482D01*
X148900000Y-53660761D01*
X90400000Y-53660761D01*
X90400000Y-51080653D01*
X149150000Y-51080653D01*
X149150000Y-51319347D01*
X149241344Y-51539873D01*
X149410127Y-51708656D01*
X149630653Y-51800000D01*
X149869347Y-51800000D01*
X150089873Y-51708656D01*
X150258656Y-51539873D01*
X150278728Y-51491414D01*
X160700000Y-51491414D01*
X160700000Y-52008586D01*
X160897913Y-52486391D01*
X161263609Y-52852087D01*
X161741414Y-53050000D01*
X162258586Y-53050000D01*
X162736391Y-52852087D01*
X163102087Y-52486391D01*
X163300000Y-52008586D01*
X163300000Y-51491414D01*
X163102087Y-51013609D01*
X162736391Y-50647913D01*
X162258586Y-50450000D01*
X161741414Y-50450000D01*
X161263609Y-50647913D01*
X160897913Y-51013609D01*
X160700000Y-51491414D01*
X150278728Y-51491414D01*
X150350000Y-51319347D01*
X150350000Y-51080653D01*
X150258656Y-50860127D01*
X150089873Y-50691344D01*
X149869347Y-50600000D01*
X149630653Y-50600000D01*
X149410127Y-50691344D01*
X149241344Y-50860127D01*
X149150000Y-51080653D01*
X90400000Y-51080653D01*
X90400000Y-48241414D01*
X96700000Y-48241414D01*
X96700000Y-48758586D01*
X96897913Y-49236391D01*
X97263609Y-49602087D01*
X97741414Y-49800000D01*
X98258586Y-49800000D01*
X98736391Y-49602087D01*
X99102087Y-49236391D01*
X99300000Y-48758586D01*
X99300000Y-48241414D01*
X99102087Y-47763609D01*
X98736391Y-47397913D01*
X98258586Y-47200000D01*
X97741414Y-47200000D01*
X97263609Y-47397913D01*
X96897913Y-47763609D01*
X96700000Y-48241414D01*
X90400000Y-48241414D01*
X90400000Y-46800000D01*
X113244123Y-46800000D01*
X113244123Y-49200000D01*
X113267407Y-49317054D01*
X113333712Y-49416288D01*
X113432946Y-49482593D01*
X113550000Y-49505877D01*
X115950000Y-49505877D01*
X116067054Y-49482593D01*
X116166288Y-49416288D01*
X116232593Y-49317054D01*
X116255877Y-49200000D01*
X116255877Y-47991414D01*
X160700000Y-47991414D01*
X160700000Y-48508586D01*
X160897913Y-48986391D01*
X161263609Y-49352087D01*
X161741414Y-49550000D01*
X162258586Y-49550000D01*
X162736391Y-49352087D01*
X163102087Y-48986391D01*
X163300000Y-48508586D01*
X163300000Y-47991414D01*
X163102087Y-47513609D01*
X162736391Y-47147913D01*
X162258586Y-46950000D01*
X161741414Y-46950000D01*
X161263609Y-47147913D01*
X160897913Y-47513609D01*
X160700000Y-47991414D01*
X116255877Y-47991414D01*
X116255877Y-46800000D01*
X116232593Y-46682946D01*
X116166288Y-46583712D01*
X116067054Y-46517407D01*
X115950000Y-46494123D01*
X113550000Y-46494123D01*
X113432946Y-46517407D01*
X113333712Y-46583712D01*
X113267407Y-46682946D01*
X113244123Y-46800000D01*
X90400000Y-46800000D01*
X90400000Y-44741414D01*
X96700000Y-44741414D01*
X96700000Y-45258586D01*
X96897913Y-45736391D01*
X97263609Y-46102087D01*
X97741414Y-46300000D01*
X98258586Y-46300000D01*
X98736391Y-46102087D01*
X99102087Y-45736391D01*
X99300000Y-45258586D01*
X99300000Y-44741414D01*
X99102087Y-44263609D01*
X98736391Y-43897913D01*
X98646698Y-43860761D01*
X122050000Y-43860761D01*
X122050000Y-44139239D01*
X122156568Y-44396518D01*
X122353482Y-44593432D01*
X122610761Y-44700000D01*
X122889239Y-44700000D01*
X122983970Y-44660761D01*
X148900000Y-44660761D01*
X148900000Y-44939239D01*
X149006568Y-45196518D01*
X149203482Y-45393432D01*
X149460761Y-45500000D01*
X149739239Y-45500000D01*
X149996518Y-45393432D01*
X150193432Y-45196518D01*
X150228953Y-45110761D01*
X155500000Y-45110761D01*
X155500000Y-45389239D01*
X155606568Y-45646518D01*
X155803482Y-45843432D01*
X156060761Y-45950000D01*
X156339239Y-45950000D01*
X156596518Y-45843432D01*
X156793432Y-45646518D01*
X156900000Y-45389239D01*
X156900000Y-45110761D01*
X156793432Y-44853482D01*
X156596518Y-44656568D01*
X156339239Y-44550000D01*
X156060761Y-44550000D01*
X155803482Y-44656568D01*
X155606568Y-44853482D01*
X155500000Y-45110761D01*
X150228953Y-45110761D01*
X150300000Y-44939239D01*
X150300000Y-44660761D01*
X150193432Y-44403482D01*
X149996518Y-44206568D01*
X149739239Y-44100000D01*
X149460761Y-44100000D01*
X149203482Y-44206568D01*
X149006568Y-44403482D01*
X148900000Y-44660761D01*
X122983970Y-44660761D01*
X123146518Y-44593432D01*
X123343432Y-44396518D01*
X123450000Y-44139239D01*
X123450000Y-43860761D01*
X123343432Y-43603482D01*
X123146518Y-43406568D01*
X122889239Y-43300000D01*
X122610761Y-43300000D01*
X122353482Y-43406568D01*
X122156568Y-43603482D01*
X122050000Y-43860761D01*
X98646698Y-43860761D01*
X98258586Y-43700000D01*
X97741414Y-43700000D01*
X97263609Y-43897913D01*
X96897913Y-44263609D01*
X96700000Y-44741414D01*
X90400000Y-44741414D01*
X90400000Y-42130653D01*
X149150000Y-42130653D01*
X149150000Y-42369347D01*
X149241344Y-42589873D01*
X149410127Y-42758656D01*
X149630653Y-42850000D01*
X149869347Y-42850000D01*
X150089873Y-42758656D01*
X150258656Y-42589873D01*
X150350000Y-42369347D01*
X150350000Y-42130653D01*
X150258656Y-41910127D01*
X150089873Y-41741344D01*
X149869347Y-41650000D01*
X149630653Y-41650000D01*
X149410127Y-41741344D01*
X149241344Y-41910127D01*
X149150000Y-42130653D01*
X90400000Y-42130653D01*
X90400000Y-38750000D01*
X111694123Y-38750000D01*
X111694123Y-40750000D01*
X111717407Y-40867054D01*
X111783712Y-40966288D01*
X111882946Y-41032593D01*
X112000000Y-41055877D01*
X114000000Y-41055877D01*
X114117054Y-41032593D01*
X114216288Y-40966288D01*
X114282593Y-40867054D01*
X114305877Y-40750000D01*
X114305877Y-40460761D01*
X143250000Y-40460761D01*
X143250000Y-40739239D01*
X143356568Y-40996518D01*
X143553482Y-41193432D01*
X143810761Y-41300000D01*
X144089239Y-41300000D01*
X144346518Y-41193432D01*
X144543432Y-40996518D01*
X144650000Y-40739239D01*
X144650000Y-40460761D01*
X144543432Y-40203482D01*
X144346518Y-40006568D01*
X144089239Y-39900000D01*
X143810761Y-39900000D01*
X143553482Y-40006568D01*
X143356568Y-40203482D01*
X143250000Y-40460761D01*
X114305877Y-40460761D01*
X114305877Y-38750000D01*
X114282593Y-38632946D01*
X114281061Y-38630653D01*
X138850000Y-38630653D01*
X138850000Y-38869347D01*
X138941344Y-39089873D01*
X139110127Y-39258656D01*
X139330653Y-39350000D01*
X139569347Y-39350000D01*
X139789873Y-39258656D01*
X139958656Y-39089873D01*
X140050000Y-38869347D01*
X140050000Y-38630653D01*
X139958656Y-38410127D01*
X139789873Y-38241344D01*
X139569347Y-38150000D01*
X139330653Y-38150000D01*
X139110127Y-38241344D01*
X138941344Y-38410127D01*
X138850000Y-38630653D01*
X114281061Y-38630653D01*
X114216288Y-38533712D01*
X114117054Y-38467407D01*
X114000000Y-38444123D01*
X112000000Y-38444123D01*
X111882946Y-38467407D01*
X111783712Y-38533712D01*
X111717407Y-38632946D01*
X111694123Y-38750000D01*
X90400000Y-38750000D01*
X90400000Y-37380653D01*
X138850000Y-37380653D01*
X138850000Y-37619347D01*
X138941344Y-37839873D01*
X139110127Y-38008656D01*
X139330653Y-38100000D01*
X139569347Y-38100000D01*
X139789873Y-38008656D01*
X139958656Y-37839873D01*
X140050000Y-37619347D01*
X140050000Y-37380653D01*
X139958656Y-37160127D01*
X139789873Y-36991344D01*
X139569347Y-36900000D01*
X139330653Y-36900000D01*
X139110127Y-36991344D01*
X138941344Y-37160127D01*
X138850000Y-37380653D01*
X90400000Y-37380653D01*
X90400000Y-35660761D01*
X148900000Y-35660761D01*
X148900000Y-35939239D01*
X149006568Y-36196518D01*
X149203482Y-36393432D01*
X149460761Y-36500000D01*
X149739239Y-36500000D01*
X149996518Y-36393432D01*
X150193432Y-36196518D01*
X150228953Y-36110761D01*
X155500000Y-36110761D01*
X155500000Y-36389239D01*
X155606568Y-36646518D01*
X155803482Y-36843432D01*
X156060761Y-36950000D01*
X156339239Y-36950000D01*
X156596518Y-36843432D01*
X156793432Y-36646518D01*
X156900000Y-36389239D01*
X156900000Y-36110761D01*
X156793432Y-35853482D01*
X156596518Y-35656568D01*
X156339239Y-35550000D01*
X156060761Y-35550000D01*
X155803482Y-35656568D01*
X155606568Y-35853482D01*
X155500000Y-36110761D01*
X150228953Y-36110761D01*
X150300000Y-35939239D01*
X150300000Y-35660761D01*
X150193432Y-35403482D01*
X149996518Y-35206568D01*
X149739239Y-35100000D01*
X149460761Y-35100000D01*
X149203482Y-35206568D01*
X149006568Y-35403482D01*
X148900000Y-35660761D01*
X90400000Y-35660761D01*
X90400000Y-30400000D01*
X169600001Y-30400000D01*
X169600001Y-72650000D01*
X169600001Y-72650000D01*
G37*
X169600001Y-72650000D02*
X149240059Y-72650000D01*
X149339873Y-72608656D01*
X149508656Y-72439873D01*
X149600000Y-72219347D01*
X149600000Y-71980653D01*
X149508656Y-71760127D01*
X149339873Y-71591344D01*
X149119347Y-71500000D01*
X148880653Y-71500000D01*
X148660127Y-71591344D01*
X148491344Y-71760127D01*
X148400000Y-71980653D01*
X148400000Y-72219347D01*
X148491344Y-72439873D01*
X148660127Y-72608656D01*
X148759941Y-72650000D01*
X146500000Y-72650000D01*
X146461732Y-72657612D01*
X146429289Y-72679289D01*
X146407612Y-72711732D01*
X146400000Y-72750000D01*
X146400000Y-73250000D01*
X146407612Y-73288268D01*
X146429289Y-73320711D01*
X146461732Y-73342388D01*
X146500000Y-73350000D01*
X169600001Y-73350000D01*
X169600000Y-129600000D01*
X90400000Y-129600000D01*
X90400000Y-124100000D01*
X99150000Y-124100000D01*
X99150000Y-126250000D01*
X99157612Y-126288268D01*
X99179289Y-126320711D01*
X99211732Y-126342388D01*
X99250000Y-126350000D01*
X120250000Y-126350000D01*
X120288268Y-126342388D01*
X120320711Y-126320711D01*
X120342388Y-126288268D01*
X120350000Y-126250000D01*
X120350000Y-120880653D01*
X125950000Y-120880653D01*
X125950000Y-121119347D01*
X126041344Y-121339873D01*
X126210127Y-121508656D01*
X126430653Y-121600000D01*
X126669347Y-121600000D01*
X126889873Y-121508656D01*
X127058656Y-121339873D01*
X127150000Y-121119347D01*
X127150000Y-120880653D01*
X127058656Y-120660127D01*
X126889873Y-120491344D01*
X126669347Y-120400000D01*
X126430653Y-120400000D01*
X126210127Y-120491344D01*
X126041344Y-120660127D01*
X125950000Y-120880653D01*
X120350000Y-120880653D01*
X120350000Y-118080653D01*
X126500000Y-118080653D01*
X126500000Y-118319347D01*
X126591344Y-118539873D01*
X126760127Y-118708656D01*
X126980653Y-118800000D01*
X127219347Y-118800000D01*
X127439873Y-118708656D01*
X127608656Y-118539873D01*
X127700000Y-118319347D01*
X127700000Y-118080653D01*
X127608656Y-117860127D01*
X127439873Y-117691344D01*
X127219347Y-117600000D01*
X126980653Y-117600000D01*
X126760127Y-117691344D01*
X126591344Y-117860127D01*
X126500000Y-118080653D01*
X120350000Y-118080653D01*
X120350000Y-115980653D01*
X124900000Y-115980653D01*
X124900000Y-116219347D01*
X124991344Y-116439873D01*
X125160127Y-116608656D01*
X125345297Y-116685355D01*
X125210127Y-116741344D01*
X125041344Y-116910127D01*
X124950000Y-117130653D01*
X124950000Y-117369347D01*
X125041344Y-117589873D01*
X125210127Y-117758656D01*
X125430653Y-117850000D01*
X125669347Y-117850000D01*
X125889873Y-117758656D01*
X126058656Y-117589873D01*
X126150000Y-117369347D01*
X126150000Y-117130653D01*
X126058656Y-116910127D01*
X125889873Y-116741344D01*
X125864063Y-116730653D01*
X141350000Y-116730653D01*
X141350000Y-116969347D01*
X141441344Y-117189873D01*
X141610127Y-117358656D01*
X141830653Y-117450000D01*
X142069347Y-117450000D01*
X142289873Y-117358656D01*
X142458656Y-117189873D01*
X142550000Y-116969347D01*
X142550000Y-116730653D01*
X142458656Y-116510127D01*
X142289873Y-116341344D01*
X142069347Y-116250000D01*
X141830653Y-116250000D01*
X141610127Y-116341344D01*
X141441344Y-116510127D01*
X141350000Y-116730653D01*
X125864063Y-116730653D01*
X125704703Y-116664645D01*
X125839873Y-116608656D01*
X126008656Y-116439873D01*
X126100000Y-116219347D01*
X126100000Y-115980653D01*
X126008656Y-115760127D01*
X125839873Y-115591344D01*
X125619347Y-115500000D01*
X125380653Y-115500000D01*
X125160127Y-115591344D01*
X124991344Y-115760127D01*
X124900000Y-115980653D01*
X120350000Y-115980653D01*
X120350000Y-114730653D01*
X124600000Y-114730653D01*
X124600000Y-114969347D01*
X124691344Y-115189873D01*
X124860127Y-115358656D01*
X125080653Y-115450000D01*
X125319347Y-115450000D01*
X125539873Y-115358656D01*
X125708656Y-115189873D01*
X125800000Y-114969347D01*
X125800000Y-114730653D01*
X125708656Y-114510127D01*
X125539873Y-114341344D01*
X125319347Y-114250000D01*
X125080653Y-114250000D01*
X124860127Y-114341344D01*
X124691344Y-114510127D01*
X124600000Y-114730653D01*
X120350000Y-114730653D01*
X120350000Y-112130653D01*
X142150000Y-112130653D01*
X142150000Y-112369347D01*
X142241344Y-112589873D01*
X142410127Y-112758656D01*
X142630653Y-112850000D01*
X142869347Y-112850000D01*
X143089873Y-112758656D01*
X143258656Y-112589873D01*
X143350000Y-112369347D01*
X143350000Y-112130653D01*
X144650000Y-112130653D01*
X144650000Y-112369347D01*
X144741344Y-112589873D01*
X144910127Y-112758656D01*
X145130653Y-112850000D01*
X145369347Y-112850000D01*
X145589873Y-112758656D01*
X145612088Y-112736441D01*
X163675000Y-112736441D01*
X163675000Y-113263559D01*
X163876719Y-113750552D01*
X164249448Y-114123281D01*
X164736441Y-114325000D01*
X165263559Y-114325000D01*
X165750552Y-114123281D01*
X166123281Y-113750552D01*
X166325000Y-113263559D01*
X166325000Y-112736441D01*
X166123281Y-112249448D01*
X165750552Y-111876719D01*
X165263559Y-111675000D01*
X164736441Y-111675000D01*
X164249448Y-111876719D01*
X163876719Y-112249448D01*
X163675000Y-112736441D01*
X145612088Y-112736441D01*
X145758656Y-112589873D01*
X145850000Y-112369347D01*
X145850000Y-112130653D01*
X145758656Y-111910127D01*
X145589873Y-111741344D01*
X145369347Y-111650000D01*
X145130653Y-111650000D01*
X144910127Y-111741344D01*
X144741344Y-111910127D01*
X144650000Y-112130653D01*
X143350000Y-112130653D01*
X143258656Y-111910127D01*
X143089873Y-111741344D01*
X142869347Y-111650000D01*
X142630653Y-111650000D01*
X142410127Y-111741344D01*
X142241344Y-111910127D01*
X142150000Y-112130653D01*
X120350000Y-112130653D01*
X120350000Y-110780653D01*
X134450000Y-110780653D01*
X134450000Y-111019347D01*
X134541344Y-111239873D01*
X134710127Y-111408656D01*
X134930653Y-111500000D01*
X135169347Y-111500000D01*
X135389873Y-111408656D01*
X135558656Y-111239873D01*
X135650000Y-111019347D01*
X135650000Y-110780653D01*
X135558656Y-110560127D01*
X135389873Y-110391344D01*
X135169347Y-110300000D01*
X134930653Y-110300000D01*
X134710127Y-110391344D01*
X134541344Y-110560127D01*
X134450000Y-110780653D01*
X120350000Y-110780653D01*
X120350000Y-110230653D01*
X135600000Y-110230653D01*
X135600000Y-110469347D01*
X135691344Y-110689873D01*
X135860127Y-110858656D01*
X136080653Y-110950000D01*
X136319347Y-110950000D01*
X136539873Y-110858656D01*
X136708656Y-110689873D01*
X136800000Y-110469347D01*
X136800000Y-110230653D01*
X136717159Y-110030653D01*
X137400000Y-110030653D01*
X137400000Y-110269347D01*
X137491344Y-110489873D01*
X137660127Y-110658656D01*
X137753952Y-110697519D01*
X137691344Y-110760127D01*
X137600000Y-110980653D01*
X137600000Y-111219347D01*
X137691344Y-111439873D01*
X137860127Y-111608656D01*
X138080653Y-111700000D01*
X138319347Y-111700000D01*
X138539873Y-111608656D01*
X138708656Y-111439873D01*
X138800000Y-111219347D01*
X138800000Y-110980653D01*
X138708656Y-110760127D01*
X138539873Y-110591344D01*
X138446048Y-110552481D01*
X138508656Y-110489873D01*
X138600000Y-110269347D01*
X138600000Y-110030653D01*
X138508656Y-109810127D01*
X138339873Y-109641344D01*
X138119347Y-109550000D01*
X137880653Y-109550000D01*
X137660127Y-109641344D01*
X137491344Y-109810127D01*
X137400000Y-110030653D01*
X136717159Y-110030653D01*
X136708656Y-110010127D01*
X136539873Y-109841344D01*
X136319347Y-109750000D01*
X136080653Y-109750000D01*
X135860127Y-109841344D01*
X135691344Y-110010127D01*
X135600000Y-110230653D01*
X120350000Y-110230653D01*
X120350000Y-108230653D01*
X130950000Y-108230653D01*
X130950000Y-108469347D01*
X131041344Y-108689873D01*
X131210127Y-108858656D01*
X131430653Y-108950000D01*
X131669347Y-108950000D01*
X131889873Y-108858656D01*
X132000000Y-108748529D01*
X132000000Y-108769347D01*
X132091344Y-108989873D01*
X132260127Y-109158656D01*
X132480653Y-109250000D01*
X132719347Y-109250000D01*
X132939873Y-109158656D01*
X133108656Y-108989873D01*
X133200000Y-108769347D01*
X133200000Y-108530653D01*
X133108656Y-108310127D01*
X132939873Y-108141344D01*
X132719347Y-108050000D01*
X132480653Y-108050000D01*
X132260127Y-108141344D01*
X132150000Y-108251471D01*
X132150000Y-108230653D01*
X132058656Y-108010127D01*
X131889873Y-107841344D01*
X131669347Y-107750000D01*
X131430653Y-107750000D01*
X131210127Y-107841344D01*
X131041344Y-108010127D01*
X130950000Y-108230653D01*
X120350000Y-108230653D01*
X120350000Y-107530653D01*
X139250000Y-107530653D01*
X139250000Y-107769347D01*
X139341344Y-107989873D01*
X139510127Y-108158656D01*
X139730653Y-108250000D01*
X139969347Y-108250000D01*
X140189873Y-108158656D01*
X140358656Y-107989873D01*
X140450000Y-107769347D01*
X140450000Y-107530653D01*
X140358656Y-107310127D01*
X140189873Y-107141344D01*
X139969347Y-107050000D01*
X139730653Y-107050000D01*
X139510127Y-107141344D01*
X139341344Y-107310127D01*
X139250000Y-107530653D01*
X120350000Y-107530653D01*
X120350000Y-104230653D01*
X152400000Y-104230653D01*
X152400000Y-104469347D01*
X152491344Y-104689873D01*
X152660127Y-104858656D01*
X152880653Y-104950000D01*
X153119347Y-104950000D01*
X153339873Y-104858656D01*
X153508656Y-104689873D01*
X153600000Y-104469347D01*
X153600000Y-104230653D01*
X153508656Y-104010127D01*
X153339873Y-103841344D01*
X153119347Y-103750000D01*
X152880653Y-103750000D01*
X152660127Y-103841344D01*
X152491344Y-104010127D01*
X152400000Y-104230653D01*
X120350000Y-104230653D01*
X120350000Y-103230653D01*
X135150000Y-103230653D01*
X135150000Y-103469347D01*
X135241344Y-103689873D01*
X135410127Y-103858656D01*
X135630653Y-103950000D01*
X135869347Y-103950000D01*
X136089873Y-103858656D01*
X136258656Y-103689873D01*
X136350000Y-103469347D01*
X136350000Y-103230653D01*
X136258656Y-103010127D01*
X136089873Y-102841344D01*
X135869347Y-102750000D01*
X135630653Y-102750000D01*
X135410127Y-102841344D01*
X135241344Y-103010127D01*
X135150000Y-103230653D01*
X120350000Y-103230653D01*
X120350000Y-101630653D01*
X137300000Y-101630653D01*
X137300000Y-101869347D01*
X137391344Y-102089873D01*
X137560127Y-102258656D01*
X137780653Y-102350000D01*
X138019347Y-102350000D01*
X138159541Y-102291930D01*
X138141344Y-102310127D01*
X138050000Y-102530653D01*
X138050000Y-102769347D01*
X138141344Y-102989873D01*
X138310127Y-103158656D01*
X138530653Y-103250000D01*
X138769347Y-103250000D01*
X138989873Y-103158656D01*
X139158656Y-102989873D01*
X139250000Y-102769347D01*
X139250000Y-102530653D01*
X139158656Y-102310127D01*
X138989873Y-102141344D01*
X138769347Y-102050000D01*
X138989873Y-101958656D01*
X139158656Y-101789873D01*
X139250000Y-101569347D01*
X139250000Y-101330653D01*
X139158656Y-101110127D01*
X138989873Y-100941344D01*
X138769347Y-100850000D01*
X138530653Y-100850000D01*
X138310127Y-100941344D01*
X138141344Y-101110127D01*
X138109381Y-101187293D01*
X138019347Y-101150000D01*
X137780653Y-101150000D01*
X137560127Y-101241344D01*
X137391344Y-101410127D01*
X137300000Y-101630653D01*
X120350000Y-101630653D01*
X120350000Y-100380653D01*
X153600000Y-100380653D01*
X153600000Y-100619347D01*
X153691344Y-100839873D01*
X153860127Y-101008656D01*
X154080653Y-101100000D01*
X154319347Y-101100000D01*
X154539873Y-101008656D01*
X154708656Y-100839873D01*
X154800000Y-100619347D01*
X154800000Y-100380653D01*
X154708656Y-100160127D01*
X154539873Y-99991344D01*
X154319347Y-99900000D01*
X154080653Y-99900000D01*
X153860127Y-99991344D01*
X153691344Y-100160127D01*
X153600000Y-100380653D01*
X120350000Y-100380653D01*
X120350000Y-99750000D01*
X120342388Y-99711732D01*
X120320711Y-99679289D01*
X120288268Y-99657612D01*
X120250000Y-99650000D01*
X116600000Y-99650000D01*
X116600000Y-98750000D01*
X116592388Y-98711732D01*
X116570711Y-98679289D01*
X116538268Y-98657612D01*
X116500000Y-98650000D01*
X108350000Y-98650000D01*
X108350000Y-98380653D01*
X143450000Y-98380653D01*
X143450000Y-98619347D01*
X143541344Y-98839873D01*
X143710127Y-99008656D01*
X143930653Y-99100000D01*
X144169347Y-99100000D01*
X144389873Y-99008656D01*
X144558656Y-98839873D01*
X144650000Y-98619347D01*
X144650000Y-98380653D01*
X144558656Y-98160127D01*
X144389873Y-97991344D01*
X144169347Y-97900000D01*
X143930653Y-97900000D01*
X143710127Y-97991344D01*
X143541344Y-98160127D01*
X143450000Y-98380653D01*
X108350000Y-98380653D01*
X108350000Y-96195437D01*
X109799586Y-96195437D01*
X109799586Y-96434131D01*
X109890930Y-96654657D01*
X110059713Y-96823440D01*
X110280239Y-96914784D01*
X110518933Y-96914784D01*
X110739459Y-96823440D01*
X110908242Y-96654657D01*
X110999586Y-96434131D01*
X110999586Y-96195437D01*
X110908242Y-95974911D01*
X110739459Y-95806128D01*
X110518933Y-95714784D01*
X110280239Y-95714784D01*
X110059713Y-95806128D01*
X109890930Y-95974911D01*
X109799586Y-96195437D01*
X108350000Y-96195437D01*
X108350000Y-95080653D01*
X120900000Y-95080653D01*
X120900000Y-95319347D01*
X120991344Y-95539873D01*
X121160127Y-95708656D01*
X121380653Y-95800000D01*
X121619347Y-95800000D01*
X121839873Y-95708656D01*
X122008656Y-95539873D01*
X122100000Y-95319347D01*
X122100000Y-95080653D01*
X122008656Y-94860127D01*
X121839873Y-94691344D01*
X121619347Y-94600000D01*
X121380653Y-94600000D01*
X121160127Y-94691344D01*
X120991344Y-94860127D01*
X120900000Y-95080653D01*
X108350000Y-95080653D01*
X108350000Y-93880653D01*
X122900000Y-93880653D01*
X122900000Y-94119347D01*
X122991344Y-94339873D01*
X123160127Y-94508656D01*
X123380653Y-94600000D01*
X123619347Y-94600000D01*
X123839873Y-94508656D01*
X124008656Y-94339873D01*
X124029290Y-94290059D01*
X124091344Y-94439873D01*
X124260127Y-94608656D01*
X124480653Y-94700000D01*
X124719347Y-94700000D01*
X124939873Y-94608656D01*
X125108656Y-94439873D01*
X125200000Y-94219347D01*
X125200000Y-93980653D01*
X125108656Y-93760127D01*
X124979182Y-93630653D01*
X125550000Y-93630653D01*
X125550000Y-93869347D01*
X125641344Y-94089873D01*
X125751471Y-94200000D01*
X125691344Y-94260127D01*
X125600000Y-94480653D01*
X125600000Y-94719347D01*
X125691344Y-94939873D01*
X125776471Y-95025000D01*
X125691344Y-95110127D01*
X125600000Y-95330653D01*
X125600000Y-95569347D01*
X125691344Y-95789873D01*
X125860127Y-95958656D01*
X125899585Y-95975000D01*
X125860127Y-95991344D01*
X125691344Y-96160127D01*
X125600000Y-96380653D01*
X125600000Y-96619347D01*
X125691344Y-96839873D01*
X125860127Y-97008656D01*
X126080653Y-97100000D01*
X126319347Y-97100000D01*
X126539873Y-97008656D01*
X126708656Y-96839873D01*
X126795316Y-96630653D01*
X146450000Y-96630653D01*
X146450000Y-96869347D01*
X146541344Y-97089873D01*
X146710127Y-97258656D01*
X146930653Y-97350000D01*
X147169347Y-97350000D01*
X147389873Y-97258656D01*
X147558656Y-97089873D01*
X147650000Y-96869347D01*
X147650000Y-96736441D01*
X163675000Y-96736441D01*
X163675000Y-97263559D01*
X163876719Y-97750552D01*
X164249448Y-98123281D01*
X164736441Y-98325000D01*
X165263559Y-98325000D01*
X165750552Y-98123281D01*
X166123281Y-97750552D01*
X166325000Y-97263559D01*
X166325000Y-96736441D01*
X166123281Y-96249448D01*
X165750552Y-95876719D01*
X165263559Y-95675000D01*
X164736441Y-95675000D01*
X164249448Y-95876719D01*
X163876719Y-96249448D01*
X163675000Y-96736441D01*
X147650000Y-96736441D01*
X147650000Y-96630653D01*
X147558656Y-96410127D01*
X147389873Y-96241344D01*
X147169347Y-96150000D01*
X146930653Y-96150000D01*
X146710127Y-96241344D01*
X146541344Y-96410127D01*
X146450000Y-96630653D01*
X126795316Y-96630653D01*
X126800000Y-96619347D01*
X126800000Y-96380653D01*
X126708656Y-96160127D01*
X126539873Y-95991344D01*
X126500415Y-95975000D01*
X126539873Y-95958656D01*
X126708656Y-95789873D01*
X126800000Y-95569347D01*
X126800000Y-95330653D01*
X126708656Y-95110127D01*
X126623529Y-95025000D01*
X126708656Y-94939873D01*
X126800000Y-94719347D01*
X126800000Y-94480653D01*
X126708656Y-94260127D01*
X126598529Y-94150000D01*
X126658656Y-94089873D01*
X126750000Y-93869347D01*
X126750000Y-93630653D01*
X126658656Y-93410127D01*
X126489873Y-93241344D01*
X126269347Y-93150000D01*
X126030653Y-93150000D01*
X125810127Y-93241344D01*
X125641344Y-93410127D01*
X125550000Y-93630653D01*
X124979182Y-93630653D01*
X124939873Y-93591344D01*
X124719347Y-93500000D01*
X124480653Y-93500000D01*
X124260127Y-93591344D01*
X124091344Y-93760127D01*
X124070710Y-93809941D01*
X124008656Y-93660127D01*
X123839873Y-93491344D01*
X123619347Y-93400000D01*
X123380653Y-93400000D01*
X123160127Y-93491344D01*
X122991344Y-93660127D01*
X122900000Y-93880653D01*
X108350000Y-93880653D01*
X108350000Y-90830653D01*
X124650000Y-90830653D01*
X124650000Y-91069347D01*
X124741344Y-91289873D01*
X124910127Y-91458656D01*
X125130653Y-91550000D01*
X125280653Y-91550000D01*
X125060127Y-91641344D01*
X124891344Y-91810127D01*
X124800000Y-92030653D01*
X124800000Y-92269347D01*
X124891344Y-92489873D01*
X125060127Y-92658656D01*
X125280653Y-92750000D01*
X125519347Y-92750000D01*
X125739873Y-92658656D01*
X125908656Y-92489873D01*
X126000000Y-92269347D01*
X126000000Y-92130653D01*
X143400000Y-92130653D01*
X143400000Y-92369347D01*
X143491344Y-92589873D01*
X143660127Y-92758656D01*
X143880653Y-92850000D01*
X144119347Y-92850000D01*
X144339873Y-92758656D01*
X144508656Y-92589873D01*
X144600000Y-92369347D01*
X144600000Y-92130653D01*
X144508656Y-91910127D01*
X144339873Y-91741344D01*
X144119347Y-91650000D01*
X143880653Y-91650000D01*
X143660127Y-91741344D01*
X143491344Y-91910127D01*
X143400000Y-92130653D01*
X126000000Y-92130653D01*
X126000000Y-92030653D01*
X125908656Y-91810127D01*
X125739873Y-91641344D01*
X125519347Y-91550000D01*
X125369347Y-91550000D01*
X125589873Y-91458656D01*
X125758656Y-91289873D01*
X125850000Y-91069347D01*
X125850000Y-90830653D01*
X125758656Y-90610127D01*
X125589873Y-90441344D01*
X125369347Y-90350000D01*
X125130653Y-90350000D01*
X124910127Y-90441344D01*
X124741344Y-90610127D01*
X124650000Y-90830653D01*
X108350000Y-90830653D01*
X108350000Y-88880653D01*
X113600000Y-88880653D01*
X113600000Y-89119347D01*
X113691344Y-89339873D01*
X113860127Y-89508656D01*
X114080653Y-89600000D01*
X114301471Y-89600000D01*
X114291344Y-89610127D01*
X114200000Y-89830653D01*
X114200000Y-90069347D01*
X114291344Y-90289873D01*
X114460127Y-90458656D01*
X114680653Y-90550000D01*
X114919347Y-90550000D01*
X115139873Y-90458656D01*
X115308656Y-90289873D01*
X115400000Y-90069347D01*
X115400000Y-89830653D01*
X115308656Y-89610127D01*
X115139873Y-89441344D01*
X114919347Y-89350000D01*
X114698529Y-89350000D01*
X114708656Y-89339873D01*
X114712475Y-89330653D01*
X116050000Y-89330653D01*
X116050000Y-89569347D01*
X116141344Y-89789873D01*
X116310127Y-89958656D01*
X116530653Y-90050000D01*
X116769347Y-90050000D01*
X116989873Y-89958656D01*
X117158656Y-89789873D01*
X117250000Y-89569347D01*
X117250000Y-89330653D01*
X117158656Y-89110127D01*
X116989873Y-88941344D01*
X116769347Y-88850000D01*
X116530653Y-88850000D01*
X116310127Y-88941344D01*
X116141344Y-89110127D01*
X116050000Y-89330653D01*
X114712475Y-89330653D01*
X114800000Y-89119347D01*
X114800000Y-88880653D01*
X114708656Y-88660127D01*
X114579182Y-88530653D01*
X118300000Y-88530653D01*
X118300000Y-88769347D01*
X118391344Y-88989873D01*
X118560127Y-89158656D01*
X118780653Y-89250000D01*
X119019347Y-89250000D01*
X119239873Y-89158656D01*
X119408656Y-88989873D01*
X119412475Y-88980653D01*
X122250000Y-88980653D01*
X122250000Y-89219347D01*
X122341344Y-89439873D01*
X122510127Y-89608656D01*
X122730653Y-89700000D01*
X122969347Y-89700000D01*
X123189873Y-89608656D01*
X123358656Y-89439873D01*
X123450000Y-89219347D01*
X123450000Y-88980653D01*
X123358656Y-88760127D01*
X123189873Y-88591344D01*
X122969347Y-88500000D01*
X122730653Y-88500000D01*
X122510127Y-88591344D01*
X122341344Y-88760127D01*
X122250000Y-88980653D01*
X119412475Y-88980653D01*
X119500000Y-88769347D01*
X119500000Y-88530653D01*
X119408656Y-88310127D01*
X119239873Y-88141344D01*
X119019347Y-88050000D01*
X118780653Y-88050000D01*
X118560127Y-88141344D01*
X118391344Y-88310127D01*
X118300000Y-88530653D01*
X114579182Y-88530653D01*
X114539873Y-88491344D01*
X114319347Y-88400000D01*
X114080653Y-88400000D01*
X113860127Y-88491344D01*
X113691344Y-88660127D01*
X113600000Y-88880653D01*
X108350000Y-88880653D01*
X108350000Y-86630653D01*
X111650000Y-86630653D01*
X111650000Y-86869347D01*
X111741344Y-87089873D01*
X111910127Y-87258656D01*
X112130653Y-87350000D01*
X112250000Y-87350000D01*
X112250000Y-87569347D01*
X112341344Y-87789873D01*
X112510127Y-87958656D01*
X112730653Y-88050000D01*
X112969347Y-88050000D01*
X113189873Y-87958656D01*
X113358656Y-87789873D01*
X113362475Y-87780653D01*
X149150000Y-87780653D01*
X149150000Y-88019347D01*
X149241344Y-88239873D01*
X149410127Y-88408656D01*
X149630653Y-88500000D01*
X149869347Y-88500000D01*
X150089873Y-88408656D01*
X150258656Y-88239873D01*
X150350000Y-88019347D01*
X150350000Y-87780653D01*
X150258656Y-87560127D01*
X150089873Y-87391344D01*
X149869347Y-87300000D01*
X149630653Y-87300000D01*
X149410127Y-87391344D01*
X149241344Y-87560127D01*
X149150000Y-87780653D01*
X113362475Y-87780653D01*
X113450000Y-87569347D01*
X113450000Y-87330653D01*
X113367159Y-87130653D01*
X159650000Y-87130653D01*
X159650000Y-87369347D01*
X159741344Y-87589873D01*
X159910127Y-87758656D01*
X160130653Y-87850000D01*
X160369347Y-87850000D01*
X160589873Y-87758656D01*
X160758656Y-87589873D01*
X160850000Y-87369347D01*
X160850000Y-87130653D01*
X160821208Y-87061142D01*
X164450000Y-87061142D01*
X164450000Y-87478858D01*
X164609853Y-87864777D01*
X164905223Y-88160147D01*
X165291142Y-88320000D01*
X165708858Y-88320000D01*
X166094777Y-88160147D01*
X166390147Y-87864777D01*
X166550000Y-87478858D01*
X166550000Y-87061142D01*
X166390147Y-86675223D01*
X166094777Y-86379853D01*
X165708858Y-86220000D01*
X165291142Y-86220000D01*
X164905223Y-86379853D01*
X164609853Y-86675223D01*
X164450000Y-87061142D01*
X160821208Y-87061142D01*
X160758656Y-86910127D01*
X160589873Y-86741344D01*
X160369347Y-86650000D01*
X160130653Y-86650000D01*
X159910127Y-86741344D01*
X159741344Y-86910127D01*
X159650000Y-87130653D01*
X113367159Y-87130653D01*
X113358656Y-87110127D01*
X113189873Y-86941344D01*
X112969347Y-86850000D01*
X112850000Y-86850000D01*
X112850000Y-86630653D01*
X112758656Y-86410127D01*
X112729182Y-86380653D01*
X113400000Y-86380653D01*
X113400000Y-86619347D01*
X113491344Y-86839873D01*
X113660127Y-87008656D01*
X113880653Y-87100000D01*
X114119347Y-87100000D01*
X114339873Y-87008656D01*
X114508656Y-86839873D01*
X114600000Y-86619347D01*
X114600000Y-86380653D01*
X114508656Y-86160127D01*
X114479182Y-86130653D01*
X115650000Y-86130653D01*
X115650000Y-86369347D01*
X115741344Y-86589873D01*
X115910127Y-86758656D01*
X116130653Y-86850000D01*
X116369347Y-86850000D01*
X116589873Y-86758656D01*
X116758656Y-86589873D01*
X116850000Y-86369347D01*
X116850000Y-86130653D01*
X116758656Y-85910127D01*
X116589873Y-85741344D01*
X116369347Y-85650000D01*
X116130653Y-85650000D01*
X115910127Y-85741344D01*
X115741344Y-85910127D01*
X115650000Y-86130653D01*
X114479182Y-86130653D01*
X114339873Y-85991344D01*
X114119347Y-85900000D01*
X113880653Y-85900000D01*
X113660127Y-85991344D01*
X113491344Y-86160127D01*
X113400000Y-86380653D01*
X112729182Y-86380653D01*
X112589873Y-86241344D01*
X112369347Y-86150000D01*
X112130653Y-86150000D01*
X111910127Y-86241344D01*
X111741344Y-86410127D01*
X111650000Y-86630653D01*
X108350000Y-86630653D01*
X108350000Y-85380653D01*
X111250000Y-85380653D01*
X111250000Y-85619347D01*
X111341344Y-85839873D01*
X111510127Y-86008656D01*
X111730653Y-86100000D01*
X111969347Y-86100000D01*
X112189873Y-86008656D01*
X112358656Y-85839873D01*
X112450000Y-85619347D01*
X112450000Y-85380653D01*
X112358656Y-85160127D01*
X112329182Y-85130653D01*
X119650000Y-85130653D01*
X119650000Y-85369347D01*
X119741344Y-85589873D01*
X119910127Y-85758656D01*
X120130653Y-85850000D01*
X120369347Y-85850000D01*
X120589873Y-85758656D01*
X120750000Y-85598529D01*
X120901471Y-85750000D01*
X120741344Y-85910127D01*
X120650000Y-86130653D01*
X120650000Y-86369347D01*
X120741344Y-86589873D01*
X120910127Y-86758656D01*
X121130653Y-86850000D01*
X121369347Y-86850000D01*
X121589873Y-86758656D01*
X121758656Y-86589873D01*
X121850000Y-86369347D01*
X121850000Y-86130653D01*
X121758656Y-85910127D01*
X121598529Y-85750000D01*
X121758656Y-85589873D01*
X121850000Y-85369347D01*
X121850000Y-85130653D01*
X122650000Y-85130653D01*
X122650000Y-85369347D01*
X122741344Y-85589873D01*
X122901471Y-85750000D01*
X122741344Y-85910127D01*
X122650000Y-86130653D01*
X122650000Y-86369347D01*
X122741344Y-86589873D01*
X122910127Y-86758656D01*
X123130653Y-86850000D01*
X123369347Y-86850000D01*
X123589873Y-86758656D01*
X123758656Y-86589873D01*
X123850000Y-86369347D01*
X123850000Y-86130653D01*
X127650000Y-86130653D01*
X127650000Y-86369347D01*
X127741344Y-86589873D01*
X127910127Y-86758656D01*
X128130653Y-86850000D01*
X128369347Y-86850000D01*
X128589873Y-86758656D01*
X128758656Y-86589873D01*
X128850000Y-86369347D01*
X128850000Y-86130653D01*
X128758656Y-85910127D01*
X128589873Y-85741344D01*
X128369347Y-85650000D01*
X128130653Y-85650000D01*
X127910127Y-85741344D01*
X127741344Y-85910127D01*
X127650000Y-86130653D01*
X123850000Y-86130653D01*
X123758656Y-85910127D01*
X123598529Y-85750000D01*
X123750000Y-85598529D01*
X123910127Y-85758656D01*
X124130653Y-85850000D01*
X124369347Y-85850000D01*
X124589873Y-85758656D01*
X124758656Y-85589873D01*
X124850000Y-85369347D01*
X124850000Y-85130653D01*
X124758656Y-84910127D01*
X124598529Y-84750000D01*
X124717876Y-84630653D01*
X133350000Y-84630653D01*
X133350000Y-84869347D01*
X133441344Y-85089873D01*
X133610127Y-85258656D01*
X133830653Y-85350000D01*
X134069347Y-85350000D01*
X134289873Y-85258656D01*
X134458656Y-85089873D01*
X134550000Y-84869347D01*
X134550000Y-84630653D01*
X134458656Y-84410127D01*
X134289873Y-84241344D01*
X134069347Y-84150000D01*
X133830653Y-84150000D01*
X133610127Y-84241344D01*
X133441344Y-84410127D01*
X133350000Y-84630653D01*
X124717876Y-84630653D01*
X124758656Y-84589873D01*
X124850000Y-84369347D01*
X124850000Y-84130653D01*
X124758656Y-83910127D01*
X124729182Y-83880653D01*
X135350000Y-83880653D01*
X135350000Y-84119347D01*
X135441344Y-84339873D01*
X135610127Y-84508656D01*
X135830653Y-84600000D01*
X136069347Y-84600000D01*
X136289873Y-84508656D01*
X136458656Y-84339873D01*
X136550000Y-84119347D01*
X136550000Y-83880653D01*
X136458656Y-83660127D01*
X136289873Y-83491344D01*
X136069347Y-83400000D01*
X135830653Y-83400000D01*
X135610127Y-83491344D01*
X135441344Y-83660127D01*
X135350000Y-83880653D01*
X124729182Y-83880653D01*
X124589873Y-83741344D01*
X124369347Y-83650000D01*
X124130653Y-83650000D01*
X123910127Y-83741344D01*
X123741344Y-83910127D01*
X123650000Y-84130653D01*
X123650000Y-84369347D01*
X123741344Y-84589873D01*
X123901471Y-84750000D01*
X123750000Y-84901471D01*
X123589873Y-84741344D01*
X123369347Y-84650000D01*
X123130653Y-84650000D01*
X122910127Y-84741344D01*
X122741344Y-84910127D01*
X122650000Y-85130653D01*
X121850000Y-85130653D01*
X121758656Y-84910127D01*
X121598529Y-84750000D01*
X121758656Y-84589873D01*
X121850000Y-84369347D01*
X121850000Y-84130653D01*
X121758656Y-83910127D01*
X121589873Y-83741344D01*
X121369347Y-83650000D01*
X121130653Y-83650000D01*
X120910127Y-83741344D01*
X120741344Y-83910127D01*
X120650000Y-84130653D01*
X120650000Y-84369347D01*
X120741344Y-84589873D01*
X120901471Y-84750000D01*
X120750000Y-84901471D01*
X120589873Y-84741344D01*
X120369347Y-84650000D01*
X120130653Y-84650000D01*
X119910127Y-84741344D01*
X119741344Y-84910127D01*
X119650000Y-85130653D01*
X112329182Y-85130653D01*
X112189873Y-84991344D01*
X111969347Y-84900000D01*
X111730653Y-84900000D01*
X111510127Y-84991344D01*
X111341344Y-85160127D01*
X111250000Y-85380653D01*
X108350000Y-85380653D01*
X108350000Y-84130653D01*
X111400000Y-84130653D01*
X111400000Y-84369347D01*
X111491344Y-84589873D01*
X111660127Y-84758656D01*
X111880653Y-84850000D01*
X112119347Y-84850000D01*
X112339873Y-84758656D01*
X112508656Y-84589873D01*
X112600000Y-84369347D01*
X112600000Y-84130653D01*
X112508656Y-83910127D01*
X112339873Y-83741344D01*
X112119347Y-83650000D01*
X111880653Y-83650000D01*
X111660127Y-83741344D01*
X111491344Y-83910127D01*
X111400000Y-84130653D01*
X108350000Y-84130653D01*
X108350000Y-83750000D01*
X108342388Y-83711732D01*
X108320711Y-83679289D01*
X107472075Y-82830653D01*
X111400000Y-82830653D01*
X111400000Y-83069347D01*
X111491344Y-83289873D01*
X111660127Y-83458656D01*
X111880653Y-83550000D01*
X112119347Y-83550000D01*
X112339873Y-83458656D01*
X112508656Y-83289873D01*
X112574606Y-83130653D01*
X115650000Y-83130653D01*
X115650000Y-83369347D01*
X115741344Y-83589873D01*
X115910127Y-83758656D01*
X116130653Y-83850000D01*
X116369347Y-83850000D01*
X116589873Y-83758656D01*
X116758656Y-83589873D01*
X116850000Y-83369347D01*
X116850000Y-83130653D01*
X119650000Y-83130653D01*
X119650000Y-83369347D01*
X119741344Y-83589873D01*
X119910127Y-83758656D01*
X120130653Y-83850000D01*
X120369347Y-83850000D01*
X120589873Y-83758656D01*
X120758656Y-83589873D01*
X120850000Y-83369347D01*
X120850000Y-83130653D01*
X122650000Y-83130653D01*
X122650000Y-83369347D01*
X122741344Y-83589873D01*
X122910127Y-83758656D01*
X123130653Y-83850000D01*
X123369347Y-83850000D01*
X123589873Y-83758656D01*
X123758656Y-83589873D01*
X123850000Y-83369347D01*
X123850000Y-83130653D01*
X124650000Y-83130653D01*
X124650000Y-83369347D01*
X124741344Y-83589873D01*
X124910127Y-83758656D01*
X125130653Y-83850000D01*
X125369347Y-83850000D01*
X125589873Y-83758656D01*
X125758656Y-83589873D01*
X125850000Y-83369347D01*
X125850000Y-83130653D01*
X125758656Y-82910127D01*
X125589873Y-82741344D01*
X125369347Y-82650000D01*
X125130653Y-82650000D01*
X124910127Y-82741344D01*
X124741344Y-82910127D01*
X124650000Y-83130653D01*
X123850000Y-83130653D01*
X123758656Y-82910127D01*
X123589873Y-82741344D01*
X123369347Y-82650000D01*
X123130653Y-82650000D01*
X122910127Y-82741344D01*
X122741344Y-82910127D01*
X122650000Y-83130653D01*
X120850000Y-83130653D01*
X120758656Y-82910127D01*
X120589873Y-82741344D01*
X120369347Y-82650000D01*
X120130653Y-82650000D01*
X119910127Y-82741344D01*
X119741344Y-82910127D01*
X119650000Y-83130653D01*
X116850000Y-83130653D01*
X116758656Y-82910127D01*
X116589873Y-82741344D01*
X116369347Y-82650000D01*
X116130653Y-82650000D01*
X115910127Y-82741344D01*
X115741344Y-82910127D01*
X115650000Y-83130653D01*
X112574606Y-83130653D01*
X112600000Y-83069347D01*
X112600000Y-82830653D01*
X112508656Y-82610127D01*
X112339873Y-82441344D01*
X112119347Y-82350000D01*
X111880653Y-82350000D01*
X111660127Y-82441344D01*
X111491344Y-82610127D01*
X111400000Y-82830653D01*
X107472075Y-82830653D01*
X106820711Y-82179289D01*
X106788268Y-82157612D01*
X106750000Y-82150000D01*
X90400000Y-82150000D01*
X90400000Y-82130653D01*
X118650000Y-82130653D01*
X118650000Y-82369347D01*
X118741344Y-82589873D01*
X118910127Y-82758656D01*
X119130653Y-82850000D01*
X119369347Y-82850000D01*
X119589873Y-82758656D01*
X119758656Y-82589873D01*
X119850000Y-82369347D01*
X119850000Y-82130653D01*
X123650000Y-82130653D01*
X123650000Y-82369347D01*
X123741344Y-82589873D01*
X123910127Y-82758656D01*
X124130653Y-82850000D01*
X124369347Y-82850000D01*
X124589873Y-82758656D01*
X124758656Y-82589873D01*
X124850000Y-82369347D01*
X124850000Y-82130653D01*
X124758656Y-81910127D01*
X124589873Y-81741344D01*
X124369347Y-81650000D01*
X124130653Y-81650000D01*
X123910127Y-81741344D01*
X123741344Y-81910127D01*
X123650000Y-82130653D01*
X119850000Y-82130653D01*
X119758656Y-81910127D01*
X119589873Y-81741344D01*
X119369347Y-81650000D01*
X119130653Y-81650000D01*
X118910127Y-81741344D01*
X118741344Y-81910127D01*
X118650000Y-82130653D01*
X90400000Y-82130653D01*
X90400000Y-81130653D01*
X119650000Y-81130653D01*
X119650000Y-81369347D01*
X119741344Y-81589873D01*
X119910127Y-81758656D01*
X120130653Y-81850000D01*
X120369347Y-81850000D01*
X120589873Y-81758656D01*
X120758656Y-81589873D01*
X120850000Y-81369347D01*
X120850000Y-81130653D01*
X124650000Y-81130653D01*
X124650000Y-81369347D01*
X124741344Y-81589873D01*
X124910127Y-81758656D01*
X125130653Y-81850000D01*
X125369347Y-81850000D01*
X125589873Y-81758656D01*
X125758656Y-81589873D01*
X125850000Y-81369347D01*
X125850000Y-81130653D01*
X126650000Y-81130653D01*
X126650000Y-81369347D01*
X126741344Y-81589873D01*
X126901471Y-81750000D01*
X126741344Y-81910127D01*
X126650000Y-82130653D01*
X126650000Y-82369347D01*
X126741344Y-82589873D01*
X126901471Y-82750000D01*
X126741344Y-82910127D01*
X126650000Y-83130653D01*
X126650000Y-83369347D01*
X126741344Y-83589873D01*
X126910127Y-83758656D01*
X127130653Y-83850000D01*
X127369347Y-83850000D01*
X127589873Y-83758656D01*
X127750000Y-83598529D01*
X127910127Y-83758656D01*
X128130653Y-83850000D01*
X128369347Y-83850000D01*
X128589873Y-83758656D01*
X128758656Y-83589873D01*
X128850000Y-83369347D01*
X128850000Y-83130653D01*
X128758656Y-82910127D01*
X128598529Y-82750000D01*
X128758656Y-82589873D01*
X128850000Y-82369347D01*
X128850000Y-82130653D01*
X128758656Y-81910127D01*
X128589873Y-81741344D01*
X128369347Y-81650000D01*
X128130653Y-81650000D01*
X127910127Y-81741344D01*
X127750000Y-81901471D01*
X127598529Y-81750000D01*
X127758656Y-81589873D01*
X127850000Y-81369347D01*
X127850000Y-81130653D01*
X127758656Y-80910127D01*
X127589873Y-80741344D01*
X127369347Y-80650000D01*
X127130653Y-80650000D01*
X126910127Y-80741344D01*
X126741344Y-80910127D01*
X126650000Y-81130653D01*
X125850000Y-81130653D01*
X125758656Y-80910127D01*
X125589873Y-80741344D01*
X125369347Y-80650000D01*
X125130653Y-80650000D01*
X124910127Y-80741344D01*
X124741344Y-80910127D01*
X124650000Y-81130653D01*
X120850000Y-81130653D01*
X120758656Y-80910127D01*
X120589873Y-80741344D01*
X120369347Y-80650000D01*
X120130653Y-80650000D01*
X119910127Y-80741344D01*
X119741344Y-80910127D01*
X119650000Y-81130653D01*
X90400000Y-81130653D01*
X90400000Y-80130653D01*
X128650000Y-80130653D01*
X128650000Y-80369347D01*
X128741344Y-80589873D01*
X128910127Y-80758656D01*
X129130653Y-80850000D01*
X129369347Y-80850000D01*
X129589873Y-80758656D01*
X129717876Y-80630653D01*
X132750000Y-80630653D01*
X132750000Y-80869347D01*
X132841344Y-81089873D01*
X133010127Y-81258656D01*
X133230653Y-81350000D01*
X133469347Y-81350000D01*
X133689873Y-81258656D01*
X133858656Y-81089873D01*
X133950000Y-80869347D01*
X133950000Y-80630653D01*
X133858656Y-80410127D01*
X133848529Y-80400000D01*
X144094123Y-80400000D01*
X144094123Y-82100000D01*
X144117407Y-82217054D01*
X144183712Y-82316288D01*
X144282946Y-82382593D01*
X144400000Y-82405877D01*
X146100000Y-82405877D01*
X146217054Y-82382593D01*
X146316288Y-82316288D01*
X146382593Y-82217054D01*
X146405877Y-82100000D01*
X146405877Y-81250000D01*
X146617471Y-81250000D01*
X146706724Y-81698707D01*
X146960897Y-82079103D01*
X147341293Y-82333276D01*
X147676739Y-82400000D01*
X147903261Y-82400000D01*
X148238707Y-82333276D01*
X148619103Y-82079103D01*
X148873276Y-81698707D01*
X148962529Y-81250000D01*
X149157471Y-81250000D01*
X149246724Y-81698707D01*
X149500897Y-82079103D01*
X149881293Y-82333276D01*
X150216739Y-82400000D01*
X150443261Y-82400000D01*
X150778707Y-82333276D01*
X151159103Y-82079103D01*
X151413276Y-81698707D01*
X151502529Y-81250000D01*
X151697471Y-81250000D01*
X151786724Y-81698707D01*
X152040897Y-82079103D01*
X152421293Y-82333276D01*
X152756739Y-82400000D01*
X152983261Y-82400000D01*
X153318707Y-82333276D01*
X153699103Y-82079103D01*
X153953276Y-81698707D01*
X154042529Y-81250000D01*
X154237471Y-81250000D01*
X154326724Y-81698707D01*
X154580897Y-82079103D01*
X154961293Y-82333276D01*
X155296739Y-82400000D01*
X155523261Y-82400000D01*
X155858707Y-82333276D01*
X156239103Y-82079103D01*
X156493276Y-81698707D01*
X156582529Y-81250000D01*
X156495236Y-80811142D01*
X164450000Y-80811142D01*
X164450000Y-81228858D01*
X164609853Y-81614777D01*
X164905223Y-81910147D01*
X165291142Y-82070000D01*
X165708858Y-82070000D01*
X166094777Y-81910147D01*
X166390147Y-81614777D01*
X166550000Y-81228858D01*
X166550000Y-80811142D01*
X166390147Y-80425223D01*
X166094777Y-80129853D01*
X165708858Y-79970000D01*
X165291142Y-79970000D01*
X164905223Y-80129853D01*
X164609853Y-80425223D01*
X164450000Y-80811142D01*
X156495236Y-80811142D01*
X156493276Y-80801293D01*
X156239103Y-80420897D01*
X155858707Y-80166724D01*
X155523261Y-80100000D01*
X155296739Y-80100000D01*
X154961293Y-80166724D01*
X154580897Y-80420897D01*
X154326724Y-80801293D01*
X154237471Y-81250000D01*
X154042529Y-81250000D01*
X153953276Y-80801293D01*
X153699103Y-80420897D01*
X153318707Y-80166724D01*
X152983261Y-80100000D01*
X152756739Y-80100000D01*
X152421293Y-80166724D01*
X152040897Y-80420897D01*
X151786724Y-80801293D01*
X151697471Y-81250000D01*
X151502529Y-81250000D01*
X151413276Y-80801293D01*
X151159103Y-80420897D01*
X150778707Y-80166724D01*
X150443261Y-80100000D01*
X150216739Y-80100000D01*
X149881293Y-80166724D01*
X149500897Y-80420897D01*
X149246724Y-80801293D01*
X149157471Y-81250000D01*
X148962529Y-81250000D01*
X148873276Y-80801293D01*
X148619103Y-80420897D01*
X148238707Y-80166724D01*
X147903261Y-80100000D01*
X147676739Y-80100000D01*
X147341293Y-80166724D01*
X146960897Y-80420897D01*
X146706724Y-80801293D01*
X146617471Y-81250000D01*
X146405877Y-81250000D01*
X146405877Y-80400000D01*
X146382593Y-80282946D01*
X146316288Y-80183712D01*
X146217054Y-80117407D01*
X146100000Y-80094123D01*
X144400000Y-80094123D01*
X144282946Y-80117407D01*
X144183712Y-80183712D01*
X144117407Y-80282946D01*
X144094123Y-80400000D01*
X133848529Y-80400000D01*
X133689873Y-80241344D01*
X133469347Y-80150000D01*
X133230653Y-80150000D01*
X133010127Y-80241344D01*
X132841344Y-80410127D01*
X132750000Y-80630653D01*
X129717876Y-80630653D01*
X129758656Y-80589873D01*
X129850000Y-80369347D01*
X129850000Y-80130653D01*
X129758656Y-79910127D01*
X129729182Y-79880653D01*
X130150000Y-79880653D01*
X130150000Y-80119347D01*
X130241344Y-80339873D01*
X130410127Y-80508656D01*
X130630653Y-80600000D01*
X130869347Y-80600000D01*
X131089873Y-80508656D01*
X131258656Y-80339873D01*
X131350000Y-80119347D01*
X131350000Y-79880653D01*
X131267159Y-79680653D01*
X160650000Y-79680653D01*
X160650000Y-79919347D01*
X160741344Y-80139873D01*
X160910127Y-80308656D01*
X161130653Y-80400000D01*
X161369347Y-80400000D01*
X161589873Y-80308656D01*
X161758656Y-80139873D01*
X161850000Y-79919347D01*
X161850000Y-79680653D01*
X161758656Y-79460127D01*
X161589873Y-79291344D01*
X161369347Y-79200000D01*
X161130653Y-79200000D01*
X160910127Y-79291344D01*
X160741344Y-79460127D01*
X160650000Y-79680653D01*
X131267159Y-79680653D01*
X131258656Y-79660127D01*
X131089873Y-79491344D01*
X130869347Y-79400000D01*
X130630653Y-79400000D01*
X130410127Y-79491344D01*
X130241344Y-79660127D01*
X130150000Y-79880653D01*
X129729182Y-79880653D01*
X129589873Y-79741344D01*
X129369347Y-79650000D01*
X129130653Y-79650000D01*
X128910127Y-79741344D01*
X128741344Y-79910127D01*
X128650000Y-80130653D01*
X90400000Y-80130653D01*
X90400000Y-79130653D01*
X115650000Y-79130653D01*
X115650000Y-79369347D01*
X115741344Y-79589873D01*
X115910127Y-79758656D01*
X116130653Y-79850000D01*
X116369347Y-79850000D01*
X116589873Y-79758656D01*
X116758656Y-79589873D01*
X116850000Y-79369347D01*
X116850000Y-79130653D01*
X118650000Y-79130653D01*
X118650000Y-79369347D01*
X118741344Y-79589873D01*
X118910127Y-79758656D01*
X119130653Y-79850000D01*
X119369347Y-79850000D01*
X119589873Y-79758656D01*
X119758656Y-79589873D01*
X119850000Y-79369347D01*
X119850000Y-79130653D01*
X123650000Y-79130653D01*
X123650000Y-79369347D01*
X123741344Y-79589873D01*
X123910127Y-79758656D01*
X124130653Y-79850000D01*
X124369347Y-79850000D01*
X124589873Y-79758656D01*
X124758656Y-79589873D01*
X124850000Y-79369347D01*
X124850000Y-79130653D01*
X127650000Y-79130653D01*
X127650000Y-79369347D01*
X127741344Y-79589873D01*
X127910127Y-79758656D01*
X128130653Y-79850000D01*
X128369347Y-79850000D01*
X128589873Y-79758656D01*
X128758656Y-79589873D01*
X128850000Y-79369347D01*
X128850000Y-79130653D01*
X128758656Y-78910127D01*
X128589873Y-78741344D01*
X128369347Y-78650000D01*
X128130653Y-78650000D01*
X127910127Y-78741344D01*
X127741344Y-78910127D01*
X127650000Y-79130653D01*
X124850000Y-79130653D01*
X124758656Y-78910127D01*
X124589873Y-78741344D01*
X124369347Y-78650000D01*
X124130653Y-78650000D01*
X123910127Y-78741344D01*
X123741344Y-78910127D01*
X123650000Y-79130653D01*
X119850000Y-79130653D01*
X119758656Y-78910127D01*
X119589873Y-78741344D01*
X119369347Y-78650000D01*
X119130653Y-78650000D01*
X118910127Y-78741344D01*
X118741344Y-78910127D01*
X118650000Y-79130653D01*
X116850000Y-79130653D01*
X116758656Y-78910127D01*
X116589873Y-78741344D01*
X116369347Y-78650000D01*
X116130653Y-78650000D01*
X115910127Y-78741344D01*
X115741344Y-78910127D01*
X115650000Y-79130653D01*
X90400000Y-79130653D01*
X90400000Y-78130653D01*
X119650000Y-78130653D01*
X119650000Y-78369347D01*
X119741344Y-78589873D01*
X119910127Y-78758656D01*
X120130653Y-78850000D01*
X120369347Y-78850000D01*
X120589873Y-78758656D01*
X120758656Y-78589873D01*
X120850000Y-78369347D01*
X120850000Y-78130653D01*
X122650000Y-78130653D01*
X122650000Y-78369347D01*
X122741344Y-78589873D01*
X122910127Y-78758656D01*
X123130653Y-78850000D01*
X123369347Y-78850000D01*
X123589873Y-78758656D01*
X123758656Y-78589873D01*
X123850000Y-78369347D01*
X123850000Y-78130653D01*
X124650000Y-78130653D01*
X124650000Y-78369347D01*
X124741344Y-78589873D01*
X124910127Y-78758656D01*
X125130653Y-78850000D01*
X125369347Y-78850000D01*
X125589873Y-78758656D01*
X125717876Y-78630653D01*
X128900000Y-78630653D01*
X128900000Y-78869347D01*
X128991344Y-79089873D01*
X129160127Y-79258656D01*
X129380653Y-79350000D01*
X129619347Y-79350000D01*
X129839873Y-79258656D01*
X130008656Y-79089873D01*
X130100000Y-78869347D01*
X130100000Y-78630653D01*
X130008656Y-78410127D01*
X129839873Y-78241344D01*
X129619347Y-78150000D01*
X129380653Y-78150000D01*
X129160127Y-78241344D01*
X128991344Y-78410127D01*
X128900000Y-78630653D01*
X125717876Y-78630653D01*
X125758656Y-78589873D01*
X125850000Y-78369347D01*
X125850000Y-78130653D01*
X125758656Y-77910127D01*
X125589873Y-77741344D01*
X125369347Y-77650000D01*
X125130653Y-77650000D01*
X124910127Y-77741344D01*
X124741344Y-77910127D01*
X124650000Y-78130653D01*
X123850000Y-78130653D01*
X123758656Y-77910127D01*
X123589873Y-77741344D01*
X123369347Y-77650000D01*
X123130653Y-77650000D01*
X122910127Y-77741344D01*
X122741344Y-77910127D01*
X122650000Y-78130653D01*
X120850000Y-78130653D01*
X120758656Y-77910127D01*
X120589873Y-77741344D01*
X120369347Y-77650000D01*
X120130653Y-77650000D01*
X119910127Y-77741344D01*
X119741344Y-77910127D01*
X119650000Y-78130653D01*
X90400000Y-78130653D01*
X90400000Y-77130653D01*
X118650000Y-77130653D01*
X118650000Y-77369347D01*
X118741344Y-77589873D01*
X118910127Y-77758656D01*
X119130653Y-77850000D01*
X119369347Y-77850000D01*
X119589873Y-77758656D01*
X119758656Y-77589873D01*
X119850000Y-77369347D01*
X119850000Y-77130653D01*
X120650000Y-77130653D01*
X120650000Y-77369347D01*
X120741344Y-77589873D01*
X120910127Y-77758656D01*
X121130653Y-77850000D01*
X121369347Y-77850000D01*
X121589873Y-77758656D01*
X121758656Y-77589873D01*
X121850000Y-77369347D01*
X121850000Y-77130653D01*
X123650000Y-77130653D01*
X123650000Y-77369347D01*
X123741344Y-77589873D01*
X123910127Y-77758656D01*
X124130653Y-77850000D01*
X124369347Y-77850000D01*
X124589873Y-77758656D01*
X124758656Y-77589873D01*
X124850000Y-77369347D01*
X124850000Y-77130653D01*
X124758656Y-76910127D01*
X124589873Y-76741344D01*
X124369347Y-76650000D01*
X124130653Y-76650000D01*
X123910127Y-76741344D01*
X123741344Y-76910127D01*
X123650000Y-77130653D01*
X121850000Y-77130653D01*
X121758656Y-76910127D01*
X121589873Y-76741344D01*
X121369347Y-76650000D01*
X121130653Y-76650000D01*
X120910127Y-76741344D01*
X120741344Y-76910127D01*
X120650000Y-77130653D01*
X119850000Y-77130653D01*
X119758656Y-76910127D01*
X119589873Y-76741344D01*
X119369347Y-76650000D01*
X119130653Y-76650000D01*
X118910127Y-76741344D01*
X118741344Y-76910127D01*
X118650000Y-77130653D01*
X90400000Y-77130653D01*
X90400000Y-76130653D01*
X119650000Y-76130653D01*
X119650000Y-76369347D01*
X119741344Y-76589873D01*
X119910127Y-76758656D01*
X120130653Y-76850000D01*
X120369347Y-76850000D01*
X120589873Y-76758656D01*
X120758656Y-76589873D01*
X120850000Y-76369347D01*
X120850000Y-76130653D01*
X122650000Y-76130653D01*
X122650000Y-76369347D01*
X122741344Y-76589873D01*
X122910127Y-76758656D01*
X123130653Y-76850000D01*
X123369347Y-76850000D01*
X123589873Y-76758656D01*
X123758656Y-76589873D01*
X123850000Y-76369347D01*
X123850000Y-76130653D01*
X128650000Y-76130653D01*
X128650000Y-76369347D01*
X128741344Y-76589873D01*
X128910127Y-76758656D01*
X129130653Y-76850000D01*
X129369347Y-76850000D01*
X129589873Y-76758656D01*
X129758656Y-76589873D01*
X129850000Y-76369347D01*
X129850000Y-76130653D01*
X129758656Y-75910127D01*
X129748529Y-75900000D01*
X144094123Y-75900000D01*
X144094123Y-77600000D01*
X144117407Y-77717054D01*
X144183712Y-77816288D01*
X144282946Y-77882593D01*
X144400000Y-77905877D01*
X146100000Y-77905877D01*
X146217054Y-77882593D01*
X146316288Y-77816288D01*
X146382593Y-77717054D01*
X146405877Y-77600000D01*
X146405877Y-76750000D01*
X146617471Y-76750000D01*
X146706724Y-77198707D01*
X146960897Y-77579103D01*
X147341293Y-77833276D01*
X147676739Y-77900000D01*
X147903261Y-77900000D01*
X148238707Y-77833276D01*
X148619103Y-77579103D01*
X148873276Y-77198707D01*
X148962529Y-76750000D01*
X149157471Y-76750000D01*
X149246724Y-77198707D01*
X149500897Y-77579103D01*
X149881293Y-77833276D01*
X150216739Y-77900000D01*
X150443261Y-77900000D01*
X150778707Y-77833276D01*
X151159103Y-77579103D01*
X151413276Y-77198707D01*
X151502529Y-76750000D01*
X151413276Y-76301293D01*
X151159103Y-75920897D01*
X150778707Y-75666724D01*
X150443261Y-75600000D01*
X150216739Y-75600000D01*
X149881293Y-75666724D01*
X149500897Y-75920897D01*
X149246724Y-76301293D01*
X149157471Y-76750000D01*
X148962529Y-76750000D01*
X148873276Y-76301293D01*
X148619103Y-75920897D01*
X148238707Y-75666724D01*
X147903261Y-75600000D01*
X147676739Y-75600000D01*
X147341293Y-75666724D01*
X146960897Y-75920897D01*
X146706724Y-76301293D01*
X146617471Y-76750000D01*
X146405877Y-76750000D01*
X146405877Y-75900000D01*
X146382593Y-75782946D01*
X146316288Y-75683712D01*
X146217054Y-75617407D01*
X146100000Y-75594123D01*
X144400000Y-75594123D01*
X144282946Y-75617407D01*
X144183712Y-75683712D01*
X144117407Y-75782946D01*
X144094123Y-75900000D01*
X129748529Y-75900000D01*
X129589873Y-75741344D01*
X129369347Y-75650000D01*
X129130653Y-75650000D01*
X128910127Y-75741344D01*
X128741344Y-75910127D01*
X128650000Y-76130653D01*
X123850000Y-76130653D01*
X123758656Y-75910127D01*
X123589873Y-75741344D01*
X123369347Y-75650000D01*
X123130653Y-75650000D01*
X122910127Y-75741344D01*
X122741344Y-75910127D01*
X122650000Y-76130653D01*
X120850000Y-76130653D01*
X120758656Y-75910127D01*
X120589873Y-75741344D01*
X120369347Y-75650000D01*
X120130653Y-75650000D01*
X119910127Y-75741344D01*
X119741344Y-75910127D01*
X119650000Y-76130653D01*
X90400000Y-76130653D01*
X90400000Y-74561305D01*
X98360000Y-74561305D01*
X98360000Y-75038695D01*
X98542689Y-75479745D01*
X98880255Y-75817311D01*
X99321305Y-76000000D01*
X99798695Y-76000000D01*
X100239745Y-75817311D01*
X100577311Y-75479745D01*
X100721909Y-75130653D01*
X125650000Y-75130653D01*
X125650000Y-75369347D01*
X125741344Y-75589873D01*
X125910127Y-75758656D01*
X126130653Y-75850000D01*
X126369347Y-75850000D01*
X126589873Y-75758656D01*
X126758656Y-75589873D01*
X126850000Y-75369347D01*
X126850000Y-75130653D01*
X130350000Y-75130653D01*
X130350000Y-75369347D01*
X130441344Y-75589873D01*
X130610127Y-75758656D01*
X130830653Y-75850000D01*
X131069347Y-75850000D01*
X131289873Y-75758656D01*
X131458656Y-75589873D01*
X131550000Y-75369347D01*
X131550000Y-75130653D01*
X131458656Y-74910127D01*
X131289873Y-74741344D01*
X131069347Y-74650000D01*
X130830653Y-74650000D01*
X130610127Y-74741344D01*
X130441344Y-74910127D01*
X130350000Y-75130653D01*
X126850000Y-75130653D01*
X126758656Y-74910127D01*
X126589873Y-74741344D01*
X126369347Y-74650000D01*
X126130653Y-74650000D01*
X125910127Y-74741344D01*
X125741344Y-74910127D01*
X125650000Y-75130653D01*
X100721909Y-75130653D01*
X100760000Y-75038695D01*
X100760000Y-74561305D01*
X100581618Y-74130653D01*
X128650000Y-74130653D01*
X128650000Y-74369347D01*
X128741344Y-74589873D01*
X128910127Y-74758656D01*
X129130653Y-74850000D01*
X129369347Y-74850000D01*
X129589873Y-74758656D01*
X129758656Y-74589873D01*
X129850000Y-74369347D01*
X129850000Y-74130653D01*
X129758656Y-73910127D01*
X129589873Y-73741344D01*
X129369347Y-73650000D01*
X129130653Y-73650000D01*
X128910127Y-73741344D01*
X128741344Y-73910127D01*
X128650000Y-74130653D01*
X100581618Y-74130653D01*
X100577311Y-74120255D01*
X100239745Y-73782689D01*
X99798695Y-73600000D01*
X99321305Y-73600000D01*
X98880255Y-73782689D01*
X98542689Y-74120255D01*
X98360000Y-74561305D01*
X90400000Y-74561305D01*
X90400000Y-73130653D01*
X132400000Y-73130653D01*
X132400000Y-73369347D01*
X132491344Y-73589873D01*
X132660127Y-73758656D01*
X132880653Y-73850000D01*
X133119347Y-73850000D01*
X133339873Y-73758656D01*
X133508656Y-73589873D01*
X133600000Y-73369347D01*
X133600000Y-73130653D01*
X133508656Y-72910127D01*
X133448529Y-72850000D01*
X133469347Y-72850000D01*
X133689873Y-72758656D01*
X133858656Y-72589873D01*
X133950000Y-72369347D01*
X133950000Y-72130653D01*
X133908580Y-72030653D01*
X136900000Y-72030653D01*
X136900000Y-72269347D01*
X136991344Y-72489873D01*
X137160127Y-72658656D01*
X137380653Y-72750000D01*
X137619347Y-72750000D01*
X137839873Y-72658656D01*
X138008656Y-72489873D01*
X138100000Y-72269347D01*
X138100000Y-72030653D01*
X138008656Y-71810127D01*
X137839873Y-71641344D01*
X137619347Y-71550000D01*
X137380653Y-71550000D01*
X137160127Y-71641344D01*
X136991344Y-71810127D01*
X136900000Y-72030653D01*
X133908580Y-72030653D01*
X133858656Y-71910127D01*
X133689873Y-71741344D01*
X133469347Y-71650000D01*
X133230653Y-71650000D01*
X133010127Y-71741344D01*
X132841344Y-71910127D01*
X132750000Y-72130653D01*
X132750000Y-72369347D01*
X132841344Y-72589873D01*
X132901471Y-72650000D01*
X132880653Y-72650000D01*
X132660127Y-72741344D01*
X132491344Y-72910127D01*
X132400000Y-73130653D01*
X90400000Y-73130653D01*
X90400000Y-70980653D01*
X112650000Y-70980653D01*
X112650000Y-71219347D01*
X112741344Y-71439873D01*
X112910127Y-71608656D01*
X113130653Y-71700000D01*
X113369347Y-71700000D01*
X113589873Y-71608656D01*
X113667876Y-71530653D01*
X124100000Y-71530653D01*
X124100000Y-71769347D01*
X124191344Y-71989873D01*
X124360127Y-72158656D01*
X124580653Y-72250000D01*
X124819347Y-72250000D01*
X125039873Y-72158656D01*
X125208656Y-71989873D01*
X125300000Y-71769347D01*
X125300000Y-71530653D01*
X125208656Y-71310127D01*
X125039873Y-71141344D01*
X124819347Y-71050000D01*
X124580653Y-71050000D01*
X124360127Y-71141344D01*
X124191344Y-71310127D01*
X124100000Y-71530653D01*
X113667876Y-71530653D01*
X113758656Y-71439873D01*
X113850000Y-71219347D01*
X113850000Y-70980653D01*
X113758656Y-70760127D01*
X113589873Y-70591344D01*
X113369347Y-70500000D01*
X113130653Y-70500000D01*
X112910127Y-70591344D01*
X112741344Y-70760127D01*
X112650000Y-70980653D01*
X90400000Y-70980653D01*
X90400000Y-69481305D01*
X98360000Y-69481305D01*
X98360000Y-69958695D01*
X98542689Y-70399745D01*
X98880255Y-70737311D01*
X99321305Y-70920000D01*
X99798695Y-70920000D01*
X100239745Y-70737311D01*
X100577311Y-70399745D01*
X100697012Y-70110761D01*
X116050000Y-70110761D01*
X116050000Y-70389239D01*
X116156568Y-70646518D01*
X116353482Y-70843432D01*
X116610761Y-70950000D01*
X116889239Y-70950000D01*
X117146518Y-70843432D01*
X117343432Y-70646518D01*
X117450000Y-70389239D01*
X117450000Y-70110761D01*
X121300000Y-70110761D01*
X121300000Y-70389239D01*
X121406568Y-70646518D01*
X121603482Y-70843432D01*
X121860761Y-70950000D01*
X122139239Y-70950000D01*
X122396518Y-70843432D01*
X122593432Y-70646518D01*
X122700000Y-70389239D01*
X122700000Y-70110761D01*
X122658579Y-70010761D01*
X124100000Y-70010761D01*
X124100000Y-70289239D01*
X124206568Y-70546518D01*
X124403482Y-70743432D01*
X124660761Y-70850000D01*
X124939239Y-70850000D01*
X125196518Y-70743432D01*
X125393432Y-70546518D01*
X125500000Y-70289239D01*
X125500000Y-70010761D01*
X129350000Y-70010761D01*
X129350000Y-70289239D01*
X129456568Y-70546518D01*
X129653482Y-70743432D01*
X129910761Y-70850000D01*
X130189239Y-70850000D01*
X130446518Y-70743432D01*
X130643432Y-70546518D01*
X130666256Y-70491414D01*
X160700000Y-70491414D01*
X160700000Y-71008586D01*
X160897913Y-71486391D01*
X161263609Y-71852087D01*
X161741414Y-72050000D01*
X162258586Y-72050000D01*
X162736391Y-71852087D01*
X163102087Y-71486391D01*
X163300000Y-71008586D01*
X163300000Y-70491414D01*
X163102087Y-70013609D01*
X162736391Y-69647913D01*
X162258586Y-69450000D01*
X161741414Y-69450000D01*
X161263609Y-69647913D01*
X160897913Y-70013609D01*
X160700000Y-70491414D01*
X130666256Y-70491414D01*
X130750000Y-70289239D01*
X130750000Y-70010761D01*
X130643432Y-69753482D01*
X130446518Y-69556568D01*
X130189239Y-69450000D01*
X129910761Y-69450000D01*
X129653482Y-69556568D01*
X129456568Y-69753482D01*
X129350000Y-70010761D01*
X125500000Y-70010761D01*
X125393432Y-69753482D01*
X125196518Y-69556568D01*
X124939239Y-69450000D01*
X124660761Y-69450000D01*
X124403482Y-69556568D01*
X124206568Y-69753482D01*
X124100000Y-70010761D01*
X122658579Y-70010761D01*
X122593432Y-69853482D01*
X122396518Y-69656568D01*
X122139239Y-69550000D01*
X121860761Y-69550000D01*
X121603482Y-69656568D01*
X121406568Y-69853482D01*
X121300000Y-70110761D01*
X117450000Y-70110761D01*
X117343432Y-69853482D01*
X117146518Y-69656568D01*
X116889239Y-69550000D01*
X116610761Y-69550000D01*
X116353482Y-69656568D01*
X116156568Y-69853482D01*
X116050000Y-70110761D01*
X100697012Y-70110761D01*
X100760000Y-69958695D01*
X100760000Y-69481305D01*
X100577311Y-69040255D01*
X100239745Y-68702689D01*
X99798695Y-68520000D01*
X99321305Y-68520000D01*
X98880255Y-68702689D01*
X98542689Y-69040255D01*
X98360000Y-69481305D01*
X90400000Y-69481305D01*
X90400000Y-68380653D01*
X111650000Y-68380653D01*
X111650000Y-68619347D01*
X111741344Y-68839873D01*
X111910127Y-69008656D01*
X112130653Y-69100000D01*
X112369347Y-69100000D01*
X112589873Y-69008656D01*
X112758656Y-68839873D01*
X112845316Y-68630653D01*
X133150000Y-68630653D01*
X133150000Y-68869347D01*
X133241344Y-69089873D01*
X133410127Y-69258656D01*
X133630653Y-69350000D01*
X133869347Y-69350000D01*
X134089873Y-69258656D01*
X134200000Y-69148529D01*
X134310127Y-69258656D01*
X134530653Y-69350000D01*
X134769347Y-69350000D01*
X134989873Y-69258656D01*
X135158656Y-69089873D01*
X135250000Y-68869347D01*
X135250000Y-68630653D01*
X135229290Y-68580653D01*
X136850000Y-68580653D01*
X136850000Y-68819347D01*
X136941344Y-69039873D01*
X137110127Y-69208656D01*
X137330653Y-69300000D01*
X137569347Y-69300000D01*
X137789873Y-69208656D01*
X137958656Y-69039873D01*
X138050000Y-68819347D01*
X138050000Y-68630653D01*
X138200000Y-68630653D01*
X138200000Y-68869347D01*
X138291344Y-69089873D01*
X138460127Y-69258656D01*
X138680653Y-69350000D01*
X138919347Y-69350000D01*
X139139873Y-69258656D01*
X139308656Y-69089873D01*
X139312475Y-69080653D01*
X149150000Y-69080653D01*
X149150000Y-69319347D01*
X149241344Y-69539873D01*
X149410127Y-69708656D01*
X149630653Y-69800000D01*
X149869347Y-69800000D01*
X150089873Y-69708656D01*
X150258656Y-69539873D01*
X150350000Y-69319347D01*
X150350000Y-69080653D01*
X150258656Y-68860127D01*
X150089873Y-68691344D01*
X149869347Y-68600000D01*
X149630653Y-68600000D01*
X149410127Y-68691344D01*
X149241344Y-68860127D01*
X149150000Y-69080653D01*
X139312475Y-69080653D01*
X139400000Y-68869347D01*
X139400000Y-68630653D01*
X139308656Y-68410127D01*
X139139873Y-68241344D01*
X138919347Y-68150000D01*
X138680653Y-68150000D01*
X138460127Y-68241344D01*
X138291344Y-68410127D01*
X138200000Y-68630653D01*
X138050000Y-68630653D01*
X138050000Y-68580653D01*
X137958656Y-68360127D01*
X137789873Y-68191344D01*
X137569347Y-68100000D01*
X137330653Y-68100000D01*
X137110127Y-68191344D01*
X136941344Y-68360127D01*
X136850000Y-68580653D01*
X135229290Y-68580653D01*
X135158656Y-68410127D01*
X134989873Y-68241344D01*
X134769347Y-68150000D01*
X134530653Y-68150000D01*
X134310127Y-68241344D01*
X134200000Y-68351471D01*
X134089873Y-68241344D01*
X133869347Y-68150000D01*
X133630653Y-68150000D01*
X133410127Y-68241344D01*
X133241344Y-68410127D01*
X133150000Y-68630653D01*
X112845316Y-68630653D01*
X112850000Y-68619347D01*
X112850000Y-68380653D01*
X112758656Y-68160127D01*
X112589873Y-67991344D01*
X112369347Y-67900000D01*
X112130653Y-67900000D01*
X111910127Y-67991344D01*
X111741344Y-68160127D01*
X111650000Y-68380653D01*
X90400000Y-68380653D01*
X90400000Y-66880653D01*
X103950000Y-66880653D01*
X103950000Y-67119347D01*
X104041344Y-67339873D01*
X104210127Y-67508656D01*
X104430653Y-67600000D01*
X104669347Y-67600000D01*
X104889873Y-67508656D01*
X105058656Y-67339873D01*
X105150000Y-67119347D01*
X105150000Y-66880653D01*
X105141761Y-66860761D01*
X122300000Y-66860761D01*
X122300000Y-67139239D01*
X122406568Y-67396518D01*
X122603482Y-67593432D01*
X122860761Y-67700000D01*
X123139239Y-67700000D01*
X123396518Y-67593432D01*
X123593432Y-67396518D01*
X123700000Y-67139239D01*
X123700000Y-66860761D01*
X127050000Y-66860761D01*
X127050000Y-67139239D01*
X127156568Y-67396518D01*
X127353482Y-67593432D01*
X127610761Y-67700000D01*
X127889239Y-67700000D01*
X128146518Y-67593432D01*
X128343432Y-67396518D01*
X128450000Y-67139239D01*
X128450000Y-66860761D01*
X132300000Y-66860761D01*
X132300000Y-67139239D01*
X132406568Y-67396518D01*
X132603482Y-67593432D01*
X132860761Y-67700000D01*
X133139239Y-67700000D01*
X133396518Y-67593432D01*
X133593432Y-67396518D01*
X133700000Y-67139239D01*
X133700000Y-66991414D01*
X160700000Y-66991414D01*
X160700000Y-67508586D01*
X160897913Y-67986391D01*
X161263609Y-68352087D01*
X161741414Y-68550000D01*
X162258586Y-68550000D01*
X162736391Y-68352087D01*
X163102087Y-67986391D01*
X163300000Y-67508586D01*
X163300000Y-66991414D01*
X163102087Y-66513609D01*
X162736391Y-66147913D01*
X162258586Y-65950000D01*
X161741414Y-65950000D01*
X161263609Y-66147913D01*
X160897913Y-66513609D01*
X160700000Y-66991414D01*
X133700000Y-66991414D01*
X133700000Y-66860761D01*
X133593432Y-66603482D01*
X133396518Y-66406568D01*
X133139239Y-66300000D01*
X132860761Y-66300000D01*
X132603482Y-66406568D01*
X132406568Y-66603482D01*
X132300000Y-66860761D01*
X128450000Y-66860761D01*
X128343432Y-66603482D01*
X128146518Y-66406568D01*
X127889239Y-66300000D01*
X127610761Y-66300000D01*
X127353482Y-66406568D01*
X127156568Y-66603482D01*
X127050000Y-66860761D01*
X123700000Y-66860761D01*
X123593432Y-66603482D01*
X123396518Y-66406568D01*
X123139239Y-66300000D01*
X122860761Y-66300000D01*
X122603482Y-66406568D01*
X122406568Y-66603482D01*
X122300000Y-66860761D01*
X105141761Y-66860761D01*
X105058656Y-66660127D01*
X104889873Y-66491344D01*
X104669347Y-66400000D01*
X104430653Y-66400000D01*
X104210127Y-66491344D01*
X104041344Y-66660127D01*
X103950000Y-66880653D01*
X90400000Y-66880653D01*
X90400000Y-64361305D01*
X98360000Y-64361305D01*
X98360000Y-64838695D01*
X98542689Y-65279745D01*
X98880255Y-65617311D01*
X99321305Y-65800000D01*
X99798695Y-65800000D01*
X100239745Y-65617311D01*
X100577311Y-65279745D01*
X100760000Y-64838695D01*
X100760000Y-64361305D01*
X100577311Y-63920255D01*
X100387709Y-63730653D01*
X117100000Y-63730653D01*
X117100000Y-63969347D01*
X117191344Y-64189873D01*
X117360127Y-64358656D01*
X117580653Y-64450000D01*
X117819347Y-64450000D01*
X118039873Y-64358656D01*
X118208656Y-64189873D01*
X118300000Y-63969347D01*
X118300000Y-63730653D01*
X118208656Y-63510127D01*
X118079182Y-63380653D01*
X118950000Y-63380653D01*
X118950000Y-63619347D01*
X119041344Y-63839873D01*
X119210127Y-64008656D01*
X119430653Y-64100000D01*
X119669347Y-64100000D01*
X119889873Y-64008656D01*
X119917876Y-63980653D01*
X136850000Y-63980653D01*
X136850000Y-64219347D01*
X136941344Y-64439873D01*
X137110127Y-64608656D01*
X137330653Y-64700000D01*
X137569347Y-64700000D01*
X137789873Y-64608656D01*
X137958656Y-64439873D01*
X138050000Y-64219347D01*
X138050000Y-63980653D01*
X137958656Y-63760127D01*
X137789873Y-63591344D01*
X137569347Y-63500000D01*
X137330653Y-63500000D01*
X137110127Y-63591344D01*
X136941344Y-63760127D01*
X136850000Y-63980653D01*
X119917876Y-63980653D01*
X120058656Y-63839873D01*
X120150000Y-63619347D01*
X120150000Y-63380653D01*
X120067159Y-63180653D01*
X137800000Y-63180653D01*
X137800000Y-63419347D01*
X137891344Y-63639873D01*
X138060127Y-63808656D01*
X138280653Y-63900000D01*
X138519347Y-63900000D01*
X138739873Y-63808656D01*
X138908656Y-63639873D01*
X139000000Y-63419347D01*
X139000000Y-63180653D01*
X138908656Y-62960127D01*
X138739873Y-62791344D01*
X138519347Y-62700000D01*
X138280653Y-62700000D01*
X138060127Y-62791344D01*
X137891344Y-62960127D01*
X137800000Y-63180653D01*
X120067159Y-63180653D01*
X120058656Y-63160127D01*
X119889873Y-62991344D01*
X119669347Y-62900000D01*
X119430653Y-62900000D01*
X119210127Y-62991344D01*
X119041344Y-63160127D01*
X118950000Y-63380653D01*
X118079182Y-63380653D01*
X118039873Y-63341344D01*
X117819347Y-63250000D01*
X117580653Y-63250000D01*
X117360127Y-63341344D01*
X117191344Y-63510127D01*
X117100000Y-63730653D01*
X100387709Y-63730653D01*
X100239745Y-63582689D01*
X99798695Y-63400000D01*
X99321305Y-63400000D01*
X98880255Y-63582689D01*
X98542689Y-63920255D01*
X98360000Y-64361305D01*
X90400000Y-64361305D01*
X90400000Y-61821305D01*
X98360000Y-61821305D01*
X98360000Y-62298695D01*
X98542689Y-62739745D01*
X98880255Y-63077311D01*
X99321305Y-63260000D01*
X99798695Y-63260000D01*
X100239745Y-63077311D01*
X100577311Y-62739745D01*
X100760000Y-62298695D01*
X100760000Y-62080653D01*
X135950000Y-62080653D01*
X135950000Y-62319347D01*
X136041344Y-62539873D01*
X136210127Y-62708656D01*
X136430653Y-62800000D01*
X136669347Y-62800000D01*
X136889873Y-62708656D01*
X136937768Y-62660761D01*
X148900000Y-62660761D01*
X148900000Y-62939239D01*
X149006568Y-63196518D01*
X149203482Y-63393432D01*
X149460761Y-63500000D01*
X149739239Y-63500000D01*
X149996518Y-63393432D01*
X150193432Y-63196518D01*
X150228953Y-63110761D01*
X155500000Y-63110761D01*
X155500000Y-63389239D01*
X155606568Y-63646518D01*
X155803482Y-63843432D01*
X156060761Y-63950000D01*
X156339239Y-63950000D01*
X156596518Y-63843432D01*
X156793432Y-63646518D01*
X156900000Y-63389239D01*
X156900000Y-63110761D01*
X156793432Y-62853482D01*
X156596518Y-62656568D01*
X156339239Y-62550000D01*
X156060761Y-62550000D01*
X155803482Y-62656568D01*
X155606568Y-62853482D01*
X155500000Y-63110761D01*
X150228953Y-63110761D01*
X150300000Y-62939239D01*
X150300000Y-62660761D01*
X150193432Y-62403482D01*
X149996518Y-62206568D01*
X149739239Y-62100000D01*
X149460761Y-62100000D01*
X149203482Y-62206568D01*
X149006568Y-62403482D01*
X148900000Y-62660761D01*
X136937768Y-62660761D01*
X137058656Y-62539873D01*
X137150000Y-62319347D01*
X137150000Y-62080653D01*
X137058656Y-61860127D01*
X136889873Y-61691344D01*
X136669347Y-61600000D01*
X136430653Y-61600000D01*
X136210127Y-61691344D01*
X136041344Y-61860127D01*
X135950000Y-62080653D01*
X100760000Y-62080653D01*
X100760000Y-61821305D01*
X100577311Y-61380255D01*
X100239745Y-61042689D01*
X99798695Y-60860000D01*
X99321305Y-60860000D01*
X98880255Y-61042689D01*
X98542689Y-61380255D01*
X98360000Y-61821305D01*
X90400000Y-61821305D01*
X90400000Y-60380653D01*
X103700000Y-60380653D01*
X103700000Y-60619347D01*
X103791344Y-60839873D01*
X103960127Y-61008656D01*
X104180653Y-61100000D01*
X104419347Y-61100000D01*
X104639873Y-61008656D01*
X104808656Y-60839873D01*
X104900000Y-60619347D01*
X104900000Y-60380653D01*
X104808656Y-60160127D01*
X104639873Y-59991344D01*
X104419347Y-59900000D01*
X104180653Y-59900000D01*
X103960127Y-59991344D01*
X103791344Y-60160127D01*
X103700000Y-60380653D01*
X90400000Y-60380653D01*
X90400000Y-59380653D01*
X118150000Y-59380653D01*
X118150000Y-59619347D01*
X118241344Y-59839873D01*
X118410127Y-60008656D01*
X118630653Y-60100000D01*
X118869347Y-60100000D01*
X118916055Y-60080653D01*
X136400000Y-60080653D01*
X136400000Y-60319347D01*
X136491344Y-60539873D01*
X136660127Y-60708656D01*
X136880653Y-60800000D01*
X137119347Y-60800000D01*
X137339873Y-60708656D01*
X137500000Y-60548529D01*
X137660127Y-60708656D01*
X137880653Y-60800000D01*
X138119347Y-60800000D01*
X138339873Y-60708656D01*
X138500000Y-60548529D01*
X138660127Y-60708656D01*
X138880653Y-60800000D01*
X139119347Y-60800000D01*
X139339873Y-60708656D01*
X139508656Y-60539873D01*
X139600000Y-60319347D01*
X139600000Y-60080653D01*
X149150000Y-60080653D01*
X149150000Y-60319347D01*
X149241344Y-60539873D01*
X149410127Y-60708656D01*
X149630653Y-60800000D01*
X149869347Y-60800000D01*
X150089873Y-60708656D01*
X150258656Y-60539873D01*
X150350000Y-60319347D01*
X150350000Y-60080653D01*
X150258656Y-59860127D01*
X150089873Y-59691344D01*
X149869347Y-59600000D01*
X149630653Y-59600000D01*
X149410127Y-59691344D01*
X149241344Y-59860127D01*
X149150000Y-60080653D01*
X139600000Y-60080653D01*
X139508656Y-59860127D01*
X139339873Y-59691344D01*
X139119347Y-59600000D01*
X138880653Y-59600000D01*
X138660127Y-59691344D01*
X138500000Y-59851471D01*
X138339873Y-59691344D01*
X138119347Y-59600000D01*
X137880653Y-59600000D01*
X137660127Y-59691344D01*
X137500000Y-59851471D01*
X137339873Y-59691344D01*
X137119347Y-59600000D01*
X136880653Y-59600000D01*
X136660127Y-59691344D01*
X136491344Y-59860127D01*
X136400000Y-60080653D01*
X118916055Y-60080653D01*
X119089873Y-60008656D01*
X119258656Y-59839873D01*
X119350000Y-59619347D01*
X119350000Y-59380653D01*
X119258656Y-59160127D01*
X119089873Y-58991344D01*
X118869347Y-58900000D01*
X118630653Y-58900000D01*
X118410127Y-58991344D01*
X118241344Y-59160127D01*
X118150000Y-59380653D01*
X90400000Y-59380653D01*
X90400000Y-56741305D01*
X98360000Y-56741305D01*
X98360000Y-57218695D01*
X98542689Y-57659745D01*
X98880255Y-57997311D01*
X99321305Y-58180000D01*
X99798695Y-58180000D01*
X100239745Y-57997311D01*
X100376295Y-57860761D01*
X115050000Y-57860761D01*
X115050000Y-58139239D01*
X115156568Y-58396518D01*
X115353482Y-58593432D01*
X115610761Y-58700000D01*
X115889239Y-58700000D01*
X116146518Y-58593432D01*
X116343432Y-58396518D01*
X116450000Y-58139239D01*
X116450000Y-57860761D01*
X116396108Y-57730653D01*
X126350000Y-57730653D01*
X126350000Y-57969347D01*
X126441344Y-58189873D01*
X126610127Y-58358656D01*
X126830653Y-58450000D01*
X127069347Y-58450000D01*
X127289873Y-58358656D01*
X127458656Y-58189873D01*
X127550000Y-57969347D01*
X127550000Y-57730653D01*
X127529290Y-57680653D01*
X131650000Y-57680653D01*
X131650000Y-57919347D01*
X131741344Y-58139873D01*
X131910127Y-58308656D01*
X132130653Y-58400000D01*
X132369347Y-58400000D01*
X132589873Y-58308656D01*
X132758656Y-58139873D01*
X132850000Y-57919347D01*
X132850000Y-57680653D01*
X132808580Y-57580653D01*
X143150000Y-57580653D01*
X143150000Y-57819347D01*
X143241344Y-58039873D01*
X143410127Y-58208656D01*
X143630653Y-58300000D01*
X143869347Y-58300000D01*
X144089873Y-58208656D01*
X144258656Y-58039873D01*
X144350000Y-57819347D01*
X144350000Y-57580653D01*
X144258656Y-57360127D01*
X144089873Y-57191344D01*
X143869347Y-57100000D01*
X143630653Y-57100000D01*
X143410127Y-57191344D01*
X143241344Y-57360127D01*
X143150000Y-57580653D01*
X132808580Y-57580653D01*
X132758656Y-57460127D01*
X132589873Y-57291344D01*
X132369347Y-57200000D01*
X132130653Y-57200000D01*
X131910127Y-57291344D01*
X131741344Y-57460127D01*
X131650000Y-57680653D01*
X127529290Y-57680653D01*
X127458656Y-57510127D01*
X127289873Y-57341344D01*
X127069347Y-57250000D01*
X126830653Y-57250000D01*
X126610127Y-57341344D01*
X126441344Y-57510127D01*
X126350000Y-57730653D01*
X116396108Y-57730653D01*
X116343432Y-57603482D01*
X116146518Y-57406568D01*
X115889239Y-57300000D01*
X115610761Y-57300000D01*
X115353482Y-57406568D01*
X115156568Y-57603482D01*
X115050000Y-57860761D01*
X100376295Y-57860761D01*
X100577311Y-57659745D01*
X100760000Y-57218695D01*
X100760000Y-56741305D01*
X100577311Y-56300255D01*
X100557709Y-56280653D01*
X124650000Y-56280653D01*
X124650000Y-56519347D01*
X124741344Y-56739873D01*
X124910127Y-56908656D01*
X125130653Y-57000000D01*
X125369347Y-57000000D01*
X125589873Y-56908656D01*
X125758656Y-56739873D01*
X125850000Y-56519347D01*
X125850000Y-56380653D01*
X129900000Y-56380653D01*
X129900000Y-56619347D01*
X129991344Y-56839873D01*
X130160127Y-57008656D01*
X130380653Y-57100000D01*
X130619347Y-57100000D01*
X130839873Y-57008656D01*
X131008656Y-56839873D01*
X131100000Y-56619347D01*
X131100000Y-56380653D01*
X131008656Y-56160127D01*
X130839873Y-55991344D01*
X130619347Y-55900000D01*
X130380653Y-55900000D01*
X130160127Y-55991344D01*
X129991344Y-56160127D01*
X129900000Y-56380653D01*
X125850000Y-56380653D01*
X125850000Y-56280653D01*
X125758656Y-56060127D01*
X125589873Y-55891344D01*
X125369347Y-55800000D01*
X125130653Y-55800000D01*
X124910127Y-55891344D01*
X124741344Y-56060127D01*
X124650000Y-56280653D01*
X100557709Y-56280653D01*
X100239745Y-55962689D01*
X99798695Y-55780000D01*
X99321305Y-55780000D01*
X98880255Y-55962689D01*
X98542689Y-56300255D01*
X98360000Y-56741305D01*
X90400000Y-56741305D01*
X90400000Y-53660761D01*
X148900000Y-53660761D01*
X148900000Y-53939239D01*
X149006568Y-54196518D01*
X149203482Y-54393432D01*
X149460761Y-54500000D01*
X149739239Y-54500000D01*
X149996518Y-54393432D01*
X150193432Y-54196518D01*
X150228953Y-54110761D01*
X155500000Y-54110761D01*
X155500000Y-54389239D01*
X155606568Y-54646518D01*
X155803482Y-54843432D01*
X156060761Y-54950000D01*
X156339239Y-54950000D01*
X156596518Y-54843432D01*
X156793432Y-54646518D01*
X156900000Y-54389239D01*
X156900000Y-54110761D01*
X156793432Y-53853482D01*
X156596518Y-53656568D01*
X156339239Y-53550000D01*
X156060761Y-53550000D01*
X155803482Y-53656568D01*
X155606568Y-53853482D01*
X155500000Y-54110761D01*
X150228953Y-54110761D01*
X150300000Y-53939239D01*
X150300000Y-53660761D01*
X150193432Y-53403482D01*
X149996518Y-53206568D01*
X149739239Y-53100000D01*
X149460761Y-53100000D01*
X149203482Y-53206568D01*
X149006568Y-53403482D01*
X148900000Y-53660761D01*
X90400000Y-53660761D01*
X90400000Y-51080653D01*
X149150000Y-51080653D01*
X149150000Y-51319347D01*
X149241344Y-51539873D01*
X149410127Y-51708656D01*
X149630653Y-51800000D01*
X149869347Y-51800000D01*
X150089873Y-51708656D01*
X150258656Y-51539873D01*
X150278728Y-51491414D01*
X160700000Y-51491414D01*
X160700000Y-52008586D01*
X160897913Y-52486391D01*
X161263609Y-52852087D01*
X161741414Y-53050000D01*
X162258586Y-53050000D01*
X162736391Y-52852087D01*
X163102087Y-52486391D01*
X163300000Y-52008586D01*
X163300000Y-51491414D01*
X163102087Y-51013609D01*
X162736391Y-50647913D01*
X162258586Y-50450000D01*
X161741414Y-50450000D01*
X161263609Y-50647913D01*
X160897913Y-51013609D01*
X160700000Y-51491414D01*
X150278728Y-51491414D01*
X150350000Y-51319347D01*
X150350000Y-51080653D01*
X150258656Y-50860127D01*
X150089873Y-50691344D01*
X149869347Y-50600000D01*
X149630653Y-50600000D01*
X149410127Y-50691344D01*
X149241344Y-50860127D01*
X149150000Y-51080653D01*
X90400000Y-51080653D01*
X90400000Y-48241414D01*
X96700000Y-48241414D01*
X96700000Y-48758586D01*
X96897913Y-49236391D01*
X97263609Y-49602087D01*
X97741414Y-49800000D01*
X98258586Y-49800000D01*
X98736391Y-49602087D01*
X99102087Y-49236391D01*
X99300000Y-48758586D01*
X99300000Y-48241414D01*
X99102087Y-47763609D01*
X98736391Y-47397913D01*
X98258586Y-47200000D01*
X97741414Y-47200000D01*
X97263609Y-47397913D01*
X96897913Y-47763609D01*
X96700000Y-48241414D01*
X90400000Y-48241414D01*
X90400000Y-46800000D01*
X113244123Y-46800000D01*
X113244123Y-49200000D01*
X113267407Y-49317054D01*
X113333712Y-49416288D01*
X113432946Y-49482593D01*
X113550000Y-49505877D01*
X115950000Y-49505877D01*
X116067054Y-49482593D01*
X116166288Y-49416288D01*
X116232593Y-49317054D01*
X116255877Y-49200000D01*
X116255877Y-47991414D01*
X160700000Y-47991414D01*
X160700000Y-48508586D01*
X160897913Y-48986391D01*
X161263609Y-49352087D01*
X161741414Y-49550000D01*
X162258586Y-49550000D01*
X162736391Y-49352087D01*
X163102087Y-48986391D01*
X163300000Y-48508586D01*
X163300000Y-47991414D01*
X163102087Y-47513609D01*
X162736391Y-47147913D01*
X162258586Y-46950000D01*
X161741414Y-46950000D01*
X161263609Y-47147913D01*
X160897913Y-47513609D01*
X160700000Y-47991414D01*
X116255877Y-47991414D01*
X116255877Y-46800000D01*
X116232593Y-46682946D01*
X116166288Y-46583712D01*
X116067054Y-46517407D01*
X115950000Y-46494123D01*
X113550000Y-46494123D01*
X113432946Y-46517407D01*
X113333712Y-46583712D01*
X113267407Y-46682946D01*
X113244123Y-46800000D01*
X90400000Y-46800000D01*
X90400000Y-44741414D01*
X96700000Y-44741414D01*
X96700000Y-45258586D01*
X96897913Y-45736391D01*
X97263609Y-46102087D01*
X97741414Y-46300000D01*
X98258586Y-46300000D01*
X98736391Y-46102087D01*
X99102087Y-45736391D01*
X99300000Y-45258586D01*
X99300000Y-44741414D01*
X99102087Y-44263609D01*
X98736391Y-43897913D01*
X98646698Y-43860761D01*
X122050000Y-43860761D01*
X122050000Y-44139239D01*
X122156568Y-44396518D01*
X122353482Y-44593432D01*
X122610761Y-44700000D01*
X122889239Y-44700000D01*
X122983970Y-44660761D01*
X148900000Y-44660761D01*
X148900000Y-44939239D01*
X149006568Y-45196518D01*
X149203482Y-45393432D01*
X149460761Y-45500000D01*
X149739239Y-45500000D01*
X149996518Y-45393432D01*
X150193432Y-45196518D01*
X150228953Y-45110761D01*
X155500000Y-45110761D01*
X155500000Y-45389239D01*
X155606568Y-45646518D01*
X155803482Y-45843432D01*
X156060761Y-45950000D01*
X156339239Y-45950000D01*
X156596518Y-45843432D01*
X156793432Y-45646518D01*
X156900000Y-45389239D01*
X156900000Y-45110761D01*
X156793432Y-44853482D01*
X156596518Y-44656568D01*
X156339239Y-44550000D01*
X156060761Y-44550000D01*
X155803482Y-44656568D01*
X155606568Y-44853482D01*
X155500000Y-45110761D01*
X150228953Y-45110761D01*
X150300000Y-44939239D01*
X150300000Y-44660761D01*
X150193432Y-44403482D01*
X149996518Y-44206568D01*
X149739239Y-44100000D01*
X149460761Y-44100000D01*
X149203482Y-44206568D01*
X149006568Y-44403482D01*
X148900000Y-44660761D01*
X122983970Y-44660761D01*
X123146518Y-44593432D01*
X123343432Y-44396518D01*
X123450000Y-44139239D01*
X123450000Y-43860761D01*
X123343432Y-43603482D01*
X123146518Y-43406568D01*
X122889239Y-43300000D01*
X122610761Y-43300000D01*
X122353482Y-43406568D01*
X122156568Y-43603482D01*
X122050000Y-43860761D01*
X98646698Y-43860761D01*
X98258586Y-43700000D01*
X97741414Y-43700000D01*
X97263609Y-43897913D01*
X96897913Y-44263609D01*
X96700000Y-44741414D01*
X90400000Y-44741414D01*
X90400000Y-42130653D01*
X149150000Y-42130653D01*
X149150000Y-42369347D01*
X149241344Y-42589873D01*
X149410127Y-42758656D01*
X149630653Y-42850000D01*
X149869347Y-42850000D01*
X150089873Y-42758656D01*
X150258656Y-42589873D01*
X150350000Y-42369347D01*
X150350000Y-42130653D01*
X150258656Y-41910127D01*
X150089873Y-41741344D01*
X149869347Y-41650000D01*
X149630653Y-41650000D01*
X149410127Y-41741344D01*
X149241344Y-41910127D01*
X149150000Y-42130653D01*
X90400000Y-42130653D01*
X90400000Y-38750000D01*
X111694123Y-38750000D01*
X111694123Y-40750000D01*
X111717407Y-40867054D01*
X111783712Y-40966288D01*
X111882946Y-41032593D01*
X112000000Y-41055877D01*
X114000000Y-41055877D01*
X114117054Y-41032593D01*
X114216288Y-40966288D01*
X114282593Y-40867054D01*
X114305877Y-40750000D01*
X114305877Y-40460761D01*
X143250000Y-40460761D01*
X143250000Y-40739239D01*
X143356568Y-40996518D01*
X143553482Y-41193432D01*
X143810761Y-41300000D01*
X144089239Y-41300000D01*
X144346518Y-41193432D01*
X144543432Y-40996518D01*
X144650000Y-40739239D01*
X144650000Y-40460761D01*
X144543432Y-40203482D01*
X144346518Y-40006568D01*
X144089239Y-39900000D01*
X143810761Y-39900000D01*
X143553482Y-40006568D01*
X143356568Y-40203482D01*
X143250000Y-40460761D01*
X114305877Y-40460761D01*
X114305877Y-38750000D01*
X114282593Y-38632946D01*
X114281061Y-38630653D01*
X138850000Y-38630653D01*
X138850000Y-38869347D01*
X138941344Y-39089873D01*
X139110127Y-39258656D01*
X139330653Y-39350000D01*
X139569347Y-39350000D01*
X139789873Y-39258656D01*
X139958656Y-39089873D01*
X140050000Y-38869347D01*
X140050000Y-38630653D01*
X139958656Y-38410127D01*
X139789873Y-38241344D01*
X139569347Y-38150000D01*
X139330653Y-38150000D01*
X139110127Y-38241344D01*
X138941344Y-38410127D01*
X138850000Y-38630653D01*
X114281061Y-38630653D01*
X114216288Y-38533712D01*
X114117054Y-38467407D01*
X114000000Y-38444123D01*
X112000000Y-38444123D01*
X111882946Y-38467407D01*
X111783712Y-38533712D01*
X111717407Y-38632946D01*
X111694123Y-38750000D01*
X90400000Y-38750000D01*
X90400000Y-37380653D01*
X138850000Y-37380653D01*
X138850000Y-37619347D01*
X138941344Y-37839873D01*
X139110127Y-38008656D01*
X139330653Y-38100000D01*
X139569347Y-38100000D01*
X139789873Y-38008656D01*
X139958656Y-37839873D01*
X140050000Y-37619347D01*
X140050000Y-37380653D01*
X139958656Y-37160127D01*
X139789873Y-36991344D01*
X139569347Y-36900000D01*
X139330653Y-36900000D01*
X139110127Y-36991344D01*
X138941344Y-37160127D01*
X138850000Y-37380653D01*
X90400000Y-37380653D01*
X90400000Y-35660761D01*
X148900000Y-35660761D01*
X148900000Y-35939239D01*
X149006568Y-36196518D01*
X149203482Y-36393432D01*
X149460761Y-36500000D01*
X149739239Y-36500000D01*
X149996518Y-36393432D01*
X150193432Y-36196518D01*
X150228953Y-36110761D01*
X155500000Y-36110761D01*
X155500000Y-36389239D01*
X155606568Y-36646518D01*
X155803482Y-36843432D01*
X156060761Y-36950000D01*
X156339239Y-36950000D01*
X156596518Y-36843432D01*
X156793432Y-36646518D01*
X156900000Y-36389239D01*
X156900000Y-36110761D01*
X156793432Y-35853482D01*
X156596518Y-35656568D01*
X156339239Y-35550000D01*
X156060761Y-35550000D01*
X155803482Y-35656568D01*
X155606568Y-35853482D01*
X155500000Y-36110761D01*
X150228953Y-36110761D01*
X150300000Y-35939239D01*
X150300000Y-35660761D01*
X150193432Y-35403482D01*
X149996518Y-35206568D01*
X149739239Y-35100000D01*
X149460761Y-35100000D01*
X149203482Y-35206568D01*
X149006568Y-35403482D01*
X148900000Y-35660761D01*
X90400000Y-35660761D01*
X90400000Y-30400000D01*
X169600001Y-30400000D01*
X169600001Y-72650000D01*
G04 #@! TD*
M02*
