G04 #@! TF.GenerationSoftware,KiCad,Pcbnew,5.0.2-bee76a0~70~ubuntu18.04.1*
G04 #@! TF.CreationDate,2019-01-23T11:33:38-08:00*
G04 #@! TF.ProjectId,controller,636f6e74-726f-46c6-9c65-722e6b696361,rev?*
G04 #@! TF.SameCoordinates,Original*
G04 #@! TF.FileFunction,Legend,Top*
G04 #@! TF.FilePolarity,Positive*
%FSLAX46Y46*%
G04 Gerber Fmt 4.6, Leading zero omitted, Abs format (unit mm)*
G04 Created by KiCad (PCBNEW 5.0.2-bee76a0~70~ubuntu18.04.1) date Wed 23 Jan 2019 11:33:38 AM PST*
%MOMM*%
%LPD*%
G01*
G04 APERTURE LIST*
%ADD10C,0.300000*%
%ADD11C,0.150000*%
%ADD12C,0.120000*%
%ADD13C,0.200000*%
%ADD14C,0.127000*%
G04 APERTURE END LIST*
D10*
X130035714Y-121260714D02*
X129964285Y-121332142D01*
X129750000Y-121403571D01*
X129607142Y-121403571D01*
X129392857Y-121332142D01*
X129250000Y-121189285D01*
X129178571Y-121046428D01*
X129107142Y-120760714D01*
X129107142Y-120546428D01*
X129178571Y-120260714D01*
X129250000Y-120117857D01*
X129392857Y-119975000D01*
X129607142Y-119903571D01*
X129750000Y-119903571D01*
X129964285Y-119975000D01*
X130035714Y-120046428D01*
X131321428Y-120403571D02*
X131321428Y-121403571D01*
X130678571Y-120403571D02*
X130678571Y-121189285D01*
X130750000Y-121332142D01*
X130892857Y-121403571D01*
X131107142Y-121403571D01*
X131250000Y-121332142D01*
X131321428Y-121260714D01*
X131821428Y-120403571D02*
X132392857Y-120403571D01*
X132035714Y-119903571D02*
X132035714Y-121189285D01*
X132107142Y-121332142D01*
X132250000Y-121403571D01*
X132392857Y-121403571D01*
X133464285Y-121332142D02*
X133321428Y-121403571D01*
X133035714Y-121403571D01*
X132892857Y-121332142D01*
X132821428Y-121189285D01*
X132821428Y-120617857D01*
X132892857Y-120475000D01*
X133035714Y-120403571D01*
X133321428Y-120403571D01*
X133464285Y-120475000D01*
X133535714Y-120617857D01*
X133535714Y-120760714D01*
X132821428Y-120903571D01*
X136321428Y-121546428D02*
X136178571Y-121475000D01*
X136035714Y-121332142D01*
X135821428Y-121117857D01*
X135678571Y-121046428D01*
X135535714Y-121046428D01*
X135607142Y-121403571D02*
X135464285Y-121332142D01*
X135321428Y-121189285D01*
X135250000Y-120903571D01*
X135250000Y-120403571D01*
X135321428Y-120117857D01*
X135464285Y-119975000D01*
X135607142Y-119903571D01*
X135892857Y-119903571D01*
X136035714Y-119975000D01*
X136178571Y-120117857D01*
X136250000Y-120403571D01*
X136250000Y-120903571D01*
X136178571Y-121189285D01*
X136035714Y-121332142D01*
X135892857Y-121403571D01*
X135607142Y-121403571D01*
X137750000Y-121260714D02*
X137678571Y-121332142D01*
X137464285Y-121403571D01*
X137321428Y-121403571D01*
X137107142Y-121332142D01*
X136964285Y-121189285D01*
X136892857Y-121046428D01*
X136821428Y-120760714D01*
X136821428Y-120546428D01*
X136892857Y-120260714D01*
X136964285Y-120117857D01*
X137107142Y-119975000D01*
X137321428Y-119903571D01*
X137464285Y-119903571D01*
X137678571Y-119975000D01*
X137750000Y-120046428D01*
X138250000Y-119903571D02*
X138607142Y-121403571D01*
X138892857Y-120332142D01*
X139178571Y-121403571D01*
X139535714Y-119903571D01*
X142107142Y-121260714D02*
X142035714Y-121332142D01*
X141821428Y-121403571D01*
X141678571Y-121403571D01*
X141464285Y-121332142D01*
X141321428Y-121189285D01*
X141250000Y-121046428D01*
X141178571Y-120760714D01*
X141178571Y-120546428D01*
X141250000Y-120260714D01*
X141321428Y-120117857D01*
X141464285Y-119975000D01*
X141678571Y-119903571D01*
X141821428Y-119903571D01*
X142035714Y-119975000D01*
X142107142Y-120046428D01*
X142964285Y-121403571D02*
X142821428Y-121332142D01*
X142750000Y-121260714D01*
X142678571Y-121117857D01*
X142678571Y-120689285D01*
X142750000Y-120546428D01*
X142821428Y-120475000D01*
X142964285Y-120403571D01*
X143178571Y-120403571D01*
X143321428Y-120475000D01*
X143392857Y-120546428D01*
X143464285Y-120689285D01*
X143464285Y-121117857D01*
X143392857Y-121260714D01*
X143321428Y-121332142D01*
X143178571Y-121403571D01*
X142964285Y-121403571D01*
X144107142Y-120403571D02*
X144107142Y-121403571D01*
X144107142Y-120546428D02*
X144178571Y-120475000D01*
X144321428Y-120403571D01*
X144535714Y-120403571D01*
X144678571Y-120475000D01*
X144750000Y-120617857D01*
X144750000Y-121403571D01*
X145250000Y-120403571D02*
X145821428Y-120403571D01*
X145464285Y-119903571D02*
X145464285Y-121189285D01*
X145535714Y-121332142D01*
X145678571Y-121403571D01*
X145821428Y-121403571D01*
X146321428Y-121403571D02*
X146321428Y-120403571D01*
X146321428Y-120689285D02*
X146392857Y-120546428D01*
X146464285Y-120475000D01*
X146607142Y-120403571D01*
X146750000Y-120403571D01*
X147464285Y-121403571D02*
X147321428Y-121332142D01*
X147250000Y-121260714D01*
X147178571Y-121117857D01*
X147178571Y-120689285D01*
X147250000Y-120546428D01*
X147321428Y-120475000D01*
X147464285Y-120403571D01*
X147678571Y-120403571D01*
X147821428Y-120475000D01*
X147892857Y-120546428D01*
X147964285Y-120689285D01*
X147964285Y-121117857D01*
X147892857Y-121260714D01*
X147821428Y-121332142D01*
X147678571Y-121403571D01*
X147464285Y-121403571D01*
X148821428Y-121403571D02*
X148678571Y-121332142D01*
X148607142Y-121189285D01*
X148607142Y-119903571D01*
X149607142Y-121403571D02*
X149464285Y-121332142D01*
X149392857Y-121189285D01*
X149392857Y-119903571D01*
X150750000Y-121332142D02*
X150607142Y-121403571D01*
X150321428Y-121403571D01*
X150178571Y-121332142D01*
X150107142Y-121189285D01*
X150107142Y-120617857D01*
X150178571Y-120475000D01*
X150321428Y-120403571D01*
X150607142Y-120403571D01*
X150750000Y-120475000D01*
X150821428Y-120617857D01*
X150821428Y-120760714D01*
X150107142Y-120903571D01*
X151464285Y-121403571D02*
X151464285Y-120403571D01*
X151464285Y-120689285D02*
X151535714Y-120546428D01*
X151607142Y-120475000D01*
X151750000Y-120403571D01*
X151892857Y-120403571D01*
X154035714Y-120617857D02*
X154250000Y-120689285D01*
X154321428Y-120760714D01*
X154392857Y-120903571D01*
X154392857Y-121117857D01*
X154321428Y-121260714D01*
X154250000Y-121332142D01*
X154107142Y-121403571D01*
X153535714Y-121403571D01*
X153535714Y-119903571D01*
X154035714Y-119903571D01*
X154178571Y-119975000D01*
X154250000Y-120046428D01*
X154321428Y-120189285D01*
X154321428Y-120332142D01*
X154250000Y-120475000D01*
X154178571Y-120546428D01*
X154035714Y-120617857D01*
X153535714Y-120617857D01*
X155250000Y-121403571D02*
X155107142Y-121332142D01*
X155035714Y-121260714D01*
X154964285Y-121117857D01*
X154964285Y-120689285D01*
X155035714Y-120546428D01*
X155107142Y-120475000D01*
X155250000Y-120403571D01*
X155464285Y-120403571D01*
X155607142Y-120475000D01*
X155678571Y-120546428D01*
X155750000Y-120689285D01*
X155750000Y-121117857D01*
X155678571Y-121260714D01*
X155607142Y-121332142D01*
X155464285Y-121403571D01*
X155250000Y-121403571D01*
X157035714Y-121403571D02*
X157035714Y-120617857D01*
X156964285Y-120475000D01*
X156821428Y-120403571D01*
X156535714Y-120403571D01*
X156392857Y-120475000D01*
X157035714Y-121332142D02*
X156892857Y-121403571D01*
X156535714Y-121403571D01*
X156392857Y-121332142D01*
X156321428Y-121189285D01*
X156321428Y-121046428D01*
X156392857Y-120903571D01*
X156535714Y-120832142D01*
X156892857Y-120832142D01*
X157035714Y-120760714D01*
X157750000Y-121403571D02*
X157750000Y-120403571D01*
X157750000Y-120689285D02*
X157821428Y-120546428D01*
X157892857Y-120475000D01*
X158035714Y-120403571D01*
X158178571Y-120403571D01*
X159321428Y-121403571D02*
X159321428Y-119903571D01*
X159321428Y-121332142D02*
X159178571Y-121403571D01*
X158892857Y-121403571D01*
X158750000Y-121332142D01*
X158678571Y-121260714D01*
X158607142Y-121117857D01*
X158607142Y-120689285D01*
X158678571Y-120546428D01*
X158750000Y-120475000D01*
X158892857Y-120403571D01*
X159178571Y-120403571D01*
X159321428Y-120475000D01*
X134357142Y-122953571D02*
X134642857Y-123953571D01*
X134928571Y-123239285D01*
X135214285Y-123953571D01*
X135500000Y-122953571D01*
X136714285Y-123953571D02*
X136714285Y-122453571D01*
X136714285Y-123882142D02*
X136571428Y-123953571D01*
X136285714Y-123953571D01*
X136142857Y-123882142D01*
X136071428Y-123810714D01*
X136000000Y-123667857D01*
X136000000Y-123239285D01*
X136071428Y-123096428D01*
X136142857Y-123025000D01*
X136285714Y-122953571D01*
X136571428Y-122953571D01*
X136714285Y-123025000D01*
X137428571Y-123953571D02*
X137428571Y-122453571D01*
X137428571Y-123025000D02*
X137571428Y-122953571D01*
X137857142Y-122953571D01*
X138000000Y-123025000D01*
X138071428Y-123096428D01*
X138142857Y-123239285D01*
X138142857Y-123667857D01*
X138071428Y-123810714D01*
X138000000Y-123882142D01*
X137857142Y-123953571D01*
X137571428Y-123953571D01*
X137428571Y-123882142D01*
X139714285Y-123239285D02*
X139642857Y-123167857D01*
X139500000Y-123096428D01*
X139357142Y-123096428D01*
X139214285Y-123167857D01*
X139142857Y-123239285D01*
X139071428Y-123382142D01*
X139071428Y-123525000D01*
X139142857Y-123667857D01*
X139214285Y-123739285D01*
X139357142Y-123810714D01*
X139500000Y-123810714D01*
X139642857Y-123739285D01*
X139714285Y-123667857D01*
X139714285Y-123096428D02*
X139714285Y-123667857D01*
X139785714Y-123739285D01*
X139857142Y-123739285D01*
X140000000Y-123667857D01*
X140071428Y-123525000D01*
X140071428Y-123167857D01*
X139928571Y-122953571D01*
X139714285Y-122810714D01*
X139428571Y-122739285D01*
X139142857Y-122810714D01*
X138928571Y-122953571D01*
X138785714Y-123167857D01*
X138714285Y-123453571D01*
X138785714Y-123739285D01*
X138928571Y-123953571D01*
X139142857Y-124096428D01*
X139428571Y-124167857D01*
X139714285Y-124096428D01*
X139928571Y-123953571D01*
X140642857Y-123882142D02*
X140785714Y-123953571D01*
X141071428Y-123953571D01*
X141214285Y-123882142D01*
X141285714Y-123739285D01*
X141285714Y-123667857D01*
X141214285Y-123525000D01*
X141071428Y-123453571D01*
X140857142Y-123453571D01*
X140714285Y-123382142D01*
X140642857Y-123239285D01*
X140642857Y-123167857D01*
X140714285Y-123025000D01*
X140857142Y-122953571D01*
X141071428Y-122953571D01*
X141214285Y-123025000D01*
X141714285Y-122953571D02*
X142285714Y-122953571D01*
X141928571Y-122453571D02*
X141928571Y-123739285D01*
X142000000Y-123882142D01*
X142142857Y-123953571D01*
X142285714Y-123953571D01*
X143428571Y-123953571D02*
X143428571Y-123167857D01*
X143357142Y-123025000D01*
X143214285Y-122953571D01*
X142928571Y-122953571D01*
X142785714Y-123025000D01*
X143428571Y-123882142D02*
X143285714Y-123953571D01*
X142928571Y-123953571D01*
X142785714Y-123882142D01*
X142714285Y-123739285D01*
X142714285Y-123596428D01*
X142785714Y-123453571D01*
X142928571Y-123382142D01*
X143285714Y-123382142D01*
X143428571Y-123310714D01*
X144142857Y-122953571D02*
X144142857Y-123953571D01*
X144142857Y-123096428D02*
X144214285Y-123025000D01*
X144357142Y-122953571D01*
X144571428Y-122953571D01*
X144714285Y-123025000D01*
X144785714Y-123167857D01*
X144785714Y-123953571D01*
X145285714Y-122953571D02*
X145857142Y-122953571D01*
X145500000Y-123953571D02*
X145500000Y-122667857D01*
X145571428Y-122525000D01*
X145714285Y-122453571D01*
X145857142Y-122453571D01*
X146571428Y-123953571D02*
X146428571Y-123882142D01*
X146357142Y-123810714D01*
X146285714Y-123667857D01*
X146285714Y-123239285D01*
X146357142Y-123096428D01*
X146428571Y-123025000D01*
X146571428Y-122953571D01*
X146785714Y-122953571D01*
X146928571Y-123025000D01*
X147000000Y-123096428D01*
X147071428Y-123239285D01*
X147071428Y-123667857D01*
X147000000Y-123810714D01*
X146928571Y-123882142D01*
X146785714Y-123953571D01*
X146571428Y-123953571D01*
X147714285Y-123953571D02*
X147714285Y-122953571D01*
X147714285Y-123239285D02*
X147785714Y-123096428D01*
X147857142Y-123025000D01*
X148000000Y-122953571D01*
X148142857Y-122953571D01*
X149285714Y-123953571D02*
X149285714Y-122453571D01*
X149285714Y-123882142D02*
X149142857Y-123953571D01*
X148857142Y-123953571D01*
X148714285Y-123882142D01*
X148642857Y-123810714D01*
X148571428Y-123667857D01*
X148571428Y-123239285D01*
X148642857Y-123096428D01*
X148714285Y-123025000D01*
X148857142Y-122953571D01*
X149142857Y-122953571D01*
X149285714Y-123025000D01*
X150000000Y-123810714D02*
X150071428Y-123882142D01*
X150000000Y-123953571D01*
X149928571Y-123882142D01*
X150000000Y-123810714D01*
X150000000Y-123953571D01*
X151285714Y-123882142D02*
X151142857Y-123953571D01*
X150857142Y-123953571D01*
X150714285Y-123882142D01*
X150642857Y-123739285D01*
X150642857Y-123167857D01*
X150714285Y-123025000D01*
X150857142Y-122953571D01*
X151142857Y-122953571D01*
X151285714Y-123025000D01*
X151357142Y-123167857D01*
X151357142Y-123310714D01*
X150642857Y-123453571D01*
X152642857Y-123953571D02*
X152642857Y-122453571D01*
X152642857Y-123882142D02*
X152500000Y-123953571D01*
X152214285Y-123953571D01*
X152071428Y-123882142D01*
X152000000Y-123810714D01*
X151928571Y-123667857D01*
X151928571Y-123239285D01*
X152000000Y-123096428D01*
X152071428Y-123025000D01*
X152214285Y-122953571D01*
X152500000Y-122953571D01*
X152642857Y-123025000D01*
X154000000Y-122953571D02*
X154000000Y-123953571D01*
X153357142Y-122953571D02*
X153357142Y-123739285D01*
X153428571Y-123882142D01*
X153571428Y-123953571D01*
X153785714Y-123953571D01*
X153928571Y-123882142D01*
X154000000Y-123810714D01*
D11*
X101238095Y-83611904D02*
X100971428Y-83230952D01*
X100780952Y-83611904D02*
X100780952Y-82811904D01*
X101085714Y-82811904D01*
X101161904Y-82850000D01*
X101200000Y-82888095D01*
X101238095Y-82964285D01*
X101238095Y-83078571D01*
X101200000Y-83154761D01*
X101161904Y-83192857D01*
X101085714Y-83230952D01*
X100780952Y-83230952D01*
X101885714Y-83573809D02*
X101809523Y-83611904D01*
X101657142Y-83611904D01*
X101580952Y-83573809D01*
X101542857Y-83497619D01*
X101542857Y-83192857D01*
X101580952Y-83116666D01*
X101657142Y-83078571D01*
X101809523Y-83078571D01*
X101885714Y-83116666D01*
X101923809Y-83192857D01*
X101923809Y-83269047D01*
X101542857Y-83345238D01*
X102380952Y-83611904D02*
X102304761Y-83573809D01*
X102266666Y-83497619D01*
X102266666Y-82811904D01*
X103028571Y-83611904D02*
X103028571Y-83192857D01*
X102990476Y-83116666D01*
X102914285Y-83078571D01*
X102761904Y-83078571D01*
X102685714Y-83116666D01*
X103028571Y-83573809D02*
X102952380Y-83611904D01*
X102761904Y-83611904D01*
X102685714Y-83573809D01*
X102647619Y-83497619D01*
X102647619Y-83421428D01*
X102685714Y-83345238D01*
X102761904Y-83307142D01*
X102952380Y-83307142D01*
X103028571Y-83269047D01*
X103333333Y-83078571D02*
X103523809Y-83611904D01*
X103714285Y-83078571D02*
X103523809Y-83611904D01*
X103447619Y-83802380D01*
X103409523Y-83840476D01*
X103333333Y-83878571D01*
X104628571Y-83611904D02*
X104628571Y-82811904D01*
X104819047Y-82811904D01*
X104933333Y-82850000D01*
X105009523Y-82926190D01*
X105047619Y-83002380D01*
X105085714Y-83154761D01*
X105085714Y-83269047D01*
X105047619Y-83421428D01*
X105009523Y-83497619D01*
X104933333Y-83573809D01*
X104819047Y-83611904D01*
X104628571Y-83611904D01*
X105428571Y-83611904D02*
X105428571Y-83078571D01*
X105428571Y-83230952D02*
X105466666Y-83154761D01*
X105504761Y-83116666D01*
X105580952Y-83078571D01*
X105657142Y-83078571D01*
X105923809Y-83611904D02*
X105923809Y-83078571D01*
X105923809Y-82811904D02*
X105885714Y-82850000D01*
X105923809Y-82888095D01*
X105961904Y-82850000D01*
X105923809Y-82811904D01*
X105923809Y-82888095D01*
X106228571Y-83078571D02*
X106419047Y-83611904D01*
X106609523Y-83078571D01*
X107219047Y-83573809D02*
X107142857Y-83611904D01*
X106990476Y-83611904D01*
X106914285Y-83573809D01*
X106876190Y-83497619D01*
X106876190Y-83192857D01*
X106914285Y-83116666D01*
X106990476Y-83078571D01*
X107142857Y-83078571D01*
X107219047Y-83116666D01*
X107257142Y-83192857D01*
X107257142Y-83269047D01*
X106876190Y-83345238D01*
X157421428Y-75436904D02*
X157421428Y-74636904D01*
X157611904Y-74636904D01*
X157726190Y-74675000D01*
X157802380Y-74751190D01*
X157840476Y-74827380D01*
X157878571Y-74979761D01*
X157878571Y-75094047D01*
X157840476Y-75246428D01*
X157802380Y-75322619D01*
X157726190Y-75398809D01*
X157611904Y-75436904D01*
X157421428Y-75436904D01*
X158526190Y-75398809D02*
X158450000Y-75436904D01*
X158297619Y-75436904D01*
X158221428Y-75398809D01*
X158183333Y-75322619D01*
X158183333Y-75017857D01*
X158221428Y-74941666D01*
X158297619Y-74903571D01*
X158450000Y-74903571D01*
X158526190Y-74941666D01*
X158564285Y-75017857D01*
X158564285Y-75094047D01*
X158183333Y-75170238D01*
X158907142Y-75436904D02*
X158907142Y-74636904D01*
X158907142Y-74941666D02*
X158983333Y-74903571D01*
X159135714Y-74903571D01*
X159211904Y-74941666D01*
X159250000Y-74979761D01*
X159288095Y-75055952D01*
X159288095Y-75284523D01*
X159250000Y-75360714D01*
X159211904Y-75398809D01*
X159135714Y-75436904D01*
X158983333Y-75436904D01*
X158907142Y-75398809D01*
X159973809Y-74903571D02*
X159973809Y-75436904D01*
X159630952Y-74903571D02*
X159630952Y-75322619D01*
X159669047Y-75398809D01*
X159745238Y-75436904D01*
X159859523Y-75436904D01*
X159935714Y-75398809D01*
X159973809Y-75360714D01*
X160697619Y-74903571D02*
X160697619Y-75551190D01*
X160659523Y-75627380D01*
X160621428Y-75665476D01*
X160545238Y-75703571D01*
X160430952Y-75703571D01*
X160354761Y-75665476D01*
X160697619Y-75398809D02*
X160621428Y-75436904D01*
X160469047Y-75436904D01*
X160392857Y-75398809D01*
X160354761Y-75360714D01*
X160316666Y-75284523D01*
X160316666Y-75055952D01*
X160354761Y-74979761D01*
X160392857Y-74941666D01*
X160469047Y-74903571D01*
X160621428Y-74903571D01*
X160697619Y-74941666D01*
X161078571Y-75360714D02*
X161116666Y-75398809D01*
X161078571Y-75436904D01*
X161040476Y-75398809D01*
X161078571Y-75360714D01*
X161078571Y-75436904D01*
X161078571Y-74941666D02*
X161116666Y-74979761D01*
X161078571Y-75017857D01*
X161040476Y-74979761D01*
X161078571Y-74941666D01*
X161078571Y-75017857D01*
X154659523Y-75986904D02*
X155154761Y-75986904D01*
X154888095Y-76291666D01*
X155002380Y-76291666D01*
X155078571Y-76329761D01*
X155116666Y-76367857D01*
X155154761Y-76444047D01*
X155154761Y-76634523D01*
X155116666Y-76710714D01*
X155078571Y-76748809D01*
X155002380Y-76786904D01*
X154773809Y-76786904D01*
X154697619Y-76748809D01*
X154659523Y-76710714D01*
X155383333Y-75986904D02*
X155650000Y-76786904D01*
X155916666Y-75986904D01*
X156107142Y-75986904D02*
X156602380Y-75986904D01*
X156335714Y-76291666D01*
X156450000Y-76291666D01*
X156526190Y-76329761D01*
X156564285Y-76367857D01*
X156602380Y-76444047D01*
X156602380Y-76634523D01*
X156564285Y-76710714D01*
X156526190Y-76748809D01*
X156450000Y-76786904D01*
X156221428Y-76786904D01*
X156145238Y-76748809D01*
X156107142Y-76710714D01*
X157440476Y-75986904D02*
X157897619Y-75986904D01*
X157669047Y-76786904D02*
X157669047Y-75986904D01*
X158088095Y-75986904D02*
X158621428Y-76786904D01*
X158621428Y-75986904D02*
X158088095Y-76786904D01*
X159992857Y-76786904D02*
X159726190Y-76405952D01*
X159535714Y-76786904D02*
X159535714Y-75986904D01*
X159840476Y-75986904D01*
X159916666Y-76025000D01*
X159954761Y-76063095D01*
X159992857Y-76139285D01*
X159992857Y-76253571D01*
X159954761Y-76329761D01*
X159916666Y-76367857D01*
X159840476Y-76405952D01*
X159535714Y-76405952D01*
X160259523Y-75986904D02*
X160792857Y-76786904D01*
X160792857Y-75986904D02*
X160259523Y-76786904D01*
X162126190Y-76025000D02*
X162050000Y-75986904D01*
X161935714Y-75986904D01*
X161821428Y-76025000D01*
X161745238Y-76101190D01*
X161707142Y-76177380D01*
X161669047Y-76329761D01*
X161669047Y-76444047D01*
X161707142Y-76596428D01*
X161745238Y-76672619D01*
X161821428Y-76748809D01*
X161935714Y-76786904D01*
X162011904Y-76786904D01*
X162126190Y-76748809D01*
X162164285Y-76710714D01*
X162164285Y-76444047D01*
X162011904Y-76444047D01*
X162507142Y-76786904D02*
X162507142Y-75986904D01*
X162964285Y-76786904D01*
X162964285Y-75986904D01*
X163345238Y-76786904D02*
X163345238Y-75986904D01*
X163535714Y-75986904D01*
X163650000Y-76025000D01*
X163726190Y-76101190D01*
X163764285Y-76177380D01*
X163802380Y-76329761D01*
X163802380Y-76444047D01*
X163764285Y-76596428D01*
X163726190Y-76672619D01*
X163650000Y-76748809D01*
X163535714Y-76786904D01*
X163345238Y-76786904D01*
X152071428Y-84386904D02*
X152071428Y-84958333D01*
X152033333Y-85072619D01*
X151957142Y-85148809D01*
X151842857Y-85186904D01*
X151766666Y-85186904D01*
X152338095Y-84386904D02*
X152795238Y-84386904D01*
X152566666Y-85186904D02*
X152566666Y-84386904D01*
X153023809Y-84958333D02*
X153404761Y-84958333D01*
X152947619Y-85186904D02*
X153214285Y-84386904D01*
X153480952Y-85186904D01*
X154166666Y-84425000D02*
X154090476Y-84386904D01*
X153976190Y-84386904D01*
X153861904Y-84425000D01*
X153785714Y-84501190D01*
X153747619Y-84577380D01*
X153709523Y-84729761D01*
X153709523Y-84844047D01*
X153747619Y-84996428D01*
X153785714Y-85072619D01*
X153861904Y-85148809D01*
X153976190Y-85186904D01*
X154052380Y-85186904D01*
X154166666Y-85148809D01*
X154204761Y-85110714D01*
X154204761Y-84844047D01*
X154052380Y-84844047D01*
X154547619Y-85110714D02*
X154585714Y-85148809D01*
X154547619Y-85186904D01*
X154509523Y-85148809D01*
X154547619Y-85110714D01*
X154547619Y-85186904D01*
X154547619Y-84691666D02*
X154585714Y-84729761D01*
X154547619Y-84767857D01*
X154509523Y-84729761D01*
X154547619Y-84691666D01*
X154547619Y-84767857D01*
X145500000Y-85736904D02*
X145995238Y-85736904D01*
X145728571Y-86041666D01*
X145842857Y-86041666D01*
X145919047Y-86079761D01*
X145957142Y-86117857D01*
X145995238Y-86194047D01*
X145995238Y-86384523D01*
X145957142Y-86460714D01*
X145919047Y-86498809D01*
X145842857Y-86536904D01*
X145614285Y-86536904D01*
X145538095Y-86498809D01*
X145500000Y-86460714D01*
X146223809Y-85736904D02*
X146490476Y-86536904D01*
X146757142Y-85736904D01*
X146947619Y-85736904D02*
X147442857Y-85736904D01*
X147176190Y-86041666D01*
X147290476Y-86041666D01*
X147366666Y-86079761D01*
X147404761Y-86117857D01*
X147442857Y-86194047D01*
X147442857Y-86384523D01*
X147404761Y-86460714D01*
X147366666Y-86498809D01*
X147290476Y-86536904D01*
X147061904Y-86536904D01*
X146985714Y-86498809D01*
X146947619Y-86460714D01*
X148280952Y-85736904D02*
X148738095Y-85736904D01*
X148509523Y-86536904D02*
X148509523Y-85736904D01*
X149461904Y-86460714D02*
X149423809Y-86498809D01*
X149309523Y-86536904D01*
X149233333Y-86536904D01*
X149119047Y-86498809D01*
X149042857Y-86422619D01*
X149004761Y-86346428D01*
X148966666Y-86194047D01*
X148966666Y-86079761D01*
X149004761Y-85927380D01*
X149042857Y-85851190D01*
X149119047Y-85775000D01*
X149233333Y-85736904D01*
X149309523Y-85736904D01*
X149423809Y-85775000D01*
X149461904Y-85813095D01*
X149804761Y-86536904D02*
X149804761Y-85736904D01*
X150261904Y-86536904D02*
X149919047Y-86079761D01*
X150261904Y-85736904D02*
X149804761Y-86194047D01*
X151100000Y-85736904D02*
X151557142Y-85736904D01*
X151328571Y-86536904D02*
X151328571Y-85736904D01*
X151823809Y-86536904D02*
X151823809Y-85736904D01*
X152014285Y-85736904D01*
X152128571Y-85775000D01*
X152204761Y-85851190D01*
X152242857Y-85927380D01*
X152280952Y-86079761D01*
X152280952Y-86194047D01*
X152242857Y-86346428D01*
X152204761Y-86422619D01*
X152128571Y-86498809D01*
X152014285Y-86536904D01*
X151823809Y-86536904D01*
X152623809Y-86536904D02*
X152623809Y-85736904D01*
X153500000Y-85736904D02*
X153957142Y-85736904D01*
X153728571Y-86536904D02*
X153728571Y-85736904D01*
X154223809Y-86536904D02*
X154223809Y-85736904D01*
X154490476Y-86308333D01*
X154757142Y-85736904D01*
X154757142Y-86536904D01*
X155100000Y-86498809D02*
X155214285Y-86536904D01*
X155404761Y-86536904D01*
X155480952Y-86498809D01*
X155519047Y-86460714D01*
X155557142Y-86384523D01*
X155557142Y-86308333D01*
X155519047Y-86232142D01*
X155480952Y-86194047D01*
X155404761Y-86155952D01*
X155252380Y-86117857D01*
X155176190Y-86079761D01*
X155138095Y-86041666D01*
X155100000Y-85965476D01*
X155100000Y-85889285D01*
X155138095Y-85813095D01*
X155176190Y-85775000D01*
X155252380Y-85736904D01*
X155442857Y-85736904D01*
X155557142Y-85775000D01*
X156395238Y-85736904D02*
X156852380Y-85736904D01*
X156623809Y-86536904D02*
X156623809Y-85736904D01*
X157119047Y-86536904D02*
X157119047Y-85736904D01*
X157309523Y-85736904D01*
X157423809Y-85775000D01*
X157500000Y-85851190D01*
X157538095Y-85927380D01*
X157576190Y-86079761D01*
X157576190Y-86194047D01*
X157538095Y-86346428D01*
X157500000Y-86422619D01*
X157423809Y-86498809D01*
X157309523Y-86536904D01*
X157119047Y-86536904D01*
X158071428Y-85736904D02*
X158223809Y-85736904D01*
X158300000Y-85775000D01*
X158376190Y-85851190D01*
X158414285Y-86003571D01*
X158414285Y-86270238D01*
X158376190Y-86422619D01*
X158300000Y-86498809D01*
X158223809Y-86536904D01*
X158071428Y-86536904D01*
X157995238Y-86498809D01*
X157919047Y-86422619D01*
X157880952Y-86270238D01*
X157880952Y-86003571D01*
X157919047Y-85851190D01*
X157995238Y-85775000D01*
X158071428Y-85736904D01*
X159785714Y-85775000D02*
X159709523Y-85736904D01*
X159595238Y-85736904D01*
X159480952Y-85775000D01*
X159404761Y-85851190D01*
X159366666Y-85927380D01*
X159328571Y-86079761D01*
X159328571Y-86194047D01*
X159366666Y-86346428D01*
X159404761Y-86422619D01*
X159480952Y-86498809D01*
X159595238Y-86536904D01*
X159671428Y-86536904D01*
X159785714Y-86498809D01*
X159823809Y-86460714D01*
X159823809Y-86194047D01*
X159671428Y-86194047D01*
X160166666Y-86536904D02*
X160166666Y-85736904D01*
X160623809Y-86536904D01*
X160623809Y-85736904D01*
X161004761Y-86536904D02*
X161004761Y-85736904D01*
X161195238Y-85736904D01*
X161309523Y-85775000D01*
X161385714Y-85851190D01*
X161423809Y-85927380D01*
X161461904Y-86079761D01*
X161461904Y-86194047D01*
X161423809Y-86346428D01*
X161385714Y-86422619D01*
X161309523Y-86498809D01*
X161195238Y-86536904D01*
X161004761Y-86536904D01*
D10*
X100857142Y-52000000D02*
X100714285Y-51928571D01*
X100500000Y-51928571D01*
X100285714Y-52000000D01*
X100142857Y-52142857D01*
X100071428Y-52285714D01*
X100000000Y-52571428D01*
X100000000Y-52785714D01*
X100071428Y-53071428D01*
X100142857Y-53214285D01*
X100285714Y-53357142D01*
X100500000Y-53428571D01*
X100642857Y-53428571D01*
X100857142Y-53357142D01*
X100928571Y-53285714D01*
X100928571Y-52785714D01*
X100642857Y-52785714D01*
X101571428Y-53428571D02*
X101571428Y-51928571D01*
X102428571Y-53428571D01*
X102428571Y-51928571D01*
X103142857Y-53428571D02*
X103142857Y-51928571D01*
X103500000Y-51928571D01*
X103714285Y-52000000D01*
X103857142Y-52142857D01*
X103928571Y-52285714D01*
X104000000Y-52571428D01*
X104000000Y-52785714D01*
X103928571Y-53071428D01*
X103857142Y-53214285D01*
X103714285Y-53357142D01*
X103500000Y-53428571D01*
X103142857Y-53428571D01*
X98107142Y-40857142D02*
X99250000Y-40857142D01*
X98678571Y-41428571D02*
X98678571Y-40285714D01*
X99892857Y-40071428D02*
X99964285Y-40000000D01*
X100107142Y-39928571D01*
X100464285Y-39928571D01*
X100607142Y-40000000D01*
X100678571Y-40071428D01*
X100750000Y-40214285D01*
X100750000Y-40357142D01*
X100678571Y-40571428D01*
X99821428Y-41428571D01*
X100750000Y-41428571D01*
X102035714Y-40428571D02*
X102035714Y-41428571D01*
X101678571Y-39857142D02*
X101321428Y-40928571D01*
X102250000Y-40928571D01*
X102607142Y-39928571D02*
X103107142Y-41428571D01*
X103607142Y-39928571D01*
X105000000Y-76928571D02*
X104500000Y-76214285D01*
X104142857Y-76928571D02*
X104142857Y-75428571D01*
X104714285Y-75428571D01*
X104857142Y-75500000D01*
X104928571Y-75571428D01*
X105000000Y-75714285D01*
X105000000Y-75928571D01*
X104928571Y-76071428D01*
X104857142Y-76142857D01*
X104714285Y-76214285D01*
X104142857Y-76214285D01*
X105500000Y-75428571D02*
X106500000Y-76928571D01*
X106500000Y-75428571D02*
X105500000Y-76928571D01*
X104107142Y-55178571D02*
X104964285Y-55178571D01*
X104535714Y-56678571D02*
X104535714Y-55178571D01*
X105321428Y-55178571D02*
X106321428Y-56678571D01*
X106321428Y-55178571D02*
X105321428Y-56678571D01*
X162857142Y-106678571D02*
X163142857Y-106678571D01*
X163285714Y-106750000D01*
X163428571Y-106892857D01*
X163500000Y-107178571D01*
X163500000Y-107678571D01*
X163428571Y-107964285D01*
X163285714Y-108107142D01*
X163142857Y-108178571D01*
X162857142Y-108178571D01*
X162714285Y-108107142D01*
X162571428Y-107964285D01*
X162500000Y-107678571D01*
X162500000Y-107178571D01*
X162571428Y-106892857D01*
X162714285Y-106750000D01*
X162857142Y-106678571D01*
X165000000Y-108035714D02*
X164928571Y-108107142D01*
X164714285Y-108178571D01*
X164571428Y-108178571D01*
X164357142Y-108107142D01*
X164214285Y-107964285D01*
X164142857Y-107821428D01*
X164071428Y-107535714D01*
X164071428Y-107321428D01*
X164142857Y-107035714D01*
X164214285Y-106892857D01*
X164357142Y-106750000D01*
X164571428Y-106678571D01*
X164714285Y-106678571D01*
X164928571Y-106750000D01*
X165000000Y-106821428D01*
X165642857Y-108178571D02*
X165642857Y-106678571D01*
X166000000Y-106678571D01*
X166214285Y-106750000D01*
X166357142Y-106892857D01*
X166428571Y-107035714D01*
X166500000Y-107321428D01*
X166500000Y-107535714D01*
X166428571Y-107821428D01*
X166357142Y-107964285D01*
X166214285Y-108107142D01*
X166000000Y-108178571D01*
X165642857Y-108178571D01*
X159892857Y-91142857D02*
X159392857Y-91142857D01*
X159392857Y-91928571D02*
X159392857Y-90428571D01*
X160107142Y-90428571D01*
X161250000Y-91857142D02*
X161107142Y-91928571D01*
X160821428Y-91928571D01*
X160678571Y-91857142D01*
X160607142Y-91714285D01*
X160607142Y-91142857D01*
X160678571Y-91000000D01*
X160821428Y-90928571D01*
X161107142Y-90928571D01*
X161250000Y-91000000D01*
X161321428Y-91142857D01*
X161321428Y-91285714D01*
X160607142Y-91428571D01*
X162535714Y-91857142D02*
X162392857Y-91928571D01*
X162107142Y-91928571D01*
X161964285Y-91857142D01*
X161892857Y-91714285D01*
X161892857Y-91142857D01*
X161964285Y-91000000D01*
X162107142Y-90928571D01*
X162392857Y-90928571D01*
X162535714Y-91000000D01*
X162607142Y-91142857D01*
X162607142Y-91285714D01*
X161892857Y-91428571D01*
X163892857Y-91928571D02*
X163892857Y-90428571D01*
X163892857Y-91857142D02*
X163750000Y-91928571D01*
X163464285Y-91928571D01*
X163321428Y-91857142D01*
X163250000Y-91785714D01*
X163178571Y-91642857D01*
X163178571Y-91214285D01*
X163250000Y-91071428D01*
X163321428Y-91000000D01*
X163464285Y-90928571D01*
X163750000Y-90928571D01*
X163892857Y-91000000D01*
X164607142Y-91928571D02*
X164607142Y-90428571D01*
X164607142Y-91000000D02*
X164750000Y-90928571D01*
X165035714Y-90928571D01*
X165178571Y-91000000D01*
X165250000Y-91071428D01*
X165321428Y-91214285D01*
X165321428Y-91642857D01*
X165250000Y-91785714D01*
X165178571Y-91857142D01*
X165035714Y-91928571D01*
X164750000Y-91928571D01*
X164607142Y-91857142D01*
X166607142Y-91928571D02*
X166607142Y-91142857D01*
X166535714Y-91000000D01*
X166392857Y-90928571D01*
X166107142Y-90928571D01*
X165964285Y-91000000D01*
X166607142Y-91857142D02*
X166464285Y-91928571D01*
X166107142Y-91928571D01*
X165964285Y-91857142D01*
X165892857Y-91714285D01*
X165892857Y-91571428D01*
X165964285Y-91428571D01*
X166107142Y-91357142D01*
X166464285Y-91357142D01*
X166607142Y-91285714D01*
X167964285Y-91857142D02*
X167821428Y-91928571D01*
X167535714Y-91928571D01*
X167392857Y-91857142D01*
X167321428Y-91785714D01*
X167250000Y-91642857D01*
X167250000Y-91214285D01*
X167321428Y-91071428D01*
X167392857Y-91000000D01*
X167535714Y-90928571D01*
X167821428Y-90928571D01*
X167964285Y-91000000D01*
X168607142Y-91928571D02*
X168607142Y-90428571D01*
X168750000Y-91357142D02*
X169178571Y-91928571D01*
X169178571Y-90928571D02*
X168607142Y-91500000D01*
X163285714Y-62000000D02*
X163142857Y-61928571D01*
X162928571Y-61928571D01*
X162714285Y-62000000D01*
X162571428Y-62142857D01*
X162500000Y-62285714D01*
X162428571Y-62571428D01*
X162428571Y-62785714D01*
X162500000Y-63071428D01*
X162571428Y-63214285D01*
X162714285Y-63357142D01*
X162928571Y-63428571D01*
X163071428Y-63428571D01*
X163285714Y-63357142D01*
X163357142Y-63285714D01*
X163357142Y-62785714D01*
X163071428Y-62785714D01*
X164000000Y-63428571D02*
X164000000Y-61928571D01*
X164357142Y-61928571D01*
X164571428Y-62000000D01*
X164714285Y-62142857D01*
X164785714Y-62285714D01*
X164857142Y-62571428D01*
X164857142Y-62785714D01*
X164785714Y-63071428D01*
X164714285Y-63214285D01*
X164571428Y-63357142D01*
X164357142Y-63428571D01*
X164000000Y-63428571D01*
X165285714Y-61928571D02*
X166142857Y-61928571D01*
X165714285Y-63428571D02*
X165714285Y-61928571D01*
X167714285Y-62071428D02*
X167785714Y-62000000D01*
X167928571Y-61928571D01*
X168285714Y-61928571D01*
X168428571Y-62000000D01*
X168500000Y-62071428D01*
X168571428Y-62214285D01*
X168571428Y-62357142D01*
X168500000Y-62571428D01*
X167642857Y-63428571D01*
X168571428Y-63428571D01*
X163285714Y-43000000D02*
X163142857Y-42928571D01*
X162928571Y-42928571D01*
X162714285Y-43000000D01*
X162571428Y-43142857D01*
X162500000Y-43285714D01*
X162428571Y-43571428D01*
X162428571Y-43785714D01*
X162500000Y-44071428D01*
X162571428Y-44214285D01*
X162714285Y-44357142D01*
X162928571Y-44428571D01*
X163071428Y-44428571D01*
X163285714Y-44357142D01*
X163357142Y-44285714D01*
X163357142Y-43785714D01*
X163071428Y-43785714D01*
X164000000Y-44428571D02*
X164000000Y-42928571D01*
X164357142Y-42928571D01*
X164571428Y-43000000D01*
X164714285Y-43142857D01*
X164785714Y-43285714D01*
X164857142Y-43571428D01*
X164857142Y-43785714D01*
X164785714Y-44071428D01*
X164714285Y-44214285D01*
X164571428Y-44357142D01*
X164357142Y-44428571D01*
X164000000Y-44428571D01*
X165285714Y-42928571D02*
X166142857Y-42928571D01*
X165714285Y-44428571D02*
X165714285Y-42928571D01*
X168571428Y-44428571D02*
X167714285Y-44428571D01*
X168142857Y-44428571D02*
X168142857Y-42928571D01*
X168000000Y-43142857D01*
X167857142Y-43285714D01*
X167714285Y-43357142D01*
D12*
G04 #@! TO.C,C2003*
X108790000Y-46491422D02*
X108790000Y-47008578D01*
X110210000Y-46491422D02*
X110210000Y-47008578D01*
G04 #@! TO.C,C2004*
X141564999Y-41397936D02*
X141564999Y-42602064D01*
X143384999Y-41397936D02*
X143384999Y-42602064D01*
G04 #@! TO.C,C2005*
X126540000Y-41741422D02*
X126540000Y-42258578D01*
X127960000Y-41741422D02*
X127960000Y-42258578D01*
G04 #@! TO.C,C2007*
X117491422Y-58710000D02*
X118008578Y-58710000D01*
X117491422Y-57290000D02*
X118008578Y-57290000D01*
G04 #@! TO.C,C4001*
X121258578Y-66290000D02*
X120741422Y-66290000D01*
X121258578Y-67710000D02*
X120741422Y-67710000D01*
G04 #@! TO.C,C4002*
X121258578Y-68290000D02*
X120741422Y-68290000D01*
X121258578Y-69710000D02*
X120741422Y-69710000D01*
G04 #@! TO.C,C4003*
X125491422Y-69710000D02*
X126008578Y-69710000D01*
X125491422Y-68290000D02*
X126008578Y-68290000D01*
G04 #@! TO.C,C4004*
X130741422Y-69710000D02*
X131258578Y-69710000D01*
X130741422Y-68290000D02*
X131258578Y-68290000D01*
G04 #@! TO.C,C4024*
X117241422Y-69710000D02*
X117758578Y-69710000D01*
X117241422Y-68290000D02*
X117758578Y-68290000D01*
G04 #@! TO.C,C5003*
X150397936Y-38160000D02*
X151602064Y-38160000D01*
X150397936Y-36340000D02*
X151602064Y-36340000D01*
G04 #@! TO.C,C5004*
X150397936Y-47160000D02*
X151602064Y-47160000D01*
X150397936Y-45340000D02*
X151602064Y-45340000D01*
G04 #@! TO.C,C5005*
X155508578Y-36790000D02*
X154991422Y-36790000D01*
X155508578Y-38210000D02*
X154991422Y-38210000D01*
G04 #@! TO.C,C5006*
X155508578Y-45790000D02*
X154991422Y-45790000D01*
X155508578Y-47210000D02*
X154991422Y-47210000D01*
G04 #@! TO.C,C5008*
X158960000Y-43008578D02*
X158960000Y-42491422D01*
X157540000Y-43008578D02*
X157540000Y-42491422D01*
G04 #@! TO.C,C5009*
X160960000Y-43008578D02*
X160960000Y-42491422D01*
X159540000Y-43008578D02*
X159540000Y-42491422D01*
G04 #@! TO.C,C5013*
X150397936Y-56160000D02*
X151602064Y-56160000D01*
X150397936Y-54340000D02*
X151602064Y-54340000D01*
G04 #@! TO.C,C5014*
X150397936Y-65160000D02*
X151602064Y-65160000D01*
X150397936Y-63340000D02*
X151602064Y-63340000D01*
G04 #@! TO.C,C5015*
X155508578Y-54790000D02*
X154991422Y-54790000D01*
X155508578Y-56210000D02*
X154991422Y-56210000D01*
G04 #@! TO.C,C5016*
X155508578Y-63790000D02*
X154991422Y-63790000D01*
X155508578Y-65210000D02*
X154991422Y-65210000D01*
G04 #@! TO.C,C5017*
X161910000Y-61602064D02*
X161910000Y-60397936D01*
X160090000Y-61602064D02*
X160090000Y-60397936D01*
G04 #@! TO.C,C5018*
X159410000Y-61602064D02*
X159410000Y-60397936D01*
X157590000Y-61602064D02*
X157590000Y-60397936D01*
G04 #@! TO.C,C6003*
X119991422Y-102460000D02*
X120508578Y-102460000D01*
X119991422Y-101040000D02*
X120508578Y-101040000D01*
G04 #@! TO.C,C6008*
X114241422Y-102460000D02*
X114758578Y-102460000D01*
X114241422Y-101040000D02*
X114758578Y-101040000D01*
G04 #@! TO.C,D7001*
X158250000Y-98500000D02*
X158250000Y-102400000D01*
X156250000Y-98500000D02*
X156250000Y-102400000D01*
X158250000Y-98500000D02*
X156250000Y-98500000D01*
G04 #@! TO.C,D7002*
X158250000Y-93500000D02*
X158250000Y-97400000D01*
X156250000Y-93500000D02*
X156250000Y-97400000D01*
X158250000Y-93500000D02*
X156250000Y-93500000D01*
G04 #@! TO.C,FB4001*
X125491422Y-67710000D02*
X126008578Y-67710000D01*
X125491422Y-66290000D02*
X126008578Y-66290000D01*
G04 #@! TO.C,FB4002*
X130741422Y-67710000D02*
X131258578Y-67710000D01*
X130741422Y-66290000D02*
X131258578Y-66290000D01*
G04 #@! TO.C,FB6001*
X105741422Y-62960000D02*
X106258578Y-62960000D01*
X105741422Y-61540000D02*
X106258578Y-61540000D01*
G04 #@! TO.C,FB6002*
X105741422Y-69460000D02*
X106258578Y-69460000D01*
X105741422Y-68040000D02*
X106258578Y-68040000D01*
G04 #@! TO.C,FB7001*
X153710000Y-106571078D02*
X153710000Y-106053922D01*
X152290000Y-106571078D02*
X152290000Y-106053922D01*
G04 #@! TO.C,J3001*
X143920000Y-82580000D02*
X143920000Y-81250000D01*
X145250000Y-82580000D02*
X143920000Y-82580000D01*
X146520000Y-82580000D02*
X146520000Y-79920000D01*
X146520000Y-79920000D02*
X159280000Y-79920000D01*
X146520000Y-82580000D02*
X159280000Y-82580000D01*
X159280000Y-82580000D02*
X159280000Y-79920000D01*
G04 #@! TO.C,R2006*
X125710000Y-42258578D02*
X125710000Y-41741422D01*
X124290000Y-42258578D02*
X124290000Y-41741422D01*
G04 #@! TO.C,R2009*
X121258578Y-64290000D02*
X120741422Y-64290000D01*
X121258578Y-65710000D02*
X120741422Y-65710000D01*
G04 #@! TO.C,R2010*
X131258578Y-64290000D02*
X130741422Y-64290000D01*
X131258578Y-65710000D02*
X130741422Y-65710000D01*
G04 #@! TO.C,R2011*
X126008578Y-64290000D02*
X125491422Y-64290000D01*
X126008578Y-65710000D02*
X125491422Y-65710000D01*
G04 #@! TO.C,R7001*
X155290000Y-110947936D02*
X155290000Y-115052064D01*
X158710000Y-110947936D02*
X158710000Y-115052064D01*
D11*
G04 #@! TO.C,U2001*
X139500000Y-40750000D02*
X139500000Y-43250000D01*
D10*
G04 #@! TO.C,U2002*
X119791421Y-60200000D02*
G75*
G03X119791421Y-60200000I-141421J0D01*
G01*
D13*
G04 #@! TO.C,U2003*
X125100000Y-62650000D02*
G75*
G03X125100000Y-62650000I-100000J0D01*
G01*
D14*
X127550000Y-58700000D02*
X127310000Y-58700000D01*
X127550000Y-59630000D02*
X127550000Y-58700000D01*
X127550000Y-61800000D02*
X127550000Y-60870000D01*
X127310000Y-61800000D02*
X127550000Y-61800000D01*
X124450000Y-58700000D02*
X124690000Y-58700000D01*
X124450000Y-59630000D02*
X124450000Y-58700000D01*
X124450000Y-61800000D02*
X124450000Y-60870000D01*
X124690000Y-61800000D02*
X124450000Y-61800000D01*
D13*
G04 #@! TO.C,U2004*
X130350000Y-62650000D02*
G75*
G03X130350000Y-62650000I-100000J0D01*
G01*
D14*
X132800000Y-58700000D02*
X132560000Y-58700000D01*
X132800000Y-59630000D02*
X132800000Y-58700000D01*
X132800000Y-61800000D02*
X132800000Y-60870000D01*
X132560000Y-61800000D02*
X132800000Y-61800000D01*
X129700000Y-58700000D02*
X129940000Y-58700000D01*
X129700000Y-59630000D02*
X129700000Y-58700000D01*
X129700000Y-61800000D02*
X129700000Y-60870000D01*
X129940000Y-61800000D02*
X129700000Y-61800000D01*
D11*
G04 #@! TO.C,U3001*
X115500000Y-72500000D02*
X114500000Y-73500000D01*
X114500000Y-72500000D02*
X115500000Y-72500000D01*
X114500000Y-88000000D02*
X114500000Y-72500000D01*
X130000000Y-88000000D02*
X114500000Y-88000000D01*
X130000000Y-72500000D02*
X130000000Y-88000000D01*
X114500000Y-72500000D02*
X130000000Y-72500000D01*
D14*
G04 #@! TO.C,U3003*
X121278580Y-90500000D02*
G75*
G03X121278580Y-90500000I-108580J0D01*
G01*
D10*
G04 #@! TO.C,U5001*
X151230278Y-39100000D02*
G75*
G03X151230278Y-39100000I-180278J0D01*
G01*
G04 #@! TO.C,U5002*
X151230278Y-48100000D02*
G75*
G03X151230278Y-48100000I-180278J0D01*
G01*
G04 #@! TO.C,U5003*
X140861803Y-59950000D02*
G75*
G03X140861803Y-59950000I-111803J0D01*
G01*
G04 #@! TO.C,U5004*
X151230278Y-57100000D02*
G75*
G03X151230278Y-57100000I-180278J0D01*
G01*
G04 #@! TO.C,U5005*
X151230278Y-66100000D02*
G75*
G03X151230278Y-66100000I-180278J0D01*
G01*
D11*
G04 #@! TO.C,U6001*
X102350000Y-55650000D02*
X90150000Y-55650000D01*
X102350000Y-65850000D02*
X102350000Y-55650000D01*
X102350000Y-65850000D02*
X90150000Y-65850000D01*
G04 #@! TO.C,U6002*
X102350000Y-65850000D02*
X90150000Y-65850000D01*
X102350000Y-76050000D02*
X102350000Y-65850000D01*
X102350000Y-76050000D02*
X90150000Y-76050000D01*
G04 #@! TO.C,U6003*
X123250000Y-103750000D02*
X123250000Y-109750000D01*
X111750000Y-103750000D02*
X123250000Y-103750000D01*
X111750000Y-109750000D02*
X111750000Y-103750000D01*
X123250000Y-109750000D02*
X111750000Y-109750000D01*
G04 #@! TO.C,U6004*
X122625000Y-121800000D02*
X124150000Y-121800000D01*
X122625000Y-111425000D02*
X114875000Y-111425000D01*
X122625000Y-122075000D02*
X114875000Y-122075000D01*
X122625000Y-111425000D02*
X122625000Y-111780000D01*
X114875000Y-111425000D02*
X114875000Y-111780000D01*
X114875000Y-122075000D02*
X114875000Y-121720000D01*
X122625000Y-122075000D02*
X122625000Y-121800000D01*
G04 #@! TO.C,U6005*
X108575000Y-97525000D02*
X109975000Y-97525000D01*
X108575000Y-92425000D02*
X104425000Y-92425000D01*
X108575000Y-97575000D02*
X104425000Y-97575000D01*
X108575000Y-92425000D02*
X108575000Y-92570000D01*
X104425000Y-92425000D02*
X104425000Y-92570000D01*
X104425000Y-97575000D02*
X104425000Y-97430000D01*
X108575000Y-97575000D02*
X108575000Y-97525000D01*
D12*
G04 #@! TO.C,U7001*
X149900000Y-89640000D02*
X147450000Y-89640000D01*
X148100000Y-92860000D02*
X149900000Y-92860000D01*
G04 #@! TO.C,U7002*
X148100000Y-102110000D02*
X150550000Y-102110000D01*
X149900000Y-98890000D02*
X148100000Y-98890000D01*
D11*
G04 #@! TO.C,U7003*
X142375000Y-116625000D02*
X142875000Y-116625000D01*
X142375000Y-113375000D02*
X142875000Y-113375000D01*
X145625000Y-113375000D02*
X145125000Y-113375000D01*
X145625000Y-116625000D02*
X145125000Y-116625000D01*
X142375000Y-113375000D02*
X142375000Y-113875000D01*
X145625000Y-113375000D02*
X145625000Y-113875000D01*
X142375000Y-116625000D02*
X142375000Y-116125000D01*
D10*
G04 #@! TO.C,U7004*
X149280278Y-105300000D02*
G75*
G03X149280278Y-105300000I-180278J0D01*
G01*
D12*
G04 #@! TO.C,U7005*
X138135000Y-109360000D02*
X138610000Y-109360000D01*
X133390000Y-104140000D02*
X133390000Y-104615000D01*
X133865000Y-104140000D02*
X133390000Y-104140000D01*
X138610000Y-104140000D02*
X138610000Y-104615000D01*
X138135000Y-104140000D02*
X138610000Y-104140000D01*
X133390000Y-109360000D02*
X133390000Y-108885000D01*
X133865000Y-109360000D02*
X133390000Y-109360000D01*
G04 #@! TO.C,J6001*
X108880000Y-103185000D02*
X90920000Y-103185000D01*
X108880000Y-118705000D02*
X108880000Y-103185000D01*
X108880000Y-118705000D02*
X90920000Y-118705000D01*
X90920000Y-103185000D02*
X90920000Y-118705000D01*
X105000000Y-103000000D02*
X105500000Y-102500000D01*
X105500000Y-102500000D02*
X104500000Y-102500000D01*
X104500000Y-102500000D02*
X105000000Y-103000000D01*
G04 #@! TO.C,J7001*
X163200000Y-93320000D02*
X166800000Y-93320000D01*
X163200000Y-100680000D02*
X166800000Y-100680000D01*
X168680000Y-95200000D02*
X168680000Y-98800000D01*
X161320000Y-95200000D02*
X161320000Y-98800000D01*
G04 #@! TO.C,J7002*
X163200000Y-109320000D02*
X166800000Y-109320000D01*
X163200000Y-116680000D02*
X166800000Y-116680000D01*
X168680000Y-111200000D02*
X168680000Y-114800000D01*
X161320000Y-111200000D02*
X161320000Y-114800000D01*
G04 #@! TO.C,C2006*
X110520354Y-36375000D02*
X110520354Y-37375000D01*
X110020354Y-36875000D02*
X111020354Y-36875000D01*
X120581000Y-39151000D02*
X120581000Y-40349000D01*
X120541000Y-38888000D02*
X120541000Y-40612000D01*
X120501000Y-38688000D02*
X120501000Y-40812000D01*
X120461000Y-38520000D02*
X120461000Y-40980000D01*
X120421000Y-38372000D02*
X120421000Y-41128000D01*
X120381000Y-38240000D02*
X120381000Y-41260000D01*
X120341000Y-38120000D02*
X120341000Y-41380000D01*
X120301000Y-38008000D02*
X120301000Y-41492000D01*
X120261000Y-37904000D02*
X120261000Y-41596000D01*
X120221000Y-37806000D02*
X120221000Y-41694000D01*
X120181000Y-37713000D02*
X120181000Y-41787000D01*
X120141000Y-37625000D02*
X120141000Y-41875000D01*
X120101000Y-37541000D02*
X120101000Y-41959000D01*
X120061000Y-37461000D02*
X120061000Y-42039000D01*
X120021000Y-37385000D02*
X120021000Y-42115000D01*
X119981000Y-37311000D02*
X119981000Y-42189000D01*
X119941000Y-37240000D02*
X119941000Y-42260000D01*
X119901000Y-37171000D02*
X119901000Y-42329000D01*
X119861000Y-37105000D02*
X119861000Y-42395000D01*
X119821000Y-37041000D02*
X119821000Y-42459000D01*
X119781000Y-36980000D02*
X119781000Y-42520000D01*
X119741000Y-36920000D02*
X119741000Y-42580000D01*
X119701000Y-36861000D02*
X119701000Y-42639000D01*
X119661000Y-36805000D02*
X119661000Y-42695000D01*
X119621000Y-36750000D02*
X119621000Y-42750000D01*
X119581000Y-36696000D02*
X119581000Y-42804000D01*
X119541000Y-36644000D02*
X119541000Y-42856000D01*
X119501000Y-36594000D02*
X119501000Y-42906000D01*
X119461000Y-36544000D02*
X119461000Y-42956000D01*
X119421000Y-36496000D02*
X119421000Y-43004000D01*
X119381000Y-36449000D02*
X119381000Y-43051000D01*
X119341000Y-36403000D02*
X119341000Y-43097000D01*
X119301000Y-36358000D02*
X119301000Y-43142000D01*
X119261000Y-36314000D02*
X119261000Y-43186000D01*
X119221000Y-40991000D02*
X119221000Y-43228000D01*
X119221000Y-36272000D02*
X119221000Y-38509000D01*
X119181000Y-40991000D02*
X119181000Y-43270000D01*
X119181000Y-36230000D02*
X119181000Y-38509000D01*
X119141000Y-40991000D02*
X119141000Y-43311000D01*
X119141000Y-36189000D02*
X119141000Y-38509000D01*
X119101000Y-40991000D02*
X119101000Y-43351000D01*
X119101000Y-36149000D02*
X119101000Y-38509000D01*
X119061000Y-40991000D02*
X119061000Y-43390000D01*
X119061000Y-36110000D02*
X119061000Y-38509000D01*
X119021000Y-40991000D02*
X119021000Y-43429000D01*
X119021000Y-36071000D02*
X119021000Y-38509000D01*
X118981000Y-40991000D02*
X118981000Y-43466000D01*
X118981000Y-36034000D02*
X118981000Y-38509000D01*
X118941000Y-40991000D02*
X118941000Y-43503000D01*
X118941000Y-35997000D02*
X118941000Y-38509000D01*
X118901000Y-40991000D02*
X118901000Y-43539000D01*
X118901000Y-35961000D02*
X118901000Y-38509000D01*
X118861000Y-40991000D02*
X118861000Y-43574000D01*
X118861000Y-35926000D02*
X118861000Y-38509000D01*
X118821000Y-40991000D02*
X118821000Y-43608000D01*
X118821000Y-35892000D02*
X118821000Y-38509000D01*
X118781000Y-40991000D02*
X118781000Y-43642000D01*
X118781000Y-35858000D02*
X118781000Y-38509000D01*
X118741000Y-40991000D02*
X118741000Y-43675000D01*
X118741000Y-35825000D02*
X118741000Y-38509000D01*
X118701000Y-40991000D02*
X118701000Y-43707000D01*
X118701000Y-35793000D02*
X118701000Y-38509000D01*
X118661000Y-40991000D02*
X118661000Y-43739000D01*
X118661000Y-35761000D02*
X118661000Y-38509000D01*
X118621000Y-40991000D02*
X118621000Y-43770000D01*
X118621000Y-35730000D02*
X118621000Y-38509000D01*
X118581000Y-40991000D02*
X118581000Y-43800000D01*
X118581000Y-35700000D02*
X118581000Y-38509000D01*
X118541000Y-40991000D02*
X118541000Y-43830000D01*
X118541000Y-35670000D02*
X118541000Y-38509000D01*
X118501000Y-40991000D02*
X118501000Y-43860000D01*
X118501000Y-35640000D02*
X118501000Y-38509000D01*
X118461000Y-40991000D02*
X118461000Y-43888000D01*
X118461000Y-35612000D02*
X118461000Y-38509000D01*
X118421000Y-40991000D02*
X118421000Y-43916000D01*
X118421000Y-35584000D02*
X118421000Y-38509000D01*
X118381000Y-40991000D02*
X118381000Y-43944000D01*
X118381000Y-35556000D02*
X118381000Y-38509000D01*
X118341000Y-40991000D02*
X118341000Y-43971000D01*
X118341000Y-35529000D02*
X118341000Y-38509000D01*
X118301000Y-40991000D02*
X118301000Y-43997000D01*
X118301000Y-35503000D02*
X118301000Y-38509000D01*
X118261000Y-40991000D02*
X118261000Y-44023000D01*
X118261000Y-35477000D02*
X118261000Y-38509000D01*
X118221000Y-40991000D02*
X118221000Y-44048000D01*
X118221000Y-35452000D02*
X118221000Y-38509000D01*
X118181000Y-40991000D02*
X118181000Y-44073000D01*
X118181000Y-35427000D02*
X118181000Y-38509000D01*
X118141000Y-40991000D02*
X118141000Y-44097000D01*
X118141000Y-35403000D02*
X118141000Y-38509000D01*
X118101000Y-40991000D02*
X118101000Y-44121000D01*
X118101000Y-35379000D02*
X118101000Y-38509000D01*
X118061000Y-40991000D02*
X118061000Y-44145000D01*
X118061000Y-35355000D02*
X118061000Y-38509000D01*
X118021000Y-40991000D02*
X118021000Y-44167000D01*
X118021000Y-35333000D02*
X118021000Y-38509000D01*
X117981000Y-40991000D02*
X117981000Y-44190000D01*
X117981000Y-35310000D02*
X117981000Y-38509000D01*
X117941000Y-40991000D02*
X117941000Y-44212000D01*
X117941000Y-35288000D02*
X117941000Y-38509000D01*
X117901000Y-40991000D02*
X117901000Y-44233000D01*
X117901000Y-35267000D02*
X117901000Y-38509000D01*
X117861000Y-40991000D02*
X117861000Y-44254000D01*
X117861000Y-35246000D02*
X117861000Y-38509000D01*
X117821000Y-40991000D02*
X117821000Y-44275000D01*
X117821000Y-35225000D02*
X117821000Y-38509000D01*
X117781000Y-40991000D02*
X117781000Y-44295000D01*
X117781000Y-35205000D02*
X117781000Y-38509000D01*
X117741000Y-40991000D02*
X117741000Y-44314000D01*
X117741000Y-35186000D02*
X117741000Y-38509000D01*
X117701000Y-40991000D02*
X117701000Y-44334000D01*
X117701000Y-35166000D02*
X117701000Y-38509000D01*
X117661000Y-40991000D02*
X117661000Y-44353000D01*
X117661000Y-35147000D02*
X117661000Y-38509000D01*
X117621000Y-40991000D02*
X117621000Y-44371000D01*
X117621000Y-35129000D02*
X117621000Y-38509000D01*
X117581000Y-40991000D02*
X117581000Y-44389000D01*
X117581000Y-35111000D02*
X117581000Y-38509000D01*
X117541000Y-40991000D02*
X117541000Y-44407000D01*
X117541000Y-35093000D02*
X117541000Y-38509000D01*
X117501000Y-40991000D02*
X117501000Y-44424000D01*
X117501000Y-35076000D02*
X117501000Y-38509000D01*
X117461000Y-40991000D02*
X117461000Y-44440000D01*
X117461000Y-35060000D02*
X117461000Y-38509000D01*
X117421000Y-40991000D02*
X117421000Y-44457000D01*
X117421000Y-35043000D02*
X117421000Y-38509000D01*
X117381000Y-40991000D02*
X117381000Y-44473000D01*
X117381000Y-35027000D02*
X117381000Y-38509000D01*
X117341000Y-40991000D02*
X117341000Y-44488000D01*
X117341000Y-35012000D02*
X117341000Y-38509000D01*
X117301000Y-40991000D02*
X117301000Y-44504000D01*
X117301000Y-34996000D02*
X117301000Y-38509000D01*
X117261000Y-40991000D02*
X117261000Y-44518000D01*
X117261000Y-34982000D02*
X117261000Y-38509000D01*
X117221000Y-40991000D02*
X117221000Y-44533000D01*
X117221000Y-34967000D02*
X117221000Y-38509000D01*
X117181000Y-40991000D02*
X117181000Y-44547000D01*
X117181000Y-34953000D02*
X117181000Y-38509000D01*
X117141000Y-40991000D02*
X117141000Y-44561000D01*
X117141000Y-34939000D02*
X117141000Y-38509000D01*
X117101000Y-40991000D02*
X117101000Y-44574000D01*
X117101000Y-34926000D02*
X117101000Y-38509000D01*
X117061000Y-40991000D02*
X117061000Y-44587000D01*
X117061000Y-34913000D02*
X117061000Y-38509000D01*
X117021000Y-40991000D02*
X117021000Y-44600000D01*
X117021000Y-34900000D02*
X117021000Y-38509000D01*
X116981000Y-40991000D02*
X116981000Y-44612000D01*
X116981000Y-34888000D02*
X116981000Y-38509000D01*
X116941000Y-40991000D02*
X116941000Y-44624000D01*
X116941000Y-34876000D02*
X116941000Y-38509000D01*
X116901000Y-40991000D02*
X116901000Y-44635000D01*
X116901000Y-34865000D02*
X116901000Y-38509000D01*
X116861000Y-40991000D02*
X116861000Y-44647000D01*
X116861000Y-34853000D02*
X116861000Y-38509000D01*
X116821000Y-40991000D02*
X116821000Y-44657000D01*
X116821000Y-34843000D02*
X116821000Y-38509000D01*
X116781000Y-40991000D02*
X116781000Y-44668000D01*
X116781000Y-34832000D02*
X116781000Y-38509000D01*
X116741000Y-34822000D02*
X116741000Y-44678000D01*
X116701000Y-34812000D02*
X116701000Y-44688000D01*
X116661000Y-34803000D02*
X116661000Y-44697000D01*
X116621000Y-34794000D02*
X116621000Y-44706000D01*
X116581000Y-34785000D02*
X116581000Y-44715000D01*
X116541000Y-34776000D02*
X116541000Y-44724000D01*
X116501000Y-34768000D02*
X116501000Y-44732000D01*
X116461000Y-34760000D02*
X116461000Y-44740000D01*
X116421000Y-34753000D02*
X116421000Y-44747000D01*
X116381000Y-34746000D02*
X116381000Y-44754000D01*
X116341000Y-34739000D02*
X116341000Y-44761000D01*
X116301000Y-34732000D02*
X116301000Y-44768000D01*
X116261000Y-34726000D02*
X116261000Y-44774000D01*
X116221000Y-34720000D02*
X116221000Y-44780000D01*
X116180000Y-34715000D02*
X116180000Y-44785000D01*
X116140000Y-34710000D02*
X116140000Y-44790000D01*
X116100000Y-34705000D02*
X116100000Y-44795000D01*
X116060000Y-34700000D02*
X116060000Y-44800000D01*
X116020000Y-34696000D02*
X116020000Y-44804000D01*
X115980000Y-34692000D02*
X115980000Y-44808000D01*
X115940000Y-34688000D02*
X115940000Y-44812000D01*
X115900000Y-34685000D02*
X115900000Y-44815000D01*
X115860000Y-34682000D02*
X115860000Y-44818000D01*
X115820000Y-34680000D02*
X115820000Y-44820000D01*
X115780000Y-34677000D02*
X115780000Y-44823000D01*
X115740000Y-34675000D02*
X115740000Y-44825000D01*
X115700000Y-34673000D02*
X115700000Y-44827000D01*
X115660000Y-34672000D02*
X115660000Y-44828000D01*
X115620000Y-34671000D02*
X115620000Y-44829000D01*
X115580000Y-34670000D02*
X115580000Y-44830000D01*
X115540000Y-34670000D02*
X115540000Y-44830000D01*
X115500000Y-34670000D02*
X115500000Y-44830000D01*
X120620000Y-39750000D02*
G75*
G03X120620000Y-39750000I-5120000J0D01*
G01*
G04 #@! TO.C,L2001*
X107624000Y-38626000D02*
X106900000Y-38626000D01*
X107624000Y-41874000D02*
X107624000Y-38626000D01*
X106900000Y-41874000D02*
X107624000Y-41874000D01*
X104376000Y-38626000D02*
X105100000Y-38626000D01*
X104376000Y-41874000D02*
X104376000Y-38626000D01*
X105100000Y-41874000D02*
X104376000Y-41874000D01*
G04 #@! TO.C,C2012*
X117696078Y-64290000D02*
X117178922Y-64290000D01*
X117696078Y-65710000D02*
X117178922Y-65710000D01*
D11*
G04 #@! TO.C,U6006*
X101100000Y-91450000D02*
X101100000Y-88275000D01*
X104400000Y-90725000D02*
X104400000Y-88275000D01*
G04 #@! TO.C,FL2001*
X102000000Y-44500000D02*
X107000000Y-44500000D01*
X102000000Y-49500000D02*
X107000000Y-49500000D01*
X107000000Y-45500000D02*
X107000000Y-48500000D01*
X102000000Y-45500000D02*
X102000000Y-48500000D01*
X103500000Y-46500000D02*
X105500000Y-46500000D01*
G04 #@! TO.C,C2015*
X113250000Y-50500000D02*
X113250000Y-50750000D01*
X113250000Y-49750000D02*
X113250000Y-50500000D01*
X112750000Y-50250000D02*
X113750000Y-50250000D01*
G04 #@! TO.C,D3001*
X163500000Y-83700000D02*
X163500000Y-88300000D01*
X169900000Y-83700000D02*
X163500000Y-83700000D01*
X169900000Y-88300000D02*
X169900000Y-83700000D01*
X163500000Y-88300000D02*
X169900000Y-88300000D01*
G04 #@! TO.C,D3002*
X163500000Y-77450000D02*
X163500000Y-82050000D01*
X169900000Y-77450000D02*
X163500000Y-77450000D01*
X169900000Y-82050000D02*
X169900000Y-77450000D01*
X163500000Y-82050000D02*
X169900000Y-82050000D01*
D12*
G04 #@! TO.C,J3002*
X143920000Y-78080000D02*
X143920000Y-76750000D01*
X145250000Y-78080000D02*
X143920000Y-78080000D01*
X146520000Y-78080000D02*
X146520000Y-75420000D01*
X146520000Y-75420000D02*
X154200000Y-75420000D01*
X146520000Y-78080000D02*
X154200000Y-78080000D01*
X154200000Y-78080000D02*
X154200000Y-75420000D01*
G04 #@! TO.C,U3002*
X133390000Y-77250000D02*
X133390000Y-74250000D01*
X138610000Y-80250000D02*
X138610000Y-74250000D01*
G04 #@! TO.C,C2016*
X123460000Y-42258578D02*
X123460000Y-41741422D01*
X122040000Y-42258578D02*
X122040000Y-41741422D01*
D11*
G04 #@! TO.C,J6002*
X92000000Y-98700000D02*
X99300000Y-98700000D01*
X99300000Y-98700000D02*
X99400000Y-98700000D01*
X99400000Y-98700000D02*
X99400000Y-83300000D01*
X99400000Y-83300000D02*
X91200000Y-83300000D01*
X91200000Y-98700000D02*
X92000000Y-98700000D01*
X99400000Y-91000000D02*
X91200000Y-91000000D01*
X99400000Y-87500000D02*
X91200000Y-87500000D01*
X99400000Y-94500000D02*
X91200000Y-94500000D01*
G04 #@! TO.C,J2001*
X91200000Y-50950000D02*
X99400000Y-50950000D01*
X99400000Y-42550000D02*
X91200000Y-42550000D01*
X99400000Y-50950000D02*
X99400000Y-42550000D01*
X99400000Y-46750000D02*
X91200000Y-46750000D01*
G04 #@! TO.C,J5001*
X168800000Y-45800000D02*
X160600000Y-45800000D01*
X160600000Y-54200000D02*
X168800000Y-54200000D01*
X160600000Y-45800000D02*
X160600000Y-54200000D01*
X160600000Y-50000000D02*
X168800000Y-50000000D01*
G04 #@! TO.C,J5002*
X168800000Y-64800000D02*
X160600000Y-64800000D01*
X160600000Y-73200000D02*
X168800000Y-73200000D01*
X160600000Y-64800000D02*
X160600000Y-73200000D01*
X160600000Y-69000000D02*
X168800000Y-69000000D01*
D12*
G04 #@! TO.C,R6003*
X112410000Y-118602064D02*
X112410000Y-117397936D01*
X110590000Y-118602064D02*
X110590000Y-117397936D01*
G04 #@! TD*
M02*
