M48
;DRILL file {KiCad 5.0.2-bee76a0~70~ubuntu18.04.1} date Wed 23 Jan 2019 11:33:51 AM PST
;FORMAT={-:-/ absolute / inch / decimal}
FMAT,2
INCH,TZ
T1C0.0118
T2C0.0157
T3C0.0197
T4C0.0299
T5C0.0354
T6C0.0394
T7C0.0472
T8C0.0591
T9C0.0669
T10C0.1299
%
G90
G05
T1
X3.937Y-1.2402
X4.0453Y-3.5236
X4.0453Y-3.9094
X4.0846Y-3.9094
X4.0866Y-3.4173
X4.0866Y-3.6378
X4.1063Y-2.3819
X4.1161Y-2.6378
X4.1339Y-2.5866
X4.1339Y-2.8425
X4.1831Y-2.5866
X4.1831Y-2.8425
X4.2008Y-2.3819
X4.2106Y-2.6378
X4.252Y-1.2402
X4.3464Y-3.7919
X4.3524Y-3.624
X4.372Y-4.7539
X4.372Y-4.7933
X4.4035Y-3.3661
X4.4094Y-3.2657
X4.4094Y-3.3169
X4.4099Y-3.8165
X4.4193Y-2.6969
X4.4193Y-3.4154
X4.4429Y-3.4429
X4.4449Y-4.4724
X4.4469Y-4.4213
X4.4587Y-2.6969
X4.4587Y-2.7992
X4.4882Y-3.4055
X4.4961Y-3.5039
X4.5197Y-3.5413
X4.5276Y-3.061
X4.5374Y-2.8839
X4.5374Y-3.2776
X4.5374Y-3.435
X4.5453Y-3.5925
X4.5472Y-3.6476
X4.5492Y-2.5591
X4.5669Y-1.2402
X4.5768Y-2.9626
X4.5768Y-3.1201
X4.5768Y-3.2776
X4.5768Y-3.3957
X4.5827Y-2.4193
X4.5906Y-3.7303
X4.5925Y-3.5217
X4.6161Y-3.0413
X4.6161Y-3.1201
X4.6161Y-3.3957
X4.6339Y-2.5138
X4.6358Y-2.4213
X4.6555Y-2.9232
X4.6555Y-3.3169
X4.6654Y-3.622
X4.6752Y-2.3425
X4.6811Y-3.4902
X4.689Y-2.4213
X4.6949Y-3.002
X4.6949Y-3.0413
X4.6949Y-3.0807
X4.6949Y-3.1201
X4.6949Y-3.1988
X4.6949Y-3.2382
X4.6949Y-3.2776
X4.7067Y-2.5
X4.7343Y-2.9626
X4.7343Y-3.002
X4.7343Y-3.0413
X4.7343Y-3.0807
X4.7343Y-3.1201
X4.7343Y-3.1988
X4.7343Y-3.2382
X4.7343Y-3.2776
X4.7343Y-3.3563
X4.7343Y-3.3957
X4.7441Y-3.748
X4.7539Y-2.3248
X4.7539Y-2.874
X4.7559Y-3.5394
X4.7736Y-2.9232
X4.7736Y-2.9626
X4.7736Y-3.002
X4.7736Y-3.0413
X4.7736Y-3.0807
X4.7736Y-3.1201
X4.7736Y-3.1988
X4.7736Y-3.2382
X4.7736Y-3.2776
X4.7736Y-3.3169
X4.7736Y-3.3563
X4.7736Y-3.3957
X4.7835Y-3.748
X4.7913Y-3.5807
X4.8366Y-3.5079
X4.8524Y-2.9232
X4.8524Y-2.9626
X4.8524Y-3.002
X4.8524Y-3.0413
X4.8524Y-3.0807
X4.8524Y-3.1201
X4.8524Y-3.1988
X4.8524Y-3.2382
X4.8524Y-3.2776
X4.8524Y-3.3169
X4.8524Y-3.3563
X4.8524Y-3.3957
X4.8622Y-3.7008
X4.8642Y-2.4902
X4.872Y-2.372
X4.872Y-2.874
X4.8819Y-1.2402
X4.8917Y-2.9626
X4.8917Y-3.002
X4.8917Y-3.0413
X4.8917Y-3.1201
X4.8917Y-3.1988
X4.8917Y-3.2382
X4.8917Y-3.2776
X4.8917Y-3.3169
X4.8917Y-3.3563
X4.8917Y-3.3957
X4.9055Y-3.7047
X4.9055Y-4.4213
X4.9055Y-4.4705
X4.9094Y-2.8209
X4.9114Y-2.372
X4.9291Y-4.5217
X4.9311Y-2.2205
X4.9311Y-3.0413
X4.9311Y-3.0807
X4.9311Y-3.1201
X4.9311Y-3.1988
X4.9311Y-3.2382
X4.9311Y-3.2776
X4.9311Y-3.3169
X4.9311Y-3.5807
X4.937Y-3.628
X4.9409Y-4.5709
X4.9429Y-4.6161
X4.9606Y-2.372
X4.9665Y-3.6909
X4.9685Y-3.7244
X4.9685Y-3.7579
X4.9685Y-3.7992
X4.9705Y-2.2224
X4.9705Y-2.8839
X4.9705Y-2.9626
X4.9823Y-4.7244
X4.9823Y-4.7638
X4.998Y-2.2776
X5.0039Y-4.6535
X5.0098Y-2.372
X5.0098Y-3.1201
X5.0098Y-3.1988
X5.0098Y-3.2382
X5.0098Y-3.2776
X5.0098Y-3.3957
X5.0453Y-2.4902
X5.0492Y-2.372
X5.0492Y-3.002
X5.0492Y-3.1201
X5.0492Y-3.2382
X5.0492Y-3.2776
X5.0492Y-3.3957
X5.0728Y-2.4902
X5.0787Y-2.372
X5.0886Y-2.8839
X5.0886Y-2.9232
X5.0886Y-3.002
X5.0886Y-3.1594
X5.0886Y-3.2736
X5.0886Y-3.435
X5.0984Y-3.061
X5.0984Y-3.1004
X5.1083Y-1.8307
X5.1083Y-1.8898
X5.1083Y-1.9488
X5.1083Y-2.0079
X5.1083Y-2.0669
X5.1083Y-2.1358
X5.1181Y-2.372
X5.1378Y-2.2244
X5.1476Y-3.1496
X5.1555Y-2.9626
X5.1673Y-1.8307
X5.1673Y-1.8898
X5.1673Y-1.9488
X5.1673Y-2.0079
X5.1673Y-2.0669
X5.1673Y-2.1358
X5.1673Y-2.372
X5.1772Y-2.2244
X5.1791Y-4.2657
X5.1969Y-1.2402
X5.1969Y-4.4567
X5.2067Y-2.2756
X5.2165Y-2.372
X5.2165Y-2.9921
X5.2205Y-4.2776
X5.2362Y-1.8307
X5.2362Y-1.8898
X5.2362Y-1.9488
X5.2362Y-2.0079
X5.2362Y-2.0669
X5.2362Y-2.1358
X5.2362Y-2.8839
X5.2461Y-4.4567
X5.25Y-2.8445
X5.25Y-3.1791
X5.2559Y-2.372
X5.2559Y-2.4902
X5.2657Y-2.7067
X5.2736Y-3.3366
X5.2756Y-1.4469
X5.2953Y-1.8307
X5.2953Y-1.8898
X5.2953Y-1.9488
X5.2953Y-2.0079
X5.2953Y-2.0669
X5.2953Y-2.1358
X5.2953Y-4.4567
X5.3012Y-2.7067
X5.3051Y-4.3386
X5.315Y-4.1634
X5.315Y-4.2421
X5.3169Y-4.3661
X5.3346Y-1.4469
X5.3445Y-4.0689
X5.3445Y-4.4567
X5.3524Y-3.3071
X5.3543Y-1.8307
X5.3543Y-1.8898
X5.3543Y-1.9488
X5.3543Y-2.0079
X5.3543Y-2.0669
X5.3543Y-2.1358
X5.3543Y-3.0413
X5.3543Y-4.2028
X5.3622Y-4.3445
X5.376Y-2.4488
X5.3937Y-2.3701
X5.3937Y-4.1634
X5.3937Y-4.2421
X5.4114Y-2.5236
X5.4114Y-2.7047
X5.4134Y-2.8406
X5.4232Y-1.8307
X5.4232Y-1.8898
X5.4232Y-1.9488
X5.4232Y-2.0079
X5.4232Y-2.0669
X5.4232Y-2.1358
X5.4291Y-4.0059
X5.4331Y-2.3701
X5.4331Y-4.3366
X5.4409Y-4.374
X5.4488Y-2.4921
X5.4567Y-3.1516
X5.4587Y-3.9941
X5.4587Y-4.0413
X5.4646Y-2.7067
X5.4724Y-2.2756
X5.4724Y-2.3701
X5.4823Y-1.8307
X5.4823Y-1.8898
X5.4823Y-1.9488
X5.4823Y-2.0079
X5.4823Y-2.0669
X5.4823Y-2.1358
X5.4902Y-1.4764
X5.4902Y-1.5256
X5.498Y-2.5295
X5.498Y-2.5689
X5.5059Y-4.2382
X5.5118Y-1.2402
X5.5413Y-2.2736
X5.561Y-4.3799
X5.5886Y-4.6004
X5.6201Y-2.4902
X5.6201Y-4.3799
X5.6201Y-4.4193
X5.6496Y-2.6398
X5.6496Y-4.624
X5.6594Y-2.2717
X5.6693Y-3.5827
X5.6693Y-3.6319
X5.6693Y-4.5276
X5.6713Y-3.8287
X5.6713Y-3.878
X5.689Y-4.624
X5.6988Y-2.2717
X5.7185Y-4.3799
X5.7185Y-4.4193
X5.7362Y-4.1142
X5.7559Y-2.3898
X5.7894Y-3.8091
X5.8268Y-1.2402
X5.8563Y-3.4587
X5.8642Y-4.0354
X5.8661Y-2.8386
X5.8681Y-3.5925
X5.8819Y-3.8091
X5.8819Y-3.8583
X5.8957Y-1.6634
X5.8957Y-2.0157
X5.8957Y-2.3701
X5.8957Y-2.7244
X5.8957Y-3.4606
X5.9055Y-4.1654
X5.9469Y-3.9567
X5.9547Y-4.1654
X6.0138Y-1.6043
X6.0138Y-1.6831
X6.0138Y-1.9587
X6.0138Y-2.0374
X6.0138Y-2.313
X6.0138Y-2.3917
X6.0138Y-2.6673
X6.0138Y-2.7461
X6.0236Y-4.1083
X6.0433Y-1.6437
X6.0433Y-1.998
X6.0433Y-2.3524
X6.0433Y-2.7067
X6.061Y-3.622
X6.0709Y-3.9567
X6.0709Y-4.0059
X6.0728Y-1.6043
X6.0728Y-1.6831
X6.0728Y-1.9587
X6.0728Y-2.0374
X6.0728Y-2.313
X6.0728Y-2.3917
X6.0728Y-2.6673
X6.0728Y-2.7461
X6.1417Y-1.2402
X6.3091Y-3.435
X6.3484Y-3.1417
T2
X3.622Y-4.9213
X3.6614Y-4.8425
X3.6614Y-5.
X3.7402Y-4.8228
X3.7402Y-5.0394
X3.8189Y-4.8425
X3.8189Y-5.
X3.8583Y-4.9213
X3.622Y-1.378
X3.6614Y-1.2992
X3.6614Y-1.4567
X3.7402Y-1.2795
X3.7402Y-1.4961
X3.8189Y-1.2992
X3.8189Y-1.4567
X3.8583Y-1.378
X6.378Y-4.9213
X6.4173Y-4.8425
X6.4173Y-5.
X6.4961Y-4.8228
X6.4961Y-5.0394
X6.5748Y-4.8425
X6.5748Y-5.
X6.6142Y-4.9213
X6.378Y-1.378
X6.4173Y-1.2992
X6.4173Y-1.4567
X6.4961Y-1.2795
X6.4961Y-1.4961
X6.5748Y-1.2992
X6.5748Y-1.4567
X6.6142Y-1.378
T3
X3.9469Y-5.0591
X4.1831Y-5.0591
X4.311Y-1.9193
X4.4193Y-5.0591
X4.4961Y-4.2146
X4.5571Y-2.2835
X4.5965Y-2.7657
X4.6555Y-2.7657
X4.6555Y-5.0591
X4.685Y-2.6378
X4.7146Y-2.2835
X4.7244Y-2.7657
X4.8031Y-2.7657
X4.8327Y-1.5748
X4.8327Y-1.7323
X4.8425Y-2.6378
X4.8917Y-5.0591
X4.9134Y-2.7618
X4.9902Y-2.7618
X5.0098Y-1.7323
X5.0295Y-2.6378
X5.1201Y-2.7618
X5.128Y-5.0591
X5.187Y-2.7618
X5.2362Y-2.6378
X5.2953Y-1.5748
X5.3642Y-5.0591
X5.5512Y-1.7087
X5.6004Y-5.0591
X5.6673Y-1.5984
X5.6673Y-1.7087
X5.8366Y-5.0591
X5.8898Y-1.4094
X5.8898Y-1.7638
X5.8898Y-2.1181
X5.8898Y-2.4724
X5.9075Y-2.0531
X5.9075Y-2.4094
X5.9075Y-2.7618
X5.9094Y-1.6988
X6.0728Y-5.0591
X6.1496Y-1.4272
X6.1496Y-1.7815
X6.1496Y-2.1358
X6.1496Y-2.4902
X6.1772Y-1.6988
X6.1772Y-2.7638
X6.1791Y-2.0531
X6.1791Y-2.4075
X6.1811Y-4.2835
X6.1909Y-3.6634
X6.1909Y-4.0728
T4
X4.1339Y-4.1929
X4.1339Y-4.2929
X4.1339Y-4.3929
X4.1339Y-4.4929
X4.2339Y-4.2429
X4.2339Y-4.3429
X4.2339Y-4.4429
X4.2339Y-4.5429
T5
X6.5157Y-3.0898
X6.5157Y-3.1898
X6.5157Y-3.3358
X6.5157Y-3.4358
T6
X3.6181Y-2.2417
X3.6181Y-2.5417
X3.9197Y-2.2433
X3.9197Y-2.3433
X3.9197Y-2.4433
X3.9197Y-2.5433
X3.6181Y-2.6433
X3.6181Y-2.9433
X3.9197Y-2.6449
X3.9197Y-2.7449
X3.9197Y-2.8449
X3.9197Y-2.9449
X4.476Y-4.1437
X4.576Y-4.1437
X4.676Y-4.1437
X4.776Y-4.1437
X4.4488Y-1.565
X4.6457Y-1.565
X5.7185Y-3.1988
X5.8185Y-3.1988
X5.9185Y-3.1988
X6.0185Y-3.1988
X6.1185Y-3.1988
X6.2185Y-3.1988
X5.7185Y-3.0217
X5.8185Y-3.0217
X5.9185Y-3.0217
X6.0185Y-3.0217
T7
X6.378Y-1.8996
X6.378Y-2.0374
X4.5177Y-1.8898
X4.813Y-1.8898
X3.8583Y-1.7717
X3.8583Y-1.9094
X3.8583Y-3.376
X3.8583Y-3.5138
X3.8583Y-3.6516
X3.8583Y-3.7894
X6.378Y-2.6476
X6.378Y-2.7854
T8
X6.4961Y-3.8189
X6.4961Y-4.4488
T9
X6.3961Y-3.7189
X6.3961Y-3.9189
X6.5961Y-3.7189
X6.5961Y-3.9189
X6.3961Y-4.3488
X6.3961Y-4.5488
X6.5961Y-4.3488
X6.5961Y-4.5488
T10
X3.7402Y-4.9213
X3.7402Y-1.378
X6.4961Y-4.9213
X6.4961Y-1.378
T0
M30
