G04 #@! TF.GenerationSoftware,KiCad,Pcbnew,5.0.2-bee76a0~70~ubuntu18.04.1*
G04 #@! TF.CreationDate,2019-01-25T00:46:31-08:00*
G04 #@! TF.ProjectId,power,706f7765-722e-46b6-9963-61645f706362,rev?*
G04 #@! TF.SameCoordinates,Original*
G04 #@! TF.FileFunction,Copper,L1,Top*
G04 #@! TF.FilePolarity,Positive*
%FSLAX46Y46*%
G04 Gerber Fmt 4.6, Leading zero omitted, Abs format (unit mm)*
G04 Created by KiCad (PCBNEW 5.0.2-bee76a0~70~ubuntu18.04.1) date Fri 25 Jan 2019 12:46:31 AM PST*
%MOMM*%
%LPD*%
G01*
G04 APERTURE LIST*
G04 #@! TA.AperFunction,ComponentPad*
%ADD10R,2.500000X4.500000*%
G04 #@! TD*
G04 #@! TA.AperFunction,ComponentPad*
%ADD11O,2.500000X4.500000*%
G04 #@! TD*
G04 #@! TA.AperFunction,ComponentPad*
%ADD12C,3.000000*%
G04 #@! TD*
G04 #@! TA.AperFunction,ComponentPad*
%ADD13C,5.000000*%
G04 #@! TD*
G04 #@! TA.AperFunction,ComponentPad*
%ADD14C,2.300000*%
G04 #@! TD*
G04 #@! TA.AperFunction,ComponentPad*
%ADD15R,4.000000X4.000000*%
G04 #@! TD*
G04 #@! TA.AperFunction,ComponentPad*
%ADD16C,4.000000*%
G04 #@! TD*
G04 #@! TA.AperFunction,ComponentPad*
%ADD17C,2.500000*%
G04 #@! TD*
G04 #@! TA.AperFunction,ComponentPad*
%ADD18C,2.400000*%
G04 #@! TD*
G04 #@! TA.AperFunction,ComponentPad*
%ADD19C,2.600000*%
G04 #@! TD*
G04 #@! TA.AperFunction,ComponentPad*
%ADD20C,2.000000*%
G04 #@! TD*
G04 #@! TA.AperFunction,WasherPad*
%ADD21C,3.500000*%
G04 #@! TD*
G04 #@! TA.AperFunction,Conductor*
%ADD22C,2.400000*%
G04 #@! TD*
G04 #@! TA.AperFunction,Conductor*
%ADD23C,0.480000*%
G04 #@! TD*
G04 APERTURE END LIST*
D10*
G04 #@! TO.P,D1001,1*
G04 #@! TO.N,/VOUT+*
X144550000Y-68000000D03*
D11*
G04 #@! TO.P,D1001,2*
G04 #@! TO.N,/DOUBLER_IN*
X150000000Y-68000000D03*
G04 #@! TO.P,D1001,3*
G04 #@! TO.N,/VOUT-*
X155450000Y-68000000D03*
G04 #@! TD*
D12*
G04 #@! TO.P,F1001,1*
G04 #@! TO.N,Net-(F1001-Pad1)*
X110000000Y-134000000D03*
G04 #@! TO.P,F1001,2*
G04 #@! TO.N,/L*
X110000000Y-111500000D03*
G04 #@! TD*
D13*
G04 #@! TO.P,HS1001,1*
G04 #@! TO.N,/G*
X137300000Y-65000000D03*
X162700000Y-65000000D03*
G04 #@! TD*
D14*
G04 #@! TO.P,K1001,1*
G04 #@! TO.N,/RELAY1_A*
X146250000Y-145500000D03*
G04 #@! TO.P,K1001,8*
G04 #@! TO.N,/RELAY1_B*
X153750000Y-145500000D03*
G04 #@! TO.P,K1001,6*
G04 #@! TO.N,/DISCHARGE*
X153750000Y-125500000D03*
G04 #@! TO.P,K1001,3*
G04 #@! TO.N,/PRECHARGE_IN*
X146250000Y-125500000D03*
G04 #@! TO.P,K1001,4*
G04 #@! TO.N,/L'*
X146250000Y-120500000D03*
G04 #@! TO.P,K1001,5*
G04 #@! TO.N,Net-(K1001-Pad5)*
X153750000Y-120500000D03*
G04 #@! TO.P,K1001,2*
G04 #@! TO.N,Net-(K1001-Pad2)*
X146250000Y-130500000D03*
G04 #@! TO.P,K1001,7*
G04 #@! TO.N,/VOUT+*
X153750000Y-130500000D03*
G04 #@! TD*
G04 #@! TO.P,K1002,7*
G04 #@! TO.N,Net-(K1002-Pad7)*
X177500000Y-130500000D03*
G04 #@! TO.P,K1002,2*
G04 #@! TO.N,/PRECHARGE*
X170000000Y-130500000D03*
G04 #@! TO.P,K1002,5*
G04 #@! TO.N,Net-(K1002-Pad5)*
X177500000Y-120500000D03*
G04 #@! TO.P,K1002,4*
G04 #@! TO.N,/DOUBLER_IN*
X170000000Y-120500000D03*
G04 #@! TO.P,K1002,3*
G04 #@! TO.N,/PRECHARGE_IN*
X170000000Y-125500000D03*
G04 #@! TO.P,K1002,6*
G04 #@! TO.N,Net-(K1002-Pad6)*
X177500000Y-125500000D03*
G04 #@! TO.P,K1002,8*
G04 #@! TO.N,/RELAY2_B*
X177500000Y-145500000D03*
G04 #@! TO.P,K1002,1*
G04 #@! TO.N,/RELAY2_A*
X170000000Y-145500000D03*
G04 #@! TD*
D15*
G04 #@! TO.P,C1001,1*
G04 #@! TO.N,/VOUT+*
X114000000Y-64000000D03*
D16*
G04 #@! TO.P,C1001,2*
G04 #@! TO.N,/N'*
X114000000Y-74000000D03*
G04 #@! TD*
G04 #@! TO.P,C1002,2*
G04 #@! TO.N,/VOUT-*
X186000000Y-74000000D03*
D15*
G04 #@! TO.P,C1002,1*
G04 #@! TO.N,/N'*
X186000000Y-64000000D03*
G04 #@! TD*
D17*
G04 #@! TO.P,FL1001,1*
G04 #@! TO.N,Net-(F1001-Pad1)*
X122000000Y-115500000D03*
G04 #@! TO.P,FL1001,2*
G04 #@! TO.N,/L'*
X134000000Y-115500000D03*
G04 #@! TO.P,FL1001,3*
G04 #@! TO.N,/N*
X122000000Y-105500000D03*
G04 #@! TO.P,FL1001,4*
G04 #@! TO.N,/N'*
X134000000Y-105500000D03*
G04 #@! TD*
D18*
G04 #@! TO.P,C1003,1*
G04 #@! TO.N,/VOUT+*
X177750000Y-101000000D03*
G04 #@! TO.P,C1003,2*
G04 #@! TO.N,/G*
X162750000Y-101000000D03*
G04 #@! TD*
G04 #@! TO.P,C1004,2*
G04 #@! TO.N,/VOUT-*
X177750000Y-110000000D03*
G04 #@! TO.P,C1004,1*
G04 #@! TO.N,/G*
X162750000Y-110000000D03*
G04 #@! TD*
D17*
G04 #@! TO.P,R1001,1*
G04 #@! TO.N,/VOUT-*
X174500000Y-79000000D03*
G04 #@! TO.P,R1001,2*
G04 #@! TO.N,/DISCHARGE*
X124500000Y-79000000D03*
G04 #@! TD*
G04 #@! TO.P,R1002,2*
G04 #@! TO.N,/PRECHARGE*
X124500000Y-94000000D03*
G04 #@! TO.P,R1002,1*
G04 #@! TO.N,/DOUBLER_IN*
X174500000Y-94000000D03*
G04 #@! TD*
D19*
G04 #@! TO.P,J1001,1*
G04 #@! TO.N,/G*
X110000000Y-105000000D03*
G04 #@! TO.P,J1001,3*
G04 #@! TO.N,/L*
X110000000Y-95000000D03*
G04 #@! TO.P,J1001,2*
G04 #@! TO.N,/N*
X110000000Y-100000000D03*
G04 #@! TD*
D20*
G04 #@! TO.P,J1002,4*
G04 #@! TO.N,/RELAY2_B*
X192000000Y-134250000D03*
G04 #@! TO.P,J1002,3*
G04 #@! TO.N,/RELAY2_A*
X192000000Y-130750000D03*
G04 #@! TO.P,J1002,2*
G04 #@! TO.N,/RELAY1_B*
X192000000Y-127250000D03*
G04 #@! TO.P,J1002,1*
G04 #@! TO.N,/RELAY1_A*
X192000000Y-123750000D03*
G04 #@! TD*
D19*
G04 #@! TO.P,J1003,2*
G04 #@! TO.N,/VOUT-*
X190000000Y-100000000D03*
G04 #@! TO.P,J1003,3*
G04 #@! TO.N,/G*
X190000000Y-105000000D03*
G04 #@! TO.P,J1003,1*
G04 #@! TO.N,/VOUT+*
X190000000Y-95000000D03*
G04 #@! TD*
D21*
G04 #@! TO.P,J1004,*
G04 #@! TO.N,*
X196000000Y-146000000D03*
G04 #@! TD*
G04 #@! TO.P,J1005,*
G04 #@! TO.N,*
X104000000Y-146000000D03*
G04 #@! TD*
G04 #@! TO.P,J1006,*
G04 #@! TO.N,*
X196000000Y-54000000D03*
G04 #@! TD*
G04 #@! TO.P,J1007,*
G04 #@! TO.N,*
X104000000Y-54000000D03*
G04 #@! TD*
D18*
G04 #@! TO.P,C1005,1*
G04 #@! TO.N,/L'*
X143000000Y-110000000D03*
G04 #@! TO.P,C1005,2*
G04 #@! TO.N,/G*
X158000000Y-110000000D03*
G04 #@! TD*
G04 #@! TO.P,C1006,2*
G04 #@! TO.N,/N'*
X143000000Y-101000000D03*
G04 #@! TO.P,C1006,1*
G04 #@! TO.N,/G*
X158000000Y-101000000D03*
G04 #@! TD*
D22*
G04 #@! TO.N,/VOUT+*
X172000000Y-101000000D02*
X177750000Y-101000000D01*
X168250000Y-112250000D02*
X168250000Y-104750000D01*
X156500000Y-130500000D02*
X159000000Y-128000000D01*
X153750000Y-130500000D02*
X156500000Y-130500000D01*
X159000000Y-128000000D02*
X159000000Y-119000000D01*
X159000000Y-119000000D02*
X163250000Y-114750000D01*
X165750000Y-114750000D02*
X168250000Y-112250000D01*
X163250000Y-114750000D02*
X165750000Y-114750000D01*
X144550000Y-68000000D02*
X144550000Y-73550000D01*
X122000000Y-64000000D02*
X114000000Y-64000000D01*
X144550000Y-73550000D02*
X131550000Y-73550000D01*
X131550000Y-73550000D02*
X122000000Y-64000000D01*
X144550000Y-73550000D02*
X168250000Y-97250000D01*
X172000000Y-101000000D02*
X168250000Y-101000000D01*
X168250000Y-104750000D02*
X168250000Y-101000000D01*
X168250000Y-101000000D02*
X168250000Y-97250000D01*
G04 #@! TO.N,/DOUBLER_IN*
X173000000Y-94000000D02*
X174500000Y-94000000D01*
X150000000Y-68000000D02*
X150000000Y-71000000D01*
X150000000Y-71000000D02*
X173000000Y-94000000D01*
X174500000Y-94000000D02*
X180750000Y-94000000D01*
X180750000Y-94000000D02*
X183500000Y-96750000D01*
X183500000Y-96750000D02*
X183500000Y-113000000D01*
X183500000Y-113000000D02*
X181000000Y-115500000D01*
X181000000Y-115500000D02*
X173000000Y-115500000D01*
X170000000Y-118500000D02*
X170000000Y-120500000D01*
X173000000Y-115500000D02*
X170000000Y-118500000D01*
G04 #@! TO.N,/VOUT-*
X155450000Y-68000000D02*
X155450000Y-69200000D01*
X165250000Y-79000000D02*
X174500000Y-79000000D01*
X155450000Y-69200000D02*
X165250000Y-79000000D01*
X179500000Y-74000000D02*
X174500000Y-79000000D01*
X186000000Y-74000000D02*
X179500000Y-74000000D01*
G04 #@! TO.N,/G*
X158000000Y-101000000D02*
X162750000Y-101000000D01*
X158000000Y-101000000D02*
X158000000Y-110000000D01*
X162750000Y-110000000D02*
X158000000Y-110000000D01*
G04 #@! TO.N,/L'*
X137500000Y-115500000D02*
X134000000Y-115500000D01*
X146250000Y-120500000D02*
X142500000Y-120500000D01*
X143000000Y-110000000D02*
X143000000Y-114750000D01*
X143000000Y-114750000D02*
X140500000Y-117250000D01*
X142500000Y-120500000D02*
X139250000Y-117250000D01*
X140500000Y-117250000D02*
X139250000Y-117250000D01*
X139250000Y-117250000D02*
X137500000Y-115500000D01*
G04 #@! TO.N,/N'*
X138500000Y-101000000D02*
X143000000Y-101000000D01*
X128000000Y-86000000D02*
X134000000Y-92000000D01*
X116500000Y-86000000D02*
X128000000Y-86000000D01*
X114000000Y-83500000D02*
X116500000Y-86000000D01*
X138500000Y-101000000D02*
X134000000Y-101000000D01*
X134000000Y-92000000D02*
X134000000Y-101000000D01*
X134000000Y-101000000D02*
X134000000Y-105500000D01*
X114000000Y-83500000D02*
X114000000Y-74000000D01*
D23*
G04 #@! TO.N,/RELAY1_A*
X148250000Y-143500000D02*
X146250000Y-145500000D01*
X164000000Y-143500000D02*
X148250000Y-143500000D01*
X192000000Y-123750000D02*
X175750000Y-140000000D01*
X167500000Y-140000000D02*
X164000000Y-143500000D01*
X175750000Y-140000000D02*
X167500000Y-140000000D01*
G04 #@! TO.N,/RELAY1_B*
X159000000Y-145500000D02*
X153750000Y-145500000D01*
X192000000Y-127250000D02*
X177500000Y-141750000D01*
X177500000Y-141750000D02*
X168500000Y-141750000D01*
X164750000Y-145500000D02*
X159000000Y-145500000D01*
X168500000Y-141750000D02*
X164750000Y-145500000D01*
D22*
G04 #@! TO.N,/DISCHARGE*
X139500000Y-79000000D02*
X124500000Y-79000000D01*
X151750000Y-125500000D02*
X150500000Y-124250000D01*
X153750000Y-125500000D02*
X151750000Y-125500000D01*
X148000000Y-115000000D02*
X148000000Y-87500000D01*
X150500000Y-124250000D02*
X150500000Y-117500000D01*
X150500000Y-117500000D02*
X148000000Y-115000000D01*
X148000000Y-87500000D02*
X139500000Y-79000000D01*
G04 #@! TO.N,/PRECHARGE*
X124500000Y-94000000D02*
X128000000Y-97500000D01*
X128000000Y-97500000D02*
X128000000Y-124000000D01*
X128000000Y-124000000D02*
X139250000Y-135250000D01*
X139250000Y-135250000D02*
X160000000Y-135250000D01*
X164750000Y-130500000D02*
X170000000Y-130500000D01*
X160000000Y-135250000D02*
X164750000Y-130500000D01*
D23*
G04 #@! TO.N,/RELAY2_B*
X192000000Y-134250000D02*
X180750000Y-145500000D01*
X180750000Y-145500000D02*
X177500000Y-145500000D01*
G04 #@! TO.N,/RELAY2_A*
X172250000Y-143250000D02*
X170000000Y-145500000D01*
X192000000Y-130750000D02*
X179500000Y-143250000D01*
X179500000Y-143250000D02*
X172250000Y-143250000D01*
G04 #@! TD*
M02*
