M48
;DRILL file {KiCad 5.0.2-bee76a0~70~ubuntu18.04.1} date Fri 25 Jan 2019 12:46:33 AM PST
;FORMAT={-:-/ absolute / inch / decimal}
FMAT,2
INCH,TZ
T1C0.0472
T2C0.0512
T3C0.0551
T4C0.0591
T5C0.0787
T6C0.0906
%
G90
G05
T1
X6.4075Y-3.9764
X6.998Y-3.9764
X5.6299Y-4.3307
X6.2205Y-4.3307
X7.5591Y-4.872
X7.5591Y-5.0098
X7.5591Y-5.1476
X7.5591Y-5.2854
X5.6299Y-3.9764
X6.2205Y-3.9764
X6.4075Y-4.3307
X6.998Y-4.3307
T2
X5.7579Y-4.7441
X5.7579Y-4.9409
X5.7579Y-5.1378
X5.7579Y-5.7283
X6.0531Y-4.7441
X6.0531Y-4.9409
X6.0531Y-5.1378
X6.0531Y-5.7283
X6.6929Y-4.7441
X6.6929Y-4.9409
X6.6929Y-5.1378
X6.6929Y-5.7283
X6.9882Y-4.7441
X6.9882Y-4.9409
X6.9882Y-5.1378
X6.9882Y-5.7283
X4.9016Y-3.1102
X6.8701Y-3.1102
X4.3307Y-4.3898
X4.3307Y-5.2756
X4.8031Y-4.1535
X4.8031Y-4.5472
X5.2756Y-4.1535
X5.2756Y-4.5472
X4.9016Y-3.7008
X6.8701Y-3.7008
T3
X4.3307Y-3.7402
X4.3307Y-3.937
X4.3307Y-4.1339
X7.4803Y-3.7402
X7.4803Y-3.937
X7.4803Y-4.1339
T4
X5.6909Y-2.6772
X5.9055Y-2.6772
X6.1201Y-2.6772
T5
X7.3228Y-2.5197
X7.3228Y-2.9134
X4.4882Y-2.5197
X4.4882Y-2.9134
T6
X5.4055Y-2.5591
X6.4055Y-2.5591
T0
M30
